<?xml version="1.0" encoding="utf-8" standalone="no"?>
<!DOCTYPE svg PUBLIC "-//W3C//DTD SVG 1.1//EN"
  "http://www.w3.org/Graphics/SVG/1.1/DTD/svg11.dtd">
<svg xmlns:xlink="http://www.w3.org/1999/xlink" width="635.939842pt" height="362.96557pt" viewBox="0 0 635.939842 362.96557" xmlns="http://www.w3.org/2000/svg" version="1.1">
 <metadata>
  <rdf:RDF xmlns:dc="http://purl.org/dc/elements/1.1/" xmlns:cc="http://creativecommons.org/ns#" xmlns:rdf="http://www.w3.org/1999/02/22-rdf-syntax-ns#">
   <cc:Work>
    <dc:type rdf:resource="http://purl.org/dc/dcmitype/StillImage"/>
    <dc:date>2025-09-13T15:31:26.106269</dc:date>
    <dc:format>image/svg+xml</dc:format>
    <dc:creator>
     <cc:Agent>
      <dc:title>Matplotlib v3.10.0, https://matplotlib.org/</dc:title>
     </cc:Agent>
    </dc:creator>
   </cc:Work>
  </rdf:RDF>
 </metadata>
 <defs>
  <style type="text/css">*{stroke-linejoin: round; stroke-linecap: butt}</style>
 </defs>
 <g id="figure_1">
  <g id="patch_1">
   <path d="M 0 362.96557 
L 635.939842 362.96557 
L 635.939842 0 
L 0 0 
z
" style="fill: #ffffff"/>
  </g>
  <g id="axes_1">
   <g id="patch_2">
    <path d="M 54.662648 322.149469 
L 486.099648 322.149469 
L 486.099648 21.505969 
L 54.662648 21.505969 
z
" style="fill: #ffffff"/>
   </g>
   <g id="matplotlib.axis_1">
    <g id="xtick_1">
     <g id="line2d_1">
      <path d="M 62.959514 322.149469 
L 62.959514 21.505969 
" clip-path="url(#p812caa7450)" style="fill: none; stroke: #cccccc; stroke-linecap: round"/>
     </g>
     <g id="text_1">
      <!-- 0.10 -->
      <g style="fill: #262626" transform="translate(52.791174 339.129383) scale(0.1045 -0.1045)">
       <defs>
        <path id="ArialMT-30" d="M 266 2259 
Q 266 3072 433 3567 
Q 600 4063 929 4331 
Q 1259 4600 1759 4600 
Q 2128 4600 2406 4451 
Q 2684 4303 2865 4023 
Q 3047 3744 3150 3342 
Q 3253 2941 3253 2259 
Q 3253 1453 3087 958 
Q 2922 463 2592 192 
Q 2263 -78 1759 -78 
Q 1097 -78 719 397 
Q 266 969 266 2259 
z
M 844 2259 
Q 844 1131 1108 757 
Q 1372 384 1759 384 
Q 2147 384 2411 759 
Q 2675 1134 2675 2259 
Q 2675 3391 2411 3762 
Q 2147 4134 1753 4134 
Q 1366 4134 1134 3806 
Q 844 3388 844 2259 
z
" transform="scale(0.015625)"/>
        <path id="ArialMT-2e" d="M 581 0 
L 581 641 
L 1222 641 
L 1222 0 
L 581 0 
z
" transform="scale(0.015625)"/>
        <path id="ArialMT-31" d="M 2384 0 
L 1822 0 
L 1822 3584 
Q 1619 3391 1289 3197 
Q 959 3003 697 2906 
L 697 3450 
Q 1169 3672 1522 3987 
Q 1875 4303 2022 4600 
L 2384 4600 
L 2384 0 
z
" transform="scale(0.015625)"/>
       </defs>
       <use xlink:href="#ArialMT-30"/>
       <use xlink:href="#ArialMT-2e" transform="translate(55.615234 0)"/>
       <use xlink:href="#ArialMT-31" transform="translate(83.398438 0)"/>
       <use xlink:href="#ArialMT-30" transform="translate(139.013672 0)"/>
      </g>
     </g>
    </g>
    <g id="xtick_2">
     <g id="line2d_2">
      <path d="M 114.814922 322.149469 
L 114.814922 21.505969 
" clip-path="url(#p812caa7450)" style="fill: none; stroke: #cccccc; stroke-linecap: round"/>
     </g>
     <g id="text_2">
      <!-- 0.15 -->
      <g style="fill: #262626" transform="translate(104.646583 339.129383) scale(0.1045 -0.1045)">
       <defs>
        <path id="ArialMT-35" d="M 266 1200 
L 856 1250 
Q 922 819 1161 601 
Q 1400 384 1738 384 
Q 2144 384 2425 690 
Q 2706 997 2706 1503 
Q 2706 1984 2436 2262 
Q 2166 2541 1728 2541 
Q 1456 2541 1237 2417 
Q 1019 2294 894 2097 
L 366 2166 
L 809 4519 
L 3088 4519 
L 3088 3981 
L 1259 3981 
L 1013 2750 
Q 1425 3038 1878 3038 
Q 2478 3038 2890 2622 
Q 3303 2206 3303 1553 
Q 3303 931 2941 478 
Q 2500 -78 1738 -78 
Q 1113 -78 717 272 
Q 322 622 266 1200 
z
" transform="scale(0.015625)"/>
       </defs>
       <use xlink:href="#ArialMT-30"/>
       <use xlink:href="#ArialMT-2e" transform="translate(55.615234 0)"/>
       <use xlink:href="#ArialMT-31" transform="translate(83.398438 0)"/>
       <use xlink:href="#ArialMT-35" transform="translate(139.013672 0)"/>
      </g>
     </g>
    </g>
    <g id="xtick_3">
     <g id="line2d_3">
      <path d="M 166.670331 322.149469 
L 166.670331 21.505969 
" clip-path="url(#p812caa7450)" style="fill: none; stroke: #cccccc; stroke-linecap: round"/>
     </g>
     <g id="text_3">
      <!-- 0.20 -->
      <g style="fill: #262626" transform="translate(156.501991 339.129383) scale(0.1045 -0.1045)">
       <defs>
        <path id="ArialMT-32" d="M 3222 541 
L 3222 0 
L 194 0 
Q 188 203 259 391 
Q 375 700 629 1000 
Q 884 1300 1366 1694 
Q 2113 2306 2375 2664 
Q 2638 3022 2638 3341 
Q 2638 3675 2398 3904 
Q 2159 4134 1775 4134 
Q 1369 4134 1125 3890 
Q 881 3647 878 3216 
L 300 3275 
Q 359 3922 746 4261 
Q 1134 4600 1788 4600 
Q 2447 4600 2831 4234 
Q 3216 3869 3216 3328 
Q 3216 3053 3103 2787 
Q 2991 2522 2730 2228 
Q 2469 1934 1863 1422 
Q 1356 997 1212 845 
Q 1069 694 975 541 
L 3222 541 
z
" transform="scale(0.015625)"/>
       </defs>
       <use xlink:href="#ArialMT-30"/>
       <use xlink:href="#ArialMT-2e" transform="translate(55.615234 0)"/>
       <use xlink:href="#ArialMT-32" transform="translate(83.398438 0)"/>
       <use xlink:href="#ArialMT-30" transform="translate(139.013672 0)"/>
      </g>
     </g>
    </g>
    <g id="xtick_4">
     <g id="line2d_4">
      <path d="M 218.52574 322.149469 
L 218.52574 21.505969 
" clip-path="url(#p812caa7450)" style="fill: none; stroke: #cccccc; stroke-linecap: round"/>
     </g>
     <g id="text_4">
      <!-- 0.25 -->
      <g style="fill: #262626" transform="translate(208.3574 339.129383) scale(0.1045 -0.1045)">
       <use xlink:href="#ArialMT-30"/>
       <use xlink:href="#ArialMT-2e" transform="translate(55.615234 0)"/>
       <use xlink:href="#ArialMT-32" transform="translate(83.398438 0)"/>
       <use xlink:href="#ArialMT-35" transform="translate(139.013672 0)"/>
      </g>
     </g>
    </g>
    <g id="xtick_5">
     <g id="line2d_5">
      <path d="M 270.381148 322.149469 
L 270.381148 21.505969 
" clip-path="url(#p812caa7450)" style="fill: none; stroke: #cccccc; stroke-linecap: round"/>
     </g>
     <g id="text_5">
      <!-- 0.30 -->
      <g style="fill: #262626" transform="translate(260.212809 339.129383) scale(0.1045 -0.1045)">
       <defs>
        <path id="ArialMT-33" d="M 269 1209 
L 831 1284 
Q 928 806 1161 595 
Q 1394 384 1728 384 
Q 2125 384 2398 659 
Q 2672 934 2672 1341 
Q 2672 1728 2419 1979 
Q 2166 2231 1775 2231 
Q 1616 2231 1378 2169 
L 1441 2663 
Q 1497 2656 1531 2656 
Q 1891 2656 2178 2843 
Q 2466 3031 2466 3422 
Q 2466 3731 2256 3934 
Q 2047 4138 1716 4138 
Q 1388 4138 1169 3931 
Q 950 3725 888 3313 
L 325 3413 
Q 428 3978 793 4289 
Q 1159 4600 1703 4600 
Q 2078 4600 2393 4439 
Q 2709 4278 2876 4000 
Q 3044 3722 3044 3409 
Q 3044 3113 2884 2869 
Q 2725 2625 2413 2481 
Q 2819 2388 3044 2092 
Q 3269 1797 3269 1353 
Q 3269 753 2831 336 
Q 2394 -81 1725 -81 
Q 1122 -81 723 278 
Q 325 638 269 1209 
z
" transform="scale(0.015625)"/>
       </defs>
       <use xlink:href="#ArialMT-30"/>
       <use xlink:href="#ArialMT-2e" transform="translate(55.615234 0)"/>
       <use xlink:href="#ArialMT-33" transform="translate(83.398438 0)"/>
       <use xlink:href="#ArialMT-30" transform="translate(139.013672 0)"/>
      </g>
     </g>
    </g>
    <g id="xtick_6">
     <g id="line2d_6">
      <path d="M 322.236557 322.149469 
L 322.236557 21.505969 
" clip-path="url(#p812caa7450)" style="fill: none; stroke: #cccccc; stroke-linecap: round"/>
     </g>
     <g id="text_6">
      <!-- 0.35 -->
      <g style="fill: #262626" transform="translate(312.068217 339.129383) scale(0.1045 -0.1045)">
       <use xlink:href="#ArialMT-30"/>
       <use xlink:href="#ArialMT-2e" transform="translate(55.615234 0)"/>
       <use xlink:href="#ArialMT-33" transform="translate(83.398438 0)"/>
       <use xlink:href="#ArialMT-35" transform="translate(139.013672 0)"/>
      </g>
     </g>
    </g>
    <g id="xtick_7">
     <g id="line2d_7">
      <path d="M 374.091966 322.149469 
L 374.091966 21.505969 
" clip-path="url(#p812caa7450)" style="fill: none; stroke: #cccccc; stroke-linecap: round"/>
     </g>
     <g id="text_7">
      <!-- 0.40 -->
      <g style="fill: #262626" transform="translate(363.923626 339.129383) scale(0.1045 -0.1045)">
       <defs>
        <path id="ArialMT-34" d="M 2069 0 
L 2069 1097 
L 81 1097 
L 81 1613 
L 2172 4581 
L 2631 4581 
L 2631 1613 
L 3250 1613 
L 3250 1097 
L 2631 1097 
L 2631 0 
L 2069 0 
z
M 2069 1613 
L 2069 3678 
L 634 1613 
L 2069 1613 
z
" transform="scale(0.015625)"/>
       </defs>
       <use xlink:href="#ArialMT-30"/>
       <use xlink:href="#ArialMT-2e" transform="translate(55.615234 0)"/>
       <use xlink:href="#ArialMT-34" transform="translate(83.398438 0)"/>
       <use xlink:href="#ArialMT-30" transform="translate(139.013672 0)"/>
      </g>
     </g>
    </g>
    <g id="xtick_8">
     <g id="line2d_8">
      <path d="M 425.947374 322.149469 
L 425.947374 21.505969 
" clip-path="url(#p812caa7450)" style="fill: none; stroke: #cccccc; stroke-linecap: round"/>
     </g>
     <g id="text_8">
      <!-- 0.45 -->
      <g style="fill: #262626" transform="translate(415.779035 339.129383) scale(0.1045 -0.1045)">
       <use xlink:href="#ArialMT-30"/>
       <use xlink:href="#ArialMT-2e" transform="translate(55.615234 0)"/>
       <use xlink:href="#ArialMT-34" transform="translate(83.398438 0)"/>
       <use xlink:href="#ArialMT-35" transform="translate(139.013672 0)"/>
      </g>
     </g>
    </g>
    <g id="xtick_9">
     <g id="line2d_9">
      <path d="M 477.802783 322.149469 
L 477.802783 21.505969 
" clip-path="url(#p812caa7450)" style="fill: none; stroke: #cccccc; stroke-linecap: round"/>
     </g>
     <g id="text_9">
      <!-- 0.50 -->
      <g style="fill: #262626" transform="translate(467.634443 339.129383) scale(0.1045 -0.1045)">
       <use xlink:href="#ArialMT-30"/>
       <use xlink:href="#ArialMT-2e" transform="translate(55.615234 0)"/>
       <use xlink:href="#ArialMT-35" transform="translate(83.398438 0)"/>
       <use xlink:href="#ArialMT-30" transform="translate(139.013672 0)"/>
      </g>
     </g>
    </g>
    <g id="text_10">
     <!-- Missingness Proportion -->
     <g style="fill: #262626" transform="translate(211.141227 353.366227) scale(0.114 -0.114)">
      <defs>
       <path id="ArialMT-4d" d="M 475 0 
L 475 4581 
L 1388 4581 
L 2472 1338 
Q 2622 884 2691 659 
Q 2769 909 2934 1394 
L 4031 4581 
L 4847 4581 
L 4847 0 
L 4263 0 
L 4263 3834 
L 2931 0 
L 2384 0 
L 1059 3900 
L 1059 0 
L 475 0 
z
" transform="scale(0.015625)"/>
       <path id="ArialMT-69" d="M 425 3934 
L 425 4581 
L 988 4581 
L 988 3934 
L 425 3934 
z
M 425 0 
L 425 3319 
L 988 3319 
L 988 0 
L 425 0 
z
" transform="scale(0.015625)"/>
       <path id="ArialMT-73" d="M 197 991 
L 753 1078 
Q 800 744 1014 566 
Q 1228 388 1613 388 
Q 2000 388 2187 545 
Q 2375 703 2375 916 
Q 2375 1106 2209 1216 
Q 2094 1291 1634 1406 
Q 1016 1563 777 1677 
Q 538 1791 414 1992 
Q 291 2194 291 2438 
Q 291 2659 392 2848 
Q 494 3038 669 3163 
Q 800 3259 1026 3326 
Q 1253 3394 1513 3394 
Q 1903 3394 2198 3281 
Q 2494 3169 2634 2976 
Q 2775 2784 2828 2463 
L 2278 2388 
Q 2241 2644 2061 2787 
Q 1881 2931 1553 2931 
Q 1166 2931 1000 2803 
Q 834 2675 834 2503 
Q 834 2394 903 2306 
Q 972 2216 1119 2156 
Q 1203 2125 1616 2013 
Q 2213 1853 2448 1751 
Q 2684 1650 2818 1456 
Q 2953 1263 2953 975 
Q 2953 694 2789 445 
Q 2625 197 2315 61 
Q 2006 -75 1616 -75 
Q 969 -75 630 194 
Q 291 463 197 991 
z
" transform="scale(0.015625)"/>
       <path id="ArialMT-6e" d="M 422 0 
L 422 3319 
L 928 3319 
L 928 2847 
Q 1294 3394 1984 3394 
Q 2284 3394 2536 3286 
Q 2788 3178 2913 3003 
Q 3038 2828 3088 2588 
Q 3119 2431 3119 2041 
L 3119 0 
L 2556 0 
L 2556 2019 
Q 2556 2363 2490 2533 
Q 2425 2703 2258 2804 
Q 2091 2906 1866 2906 
Q 1506 2906 1245 2678 
Q 984 2450 984 1813 
L 984 0 
L 422 0 
z
" transform="scale(0.015625)"/>
       <path id="ArialMT-67" d="M 319 -275 
L 866 -356 
Q 900 -609 1056 -725 
Q 1266 -881 1628 -881 
Q 2019 -881 2231 -725 
Q 2444 -569 2519 -288 
Q 2563 -116 2559 434 
Q 2191 0 1641 0 
Q 956 0 581 494 
Q 206 988 206 1678 
Q 206 2153 378 2554 
Q 550 2956 876 3175 
Q 1203 3394 1644 3394 
Q 2231 3394 2613 2919 
L 2613 3319 
L 3131 3319 
L 3131 450 
Q 3131 -325 2973 -648 
Q 2816 -972 2473 -1159 
Q 2131 -1347 1631 -1347 
Q 1038 -1347 672 -1080 
Q 306 -813 319 -275 
z
M 784 1719 
Q 784 1066 1043 766 
Q 1303 466 1694 466 
Q 2081 466 2343 764 
Q 2606 1063 2606 1700 
Q 2606 2309 2336 2618 
Q 2066 2928 1684 2928 
Q 1309 2928 1046 2623 
Q 784 2319 784 1719 
z
" transform="scale(0.015625)"/>
       <path id="ArialMT-65" d="M 2694 1069 
L 3275 997 
Q 3138 488 2766 206 
Q 2394 -75 1816 -75 
Q 1088 -75 661 373 
Q 234 822 234 1631 
Q 234 2469 665 2931 
Q 1097 3394 1784 3394 
Q 2450 3394 2872 2941 
Q 3294 2488 3294 1666 
Q 3294 1616 3291 1516 
L 816 1516 
Q 847 969 1125 678 
Q 1403 388 1819 388 
Q 2128 388 2347 550 
Q 2566 713 2694 1069 
z
M 847 1978 
L 2700 1978 
Q 2663 2397 2488 2606 
Q 2219 2931 1791 2931 
Q 1403 2931 1139 2672 
Q 875 2413 847 1978 
z
" transform="scale(0.015625)"/>
       <path id="ArialMT-20" transform="scale(0.015625)"/>
       <path id="ArialMT-50" d="M 494 0 
L 494 4581 
L 2222 4581 
Q 2678 4581 2919 4538 
Q 3256 4481 3484 4323 
Q 3713 4166 3852 3881 
Q 3991 3597 3991 3256 
Q 3991 2672 3619 2267 
Q 3247 1863 2275 1863 
L 1100 1863 
L 1100 0 
L 494 0 
z
M 1100 2403 
L 2284 2403 
Q 2872 2403 3119 2622 
Q 3366 2841 3366 3238 
Q 3366 3525 3220 3729 
Q 3075 3934 2838 4000 
Q 2684 4041 2272 4041 
L 1100 4041 
L 1100 2403 
z
" transform="scale(0.015625)"/>
       <path id="ArialMT-72" d="M 416 0 
L 416 3319 
L 922 3319 
L 922 2816 
Q 1116 3169 1280 3281 
Q 1444 3394 1641 3394 
Q 1925 3394 2219 3213 
L 2025 2691 
Q 1819 2813 1613 2813 
Q 1428 2813 1281 2702 
Q 1134 2591 1072 2394 
Q 978 2094 978 1738 
L 978 0 
L 416 0 
z
" transform="scale(0.015625)"/>
       <path id="ArialMT-6f" d="M 213 1659 
Q 213 2581 725 3025 
Q 1153 3394 1769 3394 
Q 2453 3394 2887 2945 
Q 3322 2497 3322 1706 
Q 3322 1066 3130 698 
Q 2938 331 2570 128 
Q 2203 -75 1769 -75 
Q 1072 -75 642 372 
Q 213 819 213 1659 
z
M 791 1659 
Q 791 1022 1069 705 
Q 1347 388 1769 388 
Q 2188 388 2466 706 
Q 2744 1025 2744 1678 
Q 2744 2294 2464 2611 
Q 2184 2928 1769 2928 
Q 1347 2928 1069 2612 
Q 791 2297 791 1659 
z
" transform="scale(0.015625)"/>
       <path id="ArialMT-70" d="M 422 -1272 
L 422 3319 
L 934 3319 
L 934 2888 
Q 1116 3141 1344 3267 
Q 1572 3394 1897 3394 
Q 2322 3394 2647 3175 
Q 2972 2956 3137 2557 
Q 3303 2159 3303 1684 
Q 3303 1175 3120 767 
Q 2938 359 2589 142 
Q 2241 -75 1856 -75 
Q 1575 -75 1351 44 
Q 1128 163 984 344 
L 984 -1272 
L 422 -1272 
z
M 931 1641 
Q 931 1000 1190 694 
Q 1450 388 1819 388 
Q 2194 388 2461 705 
Q 2728 1022 2728 1688 
Q 2728 2322 2467 2637 
Q 2206 2953 1844 2953 
Q 1484 2953 1207 2617 
Q 931 2281 931 1641 
z
" transform="scale(0.015625)"/>
       <path id="ArialMT-74" d="M 1650 503 
L 1731 6 
Q 1494 -44 1306 -44 
Q 1000 -44 831 53 
Q 663 150 594 308 
Q 525 466 525 972 
L 525 2881 
L 113 2881 
L 113 3319 
L 525 3319 
L 525 4141 
L 1084 4478 
L 1084 3319 
L 1650 3319 
L 1650 2881 
L 1084 2881 
L 1084 941 
Q 1084 700 1114 631 
Q 1144 563 1211 522 
Q 1278 481 1403 481 
Q 1497 481 1650 503 
z
" transform="scale(0.015625)"/>
      </defs>
      <use xlink:href="#ArialMT-4d"/>
      <use xlink:href="#ArialMT-69" transform="translate(83.300781 0)"/>
      <use xlink:href="#ArialMT-73" transform="translate(105.517578 0)"/>
      <use xlink:href="#ArialMT-73" transform="translate(155.517578 0)"/>
      <use xlink:href="#ArialMT-69" transform="translate(205.517578 0)"/>
      <use xlink:href="#ArialMT-6e" transform="translate(227.734375 0)"/>
      <use xlink:href="#ArialMT-67" transform="translate(283.349609 0)"/>
      <use xlink:href="#ArialMT-6e" transform="translate(338.964844 0)"/>
      <use xlink:href="#ArialMT-65" transform="translate(394.580078 0)"/>
      <use xlink:href="#ArialMT-73" transform="translate(450.195312 0)"/>
      <use xlink:href="#ArialMT-73" transform="translate(500.195312 0)"/>
      <use xlink:href="#ArialMT-20" transform="translate(550.195312 0)"/>
      <use xlink:href="#ArialMT-50" transform="translate(577.978516 0)"/>
      <use xlink:href="#ArialMT-72" transform="translate(644.677734 0)"/>
      <use xlink:href="#ArialMT-6f" transform="translate(677.978516 0)"/>
      <use xlink:href="#ArialMT-70" transform="translate(733.59375 0)"/>
      <use xlink:href="#ArialMT-6f" transform="translate(789.208984 0)"/>
      <use xlink:href="#ArialMT-72" transform="translate(844.824219 0)"/>
      <use xlink:href="#ArialMT-74" transform="translate(878.125 0)"/>
      <use xlink:href="#ArialMT-69" transform="translate(905.908203 0)"/>
      <use xlink:href="#ArialMT-6f" transform="translate(928.125 0)"/>
      <use xlink:href="#ArialMT-6e" transform="translate(983.740234 0)"/>
     </g>
    </g>
   </g>
   <g id="matplotlib.axis_2">
    <g id="ytick_1">
     <g id="line2d_10">
      <path d="M 54.662648 295.047045 
L 486.099648 295.047045 
" clip-path="url(#p812caa7450)" style="fill: none; stroke: #cccccc; stroke-linecap: round"/>
     </g>
     <g id="text_11">
      <!-- −500 -->
      <g style="fill: #262626" transform="translate(21.625656 298.787002) scale(0.1045 -0.1045)">
       <defs>
        <path id="ArialMT-2212" d="M 3381 1997 
L 356 1997 
L 356 2522 
L 3381 2522 
L 3381 1997 
z
" transform="scale(0.015625)"/>
       </defs>
       <use xlink:href="#ArialMT-2212"/>
       <use xlink:href="#ArialMT-35" transform="translate(58.398438 0)"/>
       <use xlink:href="#ArialMT-30" transform="translate(114.013672 0)"/>
       <use xlink:href="#ArialMT-30" transform="translate(169.628906 0)"/>
      </g>
     </g>
    </g>
    <g id="ytick_2">
     <g id="line2d_11">
      <path d="M 54.662648 241.92721 
L 486.099648 241.92721 
" clip-path="url(#p812caa7450)" style="fill: none; stroke: #cccccc; stroke-linecap: round"/>
     </g>
     <g id="text_12">
      <!-- −400 -->
      <g style="fill: #262626" transform="translate(21.625656 245.667167) scale(0.1045 -0.1045)">
       <use xlink:href="#ArialMT-2212"/>
       <use xlink:href="#ArialMT-34" transform="translate(58.398438 0)"/>
       <use xlink:href="#ArialMT-30" transform="translate(114.013672 0)"/>
       <use xlink:href="#ArialMT-30" transform="translate(169.628906 0)"/>
      </g>
     </g>
    </g>
    <g id="ytick_3">
     <g id="line2d_12">
      <path d="M 54.662648 188.807374 
L 486.099648 188.807374 
" clip-path="url(#p812caa7450)" style="fill: none; stroke: #cccccc; stroke-linecap: round"/>
     </g>
     <g id="text_13">
      <!-- −300 -->
      <g style="fill: #262626" transform="translate(21.625656 192.547331) scale(0.1045 -0.1045)">
       <use xlink:href="#ArialMT-2212"/>
       <use xlink:href="#ArialMT-33" transform="translate(58.398438 0)"/>
       <use xlink:href="#ArialMT-30" transform="translate(114.013672 0)"/>
       <use xlink:href="#ArialMT-30" transform="translate(169.628906 0)"/>
      </g>
     </g>
    </g>
    <g id="ytick_4">
     <g id="line2d_13">
      <path d="M 54.662648 135.687538 
L 486.099648 135.687538 
" clip-path="url(#p812caa7450)" style="fill: none; stroke: #cccccc; stroke-linecap: round"/>
     </g>
     <g id="text_14">
      <!-- −200 -->
      <g style="fill: #262626" transform="translate(21.625656 139.427495) scale(0.1045 -0.1045)">
       <use xlink:href="#ArialMT-2212"/>
       <use xlink:href="#ArialMT-32" transform="translate(58.398438 0)"/>
       <use xlink:href="#ArialMT-30" transform="translate(114.013672 0)"/>
       <use xlink:href="#ArialMT-30" transform="translate(169.628906 0)"/>
      </g>
     </g>
    </g>
    <g id="ytick_5">
     <g id="line2d_14">
      <path d="M 54.662648 82.567702 
L 486.099648 82.567702 
" clip-path="url(#p812caa7450)" style="fill: none; stroke: #cccccc; stroke-linecap: round"/>
     </g>
     <g id="text_15">
      <!-- −100 -->
      <g style="fill: #262626" transform="translate(21.625656 86.307659) scale(0.1045 -0.1045)">
       <use xlink:href="#ArialMT-2212"/>
       <use xlink:href="#ArialMT-31" transform="translate(58.398438 0)"/>
       <use xlink:href="#ArialMT-30" transform="translate(114.013672 0)"/>
       <use xlink:href="#ArialMT-30" transform="translate(169.628906 0)"/>
      </g>
     </g>
    </g>
    <g id="ytick_6">
     <g id="line2d_15">
      <path d="M 54.662648 29.447867 
L 486.099648 29.447867 
" clip-path="url(#p812caa7450)" style="fill: none; stroke: #cccccc; stroke-linecap: round"/>
     </g>
     <g id="text_16">
      <!-- 0 -->
      <g style="fill: #262626" transform="translate(39.351469 33.187824) scale(0.1045 -0.1045)">
       <use xlink:href="#ArialMT-30"/>
      </g>
     </g>
    </g>
    <g id="text_17">
     <!-- R² -->
     <g style="fill: #262626" transform="translate(15.359906 177.842109) rotate(-90) scale(0.114 -0.114)">
      <defs>
       <path id="ArialMT-52" d="M 503 0 
L 503 4581 
L 2534 4581 
Q 3147 4581 3465 4457 
Q 3784 4334 3975 4021 
Q 4166 3709 4166 3331 
Q 4166 2844 3850 2509 
Q 3534 2175 2875 2084 
Q 3116 1969 3241 1856 
Q 3506 1613 3744 1247 
L 4541 0 
L 3778 0 
L 3172 953 
Q 2906 1366 2734 1584 
Q 2563 1803 2427 1890 
Q 2291 1978 2150 2013 
Q 2047 2034 1813 2034 
L 1109 2034 
L 1109 0 
L 503 0 
z
M 1109 2559 
L 2413 2559 
Q 2828 2559 3062 2645 
Q 3297 2731 3419 2920 
Q 3541 3109 3541 3331 
Q 3541 3656 3305 3865 
Q 3069 4075 2559 4075 
L 1109 4075 
L 1109 2559 
z
" transform="scale(0.015625)"/>
       <path id="ArialMT-b2" d="M 78 2291 
Q 97 2469 225 2647 
Q 422 2916 872 3242 
Q 1322 3569 1406 3663 
Q 1522 3791 1522 3925 
Q 1522 4075 1412 4172 
Q 1303 4269 1091 4269 
Q 884 4269 782 4195 
Q 681 4122 616 3913 
L 144 3963 
Q 234 4309 457 4473 
Q 681 4638 1100 4638 
Q 1572 4638 1792 4453 
Q 2013 4269 2013 4003 
Q 2013 3741 1828 3506 
Q 1688 3331 1188 2972 
Q 928 2781 819 2669 
L 2025 2669 
L 2025 2291 
L 78 2291 
z
" transform="scale(0.015625)"/>
      </defs>
      <use xlink:href="#ArialMT-52"/>
      <use xlink:href="#ArialMT-b2" transform="translate(72.216797 0)"/>
     </g>
    </g>
   </g>
   <g id="LineCollection_1">
    <path d="M 62.959514 148.914892 
L 62.959514 58.401589 
" clip-path="url(#p812caa7450)" style="fill: none; stroke: #ff7f0e; stroke-width: 1.5"/>
    <path d="M 166.670331 149.160851 
L 166.670331 58.261409 
" clip-path="url(#p812caa7450)" style="fill: none; stroke: #ff7f0e; stroke-width: 1.5"/>
    <path d="M 270.381148 149.382722 
L 270.381148 58.056303 
" clip-path="url(#p812caa7450)" style="fill: none; stroke: #ff7f0e; stroke-width: 1.5"/>
    <path d="M 374.091966 148.540365 
L 374.091966 58.081468 
" clip-path="url(#p812caa7450)" style="fill: none; stroke: #ff7f0e; stroke-width: 1.5"/>
    <path d="M 477.802783 161.848394 
L 477.802783 59.975822 
" clip-path="url(#p812caa7450)" style="fill: none; stroke: #ff7f0e; stroke-width: 1.5"/>
   </g>
   <g id="line2d_16">
    <defs>
     <path id="m8e1df7783c" d="M 3 0 
L -3 -0 
" style="stroke: #ff7f0e"/>
    </defs>
    <g clip-path="url(#p812caa7450)">
     <use xlink:href="#m8e1df7783c" x="62.959514" y="148.914892" style="fill: #ff7f0e; stroke: #ff7f0e"/>
     <use xlink:href="#m8e1df7783c" x="166.670331" y="149.160851" style="fill: #ff7f0e; stroke: #ff7f0e"/>
     <use xlink:href="#m8e1df7783c" x="270.381148" y="149.382722" style="fill: #ff7f0e; stroke: #ff7f0e"/>
     <use xlink:href="#m8e1df7783c" x="374.091966" y="148.540365" style="fill: #ff7f0e; stroke: #ff7f0e"/>
     <use xlink:href="#m8e1df7783c" x="477.802783" y="161.848394" style="fill: #ff7f0e; stroke: #ff7f0e"/>
    </g>
   </g>
   <g id="line2d_17">
    <g clip-path="url(#p812caa7450)">
     <use xlink:href="#m8e1df7783c" x="62.959514" y="58.401589" style="fill: #ff7f0e; stroke: #ff7f0e"/>
     <use xlink:href="#m8e1df7783c" x="166.670331" y="58.261409" style="fill: #ff7f0e; stroke: #ff7f0e"/>
     <use xlink:href="#m8e1df7783c" x="270.381148" y="58.056303" style="fill: #ff7f0e; stroke: #ff7f0e"/>
     <use xlink:href="#m8e1df7783c" x="374.091966" y="58.081468" style="fill: #ff7f0e; stroke: #ff7f0e"/>
     <use xlink:href="#m8e1df7783c" x="477.802783" y="59.975822" style="fill: #ff7f0e; stroke: #ff7f0e"/>
    </g>
   </g>
   <g id="LineCollection_2">
    <path d="M 62.959514 289.670467 
L 62.959514 97.8239 
" clip-path="url(#p812caa7450)" style="fill: none; stroke: #8c564b; stroke-width: 1.5"/>
    <path d="M 166.670331 289.687822 
L 166.670331 97.84283 
" clip-path="url(#p812caa7450)" style="fill: none; stroke: #8c564b; stroke-width: 1.5"/>
    <path d="M 270.381148 289.697829 
L 270.381148 97.853742 
" clip-path="url(#p812caa7450)" style="fill: none; stroke: #8c564b; stroke-width: 1.5"/>
    <path d="M 374.091966 289.698328 
L 374.091966 97.854287 
" clip-path="url(#p812caa7450)" style="fill: none; stroke: #8c564b; stroke-width: 1.5"/>
    <path d="M 477.802783 289.699148 
L 477.802783 97.855181 
" clip-path="url(#p812caa7450)" style="fill: none; stroke: #8c564b; stroke-width: 1.5"/>
   </g>
   <g id="line2d_18">
    <defs>
     <path id="m16c90699a1" d="M 3 0 
L -3 -0 
" style="stroke: #8c564b"/>
    </defs>
    <g clip-path="url(#p812caa7450)">
     <use xlink:href="#m16c90699a1" x="62.959514" y="289.670467" style="fill: #8c564b; stroke: #8c564b"/>
     <use xlink:href="#m16c90699a1" x="166.670331" y="289.687822" style="fill: #8c564b; stroke: #8c564b"/>
     <use xlink:href="#m16c90699a1" x="270.381148" y="289.697829" style="fill: #8c564b; stroke: #8c564b"/>
     <use xlink:href="#m16c90699a1" x="374.091966" y="289.698328" style="fill: #8c564b; stroke: #8c564b"/>
     <use xlink:href="#m16c90699a1" x="477.802783" y="289.699148" style="fill: #8c564b; stroke: #8c564b"/>
    </g>
   </g>
   <g id="line2d_19">
    <g clip-path="url(#p812caa7450)">
     <use xlink:href="#m16c90699a1" x="62.959514" y="97.8239" style="fill: #8c564b; stroke: #8c564b"/>
     <use xlink:href="#m16c90699a1" x="166.670331" y="97.84283" style="fill: #8c564b; stroke: #8c564b"/>
     <use xlink:href="#m16c90699a1" x="270.381148" y="97.853742" style="fill: #8c564b; stroke: #8c564b"/>
     <use xlink:href="#m16c90699a1" x="374.091966" y="97.854287" style="fill: #8c564b; stroke: #8c564b"/>
     <use xlink:href="#m16c90699a1" x="477.802783" y="97.855181" style="fill: #8c564b; stroke: #8c564b"/>
    </g>
   </g>
   <g id="LineCollection_3">
    <path d="M 62.959514 51.020075 
L 62.959514 35.24604 
" clip-path="url(#p812caa7450)" style="fill: none; stroke: #bcbd22; stroke-width: 1.5"/>
    <path d="M 166.670331 47.973485 
L 166.670331 35.171582 
" clip-path="url(#p812caa7450)" style="fill: none; stroke: #bcbd22; stroke-width: 1.5"/>
    <path d="M 270.381148 63.527766 
L 270.381148 38.714099 
" clip-path="url(#p812caa7450)" style="fill: none; stroke: #bcbd22; stroke-width: 1.5"/>
    <path d="M 374.091966 56.807235 
L 374.091966 35.935746 
" clip-path="url(#p812caa7450)" style="fill: none; stroke: #bcbd22; stroke-width: 1.5"/>
    <path d="M 477.802783 52.023462 
L 477.802783 35.654979 
" clip-path="url(#p812caa7450)" style="fill: none; stroke: #bcbd22; stroke-width: 1.5"/>
   </g>
   <g id="line2d_20">
    <defs>
     <path id="m23ed8d5cef" d="M 3 0 
L -3 -0 
" style="stroke: #bcbd22"/>
    </defs>
    <g clip-path="url(#p812caa7450)">
     <use xlink:href="#m23ed8d5cef" x="62.959514" y="51.020075" style="fill: #bcbd22; stroke: #bcbd22"/>
     <use xlink:href="#m23ed8d5cef" x="166.670331" y="47.973485" style="fill: #bcbd22; stroke: #bcbd22"/>
     <use xlink:href="#m23ed8d5cef" x="270.381148" y="63.527766" style="fill: #bcbd22; stroke: #bcbd22"/>
     <use xlink:href="#m23ed8d5cef" x="374.091966" y="56.807235" style="fill: #bcbd22; stroke: #bcbd22"/>
     <use xlink:href="#m23ed8d5cef" x="477.802783" y="52.023462" style="fill: #bcbd22; stroke: #bcbd22"/>
    </g>
   </g>
   <g id="line2d_21">
    <g clip-path="url(#p812caa7450)">
     <use xlink:href="#m23ed8d5cef" x="62.959514" y="35.24604" style="fill: #bcbd22; stroke: #bcbd22"/>
     <use xlink:href="#m23ed8d5cef" x="166.670331" y="35.171582" style="fill: #bcbd22; stroke: #bcbd22"/>
     <use xlink:href="#m23ed8d5cef" x="270.381148" y="38.714099" style="fill: #bcbd22; stroke: #bcbd22"/>
     <use xlink:href="#m23ed8d5cef" x="374.091966" y="35.935746" style="fill: #bcbd22; stroke: #bcbd22"/>
     <use xlink:href="#m23ed8d5cef" x="477.802783" y="35.654979" style="fill: #bcbd22; stroke: #bcbd22"/>
    </g>
   </g>
   <g id="LineCollection_4">
    <path d="M 62.959514 166.373737 
L 62.959514 62.962283 
" clip-path="url(#p812caa7450)" style="fill: none; stroke: #1f77b4; stroke-width: 1.5"/>
    <path d="M 166.670331 166.692391 
L 166.670331 62.87837 
" clip-path="url(#p812caa7450)" style="fill: none; stroke: #1f77b4; stroke-width: 1.5"/>
    <path d="M 270.381148 167.320752 
L 270.381148 62.850777 
" clip-path="url(#p812caa7450)" style="fill: none; stroke: #1f77b4; stroke-width: 1.5"/>
    <path d="M 374.091966 166.545883 
L 374.091966 62.797823 
" clip-path="url(#p812caa7450)" style="fill: none; stroke: #1f77b4; stroke-width: 1.5"/>
    <path d="M 477.802783 175.269119 
L 477.802783 63.938478 
" clip-path="url(#p812caa7450)" style="fill: none; stroke: #1f77b4; stroke-width: 1.5"/>
   </g>
   <g id="line2d_22">
    <defs>
     <path id="mcf980d9536" d="M 3 0 
L -3 -0 
" style="stroke: #1f77b4"/>
    </defs>
    <g clip-path="url(#p812caa7450)">
     <use xlink:href="#mcf980d9536" x="62.959514" y="166.373737" style="fill: #1f77b4; stroke: #1f77b4"/>
     <use xlink:href="#mcf980d9536" x="166.670331" y="166.692391" style="fill: #1f77b4; stroke: #1f77b4"/>
     <use xlink:href="#mcf980d9536" x="270.381148" y="167.320752" style="fill: #1f77b4; stroke: #1f77b4"/>
     <use xlink:href="#mcf980d9536" x="374.091966" y="166.545883" style="fill: #1f77b4; stroke: #1f77b4"/>
     <use xlink:href="#mcf980d9536" x="477.802783" y="175.269119" style="fill: #1f77b4; stroke: #1f77b4"/>
    </g>
   </g>
   <g id="line2d_23">
    <g clip-path="url(#p812caa7450)">
     <use xlink:href="#mcf980d9536" x="62.959514" y="62.962283" style="fill: #1f77b4; stroke: #1f77b4"/>
     <use xlink:href="#mcf980d9536" x="166.670331" y="62.87837" style="fill: #1f77b4; stroke: #1f77b4"/>
     <use xlink:href="#mcf980d9536" x="270.381148" y="62.850777" style="fill: #1f77b4; stroke: #1f77b4"/>
     <use xlink:href="#mcf980d9536" x="374.091966" y="62.797823" style="fill: #1f77b4; stroke: #1f77b4"/>
     <use xlink:href="#mcf980d9536" x="477.802783" y="63.938478" style="fill: #1f77b4; stroke: #1f77b4"/>
    </g>
   </g>
   <g id="LineCollection_5">
    <path d="M 62.959514 79.717141 
L 62.959514 47.549543 
" clip-path="url(#p812caa7450)" style="fill: none; stroke: #d62728; stroke-width: 1.5"/>
    <path d="M 166.670331 78.618448 
L 166.670331 47.273803 
" clip-path="url(#p812caa7450)" style="fill: none; stroke: #d62728; stroke-width: 1.5"/>
    <path d="M 270.381148 77.962692 
L 270.381148 47.000682 
" clip-path="url(#p812caa7450)" style="fill: none; stroke: #d62728; stroke-width: 1.5"/>
    <path d="M 374.091966 80.786566 
L 374.091966 47.80668 
" clip-path="url(#p812caa7450)" style="fill: none; stroke: #d62728; stroke-width: 1.5"/>
    <path d="M 477.802783 75.567225 
L 477.802783 46.021523 
" clip-path="url(#p812caa7450)" style="fill: none; stroke: #d62728; stroke-width: 1.5"/>
   </g>
   <g id="line2d_24">
    <defs>
     <path id="ma4410d807b" d="M 3 0 
L -3 -0 
" style="stroke: #d62728"/>
    </defs>
    <g clip-path="url(#p812caa7450)">
     <use xlink:href="#ma4410d807b" x="62.959514" y="79.717141" style="fill: #d62728; stroke: #d62728"/>
     <use xlink:href="#ma4410d807b" x="166.670331" y="78.618448" style="fill: #d62728; stroke: #d62728"/>
     <use xlink:href="#ma4410d807b" x="270.381148" y="77.962692" style="fill: #d62728; stroke: #d62728"/>
     <use xlink:href="#ma4410d807b" x="374.091966" y="80.786566" style="fill: #d62728; stroke: #d62728"/>
     <use xlink:href="#ma4410d807b" x="477.802783" y="75.567225" style="fill: #d62728; stroke: #d62728"/>
    </g>
   </g>
   <g id="line2d_25">
    <g clip-path="url(#p812caa7450)">
     <use xlink:href="#ma4410d807b" x="62.959514" y="47.549543" style="fill: #d62728; stroke: #d62728"/>
     <use xlink:href="#ma4410d807b" x="166.670331" y="47.273803" style="fill: #d62728; stroke: #d62728"/>
     <use xlink:href="#ma4410d807b" x="270.381148" y="47.000682" style="fill: #d62728; stroke: #d62728"/>
     <use xlink:href="#ma4410d807b" x="374.091966" y="47.80668" style="fill: #d62728; stroke: #d62728"/>
     <use xlink:href="#ma4410d807b" x="477.802783" y="46.021523" style="fill: #d62728; stroke: #d62728"/>
    </g>
   </g>
   <g id="LineCollection_6">
    <path d="M 62.959514 308.478504 
L 62.959514 102.594038 
" clip-path="url(#p812caa7450)" style="fill: none; stroke: #9467bd; stroke-width: 1.5"/>
    <path d="M 166.670331 308.483855 
L 166.670331 102.599873 
" clip-path="url(#p812caa7450)" style="fill: none; stroke: #9467bd; stroke-width: 1.5"/>
    <path d="M 270.381148 308.482423 
L 270.381148 102.598311 
" clip-path="url(#p812caa7450)" style="fill: none; stroke: #9467bd; stroke-width: 1.5"/>
    <path d="M 374.091966 308.482134 
L 374.091966 102.597996 
" clip-path="url(#p812caa7450)" style="fill: none; stroke: #9467bd; stroke-width: 1.5"/>
    <path d="M 477.802783 308.482708 
L 477.802783 102.598622 
" clip-path="url(#p812caa7450)" style="fill: none; stroke: #9467bd; stroke-width: 1.5"/>
   </g>
   <g id="line2d_26">
    <defs>
     <path id="m9aa14ef693" d="M 3 0 
L -3 -0 
" style="stroke: #9467bd"/>
    </defs>
    <g clip-path="url(#p812caa7450)">
     <use xlink:href="#m9aa14ef693" x="62.959514" y="308.478504" style="fill: #9467bd; stroke: #9467bd"/>
     <use xlink:href="#m9aa14ef693" x="166.670331" y="308.483855" style="fill: #9467bd; stroke: #9467bd"/>
     <use xlink:href="#m9aa14ef693" x="270.381148" y="308.482423" style="fill: #9467bd; stroke: #9467bd"/>
     <use xlink:href="#m9aa14ef693" x="374.091966" y="308.482134" style="fill: #9467bd; stroke: #9467bd"/>
     <use xlink:href="#m9aa14ef693" x="477.802783" y="308.482708" style="fill: #9467bd; stroke: #9467bd"/>
    </g>
   </g>
   <g id="line2d_27">
    <g clip-path="url(#p812caa7450)">
     <use xlink:href="#m9aa14ef693" x="62.959514" y="102.594038" style="fill: #9467bd; stroke: #9467bd"/>
     <use xlink:href="#m9aa14ef693" x="166.670331" y="102.599873" style="fill: #9467bd; stroke: #9467bd"/>
     <use xlink:href="#m9aa14ef693" x="270.381148" y="102.598311" style="fill: #9467bd; stroke: #9467bd"/>
     <use xlink:href="#m9aa14ef693" x="374.091966" y="102.597996" style="fill: #9467bd; stroke: #9467bd"/>
     <use xlink:href="#m9aa14ef693" x="477.802783" y="102.598622" style="fill: #9467bd; stroke: #9467bd"/>
    </g>
   </g>
   <g id="LineCollection_7">
    <path d="M 62.959514 75.517901 
L 62.959514 39.752952 
" clip-path="url(#p812caa7450)" style="fill: none; stroke: #2ca02c; stroke-width: 1.5"/>
    <path d="M 166.670331 78.942306 
L 166.670331 40.917642 
" clip-path="url(#p812caa7450)" style="fill: none; stroke: #2ca02c; stroke-width: 1.5"/>
    <path d="M 270.381148 99.002863 
L 270.381148 45.577023 
" clip-path="url(#p812caa7450)" style="fill: none; stroke: #2ca02c; stroke-width: 1.5"/>
    <path d="M 374.091966 107.22335 
L 374.091966 47.417919 
" clip-path="url(#p812caa7450)" style="fill: none; stroke: #2ca02c; stroke-width: 1.5"/>
    <path d="M 477.802783 118.269439 
L 477.802783 49.621089 
" clip-path="url(#p812caa7450)" style="fill: none; stroke: #2ca02c; stroke-width: 1.5"/>
   </g>
   <g id="line2d_28">
    <defs>
     <path id="ma5f217d867" d="M 3 0 
L -3 -0 
" style="stroke: #2ca02c"/>
    </defs>
    <g clip-path="url(#p812caa7450)">
     <use xlink:href="#ma5f217d867" x="62.959514" y="75.517901" style="fill: #2ca02c; stroke: #2ca02c"/>
     <use xlink:href="#ma5f217d867" x="166.670331" y="78.942306" style="fill: #2ca02c; stroke: #2ca02c"/>
     <use xlink:href="#ma5f217d867" x="270.381148" y="99.002863" style="fill: #2ca02c; stroke: #2ca02c"/>
     <use xlink:href="#ma5f217d867" x="374.091966" y="107.22335" style="fill: #2ca02c; stroke: #2ca02c"/>
     <use xlink:href="#ma5f217d867" x="477.802783" y="118.269439" style="fill: #2ca02c; stroke: #2ca02c"/>
    </g>
   </g>
   <g id="line2d_29">
    <g clip-path="url(#p812caa7450)">
     <use xlink:href="#ma5f217d867" x="62.959514" y="39.752952" style="fill: #2ca02c; stroke: #2ca02c"/>
     <use xlink:href="#ma5f217d867" x="166.670331" y="40.917642" style="fill: #2ca02c; stroke: #2ca02c"/>
     <use xlink:href="#ma5f217d867" x="270.381148" y="45.577023" style="fill: #2ca02c; stroke: #2ca02c"/>
     <use xlink:href="#ma5f217d867" x="374.091966" y="47.417919" style="fill: #2ca02c; stroke: #2ca02c"/>
     <use xlink:href="#ma5f217d867" x="477.802783" y="49.621089" style="fill: #2ca02c; stroke: #2ca02c"/>
    </g>
   </g>
   <g id="line2d_30">
    <path d="M 62.959514 103.658241 
L 166.670331 103.71113 
L 270.381148 103.719512 
L 374.091966 103.310916 
L 477.802783 110.912108 
" clip-path="url(#p812caa7450)" style="fill: none; stroke: #ff7f0e; stroke-width: 1.5; stroke-linecap: round"/>
    <defs>
     <path id="m7a6627aa57" d="M 0 3 
C 0.795609 3 1.55874 2.683901 2.12132 2.12132 
C 2.683901 1.55874 3 0.795609 3 0 
C 3 -0.795609 2.683901 -1.55874 2.12132 -2.12132 
C 1.55874 -2.683901 0.795609 -3 0 -3 
C -0.795609 -3 -1.55874 -2.683901 -2.12132 -2.12132 
C -2.683901 -1.55874 -3 -0.795609 -3 0 
C -3 0.795609 -2.683901 1.55874 -2.12132 2.12132 
C -1.55874 2.683901 -0.795609 3 0 3 
z
" style="stroke: #ff7f0e"/>
    </defs>
    <g clip-path="url(#p812caa7450)">
     <use xlink:href="#m7a6627aa57" x="62.959514" y="103.658241" style="fill: #ff7f0e; stroke: #ff7f0e"/>
     <use xlink:href="#m7a6627aa57" x="166.670331" y="103.71113" style="fill: #ff7f0e; stroke: #ff7f0e"/>
     <use xlink:href="#m7a6627aa57" x="270.381148" y="103.719512" style="fill: #ff7f0e; stroke: #ff7f0e"/>
     <use xlink:href="#m7a6627aa57" x="374.091966" y="103.310916" style="fill: #ff7f0e; stroke: #ff7f0e"/>
     <use xlink:href="#m7a6627aa57" x="477.802783" y="110.912108" style="fill: #ff7f0e; stroke: #ff7f0e"/>
    </g>
   </g>
   <g id="line2d_31">
    <path d="M 62.959514 193.747184 
L 166.670331 193.765326 
L 270.381148 193.775785 
L 374.091966 193.776308 
L 477.802783 193.777165 
" clip-path="url(#p812caa7450)" style="fill: none; stroke: #8c564b; stroke-width: 1.5; stroke-linecap: round"/>
    <defs>
     <path id="m6fba55fbd5" d="M 0 3 
C 0.795609 3 1.55874 2.683901 2.12132 2.12132 
C 2.683901 1.55874 3 0.795609 3 0 
C 3 -0.795609 2.683901 -1.55874 2.12132 -2.12132 
C 1.55874 -2.683901 0.795609 -3 0 -3 
C -0.795609 -3 -1.55874 -2.683901 -2.12132 -2.12132 
C -2.683901 -1.55874 -3 -0.795609 -3 0 
C -3 0.795609 -2.683901 1.55874 -2.12132 2.12132 
C -1.55874 2.683901 -0.795609 3 0 3 
z
" style="stroke: #8c564b"/>
    </defs>
    <g clip-path="url(#p812caa7450)">
     <use xlink:href="#m6fba55fbd5" x="62.959514" y="193.747184" style="fill: #8c564b; stroke: #8c564b"/>
     <use xlink:href="#m6fba55fbd5" x="166.670331" y="193.765326" style="fill: #8c564b; stroke: #8c564b"/>
     <use xlink:href="#m6fba55fbd5" x="270.381148" y="193.775785" style="fill: #8c564b; stroke: #8c564b"/>
     <use xlink:href="#m6fba55fbd5" x="374.091966" y="193.776308" style="fill: #8c564b; stroke: #8c564b"/>
     <use xlink:href="#m6fba55fbd5" x="477.802783" y="193.777165" style="fill: #8c564b; stroke: #8c564b"/>
    </g>
   </g>
   <g id="line2d_32">
    <path d="M 62.959514 43.133058 
L 166.670331 41.572534 
L 270.381148 51.120932 
L 374.091966 46.371491 
L 477.802783 43.83922 
" clip-path="url(#p812caa7450)" style="fill: none; stroke: #bcbd22; stroke-width: 1.5; stroke-linecap: round"/>
    <defs>
     <path id="m55beb3f28e" d="M 0 3 
C 0.795609 3 1.55874 2.683901 2.12132 2.12132 
C 2.683901 1.55874 3 0.795609 3 0 
C 3 -0.795609 2.683901 -1.55874 2.12132 -2.12132 
C 1.55874 -2.683901 0.795609 -3 0 -3 
C -0.795609 -3 -1.55874 -2.683901 -2.12132 -2.12132 
C -2.683901 -1.55874 -3 -0.795609 -3 0 
C -3 0.795609 -2.683901 1.55874 -2.12132 2.12132 
C -1.55874 2.683901 -0.795609 3 0 3 
z
" style="stroke: #bcbd22"/>
    </defs>
    <g clip-path="url(#p812caa7450)">
     <use xlink:href="#m55beb3f28e" x="62.959514" y="43.133058" style="fill: #bcbd22; stroke: #bcbd22"/>
     <use xlink:href="#m55beb3f28e" x="166.670331" y="41.572534" style="fill: #bcbd22; stroke: #bcbd22"/>
     <use xlink:href="#m55beb3f28e" x="270.381148" y="51.120932" style="fill: #bcbd22; stroke: #bcbd22"/>
     <use xlink:href="#m55beb3f28e" x="374.091966" y="46.371491" style="fill: #bcbd22; stroke: #bcbd22"/>
     <use xlink:href="#m55beb3f28e" x="477.802783" y="43.83922" style="fill: #bcbd22; stroke: #bcbd22"/>
    </g>
   </g>
   <g id="line2d_33">
    <path d="M 62.959514 114.66801 
L 166.670331 114.78538 
L 270.381148 115.085765 
L 374.091966 114.671853 
L 477.802783 119.603798 
" clip-path="url(#p812caa7450)" style="fill: none; stroke: #1f77b4; stroke-width: 1.5; stroke-linecap: round"/>
    <defs>
     <path id="m63101ad9e5" d="M 0 3 
C 0.795609 3 1.55874 2.683901 2.12132 2.12132 
C 2.683901 1.55874 3 0.795609 3 0 
C 3 -0.795609 2.683901 -1.55874 2.12132 -2.12132 
C 1.55874 -2.683901 0.795609 -3 0 -3 
C -0.795609 -3 -1.55874 -2.683901 -2.12132 -2.12132 
C -2.683901 -1.55874 -3 -0.795609 -3 0 
C -3 0.795609 -2.683901 1.55874 -2.12132 2.12132 
C -1.55874 2.683901 -0.795609 3 0 3 
z
" style="stroke: #1f77b4"/>
    </defs>
    <g clip-path="url(#p812caa7450)">
     <use xlink:href="#m63101ad9e5" x="62.959514" y="114.66801" style="fill: #1f77b4; stroke: #1f77b4"/>
     <use xlink:href="#m63101ad9e5" x="166.670331" y="114.78538" style="fill: #1f77b4; stroke: #1f77b4"/>
     <use xlink:href="#m63101ad9e5" x="270.381148" y="115.085765" style="fill: #1f77b4; stroke: #1f77b4"/>
     <use xlink:href="#m63101ad9e5" x="374.091966" y="114.671853" style="fill: #1f77b4; stroke: #1f77b4"/>
     <use xlink:href="#m63101ad9e5" x="477.802783" y="119.603798" style="fill: #1f77b4; stroke: #1f77b4"/>
    </g>
   </g>
   <g id="line2d_34">
    <path d="M 62.959514 63.633342 
L 166.670331 62.946126 
L 270.381148 62.481687 
L 374.091966 64.296623 
L 477.802783 60.794374 
" clip-path="url(#p812caa7450)" style="fill: none; stroke: #d62728; stroke-width: 1.5; stroke-linecap: round"/>
    <defs>
     <path id="mc3782aa371" d="M 0 3 
C 0.795609 3 1.55874 2.683901 2.12132 2.12132 
C 2.683901 1.55874 3 0.795609 3 0 
C 3 -0.795609 2.683901 -1.55874 2.12132 -2.12132 
C 1.55874 -2.683901 0.795609 -3 0 -3 
C -0.795609 -3 -1.55874 -2.683901 -2.12132 -2.12132 
C -2.683901 -1.55874 -3 -0.795609 -3 0 
C -3 0.795609 -2.683901 1.55874 -2.12132 2.12132 
C -1.55874 2.683901 -0.795609 3 0 3 
z
" style="stroke: #d62728"/>
    </defs>
    <g clip-path="url(#p812caa7450)">
     <use xlink:href="#mc3782aa371" x="62.959514" y="63.633342" style="fill: #d62728; stroke: #d62728"/>
     <use xlink:href="#mc3782aa371" x="166.670331" y="62.946126" style="fill: #d62728; stroke: #d62728"/>
     <use xlink:href="#mc3782aa371" x="270.381148" y="62.481687" style="fill: #d62728; stroke: #d62728"/>
     <use xlink:href="#mc3782aa371" x="374.091966" y="64.296623" style="fill: #d62728; stroke: #d62728"/>
     <use xlink:href="#mc3782aa371" x="477.802783" y="60.794374" style="fill: #d62728; stroke: #d62728"/>
    </g>
   </g>
   <g id="line2d_35">
    <path d="M 62.959514 205.536271 
L 166.670331 205.541864 
L 270.381148 205.540367 
L 374.091966 205.540065 
L 477.802783 205.540665 
" clip-path="url(#p812caa7450)" style="fill: none; stroke: #9467bd; stroke-width: 1.5; stroke-linecap: round"/>
    <defs>
     <path id="m2d7b830e95" d="M 0 3 
C 0.795609 3 1.55874 2.683901 2.12132 2.12132 
C 2.683901 1.55874 3 0.795609 3 0 
C 3 -0.795609 2.683901 -1.55874 2.12132 -2.12132 
C 1.55874 -2.683901 0.795609 -3 0 -3 
C -0.795609 -3 -1.55874 -2.683901 -2.12132 -2.12132 
C -2.683901 -1.55874 -3 -0.795609 -3 0 
C -3 0.795609 -2.683901 1.55874 -2.12132 2.12132 
C -1.55874 2.683901 -0.795609 3 0 3 
z
" style="stroke: #9467bd"/>
    </defs>
    <g clip-path="url(#p812caa7450)">
     <use xlink:href="#m2d7b830e95" x="62.959514" y="205.536271" style="fill: #9467bd; stroke: #9467bd"/>
     <use xlink:href="#m2d7b830e95" x="166.670331" y="205.541864" style="fill: #9467bd; stroke: #9467bd"/>
     <use xlink:href="#m2d7b830e95" x="270.381148" y="205.540367" style="fill: #9467bd; stroke: #9467bd"/>
     <use xlink:href="#m2d7b830e95" x="374.091966" y="205.540065" style="fill: #9467bd; stroke: #9467bd"/>
     <use xlink:href="#m2d7b830e95" x="477.802783" y="205.540665" style="fill: #9467bd; stroke: #9467bd"/>
    </g>
   </g>
   <g id="line2d_36">
    <path d="M 62.959514 57.635426 
L 166.670331 59.929974 
L 270.381148 72.289943 
L 374.091966 77.320635 
L 477.802783 83.945264 
" clip-path="url(#p812caa7450)" style="fill: none; stroke: #2ca02c; stroke-width: 1.5; stroke-linecap: round"/>
    <defs>
     <path id="m9c7b3edd9e" d="M 0 3 
C 0.795609 3 1.55874 2.683901 2.12132 2.12132 
C 2.683901 1.55874 3 0.795609 3 0 
C 3 -0.795609 2.683901 -1.55874 2.12132 -2.12132 
C 1.55874 -2.683901 0.795609 -3 0 -3 
C -0.795609 -3 -1.55874 -2.683901 -2.12132 -2.12132 
C -2.683901 -1.55874 -3 -0.795609 -3 0 
C -3 0.795609 -2.683901 1.55874 -2.12132 2.12132 
C -1.55874 2.683901 -0.795609 3 0 3 
z
" style="stroke: #2ca02c"/>
    </defs>
    <g clip-path="url(#p812caa7450)">
     <use xlink:href="#m9c7b3edd9e" x="62.959514" y="57.635426" style="fill: #2ca02c; stroke: #2ca02c"/>
     <use xlink:href="#m9c7b3edd9e" x="166.670331" y="59.929974" style="fill: #2ca02c; stroke: #2ca02c"/>
     <use xlink:href="#m9c7b3edd9e" x="270.381148" y="72.289943" style="fill: #2ca02c; stroke: #2ca02c"/>
     <use xlink:href="#m9c7b3edd9e" x="374.091966" y="77.320635" style="fill: #2ca02c; stroke: #2ca02c"/>
     <use xlink:href="#m9c7b3edd9e" x="477.802783" y="83.945264" style="fill: #2ca02c; stroke: #2ca02c"/>
    </g>
   </g>
   <g id="patch_3">
    <path d="M 54.662648 322.149469 
L 54.662648 21.505969 
" style="fill: none; stroke: #cccccc; stroke-width: 1.25; stroke-linejoin: miter; stroke-linecap: square"/>
   </g>
   <g id="patch_4">
    <path d="M 486.099648 322.149469 
L 486.099648 21.505969 
" style="fill: none; stroke: #cccccc; stroke-width: 1.25; stroke-linejoin: miter; stroke-linecap: square"/>
   </g>
   <g id="patch_5">
    <path d="M 54.662648 322.149469 
L 486.099648 322.149469 
" style="fill: none; stroke: #cccccc; stroke-width: 1.25; stroke-linejoin: miter; stroke-linecap: square"/>
   </g>
   <g id="patch_6">
    <path d="M 54.662648 21.505969 
L 486.099648 21.505969 
" style="fill: none; stroke: #cccccc; stroke-width: 1.25; stroke-linejoin: miter; stroke-linecap: square"/>
   </g>
   <g id="LineCollection_8">
    <path d="M 62.959514 142.053364 
L 62.959514 50.324553 
" clip-path="url(#p812caa7450)" style="fill: none; stroke: #e377c2; stroke-width: 2"/>
    <path d="M 166.670331 139.497349 
L 166.670331 52.34077 
" clip-path="url(#p812caa7450)" style="fill: none; stroke: #e377c2; stroke-width: 2"/>
    <path d="M 270.381148 148.856786 
L 270.381148 52.293325 
" clip-path="url(#p812caa7450)" style="fill: none; stroke: #e377c2; stroke-width: 2"/>
    <path d="M 374.091966 156.767434 
L 374.091966 54.870884 
" clip-path="url(#p812caa7450)" style="fill: none; stroke: #e377c2; stroke-width: 2"/>
    <path d="M 477.802783 161.296997 
L 477.802783 57.839977 
" clip-path="url(#p812caa7450)" style="fill: none; stroke: #e377c2; stroke-width: 2"/>
   </g>
   <g id="line2d_37">
    <defs>
     <path id="mf6b6dffcc8" d="M 3 0 
L -3 -0 
" style="stroke: #e377c2"/>
    </defs>
    <g clip-path="url(#p812caa7450)">
     <use xlink:href="#mf6b6dffcc8" x="62.959514" y="142.053364" style="fill: #e377c2; stroke: #e377c2"/>
     <use xlink:href="#mf6b6dffcc8" x="166.670331" y="139.497349" style="fill: #e377c2; stroke: #e377c2"/>
     <use xlink:href="#mf6b6dffcc8" x="270.381148" y="148.856786" style="fill: #e377c2; stroke: #e377c2"/>
     <use xlink:href="#mf6b6dffcc8" x="374.091966" y="156.767434" style="fill: #e377c2; stroke: #e377c2"/>
     <use xlink:href="#mf6b6dffcc8" x="477.802783" y="161.296997" style="fill: #e377c2; stroke: #e377c2"/>
    </g>
   </g>
   <g id="line2d_38">
    <g clip-path="url(#p812caa7450)">
     <use xlink:href="#mf6b6dffcc8" x="62.959514" y="50.324553" style="fill: #e377c2; stroke: #e377c2"/>
     <use xlink:href="#mf6b6dffcc8" x="166.670331" y="52.34077" style="fill: #e377c2; stroke: #e377c2"/>
     <use xlink:href="#mf6b6dffcc8" x="270.381148" y="52.293325" style="fill: #e377c2; stroke: #e377c2"/>
     <use xlink:href="#mf6b6dffcc8" x="374.091966" y="54.870884" style="fill: #e377c2; stroke: #e377c2"/>
     <use xlink:href="#mf6b6dffcc8" x="477.802783" y="57.839977" style="fill: #e377c2; stroke: #e377c2"/>
    </g>
   </g>
   <g id="text_18">
    <!-- MNAR: R² vs Missingness Proportion (QSAR) -->
    <g style="fill: #262626" transform="translate(154.776242 15.505969) scale(0.114 -0.114)">
     <defs>
      <path id="ArialMT-4e" d="M 488 0 
L 488 4581 
L 1109 4581 
L 3516 984 
L 3516 4581 
L 4097 4581 
L 4097 0 
L 3475 0 
L 1069 3600 
L 1069 0 
L 488 0 
z
" transform="scale(0.015625)"/>
      <path id="ArialMT-41" d="M -9 0 
L 1750 4581 
L 2403 4581 
L 4278 0 
L 3588 0 
L 3053 1388 
L 1138 1388 
L 634 0 
L -9 0 
z
M 1313 1881 
L 2866 1881 
L 2388 3150 
Q 2169 3728 2063 4100 
Q 1975 3659 1816 3225 
L 1313 1881 
z
" transform="scale(0.015625)"/>
      <path id="ArialMT-3a" d="M 578 2678 
L 578 3319 
L 1219 3319 
L 1219 2678 
L 578 2678 
z
M 578 0 
L 578 641 
L 1219 641 
L 1219 0 
L 578 0 
z
" transform="scale(0.015625)"/>
      <path id="ArialMT-76" d="M 1344 0 
L 81 3319 
L 675 3319 
L 1388 1331 
Q 1503 1009 1600 663 
Q 1675 925 1809 1294 
L 2547 3319 
L 3125 3319 
L 1869 0 
L 1344 0 
z
" transform="scale(0.015625)"/>
      <path id="ArialMT-28" d="M 1497 -1347 
Q 1031 -759 709 28 
Q 388 816 388 1659 
Q 388 2403 628 3084 
Q 909 3875 1497 4659 
L 1900 4659 
Q 1522 4009 1400 3731 
Q 1209 3300 1100 2831 
Q 966 2247 966 1656 
Q 966 153 1900 -1347 
L 1497 -1347 
z
" transform="scale(0.015625)"/>
      <path id="ArialMT-51" d="M 3966 491 
Q 4388 200 4744 66 
L 4566 -356 
Q 4072 -178 3581 206 
Q 3072 -78 2456 -78 
Q 1834 -78 1328 222 
Q 822 522 548 1065 
Q 275 1609 275 2291 
Q 275 2969 550 3525 
Q 825 4081 1333 4372 
Q 1841 4663 2469 4663 
Q 3103 4663 3612 4361 
Q 4122 4059 4389 3517 
Q 4656 2975 4656 2294 
Q 4656 1728 4484 1276 
Q 4313 825 3966 491 
z
M 2631 1266 
Q 3156 1119 3497 828 
Q 4031 1316 4031 2294 
Q 4031 2850 3842 3265 
Q 3653 3681 3289 3911 
Q 2925 4141 2472 4141 
Q 1794 4141 1347 3677 
Q 900 3213 900 2291 
Q 900 1397 1342 919 
Q 1784 441 2472 441 
Q 2797 441 3084 563 
Q 2800 747 2484 825 
L 2631 1266 
z
" transform="scale(0.015625)"/>
      <path id="ArialMT-53" d="M 288 1472 
L 859 1522 
Q 900 1178 1048 958 
Q 1197 738 1509 602 
Q 1822 466 2213 466 
Q 2559 466 2825 569 
Q 3091 672 3220 851 
Q 3350 1031 3350 1244 
Q 3350 1459 3225 1620 
Q 3100 1781 2813 1891 
Q 2628 1963 1997 2114 
Q 1366 2266 1113 2400 
Q 784 2572 623 2826 
Q 463 3081 463 3397 
Q 463 3744 659 4045 
Q 856 4347 1234 4503 
Q 1613 4659 2075 4659 
Q 2584 4659 2973 4495 
Q 3363 4331 3572 4012 
Q 3781 3694 3797 3291 
L 3216 3247 
Q 3169 3681 2898 3903 
Q 2628 4125 2100 4125 
Q 1550 4125 1298 3923 
Q 1047 3722 1047 3438 
Q 1047 3191 1225 3031 
Q 1400 2872 2139 2705 
Q 2878 2538 3153 2413 
Q 3553 2228 3743 1945 
Q 3934 1663 3934 1294 
Q 3934 928 3725 604 
Q 3516 281 3123 101 
Q 2731 -78 2241 -78 
Q 1619 -78 1198 103 
Q 778 284 539 648 
Q 300 1013 288 1472 
z
" transform="scale(0.015625)"/>
      <path id="ArialMT-29" d="M 791 -1347 
L 388 -1347 
Q 1322 153 1322 1656 
Q 1322 2244 1188 2822 
Q 1081 3291 891 3722 
Q 769 4003 388 4659 
L 791 4659 
Q 1378 3875 1659 3084 
Q 1900 2403 1900 1659 
Q 1900 816 1576 28 
Q 1253 -759 791 -1347 
z
" transform="scale(0.015625)"/>
     </defs>
     <use xlink:href="#ArialMT-4d"/>
     <use xlink:href="#ArialMT-4e" transform="translate(83.300781 0)"/>
     <use xlink:href="#ArialMT-41" transform="translate(155.517578 0)"/>
     <use xlink:href="#ArialMT-52" transform="translate(222.216797 0)"/>
     <use xlink:href="#ArialMT-3a" transform="translate(294.433594 0)"/>
     <use xlink:href="#ArialMT-20" transform="translate(322.216797 0)"/>
     <use xlink:href="#ArialMT-52" transform="translate(350 0)"/>
     <use xlink:href="#ArialMT-b2" transform="translate(422.216797 0)"/>
     <use xlink:href="#ArialMT-20" transform="translate(455.517578 0)"/>
     <use xlink:href="#ArialMT-76" transform="translate(483.300781 0)"/>
     <use xlink:href="#ArialMT-73" transform="translate(533.300781 0)"/>
     <use xlink:href="#ArialMT-20" transform="translate(583.300781 0)"/>
     <use xlink:href="#ArialMT-4d" transform="translate(611.083984 0)"/>
     <use xlink:href="#ArialMT-69" transform="translate(694.384766 0)"/>
     <use xlink:href="#ArialMT-73" transform="translate(716.601562 0)"/>
     <use xlink:href="#ArialMT-73" transform="translate(766.601562 0)"/>
     <use xlink:href="#ArialMT-69" transform="translate(816.601562 0)"/>
     <use xlink:href="#ArialMT-6e" transform="translate(838.818359 0)"/>
     <use xlink:href="#ArialMT-67" transform="translate(894.433594 0)"/>
     <use xlink:href="#ArialMT-6e" transform="translate(950.048828 0)"/>
     <use xlink:href="#ArialMT-65" transform="translate(1005.664062 0)"/>
     <use xlink:href="#ArialMT-73" transform="translate(1061.279297 0)"/>
     <use xlink:href="#ArialMT-73" transform="translate(1111.279297 0)"/>
     <use xlink:href="#ArialMT-20" transform="translate(1161.279297 0)"/>
     <use xlink:href="#ArialMT-50" transform="translate(1189.0625 0)"/>
     <use xlink:href="#ArialMT-72" transform="translate(1255.761719 0)"/>
     <use xlink:href="#ArialMT-6f" transform="translate(1289.0625 0)"/>
     <use xlink:href="#ArialMT-70" transform="translate(1344.677734 0)"/>
     <use xlink:href="#ArialMT-6f" transform="translate(1400.292969 0)"/>
     <use xlink:href="#ArialMT-72" transform="translate(1455.908203 0)"/>
     <use xlink:href="#ArialMT-74" transform="translate(1489.208984 0)"/>
     <use xlink:href="#ArialMT-69" transform="translate(1516.992188 0)"/>
     <use xlink:href="#ArialMT-6f" transform="translate(1539.208984 0)"/>
     <use xlink:href="#ArialMT-6e" transform="translate(1594.824219 0)"/>
     <use xlink:href="#ArialMT-20" transform="translate(1650.439453 0)"/>
     <use xlink:href="#ArialMT-28" transform="translate(1678.222656 0)"/>
     <use xlink:href="#ArialMT-51" transform="translate(1711.523438 0)"/>
     <use xlink:href="#ArialMT-53" transform="translate(1789.306641 0)"/>
     <use xlink:href="#ArialMT-41" transform="translate(1856.005859 0)"/>
     <use xlink:href="#ArialMT-52" transform="translate(1922.705078 0)"/>
     <use xlink:href="#ArialMT-29" transform="translate(1994.921875 0)"/>
    </g>
   </g>
   <g id="line2d_39">
    <path d="M 62.959514 96.188959 
L 166.670331 95.91906 
L 270.381148 100.575055 
L 374.091966 105.819159 
L 477.802783 109.568487 
" clip-path="url(#p812caa7450)" style="fill: none; stroke: #e377c2; stroke-width: 2; stroke-linecap: round"/>
    <defs>
     <path id="mcc51291d5c" d="M 0 3 
C 0.795609 3 1.55874 2.683901 2.12132 2.12132 
C 2.683901 1.55874 3 0.795609 3 0 
C 3 -0.795609 2.683901 -1.55874 2.12132 -2.12132 
C 1.55874 -2.683901 0.795609 -3 0 -3 
C -0.795609 -3 -1.55874 -2.683901 -2.12132 -2.12132 
C -2.683901 -1.55874 -3 -0.795609 -3 0 
C -3 0.795609 -2.683901 1.55874 -2.12132 2.12132 
C -1.55874 2.683901 -0.795609 3 0 3 
z
" style="stroke: #e377c2"/>
    </defs>
    <g clip-path="url(#p812caa7450)">
     <use xlink:href="#mcc51291d5c" x="62.959514" y="96.188959" style="fill: #e377c2; stroke: #e377c2"/>
     <use xlink:href="#mcc51291d5c" x="166.670331" y="95.91906" style="fill: #e377c2; stroke: #e377c2"/>
     <use xlink:href="#mcc51291d5c" x="270.381148" y="100.575055" style="fill: #e377c2; stroke: #e377c2"/>
     <use xlink:href="#mcc51291d5c" x="374.091966" y="105.819159" style="fill: #e377c2; stroke: #e377c2"/>
     <use xlink:href="#mcc51291d5c" x="477.802783" y="109.568487" style="fill: #e377c2; stroke: #e377c2"/>
    </g>
   </g>
   <g id="legend_1">
    <g id="patch_7">
     <path d="M 502.043388 148.248141 
L 626.649842 148.248141 
Q 628.739842 148.248141 628.739842 146.158141 
L 628.739842 28.820969 
Q 628.739842 26.730969 626.649842 26.730969 
L 502.043388 26.730969 
Q 499.953388 26.730969 499.953388 28.820969 
L 499.953388 146.158141 
Q 499.953388 148.248141 502.043388 148.248141 
z
" style="fill: #ffffff; opacity: 0.8; stroke: #cccccc; stroke-linejoin: miter"/>
    </g>
    <g id="LineCollection_9">
     <path d="M 514.583388 39.958383 
L 514.583388 29.508383 
" style="fill: none; stroke: #ff7f0e; stroke-width: 1.5"/>
    </g>
    <g id="line2d_40">
     <g>
      <use xlink:href="#m8e1df7783c" x="514.583388" y="39.958383" style="fill: #ff7f0e; stroke: #ff7f0e"/>
     </g>
    </g>
    <g id="line2d_41">
     <g>
      <use xlink:href="#m8e1df7783c" x="514.583388" y="29.508383" style="fill: #ff7f0e; stroke: #ff7f0e"/>
     </g>
    </g>
    <g id="line2d_42">
     <path d="M 504.133388 34.733383 
L 525.033388 34.733383 
" style="fill: none; stroke: #ff7f0e; stroke-width: 1.5; stroke-linecap: round"/>
    </g>
    <g id="line2d_43">
     <g>
      <use xlink:href="#m7a6627aa57" x="514.583388" y="34.733383" style="fill: #ff7f0e; stroke: #ff7f0e"/>
     </g>
    </g>
    <g id="text_19">
     <!-- Matrix Factorization -->
     <g style="fill: #262626" transform="translate(533.393388 38.390883) scale(0.1045 -0.1045)">
      <defs>
       <path id="ArialMT-61" d="M 2588 409 
Q 2275 144 1986 34 
Q 1697 -75 1366 -75 
Q 819 -75 525 192 
Q 231 459 231 875 
Q 231 1119 342 1320 
Q 453 1522 633 1644 
Q 813 1766 1038 1828 
Q 1203 1872 1538 1913 
Q 2219 1994 2541 2106 
Q 2544 2222 2544 2253 
Q 2544 2597 2384 2738 
Q 2169 2928 1744 2928 
Q 1347 2928 1158 2789 
Q 969 2650 878 2297 
L 328 2372 
Q 403 2725 575 2942 
Q 747 3159 1072 3276 
Q 1397 3394 1825 3394 
Q 2250 3394 2515 3294 
Q 2781 3194 2906 3042 
Q 3031 2891 3081 2659 
Q 3109 2516 3109 2141 
L 3109 1391 
Q 3109 606 3145 398 
Q 3181 191 3288 0 
L 2700 0 
Q 2613 175 2588 409 
z
M 2541 1666 
Q 2234 1541 1622 1453 
Q 1275 1403 1131 1340 
Q 988 1278 909 1158 
Q 831 1038 831 891 
Q 831 666 1001 516 
Q 1172 366 1500 366 
Q 1825 366 2078 508 
Q 2331 650 2450 897 
Q 2541 1088 2541 1459 
L 2541 1666 
z
" transform="scale(0.015625)"/>
       <path id="ArialMT-78" d="M 47 0 
L 1259 1725 
L 138 3319 
L 841 3319 
L 1350 2541 
Q 1494 2319 1581 2169 
Q 1719 2375 1834 2534 
L 2394 3319 
L 3066 3319 
L 1919 1756 
L 3153 0 
L 2463 0 
L 1781 1031 
L 1600 1309 
L 728 0 
L 47 0 
z
" transform="scale(0.015625)"/>
       <path id="ArialMT-46" d="M 525 0 
L 525 4581 
L 3616 4581 
L 3616 4041 
L 1131 4041 
L 1131 2622 
L 3281 2622 
L 3281 2081 
L 1131 2081 
L 1131 0 
L 525 0 
z
" transform="scale(0.015625)"/>
       <path id="ArialMT-63" d="M 2588 1216 
L 3141 1144 
Q 3050 572 2676 248 
Q 2303 -75 1759 -75 
Q 1078 -75 664 370 
Q 250 816 250 1647 
Q 250 2184 428 2587 
Q 606 2991 970 3192 
Q 1334 3394 1763 3394 
Q 2303 3394 2647 3120 
Q 2991 2847 3088 2344 
L 2541 2259 
Q 2463 2594 2264 2762 
Q 2066 2931 1784 2931 
Q 1359 2931 1093 2626 
Q 828 2322 828 1663 
Q 828 994 1084 691 
Q 1341 388 1753 388 
Q 2084 388 2306 591 
Q 2528 794 2588 1216 
z
" transform="scale(0.015625)"/>
       <path id="ArialMT-7a" d="M 125 0 
L 125 456 
L 2238 2881 
Q 1878 2863 1603 2863 
L 250 2863 
L 250 3319 
L 2963 3319 
L 2963 2947 
L 1166 841 
L 819 456 
Q 1197 484 1528 484 
L 3063 484 
L 3063 0 
L 125 0 
z
" transform="scale(0.015625)"/>
      </defs>
      <use xlink:href="#ArialMT-4d"/>
      <use xlink:href="#ArialMT-61" transform="translate(83.300781 0)"/>
      <use xlink:href="#ArialMT-74" transform="translate(138.916016 0)"/>
      <use xlink:href="#ArialMT-72" transform="translate(166.699219 0)"/>
      <use xlink:href="#ArialMT-69" transform="translate(200 0)"/>
      <use xlink:href="#ArialMT-78" transform="translate(222.216797 0)"/>
      <use xlink:href="#ArialMT-20" transform="translate(272.216797 0)"/>
      <use xlink:href="#ArialMT-46" transform="translate(300 0)"/>
      <use xlink:href="#ArialMT-61" transform="translate(361.083984 0)"/>
      <use xlink:href="#ArialMT-63" transform="translate(416.699219 0)"/>
      <use xlink:href="#ArialMT-74" transform="translate(466.699219 0)"/>
      <use xlink:href="#ArialMT-6f" transform="translate(494.482422 0)"/>
      <use xlink:href="#ArialMT-72" transform="translate(550.097656 0)"/>
      <use xlink:href="#ArialMT-69" transform="translate(583.398438 0)"/>
      <use xlink:href="#ArialMT-7a" transform="translate(605.615234 0)"/>
      <use xlink:href="#ArialMT-61" transform="translate(655.615234 0)"/>
      <use xlink:href="#ArialMT-74" transform="translate(711.230469 0)"/>
      <use xlink:href="#ArialMT-69" transform="translate(739.013672 0)"/>
      <use xlink:href="#ArialMT-6f" transform="translate(761.230469 0)"/>
      <use xlink:href="#ArialMT-6e" transform="translate(816.845703 0)"/>
     </g>
    </g>
    <g id="LineCollection_10">
     <path d="M 514.583388 54.740234 
L 514.583388 44.290234 
" style="fill: none; stroke: #8c564b; stroke-width: 1.5"/>
    </g>
    <g id="line2d_44">
     <g>
      <use xlink:href="#m16c90699a1" x="514.583388" y="54.740234" style="fill: #8c564b; stroke: #8c564b"/>
     </g>
    </g>
    <g id="line2d_45">
     <g>
      <use xlink:href="#m16c90699a1" x="514.583388" y="44.290234" style="fill: #8c564b; stroke: #8c564b"/>
     </g>
    </g>
    <g id="line2d_46">
     <path d="M 504.133388 49.515234 
L 525.033388 49.515234 
" style="fill: none; stroke: #8c564b; stroke-width: 1.5; stroke-linecap: round"/>
    </g>
    <g id="line2d_47">
     <g>
      <use xlink:href="#m6fba55fbd5" x="514.583388" y="49.515234" style="fill: #8c564b; stroke: #8c564b"/>
     </g>
    </g>
    <g id="text_20">
     <!-- Mean -->
     <g style="fill: #262626" transform="translate(533.393388 53.172734) scale(0.1045 -0.1045)">
      <use xlink:href="#ArialMT-4d"/>
      <use xlink:href="#ArialMT-65" transform="translate(83.300781 0)"/>
      <use xlink:href="#ArialMT-61" transform="translate(138.916016 0)"/>
      <use xlink:href="#ArialMT-6e" transform="translate(194.53125 0)"/>
     </g>
    </g>
    <g id="LineCollection_11">
     <path d="M 514.583388 69.522086 
L 514.583388 59.072086 
" style="fill: none; stroke: #bcbd22; stroke-width: 1.5"/>
    </g>
    <g id="line2d_48">
     <g>
      <use xlink:href="#m23ed8d5cef" x="514.583388" y="69.522086" style="fill: #bcbd22; stroke: #bcbd22"/>
     </g>
    </g>
    <g id="line2d_49">
     <g>
      <use xlink:href="#m23ed8d5cef" x="514.583388" y="59.072086" style="fill: #bcbd22; stroke: #bcbd22"/>
     </g>
    </g>
    <g id="line2d_50">
     <path d="M 504.133388 64.297086 
L 525.033388 64.297086 
" style="fill: none; stroke: #bcbd22; stroke-width: 1.5; stroke-linecap: round"/>
    </g>
    <g id="line2d_51">
     <g>
      <use xlink:href="#m55beb3f28e" x="514.583388" y="64.297086" style="fill: #bcbd22; stroke: #bcbd22"/>
     </g>
    </g>
    <g id="text_21">
     <!-- Missforest -->
     <g style="fill: #262626" transform="translate(533.393388 67.954586) scale(0.1045 -0.1045)">
      <defs>
       <path id="ArialMT-66" d="M 556 0 
L 556 2881 
L 59 2881 
L 59 3319 
L 556 3319 
L 556 3672 
Q 556 4006 616 4169 
Q 697 4388 901 4523 
Q 1106 4659 1475 4659 
Q 1713 4659 2000 4603 
L 1916 4113 
Q 1741 4144 1584 4144 
Q 1328 4144 1222 4034 
Q 1116 3925 1116 3625 
L 1116 3319 
L 1763 3319 
L 1763 2881 
L 1116 2881 
L 1116 0 
L 556 0 
z
" transform="scale(0.015625)"/>
      </defs>
      <use xlink:href="#ArialMT-4d"/>
      <use xlink:href="#ArialMT-69" transform="translate(83.300781 0)"/>
      <use xlink:href="#ArialMT-73" transform="translate(105.517578 0)"/>
      <use xlink:href="#ArialMT-73" transform="translate(155.517578 0)"/>
      <use xlink:href="#ArialMT-66" transform="translate(205.517578 0)"/>
      <use xlink:href="#ArialMT-6f" transform="translate(233.300781 0)"/>
      <use xlink:href="#ArialMT-72" transform="translate(288.916016 0)"/>
      <use xlink:href="#ArialMT-65" transform="translate(322.216797 0)"/>
      <use xlink:href="#ArialMT-73" transform="translate(377.832031 0)"/>
      <use xlink:href="#ArialMT-74" transform="translate(427.832031 0)"/>
     </g>
    </g>
    <g id="LineCollection_12">
     <path d="M 514.583388 84.431297 
L 514.583388 73.981297 
" style="fill: none; stroke: #1f77b4; stroke-width: 1.5"/>
    </g>
    <g id="line2d_52">
     <g>
      <use xlink:href="#mcf980d9536" x="514.583388" y="84.431297" style="fill: #1f77b4; stroke: #1f77b4"/>
     </g>
    </g>
    <g id="line2d_53">
     <g>
      <use xlink:href="#mcf980d9536" x="514.583388" y="73.981297" style="fill: #1f77b4; stroke: #1f77b4"/>
     </g>
    </g>
    <g id="line2d_54">
     <path d="M 504.133388 79.206297 
L 525.033388 79.206297 
" style="fill: none; stroke: #1f77b4; stroke-width: 1.5; stroke-linecap: round"/>
    </g>
    <g id="line2d_55">
     <g>
      <use xlink:href="#m63101ad9e5" x="514.583388" y="79.206297" style="fill: #1f77b4; stroke: #1f77b4"/>
     </g>
    </g>
    <g id="text_22">
     <!-- Soft Impute -->
     <g style="fill: #262626" transform="translate(533.393388 82.863797) scale(0.1045 -0.1045)">
      <defs>
       <path id="ArialMT-49" d="M 597 0 
L 597 4581 
L 1203 4581 
L 1203 0 
L 597 0 
z
" transform="scale(0.015625)"/>
       <path id="ArialMT-6d" d="M 422 0 
L 422 3319 
L 925 3319 
L 925 2853 
Q 1081 3097 1340 3245 
Q 1600 3394 1931 3394 
Q 2300 3394 2536 3241 
Q 2772 3088 2869 2813 
Q 3263 3394 3894 3394 
Q 4388 3394 4653 3120 
Q 4919 2847 4919 2278 
L 4919 0 
L 4359 0 
L 4359 2091 
Q 4359 2428 4304 2576 
Q 4250 2725 4106 2815 
Q 3963 2906 3769 2906 
Q 3419 2906 3187 2673 
Q 2956 2441 2956 1928 
L 2956 0 
L 2394 0 
L 2394 2156 
Q 2394 2531 2256 2718 
Q 2119 2906 1806 2906 
Q 1569 2906 1367 2781 
Q 1166 2656 1075 2415 
Q 984 2175 984 1722 
L 984 0 
L 422 0 
z
" transform="scale(0.015625)"/>
       <path id="ArialMT-75" d="M 2597 0 
L 2597 488 
Q 2209 -75 1544 -75 
Q 1250 -75 995 37 
Q 741 150 617 320 
Q 494 491 444 738 
Q 409 903 409 1263 
L 409 3319 
L 972 3319 
L 972 1478 
Q 972 1038 1006 884 
Q 1059 663 1231 536 
Q 1403 409 1656 409 
Q 1909 409 2131 539 
Q 2353 669 2445 892 
Q 2538 1116 2538 1541 
L 2538 3319 
L 3100 3319 
L 3100 0 
L 2597 0 
z
" transform="scale(0.015625)"/>
      </defs>
      <use xlink:href="#ArialMT-53"/>
      <use xlink:href="#ArialMT-6f" transform="translate(66.699219 0)"/>
      <use xlink:href="#ArialMT-66" transform="translate(122.314453 0)"/>
      <use xlink:href="#ArialMT-74" transform="translate(150.097656 0)"/>
      <use xlink:href="#ArialMT-20" transform="translate(177.880859 0)"/>
      <use xlink:href="#ArialMT-49" transform="translate(205.664062 0)"/>
      <use xlink:href="#ArialMT-6d" transform="translate(233.447266 0)"/>
      <use xlink:href="#ArialMT-70" transform="translate(316.748047 0)"/>
      <use xlink:href="#ArialMT-75" transform="translate(372.363281 0)"/>
      <use xlink:href="#ArialMT-74" transform="translate(427.978516 0)"/>
      <use xlink:href="#ArialMT-65" transform="translate(455.761719 0)"/>
     </g>
    </g>
    <g id="LineCollection_13">
     <path d="M 514.583388 99.213148 
L 514.583388 88.763148 
" style="fill: none; stroke: #d62728; stroke-width: 1.5"/>
    </g>
    <g id="line2d_56">
     <g>
      <use xlink:href="#ma4410d807b" x="514.583388" y="99.213148" style="fill: #d62728; stroke: #d62728"/>
     </g>
    </g>
    <g id="line2d_57">
     <g>
      <use xlink:href="#ma4410d807b" x="514.583388" y="88.763148" style="fill: #d62728; stroke: #d62728"/>
     </g>
    </g>
    <g id="line2d_58">
     <path d="M 504.133388 93.988148 
L 525.033388 93.988148 
" style="fill: none; stroke: #d62728; stroke-width: 1.5; stroke-linecap: round"/>
    </g>
    <g id="line2d_59">
     <g>
      <use xlink:href="#mc3782aa371" x="514.583388" y="93.988148" style="fill: #d62728; stroke: #d62728"/>
     </g>
    </g>
    <g id="text_23">
     <!-- kNN -->
     <g style="fill: #262626" transform="translate(533.393388 97.645648) scale(0.1045 -0.1045)">
      <defs>
       <path id="ArialMT-6b" d="M 425 0 
L 425 4581 
L 988 4581 
L 988 1969 
L 2319 3319 
L 3047 3319 
L 1778 2088 
L 3175 0 
L 2481 0 
L 1384 1697 
L 988 1316 
L 988 0 
L 425 0 
z
" transform="scale(0.015625)"/>
      </defs>
      <use xlink:href="#ArialMT-6b"/>
      <use xlink:href="#ArialMT-4e" transform="translate(50 0)"/>
      <use xlink:href="#ArialMT-4e" transform="translate(122.216797 0)"/>
     </g>
    </g>
    <g id="LineCollection_14">
     <path d="M 514.583388 113.995 
L 514.583388 103.545 
" style="fill: none; stroke: #9467bd; stroke-width: 1.5"/>
    </g>
    <g id="line2d_60">
     <g>
      <use xlink:href="#m9aa14ef693" x="514.583388" y="113.995" style="fill: #9467bd; stroke: #9467bd"/>
     </g>
    </g>
    <g id="line2d_61">
     <g>
      <use xlink:href="#m9aa14ef693" x="514.583388" y="103.545" style="fill: #9467bd; stroke: #9467bd"/>
     </g>
    </g>
    <g id="line2d_62">
     <path d="M 504.133388 108.77 
L 525.033388 108.77 
" style="fill: none; stroke: #9467bd; stroke-width: 1.5; stroke-linecap: round"/>
    </g>
    <g id="line2d_63">
     <g>
      <use xlink:href="#m2d7b830e95" x="514.583388" y="108.77" style="fill: #9467bd; stroke: #9467bd"/>
     </g>
    </g>
    <g id="text_24">
     <!-- Median -->
     <g style="fill: #262626" transform="translate(533.393388 112.4275) scale(0.1045 -0.1045)">
      <defs>
       <path id="ArialMT-64" d="M 2575 0 
L 2575 419 
Q 2259 -75 1647 -75 
Q 1250 -75 917 144 
Q 584 363 401 755 
Q 219 1147 219 1656 
Q 219 2153 384 2558 
Q 550 2963 881 3178 
Q 1213 3394 1622 3394 
Q 1922 3394 2156 3267 
Q 2391 3141 2538 2938 
L 2538 4581 
L 3097 4581 
L 3097 0 
L 2575 0 
z
M 797 1656 
Q 797 1019 1065 703 
Q 1334 388 1700 388 
Q 2069 388 2326 689 
Q 2584 991 2584 1609 
Q 2584 2291 2321 2609 
Q 2059 2928 1675 2928 
Q 1300 2928 1048 2622 
Q 797 2316 797 1656 
z
" transform="scale(0.015625)"/>
      </defs>
      <use xlink:href="#ArialMT-4d"/>
      <use xlink:href="#ArialMT-65" transform="translate(83.300781 0)"/>
      <use xlink:href="#ArialMT-64" transform="translate(138.916016 0)"/>
      <use xlink:href="#ArialMT-69" transform="translate(194.53125 0)"/>
      <use xlink:href="#ArialMT-61" transform="translate(216.748047 0)"/>
      <use xlink:href="#ArialMT-6e" transform="translate(272.363281 0)"/>
     </g>
    </g>
    <g id="LineCollection_15">
     <path d="M 514.583388 128.776852 
L 514.583388 118.326852 
" style="fill: none; stroke: #2ca02c; stroke-width: 1.5"/>
    </g>
    <g id="line2d_64">
     <g>
      <use xlink:href="#ma5f217d867" x="514.583388" y="128.776852" style="fill: #2ca02c; stroke: #2ca02c"/>
     </g>
    </g>
    <g id="line2d_65">
     <g>
      <use xlink:href="#ma5f217d867" x="514.583388" y="118.326852" style="fill: #2ca02c; stroke: #2ca02c"/>
     </g>
    </g>
    <g id="line2d_66">
     <path d="M 504.133388 123.551852 
L 525.033388 123.551852 
" style="fill: none; stroke: #2ca02c; stroke-width: 1.5; stroke-linecap: round"/>
    </g>
    <g id="line2d_67">
     <g>
      <use xlink:href="#m9c7b3edd9e" x="514.583388" y="123.551852" style="fill: #2ca02c; stroke: #2ca02c"/>
     </g>
    </g>
    <g id="text_25">
     <!-- Mice -->
     <g style="fill: #262626" transform="translate(533.393388 127.209352) scale(0.1045 -0.1045)">
      <use xlink:href="#ArialMT-4d"/>
      <use xlink:href="#ArialMT-69" transform="translate(83.300781 0)"/>
      <use xlink:href="#ArialMT-63" transform="translate(105.517578 0)"/>
      <use xlink:href="#ArialMT-65" transform="translate(155.517578 0)"/>
     </g>
    </g>
    <g id="LineCollection_16">
     <path d="M 514.583388 143.558703 
L 514.583388 133.108703 
" style="fill: none; stroke: #e377c2; stroke-width: 2"/>
    </g>
    <g id="line2d_68">
     <g>
      <use xlink:href="#mf6b6dffcc8" x="514.583388" y="143.558703" style="fill: #e377c2; stroke: #e377c2"/>
     </g>
    </g>
    <g id="line2d_69">
     <g>
      <use xlink:href="#mf6b6dffcc8" x="514.583388" y="133.108703" style="fill: #e377c2; stroke: #e377c2"/>
     </g>
    </g>
    <g id="line2d_70">
     <path d="M 504.133388 138.333703 
L 525.033388 138.333703 
" style="fill: none; stroke: #e377c2; stroke-width: 2; stroke-linecap: round"/>
    </g>
    <g id="line2d_71">
     <g>
      <use xlink:href="#mcc51291d5c" x="514.583388" y="138.333703" style="fill: #e377c2; stroke: #e377c2"/>
     </g>
    </g>
    <g id="text_26">
     <!-- Sudoku -->
     <g style="fill: #262626" transform="translate(533.393388 141.991203) scale(0.1045 -0.1045)">
      <use xlink:href="#ArialMT-53"/>
      <use xlink:href="#ArialMT-75" transform="translate(66.699219 0)"/>
      <use xlink:href="#ArialMT-64" transform="translate(122.314453 0)"/>
      <use xlink:href="#ArialMT-6f" transform="translate(177.929688 0)"/>
      <use xlink:href="#ArialMT-6b" transform="translate(233.544922 0)"/>
      <use xlink:href="#ArialMT-75" transform="translate(283.544922 0)"/>
     </g>
    </g>
   </g>
  </g>
 </g>
 <defs>
  <clipPath id="p812caa7450">
   <rect x="54.662648" y="21.505969" width="431.437" height="300.6435"/>
  </clipPath>
 </defs>
</svg>
