<?xml version="1.0" encoding="utf-8" standalone="no"?>
<!DOCTYPE svg PUBLIC "-//W3C//DTD SVG 1.1//EN"
  "http://www.w3.org/Graphics/SVG/1.1/DTD/svg11.dtd">
<svg xmlns:xlink="http://www.w3.org/1999/xlink" width="635.796709pt" height="362.958445pt" viewBox="0 0 635.796709 362.958445" xmlns="http://www.w3.org/2000/svg" version="1.1">
 <metadata>
  <rdf:RDF xmlns:dc="http://purl.org/dc/elements/1.1/" xmlns:cc="http://creativecommons.org/ns#" xmlns:rdf="http://www.w3.org/1999/02/22-rdf-syntax-ns#">
   <cc:Work>
    <dc:type rdf:resource="http://purl.org/dc/dcmitype/StillImage"/>
    <dc:date>2025-09-13T15:31:48.973231</dc:date>
    <dc:format>image/svg+xml</dc:format>
    <dc:creator>
     <cc:Agent>
      <dc:title>Matplotlib v3.10.0, https://matplotlib.org/</dc:title>
     </cc:Agent>
    </dc:creator>
   </cc:Work>
  </rdf:RDF>
 </metadata>
 <defs>
  <style type="text/css">*{stroke-linejoin: round; stroke-linecap: butt}</style>
 </defs>
 <g id="figure_1">
  <g id="patch_1">
   <path d="M 0 362.958445 
L 635.796709 362.958445 
L 635.796709 0 
L 0 0 
z
" style="fill: #ffffff"/>
  </g>
  <g id="axes_1">
   <g id="patch_2">
    <path d="M 57.273516 322.142344 
L 486.010516 322.142344 
L 486.010516 21.498844 
L 57.273516 21.498844 
z
" style="fill: #ffffff"/>
   </g>
   <g id="matplotlib.axis_1">
    <g id="xtick_1">
     <g id="line2d_1">
      <path d="M 65.518458 322.142344 
L 65.518458 21.498844 
" clip-path="url(#p2153a1d4f9)" style="fill: none; stroke: #cccccc; stroke-linecap: round"/>
     </g>
     <g id="text_1">
      <!-- 0.10 -->
      <g style="fill: #262626" transform="translate(55.350118 339.122258) scale(0.1045 -0.1045)">
       <defs>
        <path id="ArialMT-30" d="M 266 2259 
Q 266 3072 433 3567 
Q 600 4063 929 4331 
Q 1259 4600 1759 4600 
Q 2128 4600 2406 4451 
Q 2684 4303 2865 4023 
Q 3047 3744 3150 3342 
Q 3253 2941 3253 2259 
Q 3253 1453 3087 958 
Q 2922 463 2592 192 
Q 2263 -78 1759 -78 
Q 1097 -78 719 397 
Q 266 969 266 2259 
z
M 844 2259 
Q 844 1131 1108 757 
Q 1372 384 1759 384 
Q 2147 384 2411 759 
Q 2675 1134 2675 2259 
Q 2675 3391 2411 3762 
Q 2147 4134 1753 4134 
Q 1366 4134 1134 3806 
Q 844 3388 844 2259 
z
" transform="scale(0.015625)"/>
        <path id="ArialMT-2e" d="M 581 0 
L 581 641 
L 1222 641 
L 1222 0 
L 581 0 
z
" transform="scale(0.015625)"/>
        <path id="ArialMT-31" d="M 2384 0 
L 1822 0 
L 1822 3584 
Q 1619 3391 1289 3197 
Q 959 3003 697 2906 
L 697 3450 
Q 1169 3672 1522 3987 
Q 1875 4303 2022 4600 
L 2384 4600 
L 2384 0 
z
" transform="scale(0.015625)"/>
       </defs>
       <use xlink:href="#ArialMT-30"/>
       <use xlink:href="#ArialMT-2e" transform="translate(55.615234 0)"/>
       <use xlink:href="#ArialMT-31" transform="translate(83.398438 0)"/>
       <use xlink:href="#ArialMT-30" transform="translate(139.013672 0)"/>
      </g>
     </g>
    </g>
    <g id="xtick_2">
     <g id="line2d_2">
      <path d="M 117.049347 322.142344 
L 117.049347 21.498844 
" clip-path="url(#p2153a1d4f9)" style="fill: none; stroke: #cccccc; stroke-linecap: round"/>
     </g>
     <g id="text_2">
      <!-- 0.15 -->
      <g style="fill: #262626" transform="translate(106.881008 339.122258) scale(0.1045 -0.1045)">
       <defs>
        <path id="ArialMT-35" d="M 266 1200 
L 856 1250 
Q 922 819 1161 601 
Q 1400 384 1738 384 
Q 2144 384 2425 690 
Q 2706 997 2706 1503 
Q 2706 1984 2436 2262 
Q 2166 2541 1728 2541 
Q 1456 2541 1237 2417 
Q 1019 2294 894 2097 
L 366 2166 
L 809 4519 
L 3088 4519 
L 3088 3981 
L 1259 3981 
L 1013 2750 
Q 1425 3038 1878 3038 
Q 2478 3038 2890 2622 
Q 3303 2206 3303 1553 
Q 3303 931 2941 478 
Q 2500 -78 1738 -78 
Q 1113 -78 717 272 
Q 322 622 266 1200 
z
" transform="scale(0.015625)"/>
       </defs>
       <use xlink:href="#ArialMT-30"/>
       <use xlink:href="#ArialMT-2e" transform="translate(55.615234 0)"/>
       <use xlink:href="#ArialMT-31" transform="translate(83.398438 0)"/>
       <use xlink:href="#ArialMT-35" transform="translate(139.013672 0)"/>
      </g>
     </g>
    </g>
    <g id="xtick_3">
     <g id="line2d_3">
      <path d="M 168.580237 322.142344 
L 168.580237 21.498844 
" clip-path="url(#p2153a1d4f9)" style="fill: none; stroke: #cccccc; stroke-linecap: round"/>
     </g>
     <g id="text_3">
      <!-- 0.20 -->
      <g style="fill: #262626" transform="translate(158.411897 339.122258) scale(0.1045 -0.1045)">
       <defs>
        <path id="ArialMT-32" d="M 3222 541 
L 3222 0 
L 194 0 
Q 188 203 259 391 
Q 375 700 629 1000 
Q 884 1300 1366 1694 
Q 2113 2306 2375 2664 
Q 2638 3022 2638 3341 
Q 2638 3675 2398 3904 
Q 2159 4134 1775 4134 
Q 1369 4134 1125 3890 
Q 881 3647 878 3216 
L 300 3275 
Q 359 3922 746 4261 
Q 1134 4600 1788 4600 
Q 2447 4600 2831 4234 
Q 3216 3869 3216 3328 
Q 3216 3053 3103 2787 
Q 2991 2522 2730 2228 
Q 2469 1934 1863 1422 
Q 1356 997 1212 845 
Q 1069 694 975 541 
L 3222 541 
z
" transform="scale(0.015625)"/>
       </defs>
       <use xlink:href="#ArialMT-30"/>
       <use xlink:href="#ArialMT-2e" transform="translate(55.615234 0)"/>
       <use xlink:href="#ArialMT-32" transform="translate(83.398438 0)"/>
       <use xlink:href="#ArialMT-30" transform="translate(139.013672 0)"/>
      </g>
     </g>
    </g>
    <g id="xtick_4">
     <g id="line2d_4">
      <path d="M 220.111126 322.142344 
L 220.111126 21.498844 
" clip-path="url(#p2153a1d4f9)" style="fill: none; stroke: #cccccc; stroke-linecap: round"/>
     </g>
     <g id="text_4">
      <!-- 0.25 -->
      <g style="fill: #262626" transform="translate(209.942786 339.122258) scale(0.1045 -0.1045)">
       <use xlink:href="#ArialMT-30"/>
       <use xlink:href="#ArialMT-2e" transform="translate(55.615234 0)"/>
       <use xlink:href="#ArialMT-32" transform="translate(83.398438 0)"/>
       <use xlink:href="#ArialMT-35" transform="translate(139.013672 0)"/>
      </g>
     </g>
    </g>
    <g id="xtick_5">
     <g id="line2d_5">
      <path d="M 271.642016 322.142344 
L 271.642016 21.498844 
" clip-path="url(#p2153a1d4f9)" style="fill: none; stroke: #cccccc; stroke-linecap: round"/>
     </g>
     <g id="text_5">
      <!-- 0.30 -->
      <g style="fill: #262626" transform="translate(261.473676 339.122258) scale(0.1045 -0.1045)">
       <defs>
        <path id="ArialMT-33" d="M 269 1209 
L 831 1284 
Q 928 806 1161 595 
Q 1394 384 1728 384 
Q 2125 384 2398 659 
Q 2672 934 2672 1341 
Q 2672 1728 2419 1979 
Q 2166 2231 1775 2231 
Q 1616 2231 1378 2169 
L 1441 2663 
Q 1497 2656 1531 2656 
Q 1891 2656 2178 2843 
Q 2466 3031 2466 3422 
Q 2466 3731 2256 3934 
Q 2047 4138 1716 4138 
Q 1388 4138 1169 3931 
Q 950 3725 888 3313 
L 325 3413 
Q 428 3978 793 4289 
Q 1159 4600 1703 4600 
Q 2078 4600 2393 4439 
Q 2709 4278 2876 4000 
Q 3044 3722 3044 3409 
Q 3044 3113 2884 2869 
Q 2725 2625 2413 2481 
Q 2819 2388 3044 2092 
Q 3269 1797 3269 1353 
Q 3269 753 2831 336 
Q 2394 -81 1725 -81 
Q 1122 -81 723 278 
Q 325 638 269 1209 
z
" transform="scale(0.015625)"/>
       </defs>
       <use xlink:href="#ArialMT-30"/>
       <use xlink:href="#ArialMT-2e" transform="translate(55.615234 0)"/>
       <use xlink:href="#ArialMT-33" transform="translate(83.398438 0)"/>
       <use xlink:href="#ArialMT-30" transform="translate(139.013672 0)"/>
      </g>
     </g>
    </g>
    <g id="xtick_6">
     <g id="line2d_6">
      <path d="M 323.172905 322.142344 
L 323.172905 21.498844 
" clip-path="url(#p2153a1d4f9)" style="fill: none; stroke: #cccccc; stroke-linecap: round"/>
     </g>
     <g id="text_6">
      <!-- 0.35 -->
      <g style="fill: #262626" transform="translate(313.004565 339.122258) scale(0.1045 -0.1045)">
       <use xlink:href="#ArialMT-30"/>
       <use xlink:href="#ArialMT-2e" transform="translate(55.615234 0)"/>
       <use xlink:href="#ArialMT-33" transform="translate(83.398438 0)"/>
       <use xlink:href="#ArialMT-35" transform="translate(139.013672 0)"/>
      </g>
     </g>
    </g>
    <g id="xtick_7">
     <g id="line2d_7">
      <path d="M 374.703794 322.142344 
L 374.703794 21.498844 
" clip-path="url(#p2153a1d4f9)" style="fill: none; stroke: #cccccc; stroke-linecap: round"/>
     </g>
     <g id="text_7">
      <!-- 0.40 -->
      <g style="fill: #262626" transform="translate(364.535455 339.122258) scale(0.1045 -0.1045)">
       <defs>
        <path id="ArialMT-34" d="M 2069 0 
L 2069 1097 
L 81 1097 
L 81 1613 
L 2172 4581 
L 2631 4581 
L 2631 1613 
L 3250 1613 
L 3250 1097 
L 2631 1097 
L 2631 0 
L 2069 0 
z
M 2069 1613 
L 2069 3678 
L 634 1613 
L 2069 1613 
z
" transform="scale(0.015625)"/>
       </defs>
       <use xlink:href="#ArialMT-30"/>
       <use xlink:href="#ArialMT-2e" transform="translate(55.615234 0)"/>
       <use xlink:href="#ArialMT-34" transform="translate(83.398438 0)"/>
       <use xlink:href="#ArialMT-30" transform="translate(139.013672 0)"/>
      </g>
     </g>
    </g>
    <g id="xtick_8">
     <g id="line2d_8">
      <path d="M 426.234684 322.142344 
L 426.234684 21.498844 
" clip-path="url(#p2153a1d4f9)" style="fill: none; stroke: #cccccc; stroke-linecap: round"/>
     </g>
     <g id="text_8">
      <!-- 0.45 -->
      <g style="fill: #262626" transform="translate(416.066344 339.122258) scale(0.1045 -0.1045)">
       <use xlink:href="#ArialMT-30"/>
       <use xlink:href="#ArialMT-2e" transform="translate(55.615234 0)"/>
       <use xlink:href="#ArialMT-34" transform="translate(83.398438 0)"/>
       <use xlink:href="#ArialMT-35" transform="translate(139.013672 0)"/>
      </g>
     </g>
    </g>
    <g id="xtick_9">
     <g id="line2d_9">
      <path d="M 477.765573 322.142344 
L 477.765573 21.498844 
" clip-path="url(#p2153a1d4f9)" style="fill: none; stroke: #cccccc; stroke-linecap: round"/>
     </g>
     <g id="text_9">
      <!-- 0.50 -->
      <g style="fill: #262626" transform="translate(467.597233 339.122258) scale(0.1045 -0.1045)">
       <use xlink:href="#ArialMT-30"/>
       <use xlink:href="#ArialMT-2e" transform="translate(55.615234 0)"/>
       <use xlink:href="#ArialMT-35" transform="translate(83.398438 0)"/>
       <use xlink:href="#ArialMT-30" transform="translate(139.013672 0)"/>
      </g>
     </g>
    </g>
    <g id="text_10">
     <!-- Missingness Proportion -->
     <g style="fill: #262626" transform="translate(212.402094 353.359102) scale(0.114 -0.114)">
      <defs>
       <path id="ArialMT-4d" d="M 475 0 
L 475 4581 
L 1388 4581 
L 2472 1338 
Q 2622 884 2691 659 
Q 2769 909 2934 1394 
L 4031 4581 
L 4847 4581 
L 4847 0 
L 4263 0 
L 4263 3834 
L 2931 0 
L 2384 0 
L 1059 3900 
L 1059 0 
L 475 0 
z
" transform="scale(0.015625)"/>
       <path id="ArialMT-69" d="M 425 3934 
L 425 4581 
L 988 4581 
L 988 3934 
L 425 3934 
z
M 425 0 
L 425 3319 
L 988 3319 
L 988 0 
L 425 0 
z
" transform="scale(0.015625)"/>
       <path id="ArialMT-73" d="M 197 991 
L 753 1078 
Q 800 744 1014 566 
Q 1228 388 1613 388 
Q 2000 388 2187 545 
Q 2375 703 2375 916 
Q 2375 1106 2209 1216 
Q 2094 1291 1634 1406 
Q 1016 1563 777 1677 
Q 538 1791 414 1992 
Q 291 2194 291 2438 
Q 291 2659 392 2848 
Q 494 3038 669 3163 
Q 800 3259 1026 3326 
Q 1253 3394 1513 3394 
Q 1903 3394 2198 3281 
Q 2494 3169 2634 2976 
Q 2775 2784 2828 2463 
L 2278 2388 
Q 2241 2644 2061 2787 
Q 1881 2931 1553 2931 
Q 1166 2931 1000 2803 
Q 834 2675 834 2503 
Q 834 2394 903 2306 
Q 972 2216 1119 2156 
Q 1203 2125 1616 2013 
Q 2213 1853 2448 1751 
Q 2684 1650 2818 1456 
Q 2953 1263 2953 975 
Q 2953 694 2789 445 
Q 2625 197 2315 61 
Q 2006 -75 1616 -75 
Q 969 -75 630 194 
Q 291 463 197 991 
z
" transform="scale(0.015625)"/>
       <path id="ArialMT-6e" d="M 422 0 
L 422 3319 
L 928 3319 
L 928 2847 
Q 1294 3394 1984 3394 
Q 2284 3394 2536 3286 
Q 2788 3178 2913 3003 
Q 3038 2828 3088 2588 
Q 3119 2431 3119 2041 
L 3119 0 
L 2556 0 
L 2556 2019 
Q 2556 2363 2490 2533 
Q 2425 2703 2258 2804 
Q 2091 2906 1866 2906 
Q 1506 2906 1245 2678 
Q 984 2450 984 1813 
L 984 0 
L 422 0 
z
" transform="scale(0.015625)"/>
       <path id="ArialMT-67" d="M 319 -275 
L 866 -356 
Q 900 -609 1056 -725 
Q 1266 -881 1628 -881 
Q 2019 -881 2231 -725 
Q 2444 -569 2519 -288 
Q 2563 -116 2559 434 
Q 2191 0 1641 0 
Q 956 0 581 494 
Q 206 988 206 1678 
Q 206 2153 378 2554 
Q 550 2956 876 3175 
Q 1203 3394 1644 3394 
Q 2231 3394 2613 2919 
L 2613 3319 
L 3131 3319 
L 3131 450 
Q 3131 -325 2973 -648 
Q 2816 -972 2473 -1159 
Q 2131 -1347 1631 -1347 
Q 1038 -1347 672 -1080 
Q 306 -813 319 -275 
z
M 784 1719 
Q 784 1066 1043 766 
Q 1303 466 1694 466 
Q 2081 466 2343 764 
Q 2606 1063 2606 1700 
Q 2606 2309 2336 2618 
Q 2066 2928 1684 2928 
Q 1309 2928 1046 2623 
Q 784 2319 784 1719 
z
" transform="scale(0.015625)"/>
       <path id="ArialMT-65" d="M 2694 1069 
L 3275 997 
Q 3138 488 2766 206 
Q 2394 -75 1816 -75 
Q 1088 -75 661 373 
Q 234 822 234 1631 
Q 234 2469 665 2931 
Q 1097 3394 1784 3394 
Q 2450 3394 2872 2941 
Q 3294 2488 3294 1666 
Q 3294 1616 3291 1516 
L 816 1516 
Q 847 969 1125 678 
Q 1403 388 1819 388 
Q 2128 388 2347 550 
Q 2566 713 2694 1069 
z
M 847 1978 
L 2700 1978 
Q 2663 2397 2488 2606 
Q 2219 2931 1791 2931 
Q 1403 2931 1139 2672 
Q 875 2413 847 1978 
z
" transform="scale(0.015625)"/>
       <path id="ArialMT-20" transform="scale(0.015625)"/>
       <path id="ArialMT-50" d="M 494 0 
L 494 4581 
L 2222 4581 
Q 2678 4581 2919 4538 
Q 3256 4481 3484 4323 
Q 3713 4166 3852 3881 
Q 3991 3597 3991 3256 
Q 3991 2672 3619 2267 
Q 3247 1863 2275 1863 
L 1100 1863 
L 1100 0 
L 494 0 
z
M 1100 2403 
L 2284 2403 
Q 2872 2403 3119 2622 
Q 3366 2841 3366 3238 
Q 3366 3525 3220 3729 
Q 3075 3934 2838 4000 
Q 2684 4041 2272 4041 
L 1100 4041 
L 1100 2403 
z
" transform="scale(0.015625)"/>
       <path id="ArialMT-72" d="M 416 0 
L 416 3319 
L 922 3319 
L 922 2816 
Q 1116 3169 1280 3281 
Q 1444 3394 1641 3394 
Q 1925 3394 2219 3213 
L 2025 2691 
Q 1819 2813 1613 2813 
Q 1428 2813 1281 2702 
Q 1134 2591 1072 2394 
Q 978 2094 978 1738 
L 978 0 
L 416 0 
z
" transform="scale(0.015625)"/>
       <path id="ArialMT-6f" d="M 213 1659 
Q 213 2581 725 3025 
Q 1153 3394 1769 3394 
Q 2453 3394 2887 2945 
Q 3322 2497 3322 1706 
Q 3322 1066 3130 698 
Q 2938 331 2570 128 
Q 2203 -75 1769 -75 
Q 1072 -75 642 372 
Q 213 819 213 1659 
z
M 791 1659 
Q 791 1022 1069 705 
Q 1347 388 1769 388 
Q 2188 388 2466 706 
Q 2744 1025 2744 1678 
Q 2744 2294 2464 2611 
Q 2184 2928 1769 2928 
Q 1347 2928 1069 2612 
Q 791 2297 791 1659 
z
" transform="scale(0.015625)"/>
       <path id="ArialMT-70" d="M 422 -1272 
L 422 3319 
L 934 3319 
L 934 2888 
Q 1116 3141 1344 3267 
Q 1572 3394 1897 3394 
Q 2322 3394 2647 3175 
Q 2972 2956 3137 2557 
Q 3303 2159 3303 1684 
Q 3303 1175 3120 767 
Q 2938 359 2589 142 
Q 2241 -75 1856 -75 
Q 1575 -75 1351 44 
Q 1128 163 984 344 
L 984 -1272 
L 422 -1272 
z
M 931 1641 
Q 931 1000 1190 694 
Q 1450 388 1819 388 
Q 2194 388 2461 705 
Q 2728 1022 2728 1688 
Q 2728 2322 2467 2637 
Q 2206 2953 1844 2953 
Q 1484 2953 1207 2617 
Q 931 2281 931 1641 
z
" transform="scale(0.015625)"/>
       <path id="ArialMT-74" d="M 1650 503 
L 1731 6 
Q 1494 -44 1306 -44 
Q 1000 -44 831 53 
Q 663 150 594 308 
Q 525 466 525 972 
L 525 2881 
L 113 2881 
L 113 3319 
L 525 3319 
L 525 4141 
L 1084 4478 
L 1084 3319 
L 1650 3319 
L 1650 2881 
L 1084 2881 
L 1084 941 
Q 1084 700 1114 631 
Q 1144 563 1211 522 
Q 1278 481 1403 481 
Q 1497 481 1650 503 
z
" transform="scale(0.015625)"/>
      </defs>
      <use xlink:href="#ArialMT-4d"/>
      <use xlink:href="#ArialMT-69" transform="translate(83.300781 0)"/>
      <use xlink:href="#ArialMT-73" transform="translate(105.517578 0)"/>
      <use xlink:href="#ArialMT-73" transform="translate(155.517578 0)"/>
      <use xlink:href="#ArialMT-69" transform="translate(205.517578 0)"/>
      <use xlink:href="#ArialMT-6e" transform="translate(227.734375 0)"/>
      <use xlink:href="#ArialMT-67" transform="translate(283.349609 0)"/>
      <use xlink:href="#ArialMT-6e" transform="translate(338.964844 0)"/>
      <use xlink:href="#ArialMT-65" transform="translate(394.580078 0)"/>
      <use xlink:href="#ArialMT-73" transform="translate(450.195312 0)"/>
      <use xlink:href="#ArialMT-73" transform="translate(500.195312 0)"/>
      <use xlink:href="#ArialMT-20" transform="translate(550.195312 0)"/>
      <use xlink:href="#ArialMT-50" transform="translate(577.978516 0)"/>
      <use xlink:href="#ArialMT-72" transform="translate(644.677734 0)"/>
      <use xlink:href="#ArialMT-6f" transform="translate(677.978516 0)"/>
      <use xlink:href="#ArialMT-70" transform="translate(733.59375 0)"/>
      <use xlink:href="#ArialMT-6f" transform="translate(789.208984 0)"/>
      <use xlink:href="#ArialMT-72" transform="translate(844.824219 0)"/>
      <use xlink:href="#ArialMT-74" transform="translate(878.125 0)"/>
      <use xlink:href="#ArialMT-69" transform="translate(905.908203 0)"/>
      <use xlink:href="#ArialMT-6f" transform="translate(928.125 0)"/>
      <use xlink:href="#ArialMT-6e" transform="translate(983.740234 0)"/>
     </g>
    </g>
   </g>
   <g id="matplotlib.axis_2">
    <g id="ytick_1">
     <g id="line2d_10">
      <path d="M 57.273516 291.574325 
L 486.010516 291.574325 
" clip-path="url(#p2153a1d4f9)" style="fill: none; stroke: #cccccc; stroke-linecap: round"/>
     </g>
     <g id="text_11">
      <!-- 0.450 -->
      <g style="fill: #262626" transform="translate(21.625656 295.314283) scale(0.1045 -0.1045)">
       <use xlink:href="#ArialMT-30"/>
       <use xlink:href="#ArialMT-2e" transform="translate(55.615234 0)"/>
       <use xlink:href="#ArialMT-34" transform="translate(83.398438 0)"/>
       <use xlink:href="#ArialMT-35" transform="translate(139.013672 0)"/>
       <use xlink:href="#ArialMT-30" transform="translate(194.628906 0)"/>
      </g>
     </g>
    </g>
    <g id="ytick_2">
     <g id="line2d_11">
      <path d="M 57.273516 257.592593 
L 486.010516 257.592593 
" clip-path="url(#p2153a1d4f9)" style="fill: none; stroke: #cccccc; stroke-linecap: round"/>
     </g>
     <g id="text_12">
      <!-- 0.475 -->
      <g style="fill: #262626" transform="translate(21.625656 261.33255) scale(0.1045 -0.1045)">
       <defs>
        <path id="ArialMT-37" d="M 303 3981 
L 303 4522 
L 3269 4522 
L 3269 4084 
Q 2831 3619 2401 2847 
Q 1972 2075 1738 1259 
Q 1569 684 1522 0 
L 944 0 
Q 953 541 1156 1306 
Q 1359 2072 1739 2783 
Q 2119 3494 2547 3981 
L 303 3981 
z
" transform="scale(0.015625)"/>
       </defs>
       <use xlink:href="#ArialMT-30"/>
       <use xlink:href="#ArialMT-2e" transform="translate(55.615234 0)"/>
       <use xlink:href="#ArialMT-34" transform="translate(83.398438 0)"/>
       <use xlink:href="#ArialMT-37" transform="translate(139.013672 0)"/>
       <use xlink:href="#ArialMT-35" transform="translate(194.628906 0)"/>
      </g>
     </g>
    </g>
    <g id="ytick_3">
     <g id="line2d_12">
      <path d="M 57.273516 223.61086 
L 486.010516 223.61086 
" clip-path="url(#p2153a1d4f9)" style="fill: none; stroke: #cccccc; stroke-linecap: round"/>
     </g>
     <g id="text_13">
      <!-- 0.500 -->
      <g style="fill: #262626" transform="translate(21.625656 227.350817) scale(0.1045 -0.1045)">
       <use xlink:href="#ArialMT-30"/>
       <use xlink:href="#ArialMT-2e" transform="translate(55.615234 0)"/>
       <use xlink:href="#ArialMT-35" transform="translate(83.398438 0)"/>
       <use xlink:href="#ArialMT-30" transform="translate(139.013672 0)"/>
       <use xlink:href="#ArialMT-30" transform="translate(194.628906 0)"/>
      </g>
     </g>
    </g>
    <g id="ytick_4">
     <g id="line2d_13">
      <path d="M 57.273516 189.629127 
L 486.010516 189.629127 
" clip-path="url(#p2153a1d4f9)" style="fill: none; stroke: #cccccc; stroke-linecap: round"/>
     </g>
     <g id="text_14">
      <!-- 0.525 -->
      <g style="fill: #262626" transform="translate(21.625656 193.369084) scale(0.1045 -0.1045)">
       <use xlink:href="#ArialMT-30"/>
       <use xlink:href="#ArialMT-2e" transform="translate(55.615234 0)"/>
       <use xlink:href="#ArialMT-35" transform="translate(83.398438 0)"/>
       <use xlink:href="#ArialMT-32" transform="translate(139.013672 0)"/>
       <use xlink:href="#ArialMT-35" transform="translate(194.628906 0)"/>
      </g>
     </g>
    </g>
    <g id="ytick_5">
     <g id="line2d_14">
      <path d="M 57.273516 155.647394 
L 486.010516 155.647394 
" clip-path="url(#p2153a1d4f9)" style="fill: none; stroke: #cccccc; stroke-linecap: round"/>
     </g>
     <g id="text_15">
      <!-- 0.550 -->
      <g style="fill: #262626" transform="translate(21.625656 159.387351) scale(0.1045 -0.1045)">
       <use xlink:href="#ArialMT-30"/>
       <use xlink:href="#ArialMT-2e" transform="translate(55.615234 0)"/>
       <use xlink:href="#ArialMT-35" transform="translate(83.398438 0)"/>
       <use xlink:href="#ArialMT-35" transform="translate(139.013672 0)"/>
       <use xlink:href="#ArialMT-30" transform="translate(194.628906 0)"/>
      </g>
     </g>
    </g>
    <g id="ytick_6">
     <g id="line2d_15">
      <path d="M 57.273516 121.665662 
L 486.010516 121.665662 
" clip-path="url(#p2153a1d4f9)" style="fill: none; stroke: #cccccc; stroke-linecap: round"/>
     </g>
     <g id="text_16">
      <!-- 0.575 -->
      <g style="fill: #262626" transform="translate(21.625656 125.405619) scale(0.1045 -0.1045)">
       <use xlink:href="#ArialMT-30"/>
       <use xlink:href="#ArialMT-2e" transform="translate(55.615234 0)"/>
       <use xlink:href="#ArialMT-35" transform="translate(83.398438 0)"/>
       <use xlink:href="#ArialMT-37" transform="translate(139.013672 0)"/>
       <use xlink:href="#ArialMT-35" transform="translate(194.628906 0)"/>
      </g>
     </g>
    </g>
    <g id="ytick_7">
     <g id="line2d_16">
      <path d="M 57.273516 87.683929 
L 486.010516 87.683929 
" clip-path="url(#p2153a1d4f9)" style="fill: none; stroke: #cccccc; stroke-linecap: round"/>
     </g>
     <g id="text_17">
      <!-- 0.600 -->
      <g style="fill: #262626" transform="translate(21.625656 91.423886) scale(0.1045 -0.1045)">
       <defs>
        <path id="ArialMT-36" d="M 3184 3459 
L 2625 3416 
Q 2550 3747 2413 3897 
Q 2184 4138 1850 4138 
Q 1581 4138 1378 3988 
Q 1113 3794 959 3422 
Q 806 3050 800 2363 
Q 1003 2672 1297 2822 
Q 1591 2972 1913 2972 
Q 2475 2972 2870 2558 
Q 3266 2144 3266 1488 
Q 3266 1056 3080 686 
Q 2894 316 2569 119 
Q 2244 -78 1831 -78 
Q 1128 -78 684 439 
Q 241 956 241 2144 
Q 241 3472 731 4075 
Q 1159 4600 1884 4600 
Q 2425 4600 2770 4297 
Q 3116 3994 3184 3459 
z
M 888 1484 
Q 888 1194 1011 928 
Q 1134 663 1356 523 
Q 1578 384 1822 384 
Q 2178 384 2434 671 
Q 2691 959 2691 1453 
Q 2691 1928 2437 2201 
Q 2184 2475 1800 2475 
Q 1419 2475 1153 2201 
Q 888 1928 888 1484 
z
" transform="scale(0.015625)"/>
       </defs>
       <use xlink:href="#ArialMT-30"/>
       <use xlink:href="#ArialMT-2e" transform="translate(55.615234 0)"/>
       <use xlink:href="#ArialMT-36" transform="translate(83.398438 0)"/>
       <use xlink:href="#ArialMT-30" transform="translate(139.013672 0)"/>
       <use xlink:href="#ArialMT-30" transform="translate(194.628906 0)"/>
      </g>
     </g>
    </g>
    <g id="ytick_8">
     <g id="line2d_17">
      <path d="M 57.273516 53.702196 
L 486.010516 53.702196 
" clip-path="url(#p2153a1d4f9)" style="fill: none; stroke: #cccccc; stroke-linecap: round"/>
     </g>
     <g id="text_18">
      <!-- 0.625 -->
      <g style="fill: #262626" transform="translate(21.625656 57.442153) scale(0.1045 -0.1045)">
       <use xlink:href="#ArialMT-30"/>
       <use xlink:href="#ArialMT-2e" transform="translate(55.615234 0)"/>
       <use xlink:href="#ArialMT-36" transform="translate(83.398438 0)"/>
       <use xlink:href="#ArialMT-32" transform="translate(139.013672 0)"/>
       <use xlink:href="#ArialMT-35" transform="translate(194.628906 0)"/>
      </g>
     </g>
    </g>
    <g id="text_19">
     <!-- Pearson -->
     <g style="fill: #262626" transform="translate(15.359906 193.049531) rotate(-90) scale(0.114 -0.114)">
      <defs>
       <path id="ArialMT-61" d="M 2588 409 
Q 2275 144 1986 34 
Q 1697 -75 1366 -75 
Q 819 -75 525 192 
Q 231 459 231 875 
Q 231 1119 342 1320 
Q 453 1522 633 1644 
Q 813 1766 1038 1828 
Q 1203 1872 1538 1913 
Q 2219 1994 2541 2106 
Q 2544 2222 2544 2253 
Q 2544 2597 2384 2738 
Q 2169 2928 1744 2928 
Q 1347 2928 1158 2789 
Q 969 2650 878 2297 
L 328 2372 
Q 403 2725 575 2942 
Q 747 3159 1072 3276 
Q 1397 3394 1825 3394 
Q 2250 3394 2515 3294 
Q 2781 3194 2906 3042 
Q 3031 2891 3081 2659 
Q 3109 2516 3109 2141 
L 3109 1391 
Q 3109 606 3145 398 
Q 3181 191 3288 0 
L 2700 0 
Q 2613 175 2588 409 
z
M 2541 1666 
Q 2234 1541 1622 1453 
Q 1275 1403 1131 1340 
Q 988 1278 909 1158 
Q 831 1038 831 891 
Q 831 666 1001 516 
Q 1172 366 1500 366 
Q 1825 366 2078 508 
Q 2331 650 2450 897 
Q 2541 1088 2541 1459 
L 2541 1666 
z
" transform="scale(0.015625)"/>
      </defs>
      <use xlink:href="#ArialMT-50"/>
      <use xlink:href="#ArialMT-65" transform="translate(66.699219 0)"/>
      <use xlink:href="#ArialMT-61" transform="translate(122.314453 0)"/>
      <use xlink:href="#ArialMT-72" transform="translate(177.929688 0)"/>
      <use xlink:href="#ArialMT-73" transform="translate(211.230469 0)"/>
      <use xlink:href="#ArialMT-6f" transform="translate(261.230469 0)"/>
      <use xlink:href="#ArialMT-6e" transform="translate(316.845703 0)"/>
     </g>
    </g>
   </g>
   <g id="line2d_18">
    <path d="M 65.518458 64.660109 
L 168.580237 77.793496 
L 271.642016 91.58381 
L 374.703794 113.799656 
L 477.765573 153.133275 
" clip-path="url(#p2153a1d4f9)" style="fill: none; stroke: #ff7f0e; stroke-width: 1.5; stroke-linecap: round"/>
    <defs>
     <path id="m5cb72bd790" d="M 0 3 
C 0.795609 3 1.55874 2.683901 2.12132 2.12132 
C 2.683901 1.55874 3 0.795609 3 0 
C 3 -0.795609 2.683901 -1.55874 2.12132 -2.12132 
C 1.55874 -2.683901 0.795609 -3 0 -3 
C -0.795609 -3 -1.55874 -2.683901 -2.12132 -2.12132 
C -2.683901 -1.55874 -3 -0.795609 -3 0 
C -3 0.795609 -2.683901 1.55874 -2.12132 2.12132 
C -1.55874 2.683901 -0.795609 3 0 3 
z
" style="stroke: #ff7f0e"/>
    </defs>
    <g clip-path="url(#p2153a1d4f9)">
     <use xlink:href="#m5cb72bd790" x="65.518458" y="64.660109" style="fill: #ff7f0e; stroke: #ff7f0e"/>
     <use xlink:href="#m5cb72bd790" x="168.580237" y="77.793496" style="fill: #ff7f0e; stroke: #ff7f0e"/>
     <use xlink:href="#m5cb72bd790" x="271.642016" y="91.58381" style="fill: #ff7f0e; stroke: #ff7f0e"/>
     <use xlink:href="#m5cb72bd790" x="374.703794" y="113.799656" style="fill: #ff7f0e; stroke: #ff7f0e"/>
     <use xlink:href="#m5cb72bd790" x="477.765573" y="153.133275" style="fill: #ff7f0e; stroke: #ff7f0e"/>
    </g>
   </g>
   <g id="line2d_19">
    <path clip-path="url(#p2153a1d4f9)" style="fill: none; stroke: #8c564b; stroke-width: 1.5; stroke-linecap: round"/>
    <defs>
     <path id="m8a02612314" d="M 0 3 
C 0.795609 3 1.55874 2.683901 2.12132 2.12132 
C 2.683901 1.55874 3 0.795609 3 0 
C 3 -0.795609 2.683901 -1.55874 2.12132 -2.12132 
C 1.55874 -2.683901 0.795609 -3 0 -3 
C -0.795609 -3 -1.55874 -2.683901 -2.12132 -2.12132 
C -2.683901 -1.55874 -3 -0.795609 -3 0 
C -3 0.795609 -2.683901 1.55874 -2.12132 2.12132 
C -1.55874 2.683901 -0.795609 3 0 3 
z
" style="stroke: #8c564b"/>
    </defs>
    <g clip-path="url(#p2153a1d4f9)"/>
   </g>
   <g id="line2d_20">
    <path d="M 65.518458 37.492143 
L 168.580237 80.490139 
L 271.642016 95.539277 
L 374.703794 125.029843 
L 477.765573 158.606623 
" clip-path="url(#p2153a1d4f9)" style="fill: none; stroke: #2ca02c; stroke-width: 1.5; stroke-linecap: round"/>
    <defs>
     <path id="m5e41e8edaa" d="M 0 3 
C 0.795609 3 1.55874 2.683901 2.12132 2.12132 
C 2.683901 1.55874 3 0.795609 3 0 
C 3 -0.795609 2.683901 -1.55874 2.12132 -2.12132 
C 1.55874 -2.683901 0.795609 -3 0 -3 
C -0.795609 -3 -1.55874 -2.683901 -2.12132 -2.12132 
C -2.683901 -1.55874 -3 -0.795609 -3 0 
C -3 0.795609 -2.683901 1.55874 -2.12132 2.12132 
C -1.55874 2.683901 -0.795609 3 0 3 
z
" style="stroke: #2ca02c"/>
    </defs>
    <g clip-path="url(#p2153a1d4f9)">
     <use xlink:href="#m5e41e8edaa" x="65.518458" y="37.492143" style="fill: #2ca02c; stroke: #2ca02c"/>
     <use xlink:href="#m5e41e8edaa" x="168.580237" y="80.490139" style="fill: #2ca02c; stroke: #2ca02c"/>
     <use xlink:href="#m5e41e8edaa" x="271.642016" y="95.539277" style="fill: #2ca02c; stroke: #2ca02c"/>
     <use xlink:href="#m5e41e8edaa" x="374.703794" y="125.029843" style="fill: #2ca02c; stroke: #2ca02c"/>
     <use xlink:href="#m5e41e8edaa" x="477.765573" y="158.606623" style="fill: #2ca02c; stroke: #2ca02c"/>
    </g>
   </g>
   <g id="line2d_21">
    <path d="M 65.518458 108.351822 
L 168.580237 114.575721 
L 271.642016 137.418249 
L 374.703794 138.966976 
L 477.765573 181.223825 
" clip-path="url(#p2153a1d4f9)" style="fill: none; stroke: #d62728; stroke-width: 1.5; stroke-linecap: round"/>
    <defs>
     <path id="m2decf64f0f" d="M 0 3 
C 0.795609 3 1.55874 2.683901 2.12132 2.12132 
C 2.683901 1.55874 3 0.795609 3 0 
C 3 -0.795609 2.683901 -1.55874 2.12132 -2.12132 
C 1.55874 -2.683901 0.795609 -3 0 -3 
C -0.795609 -3 -1.55874 -2.683901 -2.12132 -2.12132 
C -2.683901 -1.55874 -3 -0.795609 -3 0 
C -3 0.795609 -2.683901 1.55874 -2.12132 2.12132 
C -1.55874 2.683901 -0.795609 3 0 3 
z
" style="stroke: #d62728"/>
    </defs>
    <g clip-path="url(#p2153a1d4f9)">
     <use xlink:href="#m2decf64f0f" x="65.518458" y="108.351822" style="fill: #d62728; stroke: #d62728"/>
     <use xlink:href="#m2decf64f0f" x="168.580237" y="114.575721" style="fill: #d62728; stroke: #d62728"/>
     <use xlink:href="#m2decf64f0f" x="271.642016" y="137.418249" style="fill: #d62728; stroke: #d62728"/>
     <use xlink:href="#m2decf64f0f" x="374.703794" y="138.966976" style="fill: #d62728; stroke: #d62728"/>
     <use xlink:href="#m2decf64f0f" x="477.765573" y="181.223825" style="fill: #d62728; stroke: #d62728"/>
    </g>
   </g>
   <g id="line2d_22">
    <path clip-path="url(#p2153a1d4f9)" style="fill: none; stroke: #9467bd; stroke-width: 1.5; stroke-linecap: round"/>
    <defs>
     <path id="m0f5636e007" d="M 0 3 
C 0.795609 3 1.55874 2.683901 2.12132 2.12132 
C 2.683901 1.55874 3 0.795609 3 0 
C 3 -0.795609 2.683901 -1.55874 2.12132 -2.12132 
C 1.55874 -2.683901 0.795609 -3 0 -3 
C -0.795609 -3 -1.55874 -2.683901 -2.12132 -2.12132 
C -2.683901 -1.55874 -3 -0.795609 -3 0 
C -3 0.795609 -2.683901 1.55874 -2.12132 2.12132 
C -1.55874 2.683901 -0.795609 3 0 3 
z
" style="stroke: #9467bd"/>
    </defs>
    <g clip-path="url(#p2153a1d4f9)"/>
   </g>
   <g id="line2d_23">
    <path d="M 65.518458 35.164457 
L 168.580237 56.67739 
L 271.642016 72.119085 
L 374.703794 89.577669 
L 477.765573 113.48329 
" clip-path="url(#p2153a1d4f9)" style="fill: none; stroke: #bcbd22; stroke-width: 1.5; stroke-linecap: round"/>
    <defs>
     <path id="m74bb0145e0" d="M 0 3 
C 0.795609 3 1.55874 2.683901 2.12132 2.12132 
C 2.683901 1.55874 3 0.795609 3 0 
C 3 -0.795609 2.683901 -1.55874 2.12132 -2.12132 
C 1.55874 -2.683901 0.795609 -3 0 -3 
C -0.795609 -3 -1.55874 -2.683901 -2.12132 -2.12132 
C -2.683901 -1.55874 -3 -0.795609 -3 0 
C -3 0.795609 -2.683901 1.55874 -2.12132 2.12132 
C -1.55874 2.683901 -0.795609 3 0 3 
z
" style="stroke: #bcbd22"/>
    </defs>
    <g clip-path="url(#p2153a1d4f9)">
     <use xlink:href="#m74bb0145e0" x="65.518458" y="35.164457" style="fill: #bcbd22; stroke: #bcbd22"/>
     <use xlink:href="#m74bb0145e0" x="168.580237" y="56.67739" style="fill: #bcbd22; stroke: #bcbd22"/>
     <use xlink:href="#m74bb0145e0" x="271.642016" y="72.119085" style="fill: #bcbd22; stroke: #bcbd22"/>
     <use xlink:href="#m74bb0145e0" x="374.703794" y="89.577669" style="fill: #bcbd22; stroke: #bcbd22"/>
     <use xlink:href="#m74bb0145e0" x="477.765573" y="113.48329" style="fill: #bcbd22; stroke: #bcbd22"/>
    </g>
   </g>
   <g id="line2d_24">
    <path d="M 65.518458 238.446767 
L 168.580237 251.613924 
L 271.642016 277.528701 
L 374.703794 287.575169 
L 477.765573 308.47673 
" clip-path="url(#p2153a1d4f9)" style="fill: none; stroke: #1f77b4; stroke-width: 1.5; stroke-linecap: round"/>
    <defs>
     <path id="m73d211e624" d="M 0 3 
C 0.795609 3 1.55874 2.683901 2.12132 2.12132 
C 2.683901 1.55874 3 0.795609 3 0 
C 3 -0.795609 2.683901 -1.55874 2.12132 -2.12132 
C 1.55874 -2.683901 0.795609 -3 0 -3 
C -0.795609 -3 -1.55874 -2.683901 -2.12132 -2.12132 
C -2.683901 -1.55874 -3 -0.795609 -3 0 
C -3 0.795609 -2.683901 1.55874 -2.12132 2.12132 
C -1.55874 2.683901 -0.795609 3 0 3 
z
" style="stroke: #1f77b4"/>
    </defs>
    <g clip-path="url(#p2153a1d4f9)">
     <use xlink:href="#m73d211e624" x="65.518458" y="238.446767" style="fill: #1f77b4; stroke: #1f77b4"/>
     <use xlink:href="#m73d211e624" x="168.580237" y="251.613924" style="fill: #1f77b4; stroke: #1f77b4"/>
     <use xlink:href="#m73d211e624" x="271.642016" y="277.528701" style="fill: #1f77b4; stroke: #1f77b4"/>
     <use xlink:href="#m73d211e624" x="374.703794" y="287.575169" style="fill: #1f77b4; stroke: #1f77b4"/>
     <use xlink:href="#m73d211e624" x="477.765573" y="308.47673" style="fill: #1f77b4; stroke: #1f77b4"/>
    </g>
   </g>
   <g id="patch_3">
    <path d="M 57.273516 322.142344 
L 57.273516 21.498844 
" style="fill: none; stroke: #cccccc; stroke-width: 1.25; stroke-linejoin: miter; stroke-linecap: square"/>
   </g>
   <g id="patch_4">
    <path d="M 486.010516 322.142344 
L 486.010516 21.498844 
" style="fill: none; stroke: #cccccc; stroke-width: 1.25; stroke-linejoin: miter; stroke-linecap: square"/>
   </g>
   <g id="patch_5">
    <path d="M 57.273516 322.142344 
L 486.010516 322.142344 
" style="fill: none; stroke: #cccccc; stroke-width: 1.25; stroke-linejoin: miter; stroke-linecap: square"/>
   </g>
   <g id="patch_6">
    <path d="M 57.273516 21.498844 
L 486.010516 21.498844 
" style="fill: none; stroke: #cccccc; stroke-width: 1.25; stroke-linejoin: miter; stroke-linecap: square"/>
   </g>
   <g id="text_20">
    <!-- MCAR: Pearson vs Missingness Proportion (ARCENE) -->
    <g style="fill: #262626" transform="translate(133.221078 15.498844) scale(0.114 -0.114)">
     <defs>
      <path id="ArialMT-43" d="M 3763 1606 
L 4369 1453 
Q 4178 706 3683 314 
Q 3188 -78 2472 -78 
Q 1731 -78 1267 223 
Q 803 525 561 1097 
Q 319 1669 319 2325 
Q 319 3041 592 3573 
Q 866 4106 1370 4382 
Q 1875 4659 2481 4659 
Q 3169 4659 3637 4309 
Q 4106 3959 4291 3325 
L 3694 3184 
Q 3534 3684 3231 3912 
Q 2928 4141 2469 4141 
Q 1941 4141 1586 3887 
Q 1231 3634 1087 3207 
Q 944 2781 944 2328 
Q 944 1744 1114 1308 
Q 1284 872 1643 656 
Q 2003 441 2422 441 
Q 2931 441 3284 734 
Q 3638 1028 3763 1606 
z
" transform="scale(0.015625)"/>
      <path id="ArialMT-41" d="M -9 0 
L 1750 4581 
L 2403 4581 
L 4278 0 
L 3588 0 
L 3053 1388 
L 1138 1388 
L 634 0 
L -9 0 
z
M 1313 1881 
L 2866 1881 
L 2388 3150 
Q 2169 3728 2063 4100 
Q 1975 3659 1816 3225 
L 1313 1881 
z
" transform="scale(0.015625)"/>
      <path id="ArialMT-52" d="M 503 0 
L 503 4581 
L 2534 4581 
Q 3147 4581 3465 4457 
Q 3784 4334 3975 4021 
Q 4166 3709 4166 3331 
Q 4166 2844 3850 2509 
Q 3534 2175 2875 2084 
Q 3116 1969 3241 1856 
Q 3506 1613 3744 1247 
L 4541 0 
L 3778 0 
L 3172 953 
Q 2906 1366 2734 1584 
Q 2563 1803 2427 1890 
Q 2291 1978 2150 2013 
Q 2047 2034 1813 2034 
L 1109 2034 
L 1109 0 
L 503 0 
z
M 1109 2559 
L 2413 2559 
Q 2828 2559 3062 2645 
Q 3297 2731 3419 2920 
Q 3541 3109 3541 3331 
Q 3541 3656 3305 3865 
Q 3069 4075 2559 4075 
L 1109 4075 
L 1109 2559 
z
" transform="scale(0.015625)"/>
      <path id="ArialMT-3a" d="M 578 2678 
L 578 3319 
L 1219 3319 
L 1219 2678 
L 578 2678 
z
M 578 0 
L 578 641 
L 1219 641 
L 1219 0 
L 578 0 
z
" transform="scale(0.015625)"/>
      <path id="ArialMT-76" d="M 1344 0 
L 81 3319 
L 675 3319 
L 1388 1331 
Q 1503 1009 1600 663 
Q 1675 925 1809 1294 
L 2547 3319 
L 3125 3319 
L 1869 0 
L 1344 0 
z
" transform="scale(0.015625)"/>
      <path id="ArialMT-28" d="M 1497 -1347 
Q 1031 -759 709 28 
Q 388 816 388 1659 
Q 388 2403 628 3084 
Q 909 3875 1497 4659 
L 1900 4659 
Q 1522 4009 1400 3731 
Q 1209 3300 1100 2831 
Q 966 2247 966 1656 
Q 966 153 1900 -1347 
L 1497 -1347 
z
" transform="scale(0.015625)"/>
      <path id="ArialMT-45" d="M 506 0 
L 506 4581 
L 3819 4581 
L 3819 4041 
L 1113 4041 
L 1113 2638 
L 3647 2638 
L 3647 2100 
L 1113 2100 
L 1113 541 
L 3925 541 
L 3925 0 
L 506 0 
z
" transform="scale(0.015625)"/>
      <path id="ArialMT-4e" d="M 488 0 
L 488 4581 
L 1109 4581 
L 3516 984 
L 3516 4581 
L 4097 4581 
L 4097 0 
L 3475 0 
L 1069 3600 
L 1069 0 
L 488 0 
z
" transform="scale(0.015625)"/>
      <path id="ArialMT-29" d="M 791 -1347 
L 388 -1347 
Q 1322 153 1322 1656 
Q 1322 2244 1188 2822 
Q 1081 3291 891 3722 
Q 769 4003 388 4659 
L 791 4659 
Q 1378 3875 1659 3084 
Q 1900 2403 1900 1659 
Q 1900 816 1576 28 
Q 1253 -759 791 -1347 
z
" transform="scale(0.015625)"/>
     </defs>
     <use xlink:href="#ArialMT-4d"/>
     <use xlink:href="#ArialMT-43" transform="translate(83.300781 0)"/>
     <use xlink:href="#ArialMT-41" transform="translate(155.517578 0)"/>
     <use xlink:href="#ArialMT-52" transform="translate(222.216797 0)"/>
     <use xlink:href="#ArialMT-3a" transform="translate(294.433594 0)"/>
     <use xlink:href="#ArialMT-20" transform="translate(322.216797 0)"/>
     <use xlink:href="#ArialMT-50" transform="translate(350 0)"/>
     <use xlink:href="#ArialMT-65" transform="translate(416.699219 0)"/>
     <use xlink:href="#ArialMT-61" transform="translate(472.314453 0)"/>
     <use xlink:href="#ArialMT-72" transform="translate(527.929688 0)"/>
     <use xlink:href="#ArialMT-73" transform="translate(561.230469 0)"/>
     <use xlink:href="#ArialMT-6f" transform="translate(611.230469 0)"/>
     <use xlink:href="#ArialMT-6e" transform="translate(666.845703 0)"/>
     <use xlink:href="#ArialMT-20" transform="translate(722.460938 0)"/>
     <use xlink:href="#ArialMT-76" transform="translate(750.244141 0)"/>
     <use xlink:href="#ArialMT-73" transform="translate(800.244141 0)"/>
     <use xlink:href="#ArialMT-20" transform="translate(850.244141 0)"/>
     <use xlink:href="#ArialMT-4d" transform="translate(878.027344 0)"/>
     <use xlink:href="#ArialMT-69" transform="translate(961.328125 0)"/>
     <use xlink:href="#ArialMT-73" transform="translate(983.544922 0)"/>
     <use xlink:href="#ArialMT-73" transform="translate(1033.544922 0)"/>
     <use xlink:href="#ArialMT-69" transform="translate(1083.544922 0)"/>
     <use xlink:href="#ArialMT-6e" transform="translate(1105.761719 0)"/>
     <use xlink:href="#ArialMT-67" transform="translate(1161.376953 0)"/>
     <use xlink:href="#ArialMT-6e" transform="translate(1216.992188 0)"/>
     <use xlink:href="#ArialMT-65" transform="translate(1272.607422 0)"/>
     <use xlink:href="#ArialMT-73" transform="translate(1328.222656 0)"/>
     <use xlink:href="#ArialMT-73" transform="translate(1378.222656 0)"/>
     <use xlink:href="#ArialMT-20" transform="translate(1428.222656 0)"/>
     <use xlink:href="#ArialMT-50" transform="translate(1456.005859 0)"/>
     <use xlink:href="#ArialMT-72" transform="translate(1522.705078 0)"/>
     <use xlink:href="#ArialMT-6f" transform="translate(1556.005859 0)"/>
     <use xlink:href="#ArialMT-70" transform="translate(1611.621094 0)"/>
     <use xlink:href="#ArialMT-6f" transform="translate(1667.236328 0)"/>
     <use xlink:href="#ArialMT-72" transform="translate(1722.851562 0)"/>
     <use xlink:href="#ArialMT-74" transform="translate(1756.152344 0)"/>
     <use xlink:href="#ArialMT-69" transform="translate(1783.935547 0)"/>
     <use xlink:href="#ArialMT-6f" transform="translate(1806.152344 0)"/>
     <use xlink:href="#ArialMT-6e" transform="translate(1861.767578 0)"/>
     <use xlink:href="#ArialMT-20" transform="translate(1917.382812 0)"/>
     <use xlink:href="#ArialMT-28" transform="translate(1945.166016 0)"/>
     <use xlink:href="#ArialMT-41" transform="translate(1978.466797 0)"/>
     <use xlink:href="#ArialMT-52" transform="translate(2045.166016 0)"/>
     <use xlink:href="#ArialMT-43" transform="translate(2117.382812 0)"/>
     <use xlink:href="#ArialMT-45" transform="translate(2189.599609 0)"/>
     <use xlink:href="#ArialMT-4e" transform="translate(2256.298828 0)"/>
     <use xlink:href="#ArialMT-45" transform="translate(2328.515625 0)"/>
     <use xlink:href="#ArialMT-29" transform="translate(2395.214844 0)"/>
    </g>
   </g>
   <g id="line2d_25">
    <path d="M 65.518458 45.002747 
L 168.580237 63.977273 
L 271.642016 90.736345 
L 374.703794 112.986928 
L 477.765573 189.822285 
" clip-path="url(#p2153a1d4f9)" style="fill: none; stroke: #e377c2; stroke-width: 2; stroke-linecap: round"/>
    <defs>
     <path id="m5a81b5ced3" d="M 0 3 
C 0.795609 3 1.55874 2.683901 2.12132 2.12132 
C 2.683901 1.55874 3 0.795609 3 0 
C 3 -0.795609 2.683901 -1.55874 2.12132 -2.12132 
C 1.55874 -2.683901 0.795609 -3 0 -3 
C -0.795609 -3 -1.55874 -2.683901 -2.12132 -2.12132 
C -2.683901 -1.55874 -3 -0.795609 -3 0 
C -3 0.795609 -2.683901 1.55874 -2.12132 2.12132 
C -1.55874 2.683901 -0.795609 3 0 3 
z
" style="stroke: #e377c2"/>
    </defs>
    <g clip-path="url(#p2153a1d4f9)">
     <use xlink:href="#m5a81b5ced3" x="65.518458" y="45.002747" style="fill: #e377c2; stroke: #e377c2"/>
     <use xlink:href="#m5a81b5ced3" x="168.580237" y="63.977273" style="fill: #e377c2; stroke: #e377c2"/>
     <use xlink:href="#m5a81b5ced3" x="271.642016" y="90.736345" style="fill: #e377c2; stroke: #e377c2"/>
     <use xlink:href="#m5a81b5ced3" x="374.703794" y="112.986928" style="fill: #e377c2; stroke: #e377c2"/>
     <use xlink:href="#m5a81b5ced3" x="477.765573" y="189.822285" style="fill: #e377c2; stroke: #e377c2"/>
    </g>
   </g>
   <g id="legend_1">
    <g id="patch_7">
     <path d="M 501.900256 148.241016 
L 626.506709 148.241016 
Q 628.596709 148.241016 628.596709 146.151016 
L 628.596709 28.813844 
Q 628.596709 26.723844 626.506709 26.723844 
L 501.900256 26.723844 
Q 499.810256 26.723844 499.810256 28.813844 
L 499.810256 146.151016 
Q 499.810256 148.241016 501.900256 148.241016 
z
" style="fill: #ffffff; opacity: 0.8; stroke: #cccccc; stroke-linejoin: miter"/>
    </g>
    <g id="line2d_26">
     <path d="M 503.990256 34.726258 
L 524.890256 34.726258 
" style="fill: none; stroke: #ff7f0e; stroke-width: 1.5; stroke-linecap: round"/>
    </g>
    <g id="line2d_27">
     <g>
      <use xlink:href="#m5cb72bd790" x="514.440256" y="34.726258" style="fill: #ff7f0e; stroke: #ff7f0e"/>
     </g>
    </g>
    <g id="text_21">
     <!-- Matrix Factorization -->
     <g style="fill: #262626" transform="translate(533.250256 38.383758) scale(0.1045 -0.1045)">
      <defs>
       <path id="ArialMT-78" d="M 47 0 
L 1259 1725 
L 138 3319 
L 841 3319 
L 1350 2541 
Q 1494 2319 1581 2169 
Q 1719 2375 1834 2534 
L 2394 3319 
L 3066 3319 
L 1919 1756 
L 3153 0 
L 2463 0 
L 1781 1031 
L 1600 1309 
L 728 0 
L 47 0 
z
" transform="scale(0.015625)"/>
       <path id="ArialMT-46" d="M 525 0 
L 525 4581 
L 3616 4581 
L 3616 4041 
L 1131 4041 
L 1131 2622 
L 3281 2622 
L 3281 2081 
L 1131 2081 
L 1131 0 
L 525 0 
z
" transform="scale(0.015625)"/>
       <path id="ArialMT-63" d="M 2588 1216 
L 3141 1144 
Q 3050 572 2676 248 
Q 2303 -75 1759 -75 
Q 1078 -75 664 370 
Q 250 816 250 1647 
Q 250 2184 428 2587 
Q 606 2991 970 3192 
Q 1334 3394 1763 3394 
Q 2303 3394 2647 3120 
Q 2991 2847 3088 2344 
L 2541 2259 
Q 2463 2594 2264 2762 
Q 2066 2931 1784 2931 
Q 1359 2931 1093 2626 
Q 828 2322 828 1663 
Q 828 994 1084 691 
Q 1341 388 1753 388 
Q 2084 388 2306 591 
Q 2528 794 2588 1216 
z
" transform="scale(0.015625)"/>
       <path id="ArialMT-7a" d="M 125 0 
L 125 456 
L 2238 2881 
Q 1878 2863 1603 2863 
L 250 2863 
L 250 3319 
L 2963 3319 
L 2963 2947 
L 1166 841 
L 819 456 
Q 1197 484 1528 484 
L 3063 484 
L 3063 0 
L 125 0 
z
" transform="scale(0.015625)"/>
      </defs>
      <use xlink:href="#ArialMT-4d"/>
      <use xlink:href="#ArialMT-61" transform="translate(83.300781 0)"/>
      <use xlink:href="#ArialMT-74" transform="translate(138.916016 0)"/>
      <use xlink:href="#ArialMT-72" transform="translate(166.699219 0)"/>
      <use xlink:href="#ArialMT-69" transform="translate(200 0)"/>
      <use xlink:href="#ArialMT-78" transform="translate(222.216797 0)"/>
      <use xlink:href="#ArialMT-20" transform="translate(272.216797 0)"/>
      <use xlink:href="#ArialMT-46" transform="translate(300 0)"/>
      <use xlink:href="#ArialMT-61" transform="translate(361.083984 0)"/>
      <use xlink:href="#ArialMT-63" transform="translate(416.699219 0)"/>
      <use xlink:href="#ArialMT-74" transform="translate(466.699219 0)"/>
      <use xlink:href="#ArialMT-6f" transform="translate(494.482422 0)"/>
      <use xlink:href="#ArialMT-72" transform="translate(550.097656 0)"/>
      <use xlink:href="#ArialMT-69" transform="translate(583.398438 0)"/>
      <use xlink:href="#ArialMT-7a" transform="translate(605.615234 0)"/>
      <use xlink:href="#ArialMT-61" transform="translate(655.615234 0)"/>
      <use xlink:href="#ArialMT-74" transform="translate(711.230469 0)"/>
      <use xlink:href="#ArialMT-69" transform="translate(739.013672 0)"/>
      <use xlink:href="#ArialMT-6f" transform="translate(761.230469 0)"/>
      <use xlink:href="#ArialMT-6e" transform="translate(816.845703 0)"/>
     </g>
    </g>
    <g id="line2d_28">
     <path d="M 503.990256 49.508109 
L 524.890256 49.508109 
" style="fill: none; stroke: #8c564b; stroke-width: 1.5; stroke-linecap: round"/>
    </g>
    <g id="line2d_29">
     <g>
      <use xlink:href="#m8a02612314" x="514.440256" y="49.508109" style="fill: #8c564b; stroke: #8c564b"/>
     </g>
    </g>
    <g id="text_22">
     <!-- Mean -->
     <g style="fill: #262626" transform="translate(533.250256 53.165609) scale(0.1045 -0.1045)">
      <use xlink:href="#ArialMT-4d"/>
      <use xlink:href="#ArialMT-65" transform="translate(83.300781 0)"/>
      <use xlink:href="#ArialMT-61" transform="translate(138.916016 0)"/>
      <use xlink:href="#ArialMT-6e" transform="translate(194.53125 0)"/>
     </g>
    </g>
    <g id="line2d_30">
     <path d="M 503.990256 64.289961 
L 524.890256 64.289961 
" style="fill: none; stroke: #2ca02c; stroke-width: 1.5; stroke-linecap: round"/>
    </g>
    <g id="line2d_31">
     <g>
      <use xlink:href="#m5e41e8edaa" x="514.440256" y="64.289961" style="fill: #2ca02c; stroke: #2ca02c"/>
     </g>
    </g>
    <g id="text_23">
     <!-- Mice -->
     <g style="fill: #262626" transform="translate(533.250256 67.947461) scale(0.1045 -0.1045)">
      <use xlink:href="#ArialMT-4d"/>
      <use xlink:href="#ArialMT-69" transform="translate(83.300781 0)"/>
      <use xlink:href="#ArialMT-63" transform="translate(105.517578 0)"/>
      <use xlink:href="#ArialMT-65" transform="translate(155.517578 0)"/>
     </g>
    </g>
    <g id="line2d_32">
     <path d="M 503.990256 79.071812 
L 524.890256 79.071812 
" style="fill: none; stroke: #d62728; stroke-width: 1.5; stroke-linecap: round"/>
    </g>
    <g id="line2d_33">
     <g>
      <use xlink:href="#m2decf64f0f" x="514.440256" y="79.071812" style="fill: #d62728; stroke: #d62728"/>
     </g>
    </g>
    <g id="text_24">
     <!-- kNN -->
     <g style="fill: #262626" transform="translate(533.250256 82.729312) scale(0.1045 -0.1045)">
      <defs>
       <path id="ArialMT-6b" d="M 425 0 
L 425 4581 
L 988 4581 
L 988 1969 
L 2319 3319 
L 3047 3319 
L 1778 2088 
L 3175 0 
L 2481 0 
L 1384 1697 
L 988 1316 
L 988 0 
L 425 0 
z
" transform="scale(0.015625)"/>
      </defs>
      <use xlink:href="#ArialMT-6b"/>
      <use xlink:href="#ArialMT-4e" transform="translate(50 0)"/>
      <use xlink:href="#ArialMT-4e" transform="translate(122.216797 0)"/>
     </g>
    </g>
    <g id="line2d_34">
     <path d="M 503.990256 93.853664 
L 524.890256 93.853664 
" style="fill: none; stroke: #9467bd; stroke-width: 1.5; stroke-linecap: round"/>
    </g>
    <g id="line2d_35">
     <g>
      <use xlink:href="#m0f5636e007" x="514.440256" y="93.853664" style="fill: #9467bd; stroke: #9467bd"/>
     </g>
    </g>
    <g id="text_25">
     <!-- Median -->
     <g style="fill: #262626" transform="translate(533.250256 97.511164) scale(0.1045 -0.1045)">
      <defs>
       <path id="ArialMT-64" d="M 2575 0 
L 2575 419 
Q 2259 -75 1647 -75 
Q 1250 -75 917 144 
Q 584 363 401 755 
Q 219 1147 219 1656 
Q 219 2153 384 2558 
Q 550 2963 881 3178 
Q 1213 3394 1622 3394 
Q 1922 3394 2156 3267 
Q 2391 3141 2538 2938 
L 2538 4581 
L 3097 4581 
L 3097 0 
L 2575 0 
z
M 797 1656 
Q 797 1019 1065 703 
Q 1334 388 1700 388 
Q 2069 388 2326 689 
Q 2584 991 2584 1609 
Q 2584 2291 2321 2609 
Q 2059 2928 1675 2928 
Q 1300 2928 1048 2622 
Q 797 2316 797 1656 
z
" transform="scale(0.015625)"/>
      </defs>
      <use xlink:href="#ArialMT-4d"/>
      <use xlink:href="#ArialMT-65" transform="translate(83.300781 0)"/>
      <use xlink:href="#ArialMT-64" transform="translate(138.916016 0)"/>
      <use xlink:href="#ArialMT-69" transform="translate(194.53125 0)"/>
      <use xlink:href="#ArialMT-61" transform="translate(216.748047 0)"/>
      <use xlink:href="#ArialMT-6e" transform="translate(272.363281 0)"/>
     </g>
    </g>
    <g id="line2d_36">
     <path d="M 503.990256 108.635516 
L 524.890256 108.635516 
" style="fill: none; stroke: #bcbd22; stroke-width: 1.5; stroke-linecap: round"/>
    </g>
    <g id="line2d_37">
     <g>
      <use xlink:href="#m74bb0145e0" x="514.440256" y="108.635516" style="fill: #bcbd22; stroke: #bcbd22"/>
     </g>
    </g>
    <g id="text_26">
     <!-- Missforest -->
     <g style="fill: #262626" transform="translate(533.250256 112.293016) scale(0.1045 -0.1045)">
      <defs>
       <path id="ArialMT-66" d="M 556 0 
L 556 2881 
L 59 2881 
L 59 3319 
L 556 3319 
L 556 3672 
Q 556 4006 616 4169 
Q 697 4388 901 4523 
Q 1106 4659 1475 4659 
Q 1713 4659 2000 4603 
L 1916 4113 
Q 1741 4144 1584 4144 
Q 1328 4144 1222 4034 
Q 1116 3925 1116 3625 
L 1116 3319 
L 1763 3319 
L 1763 2881 
L 1116 2881 
L 1116 0 
L 556 0 
z
" transform="scale(0.015625)"/>
      </defs>
      <use xlink:href="#ArialMT-4d"/>
      <use xlink:href="#ArialMT-69" transform="translate(83.300781 0)"/>
      <use xlink:href="#ArialMT-73" transform="translate(105.517578 0)"/>
      <use xlink:href="#ArialMT-73" transform="translate(155.517578 0)"/>
      <use xlink:href="#ArialMT-66" transform="translate(205.517578 0)"/>
      <use xlink:href="#ArialMT-6f" transform="translate(233.300781 0)"/>
      <use xlink:href="#ArialMT-72" transform="translate(288.916016 0)"/>
      <use xlink:href="#ArialMT-65" transform="translate(322.216797 0)"/>
      <use xlink:href="#ArialMT-73" transform="translate(377.832031 0)"/>
      <use xlink:href="#ArialMT-74" transform="translate(427.832031 0)"/>
     </g>
    </g>
    <g id="line2d_38">
     <path d="M 503.990256 123.544727 
L 524.890256 123.544727 
" style="fill: none; stroke: #1f77b4; stroke-width: 1.5; stroke-linecap: round"/>
    </g>
    <g id="line2d_39">
     <g>
      <use xlink:href="#m73d211e624" x="514.440256" y="123.544727" style="fill: #1f77b4; stroke: #1f77b4"/>
     </g>
    </g>
    <g id="text_27">
     <!-- Soft Impute -->
     <g style="fill: #262626" transform="translate(533.250256 127.202227) scale(0.1045 -0.1045)">
      <defs>
       <path id="ArialMT-53" d="M 288 1472 
L 859 1522 
Q 900 1178 1048 958 
Q 1197 738 1509 602 
Q 1822 466 2213 466 
Q 2559 466 2825 569 
Q 3091 672 3220 851 
Q 3350 1031 3350 1244 
Q 3350 1459 3225 1620 
Q 3100 1781 2813 1891 
Q 2628 1963 1997 2114 
Q 1366 2266 1113 2400 
Q 784 2572 623 2826 
Q 463 3081 463 3397 
Q 463 3744 659 4045 
Q 856 4347 1234 4503 
Q 1613 4659 2075 4659 
Q 2584 4659 2973 4495 
Q 3363 4331 3572 4012 
Q 3781 3694 3797 3291 
L 3216 3247 
Q 3169 3681 2898 3903 
Q 2628 4125 2100 4125 
Q 1550 4125 1298 3923 
Q 1047 3722 1047 3438 
Q 1047 3191 1225 3031 
Q 1400 2872 2139 2705 
Q 2878 2538 3153 2413 
Q 3553 2228 3743 1945 
Q 3934 1663 3934 1294 
Q 3934 928 3725 604 
Q 3516 281 3123 101 
Q 2731 -78 2241 -78 
Q 1619 -78 1198 103 
Q 778 284 539 648 
Q 300 1013 288 1472 
z
" transform="scale(0.015625)"/>
       <path id="ArialMT-49" d="M 597 0 
L 597 4581 
L 1203 4581 
L 1203 0 
L 597 0 
z
" transform="scale(0.015625)"/>
       <path id="ArialMT-6d" d="M 422 0 
L 422 3319 
L 925 3319 
L 925 2853 
Q 1081 3097 1340 3245 
Q 1600 3394 1931 3394 
Q 2300 3394 2536 3241 
Q 2772 3088 2869 2813 
Q 3263 3394 3894 3394 
Q 4388 3394 4653 3120 
Q 4919 2847 4919 2278 
L 4919 0 
L 4359 0 
L 4359 2091 
Q 4359 2428 4304 2576 
Q 4250 2725 4106 2815 
Q 3963 2906 3769 2906 
Q 3419 2906 3187 2673 
Q 2956 2441 2956 1928 
L 2956 0 
L 2394 0 
L 2394 2156 
Q 2394 2531 2256 2718 
Q 2119 2906 1806 2906 
Q 1569 2906 1367 2781 
Q 1166 2656 1075 2415 
Q 984 2175 984 1722 
L 984 0 
L 422 0 
z
" transform="scale(0.015625)"/>
       <path id="ArialMT-75" d="M 2597 0 
L 2597 488 
Q 2209 -75 1544 -75 
Q 1250 -75 995 37 
Q 741 150 617 320 
Q 494 491 444 738 
Q 409 903 409 1263 
L 409 3319 
L 972 3319 
L 972 1478 
Q 972 1038 1006 884 
Q 1059 663 1231 536 
Q 1403 409 1656 409 
Q 1909 409 2131 539 
Q 2353 669 2445 892 
Q 2538 1116 2538 1541 
L 2538 3319 
L 3100 3319 
L 3100 0 
L 2597 0 
z
" transform="scale(0.015625)"/>
      </defs>
      <use xlink:href="#ArialMT-53"/>
      <use xlink:href="#ArialMT-6f" transform="translate(66.699219 0)"/>
      <use xlink:href="#ArialMT-66" transform="translate(122.314453 0)"/>
      <use xlink:href="#ArialMT-74" transform="translate(150.097656 0)"/>
      <use xlink:href="#ArialMT-20" transform="translate(177.880859 0)"/>
      <use xlink:href="#ArialMT-49" transform="translate(205.664062 0)"/>
      <use xlink:href="#ArialMT-6d" transform="translate(233.447266 0)"/>
      <use xlink:href="#ArialMT-70" transform="translate(316.748047 0)"/>
      <use xlink:href="#ArialMT-75" transform="translate(372.363281 0)"/>
      <use xlink:href="#ArialMT-74" transform="translate(427.978516 0)"/>
      <use xlink:href="#ArialMT-65" transform="translate(455.761719 0)"/>
     </g>
    </g>
    <g id="line2d_40">
     <path d="M 503.990256 138.326578 
L 524.890256 138.326578 
" style="fill: none; stroke: #e377c2; stroke-width: 2; stroke-linecap: round"/>
    </g>
    <g id="line2d_41">
     <g>
      <use xlink:href="#m5a81b5ced3" x="514.440256" y="138.326578" style="fill: #e377c2; stroke: #e377c2"/>
     </g>
    </g>
    <g id="text_28">
     <!-- Sudoku -->
     <g style="fill: #262626" transform="translate(533.250256 141.984078) scale(0.1045 -0.1045)">
      <use xlink:href="#ArialMT-53"/>
      <use xlink:href="#ArialMT-75" transform="translate(66.699219 0)"/>
      <use xlink:href="#ArialMT-64" transform="translate(122.314453 0)"/>
      <use xlink:href="#ArialMT-6f" transform="translate(177.929688 0)"/>
      <use xlink:href="#ArialMT-6b" transform="translate(233.544922 0)"/>
      <use xlink:href="#ArialMT-75" transform="translate(283.544922 0)"/>
     </g>
    </g>
   </g>
  </g>
 </g>
 <defs>
  <clipPath id="p2153a1d4f9">
   <rect x="57.273516" y="21.498844" width="428.737" height="300.6435"/>
  </clipPath>
 </defs>
</svg>
