<?xml version="1.0" encoding="utf-8" standalone="no"?>
<!DOCTYPE svg PUBLIC "-//W3C//DTD SVG 1.1//EN"
  "http://www.w3.org/Graphics/SVG/1.1/DTD/svg11.dtd">
<svg xmlns:xlink="http://www.w3.org/1999/xlink" width="636.108349pt" height="362.96557pt" viewBox="0 0 636.108349 362.96557" xmlns="http://www.w3.org/2000/svg" version="1.1">
 <metadata>
  <rdf:RDF xmlns:dc="http://purl.org/dc/elements/1.1/" xmlns:cc="http://creativecommons.org/ns#" xmlns:rdf="http://www.w3.org/1999/02/22-rdf-syntax-ns#">
   <cc:Work>
    <dc:type rdf:resource="http://purl.org/dc/dcmitype/StillImage"/>
    <dc:date>2025-09-13T15:31:09.125413</dc:date>
    <dc:format>image/svg+xml</dc:format>
    <dc:creator>
     <cc:Agent>
      <dc:title>Matplotlib v3.10.0, https://matplotlib.org/</dc:title>
     </cc:Agent>
    </dc:creator>
   </cc:Work>
  </rdf:RDF>
 </metadata>
 <defs>
  <style type="text/css">*{stroke-linejoin: round; stroke-linecap: butt}</style>
 </defs>
 <g id="figure_1">
  <g id="patch_1">
   <path d="M 0 362.96557 
L 636.108349 362.96557 
L 636.108349 0 
L 0 0 
z
" style="fill: #ffffff"/>
  </g>
  <g id="axes_1">
   <g id="patch_2">
    <path d="M 45.651156 322.149469 
L 486.088156 322.149469 
L 486.088156 21.505969 
L 45.651156 21.505969 
z
" style="fill: #ffffff"/>
   </g>
   <g id="matplotlib.axis_1">
    <g id="xtick_1">
     <g id="line2d_1">
      <path d="M 54.121099 322.149469 
L 54.121099 21.505969 
" clip-path="url(#p70de912500)" style="fill: none; stroke: #cccccc; stroke-linecap: round"/>
     </g>
     <g id="text_1">
      <!-- 0.10 -->
      <g style="fill: #262626" transform="translate(43.952759 339.129383) scale(0.1045 -0.1045)">
       <defs>
        <path id="ArialMT-30" d="M 266 2259 
Q 266 3072 433 3567 
Q 600 4063 929 4331 
Q 1259 4600 1759 4600 
Q 2128 4600 2406 4451 
Q 2684 4303 2865 4023 
Q 3047 3744 3150 3342 
Q 3253 2941 3253 2259 
Q 3253 1453 3087 958 
Q 2922 463 2592 192 
Q 2263 -78 1759 -78 
Q 1097 -78 719 397 
Q 266 969 266 2259 
z
M 844 2259 
Q 844 1131 1108 757 
Q 1372 384 1759 384 
Q 2147 384 2411 759 
Q 2675 1134 2675 2259 
Q 2675 3391 2411 3762 
Q 2147 4134 1753 4134 
Q 1366 4134 1134 3806 
Q 844 3388 844 2259 
z
" transform="scale(0.015625)"/>
        <path id="ArialMT-2e" d="M 581 0 
L 581 641 
L 1222 641 
L 1222 0 
L 581 0 
z
" transform="scale(0.015625)"/>
        <path id="ArialMT-31" d="M 2384 0 
L 1822 0 
L 1822 3584 
Q 1619 3391 1289 3197 
Q 959 3003 697 2906 
L 697 3450 
Q 1169 3672 1522 3987 
Q 1875 4303 2022 4600 
L 2384 4600 
L 2384 0 
z
" transform="scale(0.015625)"/>
       </defs>
       <use xlink:href="#ArialMT-30"/>
       <use xlink:href="#ArialMT-2e" transform="translate(55.615234 0)"/>
       <use xlink:href="#ArialMT-31" transform="translate(83.398438 0)"/>
       <use xlink:href="#ArialMT-30" transform="translate(139.013672 0)"/>
      </g>
     </g>
    </g>
    <g id="xtick_2">
     <g id="line2d_2">
      <path d="M 107.058238 322.149469 
L 107.058238 21.505969 
" clip-path="url(#p70de912500)" style="fill: none; stroke: #cccccc; stroke-linecap: round"/>
     </g>
     <g id="text_2">
      <!-- 0.15 -->
      <g style="fill: #262626" transform="translate(96.889898 339.129383) scale(0.1045 -0.1045)">
       <defs>
        <path id="ArialMT-35" d="M 266 1200 
L 856 1250 
Q 922 819 1161 601 
Q 1400 384 1738 384 
Q 2144 384 2425 690 
Q 2706 997 2706 1503 
Q 2706 1984 2436 2262 
Q 2166 2541 1728 2541 
Q 1456 2541 1237 2417 
Q 1019 2294 894 2097 
L 366 2166 
L 809 4519 
L 3088 4519 
L 3088 3981 
L 1259 3981 
L 1013 2750 
Q 1425 3038 1878 3038 
Q 2478 3038 2890 2622 
Q 3303 2206 3303 1553 
Q 3303 931 2941 478 
Q 2500 -78 1738 -78 
Q 1113 -78 717 272 
Q 322 622 266 1200 
z
" transform="scale(0.015625)"/>
       </defs>
       <use xlink:href="#ArialMT-30"/>
       <use xlink:href="#ArialMT-2e" transform="translate(55.615234 0)"/>
       <use xlink:href="#ArialMT-31" transform="translate(83.398438 0)"/>
       <use xlink:href="#ArialMT-35" transform="translate(139.013672 0)"/>
      </g>
     </g>
    </g>
    <g id="xtick_3">
     <g id="line2d_3">
      <path d="M 159.995377 322.149469 
L 159.995377 21.505969 
" clip-path="url(#p70de912500)" style="fill: none; stroke: #cccccc; stroke-linecap: round"/>
     </g>
     <g id="text_3">
      <!-- 0.20 -->
      <g style="fill: #262626" transform="translate(149.827038 339.129383) scale(0.1045 -0.1045)">
       <defs>
        <path id="ArialMT-32" d="M 3222 541 
L 3222 0 
L 194 0 
Q 188 203 259 391 
Q 375 700 629 1000 
Q 884 1300 1366 1694 
Q 2113 2306 2375 2664 
Q 2638 3022 2638 3341 
Q 2638 3675 2398 3904 
Q 2159 4134 1775 4134 
Q 1369 4134 1125 3890 
Q 881 3647 878 3216 
L 300 3275 
Q 359 3922 746 4261 
Q 1134 4600 1788 4600 
Q 2447 4600 2831 4234 
Q 3216 3869 3216 3328 
Q 3216 3053 3103 2787 
Q 2991 2522 2730 2228 
Q 2469 1934 1863 1422 
Q 1356 997 1212 845 
Q 1069 694 975 541 
L 3222 541 
z
" transform="scale(0.015625)"/>
       </defs>
       <use xlink:href="#ArialMT-30"/>
       <use xlink:href="#ArialMT-2e" transform="translate(55.615234 0)"/>
       <use xlink:href="#ArialMT-32" transform="translate(83.398438 0)"/>
       <use xlink:href="#ArialMT-30" transform="translate(139.013672 0)"/>
      </g>
     </g>
    </g>
    <g id="xtick_4">
     <g id="line2d_4">
      <path d="M 212.932517 322.149469 
L 212.932517 21.505969 
" clip-path="url(#p70de912500)" style="fill: none; stroke: #cccccc; stroke-linecap: round"/>
     </g>
     <g id="text_4">
      <!-- 0.25 -->
      <g style="fill: #262626" transform="translate(202.764177 339.129383) scale(0.1045 -0.1045)">
       <use xlink:href="#ArialMT-30"/>
       <use xlink:href="#ArialMT-2e" transform="translate(55.615234 0)"/>
       <use xlink:href="#ArialMT-32" transform="translate(83.398438 0)"/>
       <use xlink:href="#ArialMT-35" transform="translate(139.013672 0)"/>
      </g>
     </g>
    </g>
    <g id="xtick_5">
     <g id="line2d_5">
      <path d="M 265.869656 322.149469 
L 265.869656 21.505969 
" clip-path="url(#p70de912500)" style="fill: none; stroke: #cccccc; stroke-linecap: round"/>
     </g>
     <g id="text_5">
      <!-- 0.30 -->
      <g style="fill: #262626" transform="translate(255.701316 339.129383) scale(0.1045 -0.1045)">
       <defs>
        <path id="ArialMT-33" d="M 269 1209 
L 831 1284 
Q 928 806 1161 595 
Q 1394 384 1728 384 
Q 2125 384 2398 659 
Q 2672 934 2672 1341 
Q 2672 1728 2419 1979 
Q 2166 2231 1775 2231 
Q 1616 2231 1378 2169 
L 1441 2663 
Q 1497 2656 1531 2656 
Q 1891 2656 2178 2843 
Q 2466 3031 2466 3422 
Q 2466 3731 2256 3934 
Q 2047 4138 1716 4138 
Q 1388 4138 1169 3931 
Q 950 3725 888 3313 
L 325 3413 
Q 428 3978 793 4289 
Q 1159 4600 1703 4600 
Q 2078 4600 2393 4439 
Q 2709 4278 2876 4000 
Q 3044 3722 3044 3409 
Q 3044 3113 2884 2869 
Q 2725 2625 2413 2481 
Q 2819 2388 3044 2092 
Q 3269 1797 3269 1353 
Q 3269 753 2831 336 
Q 2394 -81 1725 -81 
Q 1122 -81 723 278 
Q 325 638 269 1209 
z
" transform="scale(0.015625)"/>
       </defs>
       <use xlink:href="#ArialMT-30"/>
       <use xlink:href="#ArialMT-2e" transform="translate(55.615234 0)"/>
       <use xlink:href="#ArialMT-33" transform="translate(83.398438 0)"/>
       <use xlink:href="#ArialMT-30" transform="translate(139.013672 0)"/>
      </g>
     </g>
    </g>
    <g id="xtick_6">
     <g id="line2d_6">
      <path d="M 318.806796 322.149469 
L 318.806796 21.505969 
" clip-path="url(#p70de912500)" style="fill: none; stroke: #cccccc; stroke-linecap: round"/>
     </g>
     <g id="text_6">
      <!-- 0.35 -->
      <g style="fill: #262626" transform="translate(308.638456 339.129383) scale(0.1045 -0.1045)">
       <use xlink:href="#ArialMT-30"/>
       <use xlink:href="#ArialMT-2e" transform="translate(55.615234 0)"/>
       <use xlink:href="#ArialMT-33" transform="translate(83.398438 0)"/>
       <use xlink:href="#ArialMT-35" transform="translate(139.013672 0)"/>
      </g>
     </g>
    </g>
    <g id="xtick_7">
     <g id="line2d_7">
      <path d="M 371.743935 322.149469 
L 371.743935 21.505969 
" clip-path="url(#p70de912500)" style="fill: none; stroke: #cccccc; stroke-linecap: round"/>
     </g>
     <g id="text_7">
      <!-- 0.40 -->
      <g style="fill: #262626" transform="translate(361.575595 339.129383) scale(0.1045 -0.1045)">
       <defs>
        <path id="ArialMT-34" d="M 2069 0 
L 2069 1097 
L 81 1097 
L 81 1613 
L 2172 4581 
L 2631 4581 
L 2631 1613 
L 3250 1613 
L 3250 1097 
L 2631 1097 
L 2631 0 
L 2069 0 
z
M 2069 1613 
L 2069 3678 
L 634 1613 
L 2069 1613 
z
" transform="scale(0.015625)"/>
       </defs>
       <use xlink:href="#ArialMT-30"/>
       <use xlink:href="#ArialMT-2e" transform="translate(55.615234 0)"/>
       <use xlink:href="#ArialMT-34" transform="translate(83.398438 0)"/>
       <use xlink:href="#ArialMT-30" transform="translate(139.013672 0)"/>
      </g>
     </g>
    </g>
    <g id="xtick_8">
     <g id="line2d_8">
      <path d="M 424.681075 322.149469 
L 424.681075 21.505969 
" clip-path="url(#p70de912500)" style="fill: none; stroke: #cccccc; stroke-linecap: round"/>
     </g>
     <g id="text_8">
      <!-- 0.45 -->
      <g style="fill: #262626" transform="translate(414.512735 339.129383) scale(0.1045 -0.1045)">
       <use xlink:href="#ArialMT-30"/>
       <use xlink:href="#ArialMT-2e" transform="translate(55.615234 0)"/>
       <use xlink:href="#ArialMT-34" transform="translate(83.398438 0)"/>
       <use xlink:href="#ArialMT-35" transform="translate(139.013672 0)"/>
      </g>
     </g>
    </g>
    <g id="xtick_9">
     <g id="line2d_9">
      <path d="M 477.618214 322.149469 
L 477.618214 21.505969 
" clip-path="url(#p70de912500)" style="fill: none; stroke: #cccccc; stroke-linecap: round"/>
     </g>
     <g id="text_9">
      <!-- 0.50 -->
      <g style="fill: #262626" transform="translate(467.449874 339.129383) scale(0.1045 -0.1045)">
       <use xlink:href="#ArialMT-30"/>
       <use xlink:href="#ArialMT-2e" transform="translate(55.615234 0)"/>
       <use xlink:href="#ArialMT-35" transform="translate(83.398438 0)"/>
       <use xlink:href="#ArialMT-30" transform="translate(139.013672 0)"/>
      </g>
     </g>
    </g>
    <g id="text_10">
     <!-- Missingness Proportion -->
     <g style="fill: #262626" transform="translate(206.629734 353.366227) scale(0.114 -0.114)">
      <defs>
       <path id="ArialMT-4d" d="M 475 0 
L 475 4581 
L 1388 4581 
L 2472 1338 
Q 2622 884 2691 659 
Q 2769 909 2934 1394 
L 4031 4581 
L 4847 4581 
L 4847 0 
L 4263 0 
L 4263 3834 
L 2931 0 
L 2384 0 
L 1059 3900 
L 1059 0 
L 475 0 
z
" transform="scale(0.015625)"/>
       <path id="ArialMT-69" d="M 425 3934 
L 425 4581 
L 988 4581 
L 988 3934 
L 425 3934 
z
M 425 0 
L 425 3319 
L 988 3319 
L 988 0 
L 425 0 
z
" transform="scale(0.015625)"/>
       <path id="ArialMT-73" d="M 197 991 
L 753 1078 
Q 800 744 1014 566 
Q 1228 388 1613 388 
Q 2000 388 2187 545 
Q 2375 703 2375 916 
Q 2375 1106 2209 1216 
Q 2094 1291 1634 1406 
Q 1016 1563 777 1677 
Q 538 1791 414 1992 
Q 291 2194 291 2438 
Q 291 2659 392 2848 
Q 494 3038 669 3163 
Q 800 3259 1026 3326 
Q 1253 3394 1513 3394 
Q 1903 3394 2198 3281 
Q 2494 3169 2634 2976 
Q 2775 2784 2828 2463 
L 2278 2388 
Q 2241 2644 2061 2787 
Q 1881 2931 1553 2931 
Q 1166 2931 1000 2803 
Q 834 2675 834 2503 
Q 834 2394 903 2306 
Q 972 2216 1119 2156 
Q 1203 2125 1616 2013 
Q 2213 1853 2448 1751 
Q 2684 1650 2818 1456 
Q 2953 1263 2953 975 
Q 2953 694 2789 445 
Q 2625 197 2315 61 
Q 2006 -75 1616 -75 
Q 969 -75 630 194 
Q 291 463 197 991 
z
" transform="scale(0.015625)"/>
       <path id="ArialMT-6e" d="M 422 0 
L 422 3319 
L 928 3319 
L 928 2847 
Q 1294 3394 1984 3394 
Q 2284 3394 2536 3286 
Q 2788 3178 2913 3003 
Q 3038 2828 3088 2588 
Q 3119 2431 3119 2041 
L 3119 0 
L 2556 0 
L 2556 2019 
Q 2556 2363 2490 2533 
Q 2425 2703 2258 2804 
Q 2091 2906 1866 2906 
Q 1506 2906 1245 2678 
Q 984 2450 984 1813 
L 984 0 
L 422 0 
z
" transform="scale(0.015625)"/>
       <path id="ArialMT-67" d="M 319 -275 
L 866 -356 
Q 900 -609 1056 -725 
Q 1266 -881 1628 -881 
Q 2019 -881 2231 -725 
Q 2444 -569 2519 -288 
Q 2563 -116 2559 434 
Q 2191 0 1641 0 
Q 956 0 581 494 
Q 206 988 206 1678 
Q 206 2153 378 2554 
Q 550 2956 876 3175 
Q 1203 3394 1644 3394 
Q 2231 3394 2613 2919 
L 2613 3319 
L 3131 3319 
L 3131 450 
Q 3131 -325 2973 -648 
Q 2816 -972 2473 -1159 
Q 2131 -1347 1631 -1347 
Q 1038 -1347 672 -1080 
Q 306 -813 319 -275 
z
M 784 1719 
Q 784 1066 1043 766 
Q 1303 466 1694 466 
Q 2081 466 2343 764 
Q 2606 1063 2606 1700 
Q 2606 2309 2336 2618 
Q 2066 2928 1684 2928 
Q 1309 2928 1046 2623 
Q 784 2319 784 1719 
z
" transform="scale(0.015625)"/>
       <path id="ArialMT-65" d="M 2694 1069 
L 3275 997 
Q 3138 488 2766 206 
Q 2394 -75 1816 -75 
Q 1088 -75 661 373 
Q 234 822 234 1631 
Q 234 2469 665 2931 
Q 1097 3394 1784 3394 
Q 2450 3394 2872 2941 
Q 3294 2488 3294 1666 
Q 3294 1616 3291 1516 
L 816 1516 
Q 847 969 1125 678 
Q 1403 388 1819 388 
Q 2128 388 2347 550 
Q 2566 713 2694 1069 
z
M 847 1978 
L 2700 1978 
Q 2663 2397 2488 2606 
Q 2219 2931 1791 2931 
Q 1403 2931 1139 2672 
Q 875 2413 847 1978 
z
" transform="scale(0.015625)"/>
       <path id="ArialMT-20" transform="scale(0.015625)"/>
       <path id="ArialMT-50" d="M 494 0 
L 494 4581 
L 2222 4581 
Q 2678 4581 2919 4538 
Q 3256 4481 3484 4323 
Q 3713 4166 3852 3881 
Q 3991 3597 3991 3256 
Q 3991 2672 3619 2267 
Q 3247 1863 2275 1863 
L 1100 1863 
L 1100 0 
L 494 0 
z
M 1100 2403 
L 2284 2403 
Q 2872 2403 3119 2622 
Q 3366 2841 3366 3238 
Q 3366 3525 3220 3729 
Q 3075 3934 2838 4000 
Q 2684 4041 2272 4041 
L 1100 4041 
L 1100 2403 
z
" transform="scale(0.015625)"/>
       <path id="ArialMT-72" d="M 416 0 
L 416 3319 
L 922 3319 
L 922 2816 
Q 1116 3169 1280 3281 
Q 1444 3394 1641 3394 
Q 1925 3394 2219 3213 
L 2025 2691 
Q 1819 2813 1613 2813 
Q 1428 2813 1281 2702 
Q 1134 2591 1072 2394 
Q 978 2094 978 1738 
L 978 0 
L 416 0 
z
" transform="scale(0.015625)"/>
       <path id="ArialMT-6f" d="M 213 1659 
Q 213 2581 725 3025 
Q 1153 3394 1769 3394 
Q 2453 3394 2887 2945 
Q 3322 2497 3322 1706 
Q 3322 1066 3130 698 
Q 2938 331 2570 128 
Q 2203 -75 1769 -75 
Q 1072 -75 642 372 
Q 213 819 213 1659 
z
M 791 1659 
Q 791 1022 1069 705 
Q 1347 388 1769 388 
Q 2188 388 2466 706 
Q 2744 1025 2744 1678 
Q 2744 2294 2464 2611 
Q 2184 2928 1769 2928 
Q 1347 2928 1069 2612 
Q 791 2297 791 1659 
z
" transform="scale(0.015625)"/>
       <path id="ArialMT-70" d="M 422 -1272 
L 422 3319 
L 934 3319 
L 934 2888 
Q 1116 3141 1344 3267 
Q 1572 3394 1897 3394 
Q 2322 3394 2647 3175 
Q 2972 2956 3137 2557 
Q 3303 2159 3303 1684 
Q 3303 1175 3120 767 
Q 2938 359 2589 142 
Q 2241 -75 1856 -75 
Q 1575 -75 1351 44 
Q 1128 163 984 344 
L 984 -1272 
L 422 -1272 
z
M 931 1641 
Q 931 1000 1190 694 
Q 1450 388 1819 388 
Q 2194 388 2461 705 
Q 2728 1022 2728 1688 
Q 2728 2322 2467 2637 
Q 2206 2953 1844 2953 
Q 1484 2953 1207 2617 
Q 931 2281 931 1641 
z
" transform="scale(0.015625)"/>
       <path id="ArialMT-74" d="M 1650 503 
L 1731 6 
Q 1494 -44 1306 -44 
Q 1000 -44 831 53 
Q 663 150 594 308 
Q 525 466 525 972 
L 525 2881 
L 113 2881 
L 113 3319 
L 525 3319 
L 525 4141 
L 1084 4478 
L 1084 3319 
L 1650 3319 
L 1650 2881 
L 1084 2881 
L 1084 941 
Q 1084 700 1114 631 
Q 1144 563 1211 522 
Q 1278 481 1403 481 
Q 1497 481 1650 503 
z
" transform="scale(0.015625)"/>
      </defs>
      <use xlink:href="#ArialMT-4d"/>
      <use xlink:href="#ArialMT-69" transform="translate(83.300781 0)"/>
      <use xlink:href="#ArialMT-73" transform="translate(105.517578 0)"/>
      <use xlink:href="#ArialMT-73" transform="translate(155.517578 0)"/>
      <use xlink:href="#ArialMT-69" transform="translate(205.517578 0)"/>
      <use xlink:href="#ArialMT-6e" transform="translate(227.734375 0)"/>
      <use xlink:href="#ArialMT-67" transform="translate(283.349609 0)"/>
      <use xlink:href="#ArialMT-6e" transform="translate(338.964844 0)"/>
      <use xlink:href="#ArialMT-65" transform="translate(394.580078 0)"/>
      <use xlink:href="#ArialMT-73" transform="translate(450.195312 0)"/>
      <use xlink:href="#ArialMT-73" transform="translate(500.195312 0)"/>
      <use xlink:href="#ArialMT-20" transform="translate(550.195312 0)"/>
      <use xlink:href="#ArialMT-50" transform="translate(577.978516 0)"/>
      <use xlink:href="#ArialMT-72" transform="translate(644.677734 0)"/>
      <use xlink:href="#ArialMT-6f" transform="translate(677.978516 0)"/>
      <use xlink:href="#ArialMT-70" transform="translate(733.59375 0)"/>
      <use xlink:href="#ArialMT-6f" transform="translate(789.208984 0)"/>
      <use xlink:href="#ArialMT-72" transform="translate(844.824219 0)"/>
      <use xlink:href="#ArialMT-74" transform="translate(878.125 0)"/>
      <use xlink:href="#ArialMT-69" transform="translate(905.908203 0)"/>
      <use xlink:href="#ArialMT-6f" transform="translate(928.125 0)"/>
      <use xlink:href="#ArialMT-6e" transform="translate(983.740234 0)"/>
     </g>
    </g>
   </g>
   <g id="matplotlib.axis_2">
    <g id="ytick_1">
     <g id="line2d_10">
      <path d="M 45.651156 288.14419 
L 486.088156 288.14419 
" clip-path="url(#p70de912500)" style="fill: none; stroke: #cccccc; stroke-linecap: round"/>
     </g>
     <g id="text_11">
      <!-- 0.4 -->
      <g style="fill: #262626" transform="translate(21.625656 291.884147) scale(0.1045 -0.1045)">
       <use xlink:href="#ArialMT-30"/>
       <use xlink:href="#ArialMT-2e" transform="translate(55.615234 0)"/>
       <use xlink:href="#ArialMT-34" transform="translate(83.398438 0)"/>
      </g>
     </g>
    </g>
    <g id="ytick_2">
     <g id="line2d_11">
      <path d="M 45.651156 233.299433 
L 486.088156 233.299433 
" clip-path="url(#p70de912500)" style="fill: none; stroke: #cccccc; stroke-linecap: round"/>
     </g>
     <g id="text_12">
      <!-- 0.5 -->
      <g style="fill: #262626" transform="translate(21.625656 237.03939) scale(0.1045 -0.1045)">
       <use xlink:href="#ArialMT-30"/>
       <use xlink:href="#ArialMT-2e" transform="translate(55.615234 0)"/>
       <use xlink:href="#ArialMT-35" transform="translate(83.398438 0)"/>
      </g>
     </g>
    </g>
    <g id="ytick_3">
     <g id="line2d_12">
      <path d="M 45.651156 178.454675 
L 486.088156 178.454675 
" clip-path="url(#p70de912500)" style="fill: none; stroke: #cccccc; stroke-linecap: round"/>
     </g>
     <g id="text_13">
      <!-- 0.6 -->
      <g style="fill: #262626" transform="translate(21.625656 182.194632) scale(0.1045 -0.1045)">
       <defs>
        <path id="ArialMT-36" d="M 3184 3459 
L 2625 3416 
Q 2550 3747 2413 3897 
Q 2184 4138 1850 4138 
Q 1581 4138 1378 3988 
Q 1113 3794 959 3422 
Q 806 3050 800 2363 
Q 1003 2672 1297 2822 
Q 1591 2972 1913 2972 
Q 2475 2972 2870 2558 
Q 3266 2144 3266 1488 
Q 3266 1056 3080 686 
Q 2894 316 2569 119 
Q 2244 -78 1831 -78 
Q 1128 -78 684 439 
Q 241 956 241 2144 
Q 241 3472 731 4075 
Q 1159 4600 1884 4600 
Q 2425 4600 2770 4297 
Q 3116 3994 3184 3459 
z
M 888 1484 
Q 888 1194 1011 928 
Q 1134 663 1356 523 
Q 1578 384 1822 384 
Q 2178 384 2434 671 
Q 2691 959 2691 1453 
Q 2691 1928 2437 2201 
Q 2184 2475 1800 2475 
Q 1419 2475 1153 2201 
Q 888 1928 888 1484 
z
" transform="scale(0.015625)"/>
       </defs>
       <use xlink:href="#ArialMT-30"/>
       <use xlink:href="#ArialMT-2e" transform="translate(55.615234 0)"/>
       <use xlink:href="#ArialMT-36" transform="translate(83.398438 0)"/>
      </g>
     </g>
    </g>
    <g id="ytick_4">
     <g id="line2d_13">
      <path d="M 45.651156 123.609917 
L 486.088156 123.609917 
" clip-path="url(#p70de912500)" style="fill: none; stroke: #cccccc; stroke-linecap: round"/>
     </g>
     <g id="text_14">
      <!-- 0.7 -->
      <g style="fill: #262626" transform="translate(21.625656 127.349874) scale(0.1045 -0.1045)">
       <defs>
        <path id="ArialMT-37" d="M 303 3981 
L 303 4522 
L 3269 4522 
L 3269 4084 
Q 2831 3619 2401 2847 
Q 1972 2075 1738 1259 
Q 1569 684 1522 0 
L 944 0 
Q 953 541 1156 1306 
Q 1359 2072 1739 2783 
Q 2119 3494 2547 3981 
L 303 3981 
z
" transform="scale(0.015625)"/>
       </defs>
       <use xlink:href="#ArialMT-30"/>
       <use xlink:href="#ArialMT-2e" transform="translate(55.615234 0)"/>
       <use xlink:href="#ArialMT-37" transform="translate(83.398438 0)"/>
      </g>
     </g>
    </g>
    <g id="ytick_5">
     <g id="line2d_14">
      <path d="M 45.651156 68.76516 
L 486.088156 68.76516 
" clip-path="url(#p70de912500)" style="fill: none; stroke: #cccccc; stroke-linecap: round"/>
     </g>
     <g id="text_15">
      <!-- 0.8 -->
      <g style="fill: #262626" transform="translate(21.625656 72.505117) scale(0.1045 -0.1045)">
       <defs>
        <path id="ArialMT-38" d="M 1131 2484 
Q 781 2613 612 2850 
Q 444 3088 444 3419 
Q 444 3919 803 4259 
Q 1163 4600 1759 4600 
Q 2359 4600 2725 4251 
Q 3091 3903 3091 3403 
Q 3091 3084 2923 2848 
Q 2756 2613 2416 2484 
Q 2838 2347 3058 2040 
Q 3278 1734 3278 1309 
Q 3278 722 2862 322 
Q 2447 -78 1769 -78 
Q 1091 -78 675 323 
Q 259 725 259 1325 
Q 259 1772 486 2073 
Q 713 2375 1131 2484 
z
M 1019 3438 
Q 1019 3113 1228 2906 
Q 1438 2700 1772 2700 
Q 2097 2700 2305 2904 
Q 2513 3109 2513 3406 
Q 2513 3716 2298 3927 
Q 2084 4138 1766 4138 
Q 1444 4138 1231 3931 
Q 1019 3725 1019 3438 
z
M 838 1322 
Q 838 1081 952 856 
Q 1066 631 1291 507 
Q 1516 384 1775 384 
Q 2178 384 2440 643 
Q 2703 903 2703 1303 
Q 2703 1709 2433 1975 
Q 2163 2241 1756 2241 
Q 1359 2241 1098 1978 
Q 838 1716 838 1322 
z
" transform="scale(0.015625)"/>
       </defs>
       <use xlink:href="#ArialMT-30"/>
       <use xlink:href="#ArialMT-2e" transform="translate(55.615234 0)"/>
       <use xlink:href="#ArialMT-38" transform="translate(83.398438 0)"/>
      </g>
     </g>
    </g>
    <g id="text_16">
     <!-- Pearson -->
     <g style="fill: #262626" transform="translate(15.359906 193.056656) rotate(-90) scale(0.114 -0.114)">
      <defs>
       <path id="ArialMT-61" d="M 2588 409 
Q 2275 144 1986 34 
Q 1697 -75 1366 -75 
Q 819 -75 525 192 
Q 231 459 231 875 
Q 231 1119 342 1320 
Q 453 1522 633 1644 
Q 813 1766 1038 1828 
Q 1203 1872 1538 1913 
Q 2219 1994 2541 2106 
Q 2544 2222 2544 2253 
Q 2544 2597 2384 2738 
Q 2169 2928 1744 2928 
Q 1347 2928 1158 2789 
Q 969 2650 878 2297 
L 328 2372 
Q 403 2725 575 2942 
Q 747 3159 1072 3276 
Q 1397 3394 1825 3394 
Q 2250 3394 2515 3294 
Q 2781 3194 2906 3042 
Q 3031 2891 3081 2659 
Q 3109 2516 3109 2141 
L 3109 1391 
Q 3109 606 3145 398 
Q 3181 191 3288 0 
L 2700 0 
Q 2613 175 2588 409 
z
M 2541 1666 
Q 2234 1541 1622 1453 
Q 1275 1403 1131 1340 
Q 988 1278 909 1158 
Q 831 1038 831 891 
Q 831 666 1001 516 
Q 1172 366 1500 366 
Q 1825 366 2078 508 
Q 2331 650 2450 897 
Q 2541 1088 2541 1459 
L 2541 1666 
z
" transform="scale(0.015625)"/>
      </defs>
      <use xlink:href="#ArialMT-50"/>
      <use xlink:href="#ArialMT-65" transform="translate(66.699219 0)"/>
      <use xlink:href="#ArialMT-61" transform="translate(122.314453 0)"/>
      <use xlink:href="#ArialMT-72" transform="translate(177.929688 0)"/>
      <use xlink:href="#ArialMT-73" transform="translate(211.230469 0)"/>
      <use xlink:href="#ArialMT-6f" transform="translate(261.230469 0)"/>
      <use xlink:href="#ArialMT-6e" transform="translate(316.845703 0)"/>
     </g>
    </g>
   </g>
   <g id="LineCollection_1">
    <path d="M 54.121099 68.505886 
L 54.121099 35.171582 
" clip-path="url(#p70de912500)" style="fill: none; stroke: #bcbd22; stroke-width: 1.5"/>
    <path d="M 159.995377 107.833576 
L 159.995377 68.731788 
" clip-path="url(#p70de912500)" style="fill: none; stroke: #bcbd22; stroke-width: 1.5"/>
    <path d="M 265.869656 138.990293 
L 265.869656 95.673539 
" clip-path="url(#p70de912500)" style="fill: none; stroke: #bcbd22; stroke-width: 1.5"/>
    <path d="M 371.743935 163.43328 
L 371.743935 114.976301 
" clip-path="url(#p70de912500)" style="fill: none; stroke: #bcbd22; stroke-width: 1.5"/>
    <path d="M 477.618214 196.416607 
L 477.618214 146.644406 
" clip-path="url(#p70de912500)" style="fill: none; stroke: #bcbd22; stroke-width: 1.5"/>
   </g>
   <g id="line2d_15">
    <defs>
     <path id="m167eea9bd5" d="M 3 0 
L -3 -0 
" style="stroke: #bcbd22"/>
    </defs>
    <g clip-path="url(#p70de912500)">
     <use xlink:href="#m167eea9bd5" x="54.121099" y="68.505886" style="fill: #bcbd22; stroke: #bcbd22"/>
     <use xlink:href="#m167eea9bd5" x="159.995377" y="107.833576" style="fill: #bcbd22; stroke: #bcbd22"/>
     <use xlink:href="#m167eea9bd5" x="265.869656" y="138.990293" style="fill: #bcbd22; stroke: #bcbd22"/>
     <use xlink:href="#m167eea9bd5" x="371.743935" y="163.43328" style="fill: #bcbd22; stroke: #bcbd22"/>
     <use xlink:href="#m167eea9bd5" x="477.618214" y="196.416607" style="fill: #bcbd22; stroke: #bcbd22"/>
    </g>
   </g>
   <g id="line2d_16">
    <g clip-path="url(#p70de912500)">
     <use xlink:href="#m167eea9bd5" x="54.121099" y="35.171582" style="fill: #bcbd22; stroke: #bcbd22"/>
     <use xlink:href="#m167eea9bd5" x="159.995377" y="68.731788" style="fill: #bcbd22; stroke: #bcbd22"/>
     <use xlink:href="#m167eea9bd5" x="265.869656" y="95.673539" style="fill: #bcbd22; stroke: #bcbd22"/>
     <use xlink:href="#m167eea9bd5" x="371.743935" y="114.976301" style="fill: #bcbd22; stroke: #bcbd22"/>
     <use xlink:href="#m167eea9bd5" x="477.618214" y="146.644406" style="fill: #bcbd22; stroke: #bcbd22"/>
    </g>
   </g>
   <g id="LineCollection_2">
    <path d="M 54.121099 128.020052 
L 54.121099 83.835222 
" clip-path="url(#p70de912500)" style="fill: none; stroke: #1f77b4; stroke-width: 1.5"/>
    <path d="M 159.995377 152.391663 
L 159.995377 109.887036 
" clip-path="url(#p70de912500)" style="fill: none; stroke: #1f77b4; stroke-width: 1.5"/>
    <path d="M 265.869656 185.179147 
L 265.869656 137.699787 
" clip-path="url(#p70de912500)" style="fill: none; stroke: #1f77b4; stroke-width: 1.5"/>
    <path d="M 371.743935 204.218069 
L 371.743935 157.441973 
" clip-path="url(#p70de912500)" style="fill: none; stroke: #1f77b4; stroke-width: 1.5"/>
    <path d="M 477.618214 244.688761 
L 477.618214 198.790825 
" clip-path="url(#p70de912500)" style="fill: none; stroke: #1f77b4; stroke-width: 1.5"/>
   </g>
   <g id="line2d_17">
    <defs>
     <path id="m9e81a6f7e0" d="M 3 0 
L -3 -0 
" style="stroke: #1f77b4"/>
    </defs>
    <g clip-path="url(#p70de912500)">
     <use xlink:href="#m9e81a6f7e0" x="54.121099" y="128.020052" style="fill: #1f77b4; stroke: #1f77b4"/>
     <use xlink:href="#m9e81a6f7e0" x="159.995377" y="152.391663" style="fill: #1f77b4; stroke: #1f77b4"/>
     <use xlink:href="#m9e81a6f7e0" x="265.869656" y="185.179147" style="fill: #1f77b4; stroke: #1f77b4"/>
     <use xlink:href="#m9e81a6f7e0" x="371.743935" y="204.218069" style="fill: #1f77b4; stroke: #1f77b4"/>
     <use xlink:href="#m9e81a6f7e0" x="477.618214" y="244.688761" style="fill: #1f77b4; stroke: #1f77b4"/>
    </g>
   </g>
   <g id="line2d_18">
    <g clip-path="url(#p70de912500)">
     <use xlink:href="#m9e81a6f7e0" x="54.121099" y="83.835222" style="fill: #1f77b4; stroke: #1f77b4"/>
     <use xlink:href="#m9e81a6f7e0" x="159.995377" y="109.887036" style="fill: #1f77b4; stroke: #1f77b4"/>
     <use xlink:href="#m9e81a6f7e0" x="265.869656" y="137.699787" style="fill: #1f77b4; stroke: #1f77b4"/>
     <use xlink:href="#m9e81a6f7e0" x="371.743935" y="157.441973" style="fill: #1f77b4; stroke: #1f77b4"/>
     <use xlink:href="#m9e81a6f7e0" x="477.618214" y="198.790825" style="fill: #1f77b4; stroke: #1f77b4"/>
    </g>
   </g>
   <g id="LineCollection_3">
    <path d="M 54.121099 140.363066 
L 54.121099 93.838163 
" clip-path="url(#p70de912500)" style="fill: none; stroke: #ff7f0e; stroke-width: 1.5"/>
    <path d="M 159.995377 178.976348 
L 159.995377 134.795125 
" clip-path="url(#p70de912500)" style="fill: none; stroke: #ff7f0e; stroke-width: 1.5"/>
    <path d="M 265.869656 217.26586 
L 265.869656 171.464051 
" clip-path="url(#p70de912500)" style="fill: none; stroke: #ff7f0e; stroke-width: 1.5"/>
    <path d="M 371.743935 239.029876 
L 371.743935 193.826283 
" clip-path="url(#p70de912500)" style="fill: none; stroke: #ff7f0e; stroke-width: 1.5"/>
    <path d="M 477.618214 270.804899 
L 477.618214 223.173072 
" clip-path="url(#p70de912500)" style="fill: none; stroke: #ff7f0e; stroke-width: 1.5"/>
   </g>
   <g id="line2d_19">
    <defs>
     <path id="m390a50d7ff" d="M 3 0 
L -3 -0 
" style="stroke: #ff7f0e"/>
    </defs>
    <g clip-path="url(#p70de912500)">
     <use xlink:href="#m390a50d7ff" x="54.121099" y="140.363066" style="fill: #ff7f0e; stroke: #ff7f0e"/>
     <use xlink:href="#m390a50d7ff" x="159.995377" y="178.976348" style="fill: #ff7f0e; stroke: #ff7f0e"/>
     <use xlink:href="#m390a50d7ff" x="265.869656" y="217.26586" style="fill: #ff7f0e; stroke: #ff7f0e"/>
     <use xlink:href="#m390a50d7ff" x="371.743935" y="239.029876" style="fill: #ff7f0e; stroke: #ff7f0e"/>
     <use xlink:href="#m390a50d7ff" x="477.618214" y="270.804899" style="fill: #ff7f0e; stroke: #ff7f0e"/>
    </g>
   </g>
   <g id="line2d_20">
    <g clip-path="url(#p70de912500)">
     <use xlink:href="#m390a50d7ff" x="54.121099" y="93.838163" style="fill: #ff7f0e; stroke: #ff7f0e"/>
     <use xlink:href="#m390a50d7ff" x="159.995377" y="134.795125" style="fill: #ff7f0e; stroke: #ff7f0e"/>
     <use xlink:href="#m390a50d7ff" x="265.869656" y="171.464051" style="fill: #ff7f0e; stroke: #ff7f0e"/>
     <use xlink:href="#m390a50d7ff" x="371.743935" y="193.826283" style="fill: #ff7f0e; stroke: #ff7f0e"/>
     <use xlink:href="#m390a50d7ff" x="477.618214" y="223.173072" style="fill: #ff7f0e; stroke: #ff7f0e"/>
    </g>
   </g>
   <g id="LineCollection_4">
    <path clip-path="url(#p70de912500)" style="fill: none; stroke: #8c564b; stroke-width: 1.5"/>
    <path clip-path="url(#p70de912500)" style="fill: none; stroke: #8c564b; stroke-width: 1.5"/>
    <path clip-path="url(#p70de912500)" style="fill: none; stroke: #8c564b; stroke-width: 1.5"/>
    <path clip-path="url(#p70de912500)" style="fill: none; stroke: #8c564b; stroke-width: 1.5"/>
    <path clip-path="url(#p70de912500)" style="fill: none; stroke: #8c564b; stroke-width: 1.5"/>
   </g>
   <g id="line2d_21">
    <defs>
     <path id="md24e75bbfa" d="M 3 0 
L -3 -0 
" style="stroke: #8c564b"/>
    </defs>
    <g clip-path="url(#p70de912500)"/>
   </g>
   <g id="line2d_22">
    <g clip-path="url(#p70de912500)"/>
   </g>
   <g id="LineCollection_5">
    <path clip-path="url(#p70de912500)" style="fill: none; stroke: #9467bd; stroke-width: 1.5"/>
    <path clip-path="url(#p70de912500)" style="fill: none; stroke: #9467bd; stroke-width: 1.5"/>
    <path clip-path="url(#p70de912500)" style="fill: none; stroke: #9467bd; stroke-width: 1.5"/>
    <path clip-path="url(#p70de912500)" style="fill: none; stroke: #9467bd; stroke-width: 1.5"/>
    <path clip-path="url(#p70de912500)" style="fill: none; stroke: #9467bd; stroke-width: 1.5"/>
   </g>
   <g id="line2d_23">
    <defs>
     <path id="m9e7313bd76" d="M 3 0 
L -3 -0 
" style="stroke: #9467bd"/>
    </defs>
    <g clip-path="url(#p70de912500)"/>
   </g>
   <g id="line2d_24">
    <g clip-path="url(#p70de912500)"/>
   </g>
   <g id="LineCollection_6">
    <path d="M 54.121099 142.860026 
L 54.121099 85.38644 
" clip-path="url(#p70de912500)" style="fill: none; stroke: #2ca02c; stroke-width: 1.5"/>
    <path d="M 159.995377 177.996549 
L 159.995377 121.826449 
" clip-path="url(#p70de912500)" style="fill: none; stroke: #2ca02c; stroke-width: 1.5"/>
    <path d="M 265.869656 213.382843 
L 265.869656 158.261222 
" clip-path="url(#p70de912500)" style="fill: none; stroke: #2ca02c; stroke-width: 1.5"/>
    <path d="M 371.743935 215.304805 
L 371.743935 160.059302 
" clip-path="url(#p70de912500)" style="fill: none; stroke: #2ca02c; stroke-width: 1.5"/>
    <path d="M 477.618214 265.547193 
L 477.618214 210.572585 
" clip-path="url(#p70de912500)" style="fill: none; stroke: #2ca02c; stroke-width: 1.5"/>
   </g>
   <g id="line2d_25">
    <defs>
     <path id="m60af9cf34e" d="M 3 0 
L -3 -0 
" style="stroke: #2ca02c"/>
    </defs>
    <g clip-path="url(#p70de912500)">
     <use xlink:href="#m60af9cf34e" x="54.121099" y="142.860026" style="fill: #2ca02c; stroke: #2ca02c"/>
     <use xlink:href="#m60af9cf34e" x="159.995377" y="177.996549" style="fill: #2ca02c; stroke: #2ca02c"/>
     <use xlink:href="#m60af9cf34e" x="265.869656" y="213.382843" style="fill: #2ca02c; stroke: #2ca02c"/>
     <use xlink:href="#m60af9cf34e" x="371.743935" y="215.304805" style="fill: #2ca02c; stroke: #2ca02c"/>
     <use xlink:href="#m60af9cf34e" x="477.618214" y="265.547193" style="fill: #2ca02c; stroke: #2ca02c"/>
    </g>
   </g>
   <g id="line2d_26">
    <g clip-path="url(#p70de912500)">
     <use xlink:href="#m60af9cf34e" x="54.121099" y="85.38644" style="fill: #2ca02c; stroke: #2ca02c"/>
     <use xlink:href="#m60af9cf34e" x="159.995377" y="121.826449" style="fill: #2ca02c; stroke: #2ca02c"/>
     <use xlink:href="#m60af9cf34e" x="265.869656" y="158.261222" style="fill: #2ca02c; stroke: #2ca02c"/>
     <use xlink:href="#m60af9cf34e" x="371.743935" y="160.059302" style="fill: #2ca02c; stroke: #2ca02c"/>
     <use xlink:href="#m60af9cf34e" x="477.618214" y="210.572585" style="fill: #2ca02c; stroke: #2ca02c"/>
    </g>
   </g>
   <g id="LineCollection_7">
    <path d="M 54.121099 184.576877 
L 54.121099 130.209527 
" clip-path="url(#p70de912500)" style="fill: none; stroke: #d62728; stroke-width: 1.5"/>
    <path d="M 159.995377 217.140795 
L 159.995377 165.620476 
" clip-path="url(#p70de912500)" style="fill: none; stroke: #d62728; stroke-width: 1.5"/>
    <path d="M 265.869656 257.191237 
L 265.869656 202.763893 
" clip-path="url(#p70de912500)" style="fill: none; stroke: #d62728; stroke-width: 1.5"/>
    <path d="M 371.743935 274.958572 
L 371.743935 222.63048 
" clip-path="url(#p70de912500)" style="fill: none; stroke: #d62728; stroke-width: 1.5"/>
    <path d="M 477.618214 308.483855 
L 477.618214 257.887443 
" clip-path="url(#p70de912500)" style="fill: none; stroke: #d62728; stroke-width: 1.5"/>
   </g>
   <g id="line2d_27">
    <defs>
     <path id="m06435e6a01" d="M 3 0 
L -3 -0 
" style="stroke: #d62728"/>
    </defs>
    <g clip-path="url(#p70de912500)">
     <use xlink:href="#m06435e6a01" x="54.121099" y="184.576877" style="fill: #d62728; stroke: #d62728"/>
     <use xlink:href="#m06435e6a01" x="159.995377" y="217.140795" style="fill: #d62728; stroke: #d62728"/>
     <use xlink:href="#m06435e6a01" x="265.869656" y="257.191237" style="fill: #d62728; stroke: #d62728"/>
     <use xlink:href="#m06435e6a01" x="371.743935" y="274.958572" style="fill: #d62728; stroke: #d62728"/>
     <use xlink:href="#m06435e6a01" x="477.618214" y="308.483855" style="fill: #d62728; stroke: #d62728"/>
    </g>
   </g>
   <g id="line2d_28">
    <g clip-path="url(#p70de912500)">
     <use xlink:href="#m06435e6a01" x="54.121099" y="130.209527" style="fill: #d62728; stroke: #d62728"/>
     <use xlink:href="#m06435e6a01" x="159.995377" y="165.620476" style="fill: #d62728; stroke: #d62728"/>
     <use xlink:href="#m06435e6a01" x="265.869656" y="202.763893" style="fill: #d62728; stroke: #d62728"/>
     <use xlink:href="#m06435e6a01" x="371.743935" y="222.63048" style="fill: #d62728; stroke: #d62728"/>
     <use xlink:href="#m06435e6a01" x="477.618214" y="257.887443" style="fill: #d62728; stroke: #d62728"/>
    </g>
   </g>
   <g id="line2d_29">
    <path d="M 54.121099 51.838734 
L 159.995377 88.282682 
L 265.869656 117.331916 
L 371.743935 139.20479 
L 477.618214 171.530506 
" clip-path="url(#p70de912500)" style="fill: none; stroke: #bcbd22; stroke-width: 1.5; stroke-linecap: round"/>
    <defs>
     <path id="med48862f35" d="M 0 3 
C 0.795609 3 1.55874 2.683901 2.12132 2.12132 
C 2.683901 1.55874 3 0.795609 3 0 
C 3 -0.795609 2.683901 -1.55874 2.12132 -2.12132 
C 1.55874 -2.683901 0.795609 -3 0 -3 
C -0.795609 -3 -1.55874 -2.683901 -2.12132 -2.12132 
C -2.683901 -1.55874 -3 -0.795609 -3 0 
C -3 0.795609 -2.683901 1.55874 -2.12132 2.12132 
C -1.55874 2.683901 -0.795609 3 0 3 
z
" style="stroke: #bcbd22"/>
    </defs>
    <g clip-path="url(#p70de912500)">
     <use xlink:href="#med48862f35" x="54.121099" y="51.838734" style="fill: #bcbd22; stroke: #bcbd22"/>
     <use xlink:href="#med48862f35" x="159.995377" y="88.282682" style="fill: #bcbd22; stroke: #bcbd22"/>
     <use xlink:href="#med48862f35" x="265.869656" y="117.331916" style="fill: #bcbd22; stroke: #bcbd22"/>
     <use xlink:href="#med48862f35" x="371.743935" y="139.20479" style="fill: #bcbd22; stroke: #bcbd22"/>
     <use xlink:href="#med48862f35" x="477.618214" y="171.530506" style="fill: #bcbd22; stroke: #bcbd22"/>
    </g>
   </g>
   <g id="line2d_30">
    <path d="M 54.121099 105.927637 
L 159.995377 131.13935 
L 265.869656 161.439467 
L 371.743935 180.830021 
L 477.618214 221.739793 
" clip-path="url(#p70de912500)" style="fill: none; stroke: #1f77b4; stroke-width: 1.5; stroke-linecap: round"/>
    <defs>
     <path id="m352c8c36ae" d="M 0 3 
C 0.795609 3 1.55874 2.683901 2.12132 2.12132 
C 2.683901 1.55874 3 0.795609 3 0 
C 3 -0.795609 2.683901 -1.55874 2.12132 -2.12132 
C 1.55874 -2.683901 0.795609 -3 0 -3 
C -0.795609 -3 -1.55874 -2.683901 -2.12132 -2.12132 
C -2.683901 -1.55874 -3 -0.795609 -3 0 
C -3 0.795609 -2.683901 1.55874 -2.12132 2.12132 
C -1.55874 2.683901 -0.795609 3 0 3 
z
" style="stroke: #1f77b4"/>
    </defs>
    <g clip-path="url(#p70de912500)">
     <use xlink:href="#m352c8c36ae" x="54.121099" y="105.927637" style="fill: #1f77b4; stroke: #1f77b4"/>
     <use xlink:href="#m352c8c36ae" x="159.995377" y="131.13935" style="fill: #1f77b4; stroke: #1f77b4"/>
     <use xlink:href="#m352c8c36ae" x="265.869656" y="161.439467" style="fill: #1f77b4; stroke: #1f77b4"/>
     <use xlink:href="#m352c8c36ae" x="371.743935" y="180.830021" style="fill: #1f77b4; stroke: #1f77b4"/>
     <use xlink:href="#m352c8c36ae" x="477.618214" y="221.739793" style="fill: #1f77b4; stroke: #1f77b4"/>
    </g>
   </g>
   <g id="line2d_31">
    <path d="M 54.121099 117.100615 
L 159.995377 156.885737 
L 265.869656 194.364955 
L 371.743935 216.42808 
L 477.618214 246.988985 
" clip-path="url(#p70de912500)" style="fill: none; stroke: #ff7f0e; stroke-width: 1.5; stroke-linecap: round"/>
    <defs>
     <path id="m0f9cc2a46c" d="M 0 3 
C 0.795609 3 1.55874 2.683901 2.12132 2.12132 
C 2.683901 1.55874 3 0.795609 3 0 
C 3 -0.795609 2.683901 -1.55874 2.12132 -2.12132 
C 1.55874 -2.683901 0.795609 -3 0 -3 
C -0.795609 -3 -1.55874 -2.683901 -2.12132 -2.12132 
C -2.683901 -1.55874 -3 -0.795609 -3 0 
C -3 0.795609 -2.683901 1.55874 -2.12132 2.12132 
C -1.55874 2.683901 -0.795609 3 0 3 
z
" style="stroke: #ff7f0e"/>
    </defs>
    <g clip-path="url(#p70de912500)">
     <use xlink:href="#m0f9cc2a46c" x="54.121099" y="117.100615" style="fill: #ff7f0e; stroke: #ff7f0e"/>
     <use xlink:href="#m0f9cc2a46c" x="159.995377" y="156.885737" style="fill: #ff7f0e; stroke: #ff7f0e"/>
     <use xlink:href="#m0f9cc2a46c" x="265.869656" y="194.364955" style="fill: #ff7f0e; stroke: #ff7f0e"/>
     <use xlink:href="#m0f9cc2a46c" x="371.743935" y="216.42808" style="fill: #ff7f0e; stroke: #ff7f0e"/>
     <use xlink:href="#m0f9cc2a46c" x="477.618214" y="246.988985" style="fill: #ff7f0e; stroke: #ff7f0e"/>
    </g>
   </g>
   <g id="line2d_32">
    <path clip-path="url(#p70de912500)" style="fill: none; stroke: #8c564b; stroke-width: 1.5; stroke-linecap: round"/>
    <defs>
     <path id="ma30ba23cd1" d="M 0 3 
C 0.795609 3 1.55874 2.683901 2.12132 2.12132 
C 2.683901 1.55874 3 0.795609 3 0 
C 3 -0.795609 2.683901 -1.55874 2.12132 -2.12132 
C 1.55874 -2.683901 0.795609 -3 0 -3 
C -0.795609 -3 -1.55874 -2.683901 -2.12132 -2.12132 
C -2.683901 -1.55874 -3 -0.795609 -3 0 
C -3 0.795609 -2.683901 1.55874 -2.12132 2.12132 
C -1.55874 2.683901 -0.795609 3 0 3 
z
" style="stroke: #8c564b"/>
    </defs>
    <g clip-path="url(#p70de912500)"/>
   </g>
   <g id="line2d_33">
    <path clip-path="url(#p70de912500)" style="fill: none; stroke: #9467bd; stroke-width: 1.5; stroke-linecap: round"/>
    <defs>
     <path id="mcab71d91b1" d="M 0 3 
C 0.795609 3 1.55874 2.683901 2.12132 2.12132 
C 2.683901 1.55874 3 0.795609 3 0 
C 3 -0.795609 2.683901 -1.55874 2.12132 -2.12132 
C 1.55874 -2.683901 0.795609 -3 0 -3 
C -0.795609 -3 -1.55874 -2.683901 -2.12132 -2.12132 
C -2.683901 -1.55874 -3 -0.795609 -3 0 
C -3 0.795609 -2.683901 1.55874 -2.12132 2.12132 
C -1.55874 2.683901 -0.795609 3 0 3 
z
" style="stroke: #9467bd"/>
    </defs>
    <g clip-path="url(#p70de912500)"/>
   </g>
   <g id="line2d_34">
    <path d="M 54.121099 114.123233 
L 159.995377 149.911499 
L 265.869656 185.822033 
L 371.743935 187.682053 
L 477.618214 238.059889 
" clip-path="url(#p70de912500)" style="fill: none; stroke: #2ca02c; stroke-width: 1.5; stroke-linecap: round"/>
    <defs>
     <path id="md5a69d0afa" d="M 0 3 
C 0.795609 3 1.55874 2.683901 2.12132 2.12132 
C 2.683901 1.55874 3 0.795609 3 0 
C 3 -0.795609 2.683901 -1.55874 2.12132 -2.12132 
C 1.55874 -2.683901 0.795609 -3 0 -3 
C -0.795609 -3 -1.55874 -2.683901 -2.12132 -2.12132 
C -2.683901 -1.55874 -3 -0.795609 -3 0 
C -3 0.795609 -2.683901 1.55874 -2.12132 2.12132 
C -1.55874 2.683901 -0.795609 3 0 3 
z
" style="stroke: #2ca02c"/>
    </defs>
    <g clip-path="url(#p70de912500)">
     <use xlink:href="#md5a69d0afa" x="54.121099" y="114.123233" style="fill: #2ca02c; stroke: #2ca02c"/>
     <use xlink:href="#md5a69d0afa" x="159.995377" y="149.911499" style="fill: #2ca02c; stroke: #2ca02c"/>
     <use xlink:href="#md5a69d0afa" x="265.869656" y="185.822033" style="fill: #2ca02c; stroke: #2ca02c"/>
     <use xlink:href="#md5a69d0afa" x="371.743935" y="187.682053" style="fill: #2ca02c; stroke: #2ca02c"/>
     <use xlink:href="#md5a69d0afa" x="477.618214" y="238.059889" style="fill: #2ca02c; stroke: #2ca02c"/>
    </g>
   </g>
   <g id="line2d_35">
    <path d="M 54.121099 157.393202 
L 159.995377 191.380636 
L 265.869656 229.977565 
L 371.743935 248.794526 
L 477.618214 283.185649 
" clip-path="url(#p70de912500)" style="fill: none; stroke: #d62728; stroke-width: 1.5; stroke-linecap: round"/>
    <defs>
     <path id="mce50e47582" d="M 0 3 
C 0.795609 3 1.55874 2.683901 2.12132 2.12132 
C 2.683901 1.55874 3 0.795609 3 0 
C 3 -0.795609 2.683901 -1.55874 2.12132 -2.12132 
C 1.55874 -2.683901 0.795609 -3 0 -3 
C -0.795609 -3 -1.55874 -2.683901 -2.12132 -2.12132 
C -2.683901 -1.55874 -3 -0.795609 -3 0 
C -3 0.795609 -2.683901 1.55874 -2.12132 2.12132 
C -1.55874 2.683901 -0.795609 3 0 3 
z
" style="stroke: #d62728"/>
    </defs>
    <g clip-path="url(#p70de912500)">
     <use xlink:href="#mce50e47582" x="54.121099" y="157.393202" style="fill: #d62728; stroke: #d62728"/>
     <use xlink:href="#mce50e47582" x="159.995377" y="191.380636" style="fill: #d62728; stroke: #d62728"/>
     <use xlink:href="#mce50e47582" x="265.869656" y="229.977565" style="fill: #d62728; stroke: #d62728"/>
     <use xlink:href="#mce50e47582" x="371.743935" y="248.794526" style="fill: #d62728; stroke: #d62728"/>
     <use xlink:href="#mce50e47582" x="477.618214" y="283.185649" style="fill: #d62728; stroke: #d62728"/>
    </g>
   </g>
   <g id="patch_3">
    <path d="M 45.651156 322.149469 
L 45.651156 21.505969 
" style="fill: none; stroke: #cccccc; stroke-width: 1.25; stroke-linejoin: miter; stroke-linecap: square"/>
   </g>
   <g id="patch_4">
    <path d="M 486.088156 322.149469 
L 486.088156 21.505969 
" style="fill: none; stroke: #cccccc; stroke-width: 1.25; stroke-linejoin: miter; stroke-linecap: square"/>
   </g>
   <g id="patch_5">
    <path d="M 45.651156 322.149469 
L 486.088156 322.149469 
" style="fill: none; stroke: #cccccc; stroke-width: 1.25; stroke-linejoin: miter; stroke-linecap: square"/>
   </g>
   <g id="patch_6">
    <path d="M 45.651156 21.505969 
L 486.088156 21.505969 
" style="fill: none; stroke: #cccccc; stroke-width: 1.25; stroke-linejoin: miter; stroke-linecap: square"/>
   </g>
   <g id="LineCollection_8">
    <path d="M 54.121099 125.093318 
L 54.121099 78.107196 
" clip-path="url(#p70de912500)" style="fill: none; stroke: #e377c2; stroke-width: 2"/>
    <path d="M 159.995377 149.649381 
L 159.995377 102.145378 
" clip-path="url(#p70de912500)" style="fill: none; stroke: #e377c2; stroke-width: 2"/>
    <path d="M 265.869656 171.75429 
L 265.869656 122.104828 
" clip-path="url(#p70de912500)" style="fill: none; stroke: #e377c2; stroke-width: 2"/>
    <path d="M 371.743935 181.870563 
L 371.743935 135.440712 
" clip-path="url(#p70de912500)" style="fill: none; stroke: #e377c2; stroke-width: 2"/>
    <path d="M 477.618214 222.321491 
L 477.618214 172.402141 
" clip-path="url(#p70de912500)" style="fill: none; stroke: #e377c2; stroke-width: 2"/>
   </g>
   <g id="line2d_36">
    <defs>
     <path id="m25790e1e70" d="M 3 0 
L -3 -0 
" style="stroke: #e377c2"/>
    </defs>
    <g clip-path="url(#p70de912500)">
     <use xlink:href="#m25790e1e70" x="54.121099" y="125.093318" style="fill: #e377c2; stroke: #e377c2"/>
     <use xlink:href="#m25790e1e70" x="159.995377" y="149.649381" style="fill: #e377c2; stroke: #e377c2"/>
     <use xlink:href="#m25790e1e70" x="265.869656" y="171.75429" style="fill: #e377c2; stroke: #e377c2"/>
     <use xlink:href="#m25790e1e70" x="371.743935" y="181.870563" style="fill: #e377c2; stroke: #e377c2"/>
     <use xlink:href="#m25790e1e70" x="477.618214" y="222.321491" style="fill: #e377c2; stroke: #e377c2"/>
    </g>
   </g>
   <g id="line2d_37">
    <g clip-path="url(#p70de912500)">
     <use xlink:href="#m25790e1e70" x="54.121099" y="78.107196" style="fill: #e377c2; stroke: #e377c2"/>
     <use xlink:href="#m25790e1e70" x="159.995377" y="102.145378" style="fill: #e377c2; stroke: #e377c2"/>
     <use xlink:href="#m25790e1e70" x="265.869656" y="122.104828" style="fill: #e377c2; stroke: #e377c2"/>
     <use xlink:href="#m25790e1e70" x="371.743935" y="135.440712" style="fill: #e377c2; stroke: #e377c2"/>
     <use xlink:href="#m25790e1e70" x="477.618214" y="172.402141" style="fill: #e377c2; stroke: #e377c2"/>
    </g>
   </g>
   <g id="text_17">
    <!-- MAR: Pearson vs Missingness Proportion (QSAR) -->
    <g style="fill: #262626" transform="translate(139.166672 15.505969) scale(0.114 -0.114)">
     <defs>
      <path id="ArialMT-41" d="M -9 0 
L 1750 4581 
L 2403 4581 
L 4278 0 
L 3588 0 
L 3053 1388 
L 1138 1388 
L 634 0 
L -9 0 
z
M 1313 1881 
L 2866 1881 
L 2388 3150 
Q 2169 3728 2063 4100 
Q 1975 3659 1816 3225 
L 1313 1881 
z
" transform="scale(0.015625)"/>
      <path id="ArialMT-52" d="M 503 0 
L 503 4581 
L 2534 4581 
Q 3147 4581 3465 4457 
Q 3784 4334 3975 4021 
Q 4166 3709 4166 3331 
Q 4166 2844 3850 2509 
Q 3534 2175 2875 2084 
Q 3116 1969 3241 1856 
Q 3506 1613 3744 1247 
L 4541 0 
L 3778 0 
L 3172 953 
Q 2906 1366 2734 1584 
Q 2563 1803 2427 1890 
Q 2291 1978 2150 2013 
Q 2047 2034 1813 2034 
L 1109 2034 
L 1109 0 
L 503 0 
z
M 1109 2559 
L 2413 2559 
Q 2828 2559 3062 2645 
Q 3297 2731 3419 2920 
Q 3541 3109 3541 3331 
Q 3541 3656 3305 3865 
Q 3069 4075 2559 4075 
L 1109 4075 
L 1109 2559 
z
" transform="scale(0.015625)"/>
      <path id="ArialMT-3a" d="M 578 2678 
L 578 3319 
L 1219 3319 
L 1219 2678 
L 578 2678 
z
M 578 0 
L 578 641 
L 1219 641 
L 1219 0 
L 578 0 
z
" transform="scale(0.015625)"/>
      <path id="ArialMT-76" d="M 1344 0 
L 81 3319 
L 675 3319 
L 1388 1331 
Q 1503 1009 1600 663 
Q 1675 925 1809 1294 
L 2547 3319 
L 3125 3319 
L 1869 0 
L 1344 0 
z
" transform="scale(0.015625)"/>
      <path id="ArialMT-28" d="M 1497 -1347 
Q 1031 -759 709 28 
Q 388 816 388 1659 
Q 388 2403 628 3084 
Q 909 3875 1497 4659 
L 1900 4659 
Q 1522 4009 1400 3731 
Q 1209 3300 1100 2831 
Q 966 2247 966 1656 
Q 966 153 1900 -1347 
L 1497 -1347 
z
" transform="scale(0.015625)"/>
      <path id="ArialMT-51" d="M 3966 491 
Q 4388 200 4744 66 
L 4566 -356 
Q 4072 -178 3581 206 
Q 3072 -78 2456 -78 
Q 1834 -78 1328 222 
Q 822 522 548 1065 
Q 275 1609 275 2291 
Q 275 2969 550 3525 
Q 825 4081 1333 4372 
Q 1841 4663 2469 4663 
Q 3103 4663 3612 4361 
Q 4122 4059 4389 3517 
Q 4656 2975 4656 2294 
Q 4656 1728 4484 1276 
Q 4313 825 3966 491 
z
M 2631 1266 
Q 3156 1119 3497 828 
Q 4031 1316 4031 2294 
Q 4031 2850 3842 3265 
Q 3653 3681 3289 3911 
Q 2925 4141 2472 4141 
Q 1794 4141 1347 3677 
Q 900 3213 900 2291 
Q 900 1397 1342 919 
Q 1784 441 2472 441 
Q 2797 441 3084 563 
Q 2800 747 2484 825 
L 2631 1266 
z
" transform="scale(0.015625)"/>
      <path id="ArialMT-53" d="M 288 1472 
L 859 1522 
Q 900 1178 1048 958 
Q 1197 738 1509 602 
Q 1822 466 2213 466 
Q 2559 466 2825 569 
Q 3091 672 3220 851 
Q 3350 1031 3350 1244 
Q 3350 1459 3225 1620 
Q 3100 1781 2813 1891 
Q 2628 1963 1997 2114 
Q 1366 2266 1113 2400 
Q 784 2572 623 2826 
Q 463 3081 463 3397 
Q 463 3744 659 4045 
Q 856 4347 1234 4503 
Q 1613 4659 2075 4659 
Q 2584 4659 2973 4495 
Q 3363 4331 3572 4012 
Q 3781 3694 3797 3291 
L 3216 3247 
Q 3169 3681 2898 3903 
Q 2628 4125 2100 4125 
Q 1550 4125 1298 3923 
Q 1047 3722 1047 3438 
Q 1047 3191 1225 3031 
Q 1400 2872 2139 2705 
Q 2878 2538 3153 2413 
Q 3553 2228 3743 1945 
Q 3934 1663 3934 1294 
Q 3934 928 3725 604 
Q 3516 281 3123 101 
Q 2731 -78 2241 -78 
Q 1619 -78 1198 103 
Q 778 284 539 648 
Q 300 1013 288 1472 
z
" transform="scale(0.015625)"/>
      <path id="ArialMT-29" d="M 791 -1347 
L 388 -1347 
Q 1322 153 1322 1656 
Q 1322 2244 1188 2822 
Q 1081 3291 891 3722 
Q 769 4003 388 4659 
L 791 4659 
Q 1378 3875 1659 3084 
Q 1900 2403 1900 1659 
Q 1900 816 1576 28 
Q 1253 -759 791 -1347 
z
" transform="scale(0.015625)"/>
     </defs>
     <use xlink:href="#ArialMT-4d"/>
     <use xlink:href="#ArialMT-41" transform="translate(83.300781 0)"/>
     <use xlink:href="#ArialMT-52" transform="translate(150 0)"/>
     <use xlink:href="#ArialMT-3a" transform="translate(222.216797 0)"/>
     <use xlink:href="#ArialMT-20" transform="translate(250 0)"/>
     <use xlink:href="#ArialMT-50" transform="translate(277.783203 0)"/>
     <use xlink:href="#ArialMT-65" transform="translate(344.482422 0)"/>
     <use xlink:href="#ArialMT-61" transform="translate(400.097656 0)"/>
     <use xlink:href="#ArialMT-72" transform="translate(455.712891 0)"/>
     <use xlink:href="#ArialMT-73" transform="translate(489.013672 0)"/>
     <use xlink:href="#ArialMT-6f" transform="translate(539.013672 0)"/>
     <use xlink:href="#ArialMT-6e" transform="translate(594.628906 0)"/>
     <use xlink:href="#ArialMT-20" transform="translate(650.244141 0)"/>
     <use xlink:href="#ArialMT-76" transform="translate(678.027344 0)"/>
     <use xlink:href="#ArialMT-73" transform="translate(728.027344 0)"/>
     <use xlink:href="#ArialMT-20" transform="translate(778.027344 0)"/>
     <use xlink:href="#ArialMT-4d" transform="translate(805.810547 0)"/>
     <use xlink:href="#ArialMT-69" transform="translate(889.111328 0)"/>
     <use xlink:href="#ArialMT-73" transform="translate(911.328125 0)"/>
     <use xlink:href="#ArialMT-73" transform="translate(961.328125 0)"/>
     <use xlink:href="#ArialMT-69" transform="translate(1011.328125 0)"/>
     <use xlink:href="#ArialMT-6e" transform="translate(1033.544922 0)"/>
     <use xlink:href="#ArialMT-67" transform="translate(1089.160156 0)"/>
     <use xlink:href="#ArialMT-6e" transform="translate(1144.775391 0)"/>
     <use xlink:href="#ArialMT-65" transform="translate(1200.390625 0)"/>
     <use xlink:href="#ArialMT-73" transform="translate(1256.005859 0)"/>
     <use xlink:href="#ArialMT-73" transform="translate(1306.005859 0)"/>
     <use xlink:href="#ArialMT-20" transform="translate(1356.005859 0)"/>
     <use xlink:href="#ArialMT-50" transform="translate(1383.789062 0)"/>
     <use xlink:href="#ArialMT-72" transform="translate(1450.488281 0)"/>
     <use xlink:href="#ArialMT-6f" transform="translate(1483.789062 0)"/>
     <use xlink:href="#ArialMT-70" transform="translate(1539.404297 0)"/>
     <use xlink:href="#ArialMT-6f" transform="translate(1595.019531 0)"/>
     <use xlink:href="#ArialMT-72" transform="translate(1650.634766 0)"/>
     <use xlink:href="#ArialMT-74" transform="translate(1683.935547 0)"/>
     <use xlink:href="#ArialMT-69" transform="translate(1711.71875 0)"/>
     <use xlink:href="#ArialMT-6f" transform="translate(1733.935547 0)"/>
     <use xlink:href="#ArialMT-6e" transform="translate(1789.550781 0)"/>
     <use xlink:href="#ArialMT-20" transform="translate(1845.166016 0)"/>
     <use xlink:href="#ArialMT-28" transform="translate(1872.949219 0)"/>
     <use xlink:href="#ArialMT-51" transform="translate(1906.25 0)"/>
     <use xlink:href="#ArialMT-53" transform="translate(1984.033203 0)"/>
     <use xlink:href="#ArialMT-41" transform="translate(2050.732422 0)"/>
     <use xlink:href="#ArialMT-52" transform="translate(2117.431641 0)"/>
     <use xlink:href="#ArialMT-29" transform="translate(2189.648438 0)"/>
    </g>
   </g>
   <g id="line2d_38">
    <path d="M 54.121099 101.600257 
L 159.995377 125.89738 
L 265.869656 146.929559 
L 371.743935 158.655637 
L 477.618214 197.361816 
" clip-path="url(#p70de912500)" style="fill: none; stroke: #e377c2; stroke-width: 2; stroke-linecap: round"/>
    <defs>
     <path id="m12fc68a84e" d="M 0 3 
C 0.795609 3 1.55874 2.683901 2.12132 2.12132 
C 2.683901 1.55874 3 0.795609 3 0 
C 3 -0.795609 2.683901 -1.55874 2.12132 -2.12132 
C 1.55874 -2.683901 0.795609 -3 0 -3 
C -0.795609 -3 -1.55874 -2.683901 -2.12132 -2.12132 
C -2.683901 -1.55874 -3 -0.795609 -3 0 
C -3 0.795609 -2.683901 1.55874 -2.12132 2.12132 
C -1.55874 2.683901 -0.795609 3 0 3 
z
" style="stroke: #e377c2"/>
    </defs>
    <g clip-path="url(#p70de912500)">
     <use xlink:href="#m12fc68a84e" x="54.121099" y="101.600257" style="fill: #e377c2; stroke: #e377c2"/>
     <use xlink:href="#m12fc68a84e" x="159.995377" y="125.89738" style="fill: #e377c2; stroke: #e377c2"/>
     <use xlink:href="#m12fc68a84e" x="265.869656" y="146.929559" style="fill: #e377c2; stroke: #e377c2"/>
     <use xlink:href="#m12fc68a84e" x="371.743935" y="158.655637" style="fill: #e377c2; stroke: #e377c2"/>
     <use xlink:href="#m12fc68a84e" x="477.618214" y="197.361816" style="fill: #e377c2; stroke: #e377c2"/>
    </g>
   </g>
   <g id="legend_1">
    <g id="patch_7">
     <path d="M 502.211896 148.248141 
L 626.818349 148.248141 
Q 628.908349 148.248141 628.908349 146.158141 
L 628.908349 28.820969 
Q 628.908349 26.730969 626.818349 26.730969 
L 502.211896 26.730969 
Q 500.121896 26.730969 500.121896 28.820969 
L 500.121896 146.158141 
Q 500.121896 148.248141 502.211896 148.248141 
z
" style="fill: #ffffff; opacity: 0.8; stroke: #cccccc; stroke-linejoin: miter"/>
    </g>
    <g id="LineCollection_9">
     <path d="M 514.751896 39.958383 
L 514.751896 29.508383 
" style="fill: none; stroke: #bcbd22; stroke-width: 1.5"/>
    </g>
    <g id="line2d_39">
     <g>
      <use xlink:href="#m167eea9bd5" x="514.751896" y="39.958383" style="fill: #bcbd22; stroke: #bcbd22"/>
     </g>
    </g>
    <g id="line2d_40">
     <g>
      <use xlink:href="#m167eea9bd5" x="514.751896" y="29.508383" style="fill: #bcbd22; stroke: #bcbd22"/>
     </g>
    </g>
    <g id="line2d_41">
     <path d="M 504.301896 34.733383 
L 525.201896 34.733383 
" style="fill: none; stroke: #bcbd22; stroke-width: 1.5; stroke-linecap: round"/>
    </g>
    <g id="line2d_42">
     <g>
      <use xlink:href="#med48862f35" x="514.751896" y="34.733383" style="fill: #bcbd22; stroke: #bcbd22"/>
     </g>
    </g>
    <g id="text_18">
     <!-- Missforest -->
     <g style="fill: #262626" transform="translate(533.561896 38.390883) scale(0.1045 -0.1045)">
      <defs>
       <path id="ArialMT-66" d="M 556 0 
L 556 2881 
L 59 2881 
L 59 3319 
L 556 3319 
L 556 3672 
Q 556 4006 616 4169 
Q 697 4388 901 4523 
Q 1106 4659 1475 4659 
Q 1713 4659 2000 4603 
L 1916 4113 
Q 1741 4144 1584 4144 
Q 1328 4144 1222 4034 
Q 1116 3925 1116 3625 
L 1116 3319 
L 1763 3319 
L 1763 2881 
L 1116 2881 
L 1116 0 
L 556 0 
z
" transform="scale(0.015625)"/>
      </defs>
      <use xlink:href="#ArialMT-4d"/>
      <use xlink:href="#ArialMT-69" transform="translate(83.300781 0)"/>
      <use xlink:href="#ArialMT-73" transform="translate(105.517578 0)"/>
      <use xlink:href="#ArialMT-73" transform="translate(155.517578 0)"/>
      <use xlink:href="#ArialMT-66" transform="translate(205.517578 0)"/>
      <use xlink:href="#ArialMT-6f" transform="translate(233.300781 0)"/>
      <use xlink:href="#ArialMT-72" transform="translate(288.916016 0)"/>
      <use xlink:href="#ArialMT-65" transform="translate(322.216797 0)"/>
      <use xlink:href="#ArialMT-73" transform="translate(377.832031 0)"/>
      <use xlink:href="#ArialMT-74" transform="translate(427.832031 0)"/>
     </g>
    </g>
    <g id="LineCollection_10">
     <path d="M 514.751896 54.867594 
L 514.751896 44.417594 
" style="fill: none; stroke: #1f77b4; stroke-width: 1.5"/>
    </g>
    <g id="line2d_43">
     <g>
      <use xlink:href="#m9e81a6f7e0" x="514.751896" y="54.867594" style="fill: #1f77b4; stroke: #1f77b4"/>
     </g>
    </g>
    <g id="line2d_44">
     <g>
      <use xlink:href="#m9e81a6f7e0" x="514.751896" y="44.417594" style="fill: #1f77b4; stroke: #1f77b4"/>
     </g>
    </g>
    <g id="line2d_45">
     <path d="M 504.301896 49.642594 
L 525.201896 49.642594 
" style="fill: none; stroke: #1f77b4; stroke-width: 1.5; stroke-linecap: round"/>
    </g>
    <g id="line2d_46">
     <g>
      <use xlink:href="#m352c8c36ae" x="514.751896" y="49.642594" style="fill: #1f77b4; stroke: #1f77b4"/>
     </g>
    </g>
    <g id="text_19">
     <!-- Soft Impute -->
     <g style="fill: #262626" transform="translate(533.561896 53.300094) scale(0.1045 -0.1045)">
      <defs>
       <path id="ArialMT-49" d="M 597 0 
L 597 4581 
L 1203 4581 
L 1203 0 
L 597 0 
z
" transform="scale(0.015625)"/>
       <path id="ArialMT-6d" d="M 422 0 
L 422 3319 
L 925 3319 
L 925 2853 
Q 1081 3097 1340 3245 
Q 1600 3394 1931 3394 
Q 2300 3394 2536 3241 
Q 2772 3088 2869 2813 
Q 3263 3394 3894 3394 
Q 4388 3394 4653 3120 
Q 4919 2847 4919 2278 
L 4919 0 
L 4359 0 
L 4359 2091 
Q 4359 2428 4304 2576 
Q 4250 2725 4106 2815 
Q 3963 2906 3769 2906 
Q 3419 2906 3187 2673 
Q 2956 2441 2956 1928 
L 2956 0 
L 2394 0 
L 2394 2156 
Q 2394 2531 2256 2718 
Q 2119 2906 1806 2906 
Q 1569 2906 1367 2781 
Q 1166 2656 1075 2415 
Q 984 2175 984 1722 
L 984 0 
L 422 0 
z
" transform="scale(0.015625)"/>
       <path id="ArialMT-75" d="M 2597 0 
L 2597 488 
Q 2209 -75 1544 -75 
Q 1250 -75 995 37 
Q 741 150 617 320 
Q 494 491 444 738 
Q 409 903 409 1263 
L 409 3319 
L 972 3319 
L 972 1478 
Q 972 1038 1006 884 
Q 1059 663 1231 536 
Q 1403 409 1656 409 
Q 1909 409 2131 539 
Q 2353 669 2445 892 
Q 2538 1116 2538 1541 
L 2538 3319 
L 3100 3319 
L 3100 0 
L 2597 0 
z
" transform="scale(0.015625)"/>
      </defs>
      <use xlink:href="#ArialMT-53"/>
      <use xlink:href="#ArialMT-6f" transform="translate(66.699219 0)"/>
      <use xlink:href="#ArialMT-66" transform="translate(122.314453 0)"/>
      <use xlink:href="#ArialMT-74" transform="translate(150.097656 0)"/>
      <use xlink:href="#ArialMT-20" transform="translate(177.880859 0)"/>
      <use xlink:href="#ArialMT-49" transform="translate(205.664062 0)"/>
      <use xlink:href="#ArialMT-6d" transform="translate(233.447266 0)"/>
      <use xlink:href="#ArialMT-70" transform="translate(316.748047 0)"/>
      <use xlink:href="#ArialMT-75" transform="translate(372.363281 0)"/>
      <use xlink:href="#ArialMT-74" transform="translate(427.978516 0)"/>
      <use xlink:href="#ArialMT-65" transform="translate(455.761719 0)"/>
     </g>
    </g>
    <g id="LineCollection_11">
     <path d="M 514.751896 69.649445 
L 514.751896 59.199445 
" style="fill: none; stroke: #ff7f0e; stroke-width: 1.5"/>
    </g>
    <g id="line2d_47">
     <g>
      <use xlink:href="#m390a50d7ff" x="514.751896" y="69.649445" style="fill: #ff7f0e; stroke: #ff7f0e"/>
     </g>
    </g>
    <g id="line2d_48">
     <g>
      <use xlink:href="#m390a50d7ff" x="514.751896" y="59.199445" style="fill: #ff7f0e; stroke: #ff7f0e"/>
     </g>
    </g>
    <g id="line2d_49">
     <path d="M 504.301896 64.424445 
L 525.201896 64.424445 
" style="fill: none; stroke: #ff7f0e; stroke-width: 1.5; stroke-linecap: round"/>
    </g>
    <g id="line2d_50">
     <g>
      <use xlink:href="#m0f9cc2a46c" x="514.751896" y="64.424445" style="fill: #ff7f0e; stroke: #ff7f0e"/>
     </g>
    </g>
    <g id="text_20">
     <!-- Matrix Factorization -->
     <g style="fill: #262626" transform="translate(533.561896 68.081945) scale(0.1045 -0.1045)">
      <defs>
       <path id="ArialMT-78" d="M 47 0 
L 1259 1725 
L 138 3319 
L 841 3319 
L 1350 2541 
Q 1494 2319 1581 2169 
Q 1719 2375 1834 2534 
L 2394 3319 
L 3066 3319 
L 1919 1756 
L 3153 0 
L 2463 0 
L 1781 1031 
L 1600 1309 
L 728 0 
L 47 0 
z
" transform="scale(0.015625)"/>
       <path id="ArialMT-46" d="M 525 0 
L 525 4581 
L 3616 4581 
L 3616 4041 
L 1131 4041 
L 1131 2622 
L 3281 2622 
L 3281 2081 
L 1131 2081 
L 1131 0 
L 525 0 
z
" transform="scale(0.015625)"/>
       <path id="ArialMT-63" d="M 2588 1216 
L 3141 1144 
Q 3050 572 2676 248 
Q 2303 -75 1759 -75 
Q 1078 -75 664 370 
Q 250 816 250 1647 
Q 250 2184 428 2587 
Q 606 2991 970 3192 
Q 1334 3394 1763 3394 
Q 2303 3394 2647 3120 
Q 2991 2847 3088 2344 
L 2541 2259 
Q 2463 2594 2264 2762 
Q 2066 2931 1784 2931 
Q 1359 2931 1093 2626 
Q 828 2322 828 1663 
Q 828 994 1084 691 
Q 1341 388 1753 388 
Q 2084 388 2306 591 
Q 2528 794 2588 1216 
z
" transform="scale(0.015625)"/>
       <path id="ArialMT-7a" d="M 125 0 
L 125 456 
L 2238 2881 
Q 1878 2863 1603 2863 
L 250 2863 
L 250 3319 
L 2963 3319 
L 2963 2947 
L 1166 841 
L 819 456 
Q 1197 484 1528 484 
L 3063 484 
L 3063 0 
L 125 0 
z
" transform="scale(0.015625)"/>
      </defs>
      <use xlink:href="#ArialMT-4d"/>
      <use xlink:href="#ArialMT-61" transform="translate(83.300781 0)"/>
      <use xlink:href="#ArialMT-74" transform="translate(138.916016 0)"/>
      <use xlink:href="#ArialMT-72" transform="translate(166.699219 0)"/>
      <use xlink:href="#ArialMT-69" transform="translate(200 0)"/>
      <use xlink:href="#ArialMT-78" transform="translate(222.216797 0)"/>
      <use xlink:href="#ArialMT-20" transform="translate(272.216797 0)"/>
      <use xlink:href="#ArialMT-46" transform="translate(300 0)"/>
      <use xlink:href="#ArialMT-61" transform="translate(361.083984 0)"/>
      <use xlink:href="#ArialMT-63" transform="translate(416.699219 0)"/>
      <use xlink:href="#ArialMT-74" transform="translate(466.699219 0)"/>
      <use xlink:href="#ArialMT-6f" transform="translate(494.482422 0)"/>
      <use xlink:href="#ArialMT-72" transform="translate(550.097656 0)"/>
      <use xlink:href="#ArialMT-69" transform="translate(583.398438 0)"/>
      <use xlink:href="#ArialMT-7a" transform="translate(605.615234 0)"/>
      <use xlink:href="#ArialMT-61" transform="translate(655.615234 0)"/>
      <use xlink:href="#ArialMT-74" transform="translate(711.230469 0)"/>
      <use xlink:href="#ArialMT-69" transform="translate(739.013672 0)"/>
      <use xlink:href="#ArialMT-6f" transform="translate(761.230469 0)"/>
      <use xlink:href="#ArialMT-6e" transform="translate(816.845703 0)"/>
     </g>
    </g>
    <g id="LineCollection_12">
     <path d="M 514.751896 84.431297 
L 514.751896 73.981297 
" style="fill: none; stroke: #8c564b; stroke-width: 1.5"/>
    </g>
    <g id="line2d_51">
     <g>
      <use xlink:href="#md24e75bbfa" x="514.751896" y="84.431297" style="fill: #8c564b; stroke: #8c564b"/>
     </g>
    </g>
    <g id="line2d_52">
     <g>
      <use xlink:href="#md24e75bbfa" x="514.751896" y="73.981297" style="fill: #8c564b; stroke: #8c564b"/>
     </g>
    </g>
    <g id="line2d_53">
     <path d="M 504.301896 79.206297 
L 525.201896 79.206297 
" style="fill: none; stroke: #8c564b; stroke-width: 1.5; stroke-linecap: round"/>
    </g>
    <g id="line2d_54">
     <g>
      <use xlink:href="#ma30ba23cd1" x="514.751896" y="79.206297" style="fill: #8c564b; stroke: #8c564b"/>
     </g>
    </g>
    <g id="text_21">
     <!-- Mean -->
     <g style="fill: #262626" transform="translate(533.561896 82.863797) scale(0.1045 -0.1045)">
      <use xlink:href="#ArialMT-4d"/>
      <use xlink:href="#ArialMT-65" transform="translate(83.300781 0)"/>
      <use xlink:href="#ArialMT-61" transform="translate(138.916016 0)"/>
      <use xlink:href="#ArialMT-6e" transform="translate(194.53125 0)"/>
     </g>
    </g>
    <g id="LineCollection_13">
     <path d="M 514.751896 99.213148 
L 514.751896 88.763148 
" style="fill: none; stroke: #9467bd; stroke-width: 1.5"/>
    </g>
    <g id="line2d_55">
     <g>
      <use xlink:href="#m9e7313bd76" x="514.751896" y="99.213148" style="fill: #9467bd; stroke: #9467bd"/>
     </g>
    </g>
    <g id="line2d_56">
     <g>
      <use xlink:href="#m9e7313bd76" x="514.751896" y="88.763148" style="fill: #9467bd; stroke: #9467bd"/>
     </g>
    </g>
    <g id="line2d_57">
     <path d="M 504.301896 93.988148 
L 525.201896 93.988148 
" style="fill: none; stroke: #9467bd; stroke-width: 1.5; stroke-linecap: round"/>
    </g>
    <g id="line2d_58">
     <g>
      <use xlink:href="#mcab71d91b1" x="514.751896" y="93.988148" style="fill: #9467bd; stroke: #9467bd"/>
     </g>
    </g>
    <g id="text_22">
     <!-- Median -->
     <g style="fill: #262626" transform="translate(533.561896 97.645648) scale(0.1045 -0.1045)">
      <defs>
       <path id="ArialMT-64" d="M 2575 0 
L 2575 419 
Q 2259 -75 1647 -75 
Q 1250 -75 917 144 
Q 584 363 401 755 
Q 219 1147 219 1656 
Q 219 2153 384 2558 
Q 550 2963 881 3178 
Q 1213 3394 1622 3394 
Q 1922 3394 2156 3267 
Q 2391 3141 2538 2938 
L 2538 4581 
L 3097 4581 
L 3097 0 
L 2575 0 
z
M 797 1656 
Q 797 1019 1065 703 
Q 1334 388 1700 388 
Q 2069 388 2326 689 
Q 2584 991 2584 1609 
Q 2584 2291 2321 2609 
Q 2059 2928 1675 2928 
Q 1300 2928 1048 2622 
Q 797 2316 797 1656 
z
" transform="scale(0.015625)"/>
      </defs>
      <use xlink:href="#ArialMT-4d"/>
      <use xlink:href="#ArialMT-65" transform="translate(83.300781 0)"/>
      <use xlink:href="#ArialMT-64" transform="translate(138.916016 0)"/>
      <use xlink:href="#ArialMT-69" transform="translate(194.53125 0)"/>
      <use xlink:href="#ArialMT-61" transform="translate(216.748047 0)"/>
      <use xlink:href="#ArialMT-6e" transform="translate(272.363281 0)"/>
     </g>
    </g>
    <g id="LineCollection_14">
     <path d="M 514.751896 113.995 
L 514.751896 103.545 
" style="fill: none; stroke: #2ca02c; stroke-width: 1.5"/>
    </g>
    <g id="line2d_59">
     <g>
      <use xlink:href="#m60af9cf34e" x="514.751896" y="113.995" style="fill: #2ca02c; stroke: #2ca02c"/>
     </g>
    </g>
    <g id="line2d_60">
     <g>
      <use xlink:href="#m60af9cf34e" x="514.751896" y="103.545" style="fill: #2ca02c; stroke: #2ca02c"/>
     </g>
    </g>
    <g id="line2d_61">
     <path d="M 504.301896 108.77 
L 525.201896 108.77 
" style="fill: none; stroke: #2ca02c; stroke-width: 1.5; stroke-linecap: round"/>
    </g>
    <g id="line2d_62">
     <g>
      <use xlink:href="#md5a69d0afa" x="514.751896" y="108.77" style="fill: #2ca02c; stroke: #2ca02c"/>
     </g>
    </g>
    <g id="text_23">
     <!-- Mice -->
     <g style="fill: #262626" transform="translate(533.561896 112.4275) scale(0.1045 -0.1045)">
      <use xlink:href="#ArialMT-4d"/>
      <use xlink:href="#ArialMT-69" transform="translate(83.300781 0)"/>
      <use xlink:href="#ArialMT-63" transform="translate(105.517578 0)"/>
      <use xlink:href="#ArialMT-65" transform="translate(155.517578 0)"/>
     </g>
    </g>
    <g id="LineCollection_15">
     <path d="M 514.751896 128.776852 
L 514.751896 118.326852 
" style="fill: none; stroke: #d62728; stroke-width: 1.5"/>
    </g>
    <g id="line2d_63">
     <g>
      <use xlink:href="#m06435e6a01" x="514.751896" y="128.776852" style="fill: #d62728; stroke: #d62728"/>
     </g>
    </g>
    <g id="line2d_64">
     <g>
      <use xlink:href="#m06435e6a01" x="514.751896" y="118.326852" style="fill: #d62728; stroke: #d62728"/>
     </g>
    </g>
    <g id="line2d_65">
     <path d="M 504.301896 123.551852 
L 525.201896 123.551852 
" style="fill: none; stroke: #d62728; stroke-width: 1.5; stroke-linecap: round"/>
    </g>
    <g id="line2d_66">
     <g>
      <use xlink:href="#mce50e47582" x="514.751896" y="123.551852" style="fill: #d62728; stroke: #d62728"/>
     </g>
    </g>
    <g id="text_24">
     <!-- kNN -->
     <g style="fill: #262626" transform="translate(533.561896 127.209352) scale(0.1045 -0.1045)">
      <defs>
       <path id="ArialMT-6b" d="M 425 0 
L 425 4581 
L 988 4581 
L 988 1969 
L 2319 3319 
L 3047 3319 
L 1778 2088 
L 3175 0 
L 2481 0 
L 1384 1697 
L 988 1316 
L 988 0 
L 425 0 
z
" transform="scale(0.015625)"/>
       <path id="ArialMT-4e" d="M 488 0 
L 488 4581 
L 1109 4581 
L 3516 984 
L 3516 4581 
L 4097 4581 
L 4097 0 
L 3475 0 
L 1069 3600 
L 1069 0 
L 488 0 
z
" transform="scale(0.015625)"/>
      </defs>
      <use xlink:href="#ArialMT-6b"/>
      <use xlink:href="#ArialMT-4e" transform="translate(50 0)"/>
      <use xlink:href="#ArialMT-4e" transform="translate(122.216797 0)"/>
     </g>
    </g>
    <g id="LineCollection_16">
     <path d="M 514.751896 143.558703 
L 514.751896 133.108703 
" style="fill: none; stroke: #e377c2; stroke-width: 2"/>
    </g>
    <g id="line2d_67">
     <g>
      <use xlink:href="#m25790e1e70" x="514.751896" y="143.558703" style="fill: #e377c2; stroke: #e377c2"/>
     </g>
    </g>
    <g id="line2d_68">
     <g>
      <use xlink:href="#m25790e1e70" x="514.751896" y="133.108703" style="fill: #e377c2; stroke: #e377c2"/>
     </g>
    </g>
    <g id="line2d_69">
     <path d="M 504.301896 138.333703 
L 525.201896 138.333703 
" style="fill: none; stroke: #e377c2; stroke-width: 2; stroke-linecap: round"/>
    </g>
    <g id="line2d_70">
     <g>
      <use xlink:href="#m12fc68a84e" x="514.751896" y="138.333703" style="fill: #e377c2; stroke: #e377c2"/>
     </g>
    </g>
    <g id="text_25">
     <!-- Sudoku -->
     <g style="fill: #262626" transform="translate(533.561896 141.991203) scale(0.1045 -0.1045)">
      <use xlink:href="#ArialMT-53"/>
      <use xlink:href="#ArialMT-75" transform="translate(66.699219 0)"/>
      <use xlink:href="#ArialMT-64" transform="translate(122.314453 0)"/>
      <use xlink:href="#ArialMT-6f" transform="translate(177.929688 0)"/>
      <use xlink:href="#ArialMT-6b" transform="translate(233.544922 0)"/>
      <use xlink:href="#ArialMT-75" transform="translate(283.544922 0)"/>
     </g>
    </g>
   </g>
  </g>
 </g>
 <defs>
  <clipPath id="p70de912500">
   <rect x="45.651156" y="21.505969" width="440.437" height="300.6435"/>
  </clipPath>
 </defs>
</svg>
