<?xml version="1.0" encoding="utf-8" standalone="no"?>
<!DOCTYPE svg PUBLIC "-//W3C//DTD SVG 1.1//EN"
  "http://www.w3.org/Graphics/SVG/1.1/DTD/svg11.dtd">
<svg xmlns:xlink="http://www.w3.org/1999/xlink" width="636.095662pt" height="362.96557pt" viewBox="0 0 636.095662 362.96557" xmlns="http://www.w3.org/2000/svg" version="1.1">
 <metadata>
  <rdf:RDF xmlns:dc="http://purl.org/dc/elements/1.1/" xmlns:cc="http://creativecommons.org/ns#" xmlns:rdf="http://www.w3.org/1999/02/22-rdf-syntax-ns#">
   <cc:Work>
    <dc:type rdf:resource="http://purl.org/dc/dcmitype/StillImage"/>
    <dc:date>2025-09-13T15:31:08.824543</dc:date>
    <dc:format>image/svg+xml</dc:format>
    <dc:creator>
     <cc:Agent>
      <dc:title>Matplotlib v3.10.0, https://matplotlib.org/</dc:title>
     </cc:Agent>
    </dc:creator>
   </cc:Work>
  </rdf:RDF>
 </metadata>
 <defs>
  <style type="text/css">*{stroke-linejoin: round; stroke-linecap: butt}</style>
 </defs>
 <g id="figure_1">
  <g id="patch_1">
   <path d="M -0 362.96557 
L 636.095662 362.96557 
L 636.095662 0 
L -0 0 
z
" style="fill: #ffffff"/>
  </g>
  <g id="axes_1">
   <g id="patch_2">
    <path d="M 48.851469 322.149469 
L 486.138469 322.149469 
L 486.138469 21.505969 
L 48.851469 21.505969 
z
" style="fill: #ffffff"/>
   </g>
   <g id="matplotlib.axis_1">
    <g id="xtick_1">
     <g id="line2d_1">
      <path d="M 57.260834 322.149469 
L 57.260834 21.505969 
" clip-path="url(#p9bc53a57a7)" style="fill: none; stroke: #cccccc; stroke-linecap: round"/>
     </g>
     <g id="text_1">
      <!-- 0.10 -->
      <g style="fill: #262626" transform="translate(47.092494 339.129383) scale(0.1045 -0.1045)">
       <defs>
        <path id="ArialMT-30" d="M 266 2259 
Q 266 3072 433 3567 
Q 600 4063 929 4331 
Q 1259 4600 1759 4600 
Q 2128 4600 2406 4451 
Q 2684 4303 2865 4023 
Q 3047 3744 3150 3342 
Q 3253 2941 3253 2259 
Q 3253 1453 3087 958 
Q 2922 463 2592 192 
Q 2263 -78 1759 -78 
Q 1097 -78 719 397 
Q 266 969 266 2259 
z
M 844 2259 
Q 844 1131 1108 757 
Q 1372 384 1759 384 
Q 2147 384 2411 759 
Q 2675 1134 2675 2259 
Q 2675 3391 2411 3762 
Q 2147 4134 1753 4134 
Q 1366 4134 1134 3806 
Q 844 3388 844 2259 
z
" transform="scale(0.015625)"/>
        <path id="ArialMT-2e" d="M 581 0 
L 581 641 
L 1222 641 
L 1222 0 
L 581 0 
z
" transform="scale(0.015625)"/>
        <path id="ArialMT-31" d="M 2384 0 
L 1822 0 
L 1822 3584 
Q 1619 3391 1289 3197 
Q 959 3003 697 2906 
L 697 3450 
Q 1169 3672 1522 3987 
Q 1875 4303 2022 4600 
L 2384 4600 
L 2384 0 
z
" transform="scale(0.015625)"/>
       </defs>
       <use xlink:href="#ArialMT-30"/>
       <use xlink:href="#ArialMT-2e" transform="translate(55.615234 0)"/>
       <use xlink:href="#ArialMT-31" transform="translate(83.398438 0)"/>
       <use xlink:href="#ArialMT-30" transform="translate(139.013672 0)"/>
      </g>
     </g>
    </g>
    <g id="xtick_2">
     <g id="line2d_2">
      <path d="M 109.819368 322.149469 
L 109.819368 21.505969 
" clip-path="url(#p9bc53a57a7)" style="fill: none; stroke: #cccccc; stroke-linecap: round"/>
     </g>
     <g id="text_2">
      <!-- 0.15 -->
      <g style="fill: #262626" transform="translate(99.651028 339.129383) scale(0.1045 -0.1045)">
       <defs>
        <path id="ArialMT-35" d="M 266 1200 
L 856 1250 
Q 922 819 1161 601 
Q 1400 384 1738 384 
Q 2144 384 2425 690 
Q 2706 997 2706 1503 
Q 2706 1984 2436 2262 
Q 2166 2541 1728 2541 
Q 1456 2541 1237 2417 
Q 1019 2294 894 2097 
L 366 2166 
L 809 4519 
L 3088 4519 
L 3088 3981 
L 1259 3981 
L 1013 2750 
Q 1425 3038 1878 3038 
Q 2478 3038 2890 2622 
Q 3303 2206 3303 1553 
Q 3303 931 2941 478 
Q 2500 -78 1738 -78 
Q 1113 -78 717 272 
Q 322 622 266 1200 
z
" transform="scale(0.015625)"/>
       </defs>
       <use xlink:href="#ArialMT-30"/>
       <use xlink:href="#ArialMT-2e" transform="translate(55.615234 0)"/>
       <use xlink:href="#ArialMT-31" transform="translate(83.398438 0)"/>
       <use xlink:href="#ArialMT-35" transform="translate(139.013672 0)"/>
      </g>
     </g>
    </g>
    <g id="xtick_3">
     <g id="line2d_3">
      <path d="M 162.377901 322.149469 
L 162.377901 21.505969 
" clip-path="url(#p9bc53a57a7)" style="fill: none; stroke: #cccccc; stroke-linecap: round"/>
     </g>
     <g id="text_3">
      <!-- 0.20 -->
      <g style="fill: #262626" transform="translate(152.209562 339.129383) scale(0.1045 -0.1045)">
       <defs>
        <path id="ArialMT-32" d="M 3222 541 
L 3222 0 
L 194 0 
Q 188 203 259 391 
Q 375 700 629 1000 
Q 884 1300 1366 1694 
Q 2113 2306 2375 2664 
Q 2638 3022 2638 3341 
Q 2638 3675 2398 3904 
Q 2159 4134 1775 4134 
Q 1369 4134 1125 3890 
Q 881 3647 878 3216 
L 300 3275 
Q 359 3922 746 4261 
Q 1134 4600 1788 4600 
Q 2447 4600 2831 4234 
Q 3216 3869 3216 3328 
Q 3216 3053 3103 2787 
Q 2991 2522 2730 2228 
Q 2469 1934 1863 1422 
Q 1356 997 1212 845 
Q 1069 694 975 541 
L 3222 541 
z
" transform="scale(0.015625)"/>
       </defs>
       <use xlink:href="#ArialMT-30"/>
       <use xlink:href="#ArialMT-2e" transform="translate(55.615234 0)"/>
       <use xlink:href="#ArialMT-32" transform="translate(83.398438 0)"/>
       <use xlink:href="#ArialMT-30" transform="translate(139.013672 0)"/>
      </g>
     </g>
    </g>
    <g id="xtick_4">
     <g id="line2d_4">
      <path d="M 214.936435 322.149469 
L 214.936435 21.505969 
" clip-path="url(#p9bc53a57a7)" style="fill: none; stroke: #cccccc; stroke-linecap: round"/>
     </g>
     <g id="text_4">
      <!-- 0.25 -->
      <g style="fill: #262626" transform="translate(204.768095 339.129383) scale(0.1045 -0.1045)">
       <use xlink:href="#ArialMT-30"/>
       <use xlink:href="#ArialMT-2e" transform="translate(55.615234 0)"/>
       <use xlink:href="#ArialMT-32" transform="translate(83.398438 0)"/>
       <use xlink:href="#ArialMT-35" transform="translate(139.013672 0)"/>
      </g>
     </g>
    </g>
    <g id="xtick_5">
     <g id="line2d_5">
      <path d="M 267.494969 322.149469 
L 267.494969 21.505969 
" clip-path="url(#p9bc53a57a7)" style="fill: none; stroke: #cccccc; stroke-linecap: round"/>
     </g>
     <g id="text_5">
      <!-- 0.30 -->
      <g style="fill: #262626" transform="translate(257.326629 339.129383) scale(0.1045 -0.1045)">
       <defs>
        <path id="ArialMT-33" d="M 269 1209 
L 831 1284 
Q 928 806 1161 595 
Q 1394 384 1728 384 
Q 2125 384 2398 659 
Q 2672 934 2672 1341 
Q 2672 1728 2419 1979 
Q 2166 2231 1775 2231 
Q 1616 2231 1378 2169 
L 1441 2663 
Q 1497 2656 1531 2656 
Q 1891 2656 2178 2843 
Q 2466 3031 2466 3422 
Q 2466 3731 2256 3934 
Q 2047 4138 1716 4138 
Q 1388 4138 1169 3931 
Q 950 3725 888 3313 
L 325 3413 
Q 428 3978 793 4289 
Q 1159 4600 1703 4600 
Q 2078 4600 2393 4439 
Q 2709 4278 2876 4000 
Q 3044 3722 3044 3409 
Q 3044 3113 2884 2869 
Q 2725 2625 2413 2481 
Q 2819 2388 3044 2092 
Q 3269 1797 3269 1353 
Q 3269 753 2831 336 
Q 2394 -81 1725 -81 
Q 1122 -81 723 278 
Q 325 638 269 1209 
z
" transform="scale(0.015625)"/>
       </defs>
       <use xlink:href="#ArialMT-30"/>
       <use xlink:href="#ArialMT-2e" transform="translate(55.615234 0)"/>
       <use xlink:href="#ArialMT-33" transform="translate(83.398438 0)"/>
       <use xlink:href="#ArialMT-30" transform="translate(139.013672 0)"/>
      </g>
     </g>
    </g>
    <g id="xtick_6">
     <g id="line2d_6">
      <path d="M 320.053502 322.149469 
L 320.053502 21.505969 
" clip-path="url(#p9bc53a57a7)" style="fill: none; stroke: #cccccc; stroke-linecap: round"/>
     </g>
     <g id="text_6">
      <!-- 0.35 -->
      <g style="fill: #262626" transform="translate(309.885163 339.129383) scale(0.1045 -0.1045)">
       <use xlink:href="#ArialMT-30"/>
       <use xlink:href="#ArialMT-2e" transform="translate(55.615234 0)"/>
       <use xlink:href="#ArialMT-33" transform="translate(83.398438 0)"/>
       <use xlink:href="#ArialMT-35" transform="translate(139.013672 0)"/>
      </g>
     </g>
    </g>
    <g id="xtick_7">
     <g id="line2d_7">
      <path d="M 372.612036 322.149469 
L 372.612036 21.505969 
" clip-path="url(#p9bc53a57a7)" style="fill: none; stroke: #cccccc; stroke-linecap: round"/>
     </g>
     <g id="text_7">
      <!-- 0.40 -->
      <g style="fill: #262626" transform="translate(362.443696 339.129383) scale(0.1045 -0.1045)">
       <defs>
        <path id="ArialMT-34" d="M 2069 0 
L 2069 1097 
L 81 1097 
L 81 1613 
L 2172 4581 
L 2631 4581 
L 2631 1613 
L 3250 1613 
L 3250 1097 
L 2631 1097 
L 2631 0 
L 2069 0 
z
M 2069 1613 
L 2069 3678 
L 634 1613 
L 2069 1613 
z
" transform="scale(0.015625)"/>
       </defs>
       <use xlink:href="#ArialMT-30"/>
       <use xlink:href="#ArialMT-2e" transform="translate(55.615234 0)"/>
       <use xlink:href="#ArialMT-34" transform="translate(83.398438 0)"/>
       <use xlink:href="#ArialMT-30" transform="translate(139.013672 0)"/>
      </g>
     </g>
    </g>
    <g id="xtick_8">
     <g id="line2d_8">
      <path d="M 425.17057 322.149469 
L 425.17057 21.505969 
" clip-path="url(#p9bc53a57a7)" style="fill: none; stroke: #cccccc; stroke-linecap: round"/>
     </g>
     <g id="text_8">
      <!-- 0.45 -->
      <g style="fill: #262626" transform="translate(415.00223 339.129383) scale(0.1045 -0.1045)">
       <use xlink:href="#ArialMT-30"/>
       <use xlink:href="#ArialMT-2e" transform="translate(55.615234 0)"/>
       <use xlink:href="#ArialMT-34" transform="translate(83.398438 0)"/>
       <use xlink:href="#ArialMT-35" transform="translate(139.013672 0)"/>
      </g>
     </g>
    </g>
    <g id="xtick_9">
     <g id="line2d_9">
      <path d="M 477.729103 322.149469 
L 477.729103 21.505969 
" clip-path="url(#p9bc53a57a7)" style="fill: none; stroke: #cccccc; stroke-linecap: round"/>
     </g>
     <g id="text_9">
      <!-- 0.50 -->
      <g style="fill: #262626" transform="translate(467.560764 339.129383) scale(0.1045 -0.1045)">
       <use xlink:href="#ArialMT-30"/>
       <use xlink:href="#ArialMT-2e" transform="translate(55.615234 0)"/>
       <use xlink:href="#ArialMT-35" transform="translate(83.398438 0)"/>
       <use xlink:href="#ArialMT-30" transform="translate(139.013672 0)"/>
      </g>
     </g>
    </g>
    <g id="text_10">
     <!-- Missingness Proportion -->
     <g style="fill: #262626" transform="translate(208.255047 353.366227) scale(0.114 -0.114)">
      <defs>
       <path id="ArialMT-4d" d="M 475 0 
L 475 4581 
L 1388 4581 
L 2472 1338 
Q 2622 884 2691 659 
Q 2769 909 2934 1394 
L 4031 4581 
L 4847 4581 
L 4847 0 
L 4263 0 
L 4263 3834 
L 2931 0 
L 2384 0 
L 1059 3900 
L 1059 0 
L 475 0 
z
" transform="scale(0.015625)"/>
       <path id="ArialMT-69" d="M 425 3934 
L 425 4581 
L 988 4581 
L 988 3934 
L 425 3934 
z
M 425 0 
L 425 3319 
L 988 3319 
L 988 0 
L 425 0 
z
" transform="scale(0.015625)"/>
       <path id="ArialMT-73" d="M 197 991 
L 753 1078 
Q 800 744 1014 566 
Q 1228 388 1613 388 
Q 2000 388 2187 545 
Q 2375 703 2375 916 
Q 2375 1106 2209 1216 
Q 2094 1291 1634 1406 
Q 1016 1563 777 1677 
Q 538 1791 414 1992 
Q 291 2194 291 2438 
Q 291 2659 392 2848 
Q 494 3038 669 3163 
Q 800 3259 1026 3326 
Q 1253 3394 1513 3394 
Q 1903 3394 2198 3281 
Q 2494 3169 2634 2976 
Q 2775 2784 2828 2463 
L 2278 2388 
Q 2241 2644 2061 2787 
Q 1881 2931 1553 2931 
Q 1166 2931 1000 2803 
Q 834 2675 834 2503 
Q 834 2394 903 2306 
Q 972 2216 1119 2156 
Q 1203 2125 1616 2013 
Q 2213 1853 2448 1751 
Q 2684 1650 2818 1456 
Q 2953 1263 2953 975 
Q 2953 694 2789 445 
Q 2625 197 2315 61 
Q 2006 -75 1616 -75 
Q 969 -75 630 194 
Q 291 463 197 991 
z
" transform="scale(0.015625)"/>
       <path id="ArialMT-6e" d="M 422 0 
L 422 3319 
L 928 3319 
L 928 2847 
Q 1294 3394 1984 3394 
Q 2284 3394 2536 3286 
Q 2788 3178 2913 3003 
Q 3038 2828 3088 2588 
Q 3119 2431 3119 2041 
L 3119 0 
L 2556 0 
L 2556 2019 
Q 2556 2363 2490 2533 
Q 2425 2703 2258 2804 
Q 2091 2906 1866 2906 
Q 1506 2906 1245 2678 
Q 984 2450 984 1813 
L 984 0 
L 422 0 
z
" transform="scale(0.015625)"/>
       <path id="ArialMT-67" d="M 319 -275 
L 866 -356 
Q 900 -609 1056 -725 
Q 1266 -881 1628 -881 
Q 2019 -881 2231 -725 
Q 2444 -569 2519 -288 
Q 2563 -116 2559 434 
Q 2191 0 1641 0 
Q 956 0 581 494 
Q 206 988 206 1678 
Q 206 2153 378 2554 
Q 550 2956 876 3175 
Q 1203 3394 1644 3394 
Q 2231 3394 2613 2919 
L 2613 3319 
L 3131 3319 
L 3131 450 
Q 3131 -325 2973 -648 
Q 2816 -972 2473 -1159 
Q 2131 -1347 1631 -1347 
Q 1038 -1347 672 -1080 
Q 306 -813 319 -275 
z
M 784 1719 
Q 784 1066 1043 766 
Q 1303 466 1694 466 
Q 2081 466 2343 764 
Q 2606 1063 2606 1700 
Q 2606 2309 2336 2618 
Q 2066 2928 1684 2928 
Q 1309 2928 1046 2623 
Q 784 2319 784 1719 
z
" transform="scale(0.015625)"/>
       <path id="ArialMT-65" d="M 2694 1069 
L 3275 997 
Q 3138 488 2766 206 
Q 2394 -75 1816 -75 
Q 1088 -75 661 373 
Q 234 822 234 1631 
Q 234 2469 665 2931 
Q 1097 3394 1784 3394 
Q 2450 3394 2872 2941 
Q 3294 2488 3294 1666 
Q 3294 1616 3291 1516 
L 816 1516 
Q 847 969 1125 678 
Q 1403 388 1819 388 
Q 2128 388 2347 550 
Q 2566 713 2694 1069 
z
M 847 1978 
L 2700 1978 
Q 2663 2397 2488 2606 
Q 2219 2931 1791 2931 
Q 1403 2931 1139 2672 
Q 875 2413 847 1978 
z
" transform="scale(0.015625)"/>
       <path id="ArialMT-20" transform="scale(0.015625)"/>
       <path id="ArialMT-50" d="M 494 0 
L 494 4581 
L 2222 4581 
Q 2678 4581 2919 4538 
Q 3256 4481 3484 4323 
Q 3713 4166 3852 3881 
Q 3991 3597 3991 3256 
Q 3991 2672 3619 2267 
Q 3247 1863 2275 1863 
L 1100 1863 
L 1100 0 
L 494 0 
z
M 1100 2403 
L 2284 2403 
Q 2872 2403 3119 2622 
Q 3366 2841 3366 3238 
Q 3366 3525 3220 3729 
Q 3075 3934 2838 4000 
Q 2684 4041 2272 4041 
L 1100 4041 
L 1100 2403 
z
" transform="scale(0.015625)"/>
       <path id="ArialMT-72" d="M 416 0 
L 416 3319 
L 922 3319 
L 922 2816 
Q 1116 3169 1280 3281 
Q 1444 3394 1641 3394 
Q 1925 3394 2219 3213 
L 2025 2691 
Q 1819 2813 1613 2813 
Q 1428 2813 1281 2702 
Q 1134 2591 1072 2394 
Q 978 2094 978 1738 
L 978 0 
L 416 0 
z
" transform="scale(0.015625)"/>
       <path id="ArialMT-6f" d="M 213 1659 
Q 213 2581 725 3025 
Q 1153 3394 1769 3394 
Q 2453 3394 2887 2945 
Q 3322 2497 3322 1706 
Q 3322 1066 3130 698 
Q 2938 331 2570 128 
Q 2203 -75 1769 -75 
Q 1072 -75 642 372 
Q 213 819 213 1659 
z
M 791 1659 
Q 791 1022 1069 705 
Q 1347 388 1769 388 
Q 2188 388 2466 706 
Q 2744 1025 2744 1678 
Q 2744 2294 2464 2611 
Q 2184 2928 1769 2928 
Q 1347 2928 1069 2612 
Q 791 2297 791 1659 
z
" transform="scale(0.015625)"/>
       <path id="ArialMT-70" d="M 422 -1272 
L 422 3319 
L 934 3319 
L 934 2888 
Q 1116 3141 1344 3267 
Q 1572 3394 1897 3394 
Q 2322 3394 2647 3175 
Q 2972 2956 3137 2557 
Q 3303 2159 3303 1684 
Q 3303 1175 3120 767 
Q 2938 359 2589 142 
Q 2241 -75 1856 -75 
Q 1575 -75 1351 44 
Q 1128 163 984 344 
L 984 -1272 
L 422 -1272 
z
M 931 1641 
Q 931 1000 1190 694 
Q 1450 388 1819 388 
Q 2194 388 2461 705 
Q 2728 1022 2728 1688 
Q 2728 2322 2467 2637 
Q 2206 2953 1844 2953 
Q 1484 2953 1207 2617 
Q 931 2281 931 1641 
z
" transform="scale(0.015625)"/>
       <path id="ArialMT-74" d="M 1650 503 
L 1731 6 
Q 1494 -44 1306 -44 
Q 1000 -44 831 53 
Q 663 150 594 308 
Q 525 466 525 972 
L 525 2881 
L 113 2881 
L 113 3319 
L 525 3319 
L 525 4141 
L 1084 4478 
L 1084 3319 
L 1650 3319 
L 1650 2881 
L 1084 2881 
L 1084 941 
Q 1084 700 1114 631 
Q 1144 563 1211 522 
Q 1278 481 1403 481 
Q 1497 481 1650 503 
z
" transform="scale(0.015625)"/>
      </defs>
      <use xlink:href="#ArialMT-4d"/>
      <use xlink:href="#ArialMT-69" transform="translate(83.300781 0)"/>
      <use xlink:href="#ArialMT-73" transform="translate(105.517578 0)"/>
      <use xlink:href="#ArialMT-73" transform="translate(155.517578 0)"/>
      <use xlink:href="#ArialMT-69" transform="translate(205.517578 0)"/>
      <use xlink:href="#ArialMT-6e" transform="translate(227.734375 0)"/>
      <use xlink:href="#ArialMT-67" transform="translate(283.349609 0)"/>
      <use xlink:href="#ArialMT-6e" transform="translate(338.964844 0)"/>
      <use xlink:href="#ArialMT-65" transform="translate(394.580078 0)"/>
      <use xlink:href="#ArialMT-73" transform="translate(450.195312 0)"/>
      <use xlink:href="#ArialMT-73" transform="translate(500.195312 0)"/>
      <use xlink:href="#ArialMT-20" transform="translate(550.195312 0)"/>
      <use xlink:href="#ArialMT-50" transform="translate(577.978516 0)"/>
      <use xlink:href="#ArialMT-72" transform="translate(644.677734 0)"/>
      <use xlink:href="#ArialMT-6f" transform="translate(677.978516 0)"/>
      <use xlink:href="#ArialMT-70" transform="translate(733.59375 0)"/>
      <use xlink:href="#ArialMT-6f" transform="translate(789.208984 0)"/>
      <use xlink:href="#ArialMT-72" transform="translate(844.824219 0)"/>
      <use xlink:href="#ArialMT-74" transform="translate(878.125 0)"/>
      <use xlink:href="#ArialMT-69" transform="translate(905.908203 0)"/>
      <use xlink:href="#ArialMT-6f" transform="translate(928.125 0)"/>
      <use xlink:href="#ArialMT-6e" transform="translate(983.740234 0)"/>
     </g>
    </g>
   </g>
   <g id="matplotlib.axis_2">
    <g id="ytick_1">
     <g id="line2d_10">
      <path d="M 48.851469 304.704724 
L 486.138469 304.704724 
" clip-path="url(#p9bc53a57a7)" style="fill: none; stroke: #cccccc; stroke-linecap: round"/>
     </g>
     <g id="text_11">
      <!-- −12 -->
      <g style="fill: #262626" transform="translate(21.625656 308.444681) scale(0.1045 -0.1045)">
       <defs>
        <path id="ArialMT-2212" d="M 3381 1997 
L 356 1997 
L 356 2522 
L 3381 2522 
L 3381 1997 
z
" transform="scale(0.015625)"/>
       </defs>
       <use xlink:href="#ArialMT-2212"/>
       <use xlink:href="#ArialMT-31" transform="translate(58.398438 0)"/>
       <use xlink:href="#ArialMT-32" transform="translate(114.013672 0)"/>
      </g>
     </g>
    </g>
    <g id="ytick_2">
     <g id="line2d_11">
      <path d="M 48.851469 261.925121 
L 486.138469 261.925121 
" clip-path="url(#p9bc53a57a7)" style="fill: none; stroke: #cccccc; stroke-linecap: round"/>
     </g>
     <g id="text_12">
      <!-- −10 -->
      <g style="fill: #262626" transform="translate(21.625656 265.665078) scale(0.1045 -0.1045)">
       <use xlink:href="#ArialMT-2212"/>
       <use xlink:href="#ArialMT-31" transform="translate(58.398438 0)"/>
       <use xlink:href="#ArialMT-30" transform="translate(114.013672 0)"/>
      </g>
     </g>
    </g>
    <g id="ytick_3">
     <g id="line2d_12">
      <path d="M 48.851469 219.145519 
L 486.138469 219.145519 
" clip-path="url(#p9bc53a57a7)" style="fill: none; stroke: #cccccc; stroke-linecap: round"/>
     </g>
     <g id="text_13">
      <!-- −8 -->
      <g style="fill: #262626" transform="translate(27.436836 222.885476) scale(0.1045 -0.1045)">
       <defs>
        <path id="ArialMT-38" d="M 1131 2484 
Q 781 2613 612 2850 
Q 444 3088 444 3419 
Q 444 3919 803 4259 
Q 1163 4600 1759 4600 
Q 2359 4600 2725 4251 
Q 3091 3903 3091 3403 
Q 3091 3084 2923 2848 
Q 2756 2613 2416 2484 
Q 2838 2347 3058 2040 
Q 3278 1734 3278 1309 
Q 3278 722 2862 322 
Q 2447 -78 1769 -78 
Q 1091 -78 675 323 
Q 259 725 259 1325 
Q 259 1772 486 2073 
Q 713 2375 1131 2484 
z
M 1019 3438 
Q 1019 3113 1228 2906 
Q 1438 2700 1772 2700 
Q 2097 2700 2305 2904 
Q 2513 3109 2513 3406 
Q 2513 3716 2298 3927 
Q 2084 4138 1766 4138 
Q 1444 4138 1231 3931 
Q 1019 3725 1019 3438 
z
M 838 1322 
Q 838 1081 952 856 
Q 1066 631 1291 507 
Q 1516 384 1775 384 
Q 2178 384 2440 643 
Q 2703 903 2703 1303 
Q 2703 1709 2433 1975 
Q 2163 2241 1756 2241 
Q 1359 2241 1098 1978 
Q 838 1716 838 1322 
z
" transform="scale(0.015625)"/>
       </defs>
       <use xlink:href="#ArialMT-2212"/>
       <use xlink:href="#ArialMT-38" transform="translate(58.398438 0)"/>
      </g>
     </g>
    </g>
    <g id="ytick_4">
     <g id="line2d_13">
      <path d="M 48.851469 176.365916 
L 486.138469 176.365916 
" clip-path="url(#p9bc53a57a7)" style="fill: none; stroke: #cccccc; stroke-linecap: round"/>
     </g>
     <g id="text_14">
      <!-- −6 -->
      <g style="fill: #262626" transform="translate(27.436836 180.105873) scale(0.1045 -0.1045)">
       <defs>
        <path id="ArialMT-36" d="M 3184 3459 
L 2625 3416 
Q 2550 3747 2413 3897 
Q 2184 4138 1850 4138 
Q 1581 4138 1378 3988 
Q 1113 3794 959 3422 
Q 806 3050 800 2363 
Q 1003 2672 1297 2822 
Q 1591 2972 1913 2972 
Q 2475 2972 2870 2558 
Q 3266 2144 3266 1488 
Q 3266 1056 3080 686 
Q 2894 316 2569 119 
Q 2244 -78 1831 -78 
Q 1128 -78 684 439 
Q 241 956 241 2144 
Q 241 3472 731 4075 
Q 1159 4600 1884 4600 
Q 2425 4600 2770 4297 
Q 3116 3994 3184 3459 
z
M 888 1484 
Q 888 1194 1011 928 
Q 1134 663 1356 523 
Q 1578 384 1822 384 
Q 2178 384 2434 671 
Q 2691 959 2691 1453 
Q 2691 1928 2437 2201 
Q 2184 2475 1800 2475 
Q 1419 2475 1153 2201 
Q 888 1928 888 1484 
z
" transform="scale(0.015625)"/>
       </defs>
       <use xlink:href="#ArialMT-2212"/>
       <use xlink:href="#ArialMT-36" transform="translate(58.398438 0)"/>
      </g>
     </g>
    </g>
    <g id="ytick_5">
     <g id="line2d_14">
      <path d="M 48.851469 133.586314 
L 486.138469 133.586314 
" clip-path="url(#p9bc53a57a7)" style="fill: none; stroke: #cccccc; stroke-linecap: round"/>
     </g>
     <g id="text_15">
      <!-- −4 -->
      <g style="fill: #262626" transform="translate(27.436836 137.326271) scale(0.1045 -0.1045)">
       <use xlink:href="#ArialMT-2212"/>
       <use xlink:href="#ArialMT-34" transform="translate(58.398438 0)"/>
      </g>
     </g>
    </g>
    <g id="ytick_6">
     <g id="line2d_15">
      <path d="M 48.851469 90.806711 
L 486.138469 90.806711 
" clip-path="url(#p9bc53a57a7)" style="fill: none; stroke: #cccccc; stroke-linecap: round"/>
     </g>
     <g id="text_16">
      <!-- −2 -->
      <g style="fill: #262626" transform="translate(27.436836 94.546668) scale(0.1045 -0.1045)">
       <use xlink:href="#ArialMT-2212"/>
       <use xlink:href="#ArialMT-32" transform="translate(58.398438 0)"/>
      </g>
     </g>
    </g>
    <g id="ytick_7">
     <g id="line2d_16">
      <path d="M 48.851469 48.027109 
L 486.138469 48.027109 
" clip-path="url(#p9bc53a57a7)" style="fill: none; stroke: #cccccc; stroke-linecap: round"/>
     </g>
     <g id="text_17">
      <!-- 0 -->
      <g style="fill: #262626" transform="translate(33.540289 51.767066) scale(0.1045 -0.1045)">
       <use xlink:href="#ArialMT-30"/>
      </g>
     </g>
    </g>
    <g id="text_18">
     <!-- R² -->
     <g style="fill: #262626" transform="translate(15.359906 177.842109) rotate(-90) scale(0.114 -0.114)">
      <defs>
       <path id="ArialMT-52" d="M 503 0 
L 503 4581 
L 2534 4581 
Q 3147 4581 3465 4457 
Q 3784 4334 3975 4021 
Q 4166 3709 4166 3331 
Q 4166 2844 3850 2509 
Q 3534 2175 2875 2084 
Q 3116 1969 3241 1856 
Q 3506 1613 3744 1247 
L 4541 0 
L 3778 0 
L 3172 953 
Q 2906 1366 2734 1584 
Q 2563 1803 2427 1890 
Q 2291 1978 2150 2013 
Q 2047 2034 1813 2034 
L 1109 2034 
L 1109 0 
L 503 0 
z
M 1109 2559 
L 2413 2559 
Q 2828 2559 3062 2645 
Q 3297 2731 3419 2920 
Q 3541 3109 3541 3331 
Q 3541 3656 3305 3865 
Q 3069 4075 2559 4075 
L 1109 4075 
L 1109 2559 
z
" transform="scale(0.015625)"/>
       <path id="ArialMT-b2" d="M 78 2291 
Q 97 2469 225 2647 
Q 422 2916 872 3242 
Q 1322 3569 1406 3663 
Q 1522 3791 1522 3925 
Q 1522 4075 1412 4172 
Q 1303 4269 1091 4269 
Q 884 4269 782 4195 
Q 681 4122 616 3913 
L 144 3963 
Q 234 4309 457 4473 
Q 681 4638 1100 4638 
Q 1572 4638 1792 4453 
Q 2013 4269 2013 4003 
Q 2013 3741 1828 3506 
Q 1688 3331 1188 2972 
Q 928 2781 819 2669 
L 2025 2669 
L 2025 2291 
L 78 2291 
z
" transform="scale(0.015625)"/>
      </defs>
      <use xlink:href="#ArialMT-52"/>
      <use xlink:href="#ArialMT-b2" transform="translate(72.216797 0)"/>
     </g>
    </g>
   </g>
   <g id="LineCollection_1">
    <path d="M 57.260834 39.323984 
L 57.260834 35.171582 
" clip-path="url(#p9bc53a57a7)" style="fill: none; stroke: #bcbd22; stroke-width: 1.5"/>
    <path d="M 162.377901 42.720361 
L 162.377901 37.496755 
" clip-path="url(#p9bc53a57a7)" style="fill: none; stroke: #bcbd22; stroke-width: 1.5"/>
    <path d="M 267.494969 63.595956 
L 267.494969 43.925117 
" clip-path="url(#p9bc53a57a7)" style="fill: none; stroke: #bcbd22; stroke-width: 1.5"/>
    <path d="M 372.612036 105.527911 
L 372.612036 55.48721 
" clip-path="url(#p9bc53a57a7)" style="fill: none; stroke: #bcbd22; stroke-width: 1.5"/>
    <path d="M 477.729103 308.483855 
L 477.729103 75.680656 
" clip-path="url(#p9bc53a57a7)" style="fill: none; stroke: #bcbd22; stroke-width: 1.5"/>
   </g>
   <g id="line2d_17">
    <defs>
     <path id="m83711eb1b1" d="M 3 0 
L -3 -0 
" style="stroke: #bcbd22"/>
    </defs>
    <g clip-path="url(#p9bc53a57a7)">
     <use xlink:href="#m83711eb1b1" x="57.260834" y="39.323984" style="fill: #bcbd22; stroke: #bcbd22"/>
     <use xlink:href="#m83711eb1b1" x="162.377901" y="42.720361" style="fill: #bcbd22; stroke: #bcbd22"/>
     <use xlink:href="#m83711eb1b1" x="267.494969" y="63.595956" style="fill: #bcbd22; stroke: #bcbd22"/>
     <use xlink:href="#m83711eb1b1" x="372.612036" y="105.527911" style="fill: #bcbd22; stroke: #bcbd22"/>
     <use xlink:href="#m83711eb1b1" x="477.729103" y="308.483855" style="fill: #bcbd22; stroke: #bcbd22"/>
    </g>
   </g>
   <g id="line2d_18">
    <g clip-path="url(#p9bc53a57a7)">
     <use xlink:href="#m83711eb1b1" x="57.260834" y="35.171582" style="fill: #bcbd22; stroke: #bcbd22"/>
     <use xlink:href="#m83711eb1b1" x="162.377901" y="37.496755" style="fill: #bcbd22; stroke: #bcbd22"/>
     <use xlink:href="#m83711eb1b1" x="267.494969" y="43.925117" style="fill: #bcbd22; stroke: #bcbd22"/>
     <use xlink:href="#m83711eb1b1" x="372.612036" y="55.48721" style="fill: #bcbd22; stroke: #bcbd22"/>
     <use xlink:href="#m83711eb1b1" x="477.729103" y="75.680656" style="fill: #bcbd22; stroke: #bcbd22"/>
    </g>
   </g>
   <g id="LineCollection_2">
    <path d="M 57.260834 45.889437 
L 57.260834 40.133998 
" clip-path="url(#p9bc53a57a7)" style="fill: none; stroke: #1f77b4; stroke-width: 1.5"/>
    <path d="M 162.377901 46.346617 
L 162.377901 42.112236 
" clip-path="url(#p9bc53a57a7)" style="fill: none; stroke: #1f77b4; stroke-width: 1.5"/>
    <path d="M 267.494969 55.01403 
L 267.494969 46.477454 
" clip-path="url(#p9bc53a57a7)" style="fill: none; stroke: #1f77b4; stroke-width: 1.5"/>
    <path d="M 372.612036 67.972513 
L 372.612036 51.36735 
" clip-path="url(#p9bc53a57a7)" style="fill: none; stroke: #1f77b4; stroke-width: 1.5"/>
    <path d="M 477.729103 91.91511 
L 477.729103 61.798359 
" clip-path="url(#p9bc53a57a7)" style="fill: none; stroke: #1f77b4; stroke-width: 1.5"/>
   </g>
   <g id="line2d_19">
    <defs>
     <path id="m7194fcf3e3" d="M 3 0 
L -3 -0 
" style="stroke: #1f77b4"/>
    </defs>
    <g clip-path="url(#p9bc53a57a7)">
     <use xlink:href="#m7194fcf3e3" x="57.260834" y="45.889437" style="fill: #1f77b4; stroke: #1f77b4"/>
     <use xlink:href="#m7194fcf3e3" x="162.377901" y="46.346617" style="fill: #1f77b4; stroke: #1f77b4"/>
     <use xlink:href="#m7194fcf3e3" x="267.494969" y="55.01403" style="fill: #1f77b4; stroke: #1f77b4"/>
     <use xlink:href="#m7194fcf3e3" x="372.612036" y="67.972513" style="fill: #1f77b4; stroke: #1f77b4"/>
     <use xlink:href="#m7194fcf3e3" x="477.729103" y="91.91511" style="fill: #1f77b4; stroke: #1f77b4"/>
    </g>
   </g>
   <g id="line2d_20">
    <g clip-path="url(#p9bc53a57a7)">
     <use xlink:href="#m7194fcf3e3" x="57.260834" y="40.133998" style="fill: #1f77b4; stroke: #1f77b4"/>
     <use xlink:href="#m7194fcf3e3" x="162.377901" y="42.112236" style="fill: #1f77b4; stroke: #1f77b4"/>
     <use xlink:href="#m7194fcf3e3" x="267.494969" y="46.477454" style="fill: #1f77b4; stroke: #1f77b4"/>
     <use xlink:href="#m7194fcf3e3" x="372.612036" y="51.36735" style="fill: #1f77b4; stroke: #1f77b4"/>
     <use xlink:href="#m7194fcf3e3" x="477.729103" y="61.798359" style="fill: #1f77b4; stroke: #1f77b4"/>
    </g>
   </g>
   <g id="LineCollection_3">
    <path d="M 57.260834 55.737351 
L 57.260834 43.384404 
" clip-path="url(#p9bc53a57a7)" style="fill: none; stroke: #ff7f0e; stroke-width: 1.5"/>
    <path d="M 162.377901 58.811363 
L 162.377901 46.750848 
" clip-path="url(#p9bc53a57a7)" style="fill: none; stroke: #ff7f0e; stroke-width: 1.5"/>
    <path d="M 267.494969 70.729919 
L 267.494969 53.18553 
" clip-path="url(#p9bc53a57a7)" style="fill: none; stroke: #ff7f0e; stroke-width: 1.5"/>
    <path d="M 372.612036 95.674313 
L 372.612036 61.487144 
" clip-path="url(#p9bc53a57a7)" style="fill: none; stroke: #ff7f0e; stroke-width: 1.5"/>
    <path d="M 477.729103 178.469273 
L 477.729103 78.03806 
" clip-path="url(#p9bc53a57a7)" style="fill: none; stroke: #ff7f0e; stroke-width: 1.5"/>
   </g>
   <g id="line2d_21">
    <defs>
     <path id="m7ab23d9c3e" d="M 3 0 
L -3 -0 
" style="stroke: #ff7f0e"/>
    </defs>
    <g clip-path="url(#p9bc53a57a7)">
     <use xlink:href="#m7ab23d9c3e" x="57.260834" y="55.737351" style="fill: #ff7f0e; stroke: #ff7f0e"/>
     <use xlink:href="#m7ab23d9c3e" x="162.377901" y="58.811363" style="fill: #ff7f0e; stroke: #ff7f0e"/>
     <use xlink:href="#m7ab23d9c3e" x="267.494969" y="70.729919" style="fill: #ff7f0e; stroke: #ff7f0e"/>
     <use xlink:href="#m7ab23d9c3e" x="372.612036" y="95.674313" style="fill: #ff7f0e; stroke: #ff7f0e"/>
     <use xlink:href="#m7ab23d9c3e" x="477.729103" y="178.469273" style="fill: #ff7f0e; stroke: #ff7f0e"/>
    </g>
   </g>
   <g id="line2d_22">
    <g clip-path="url(#p9bc53a57a7)">
     <use xlink:href="#m7ab23d9c3e" x="57.260834" y="43.384404" style="fill: #ff7f0e; stroke: #ff7f0e"/>
     <use xlink:href="#m7ab23d9c3e" x="162.377901" y="46.750848" style="fill: #ff7f0e; stroke: #ff7f0e"/>
     <use xlink:href="#m7ab23d9c3e" x="267.494969" y="53.18553" style="fill: #ff7f0e; stroke: #ff7f0e"/>
     <use xlink:href="#m7ab23d9c3e" x="372.612036" y="61.487144" style="fill: #ff7f0e; stroke: #ff7f0e"/>
     <use xlink:href="#m7ab23d9c3e" x="477.729103" y="78.03806" style="fill: #ff7f0e; stroke: #ff7f0e"/>
    </g>
   </g>
   <g id="LineCollection_4">
    <path d="M 57.260834 54.861774 
L 57.260834 51.417443 
" clip-path="url(#p9bc53a57a7)" style="fill: none; stroke: #8c564b; stroke-width: 1.5"/>
    <path d="M 162.377901 55.314173 
L 162.377901 51.767885 
" clip-path="url(#p9bc53a57a7)" style="fill: none; stroke: #8c564b; stroke-width: 1.5"/>
    <path d="M 267.494969 55.969788 
L 267.494969 52.226371 
" clip-path="url(#p9bc53a57a7)" style="fill: none; stroke: #8c564b; stroke-width: 1.5"/>
    <path d="M 372.612036 56.67543 
L 372.612036 52.685214 
" clip-path="url(#p9bc53a57a7)" style="fill: none; stroke: #8c564b; stroke-width: 1.5"/>
    <path d="M 477.729103 57.98348 
L 477.729103 53.351143 
" clip-path="url(#p9bc53a57a7)" style="fill: none; stroke: #8c564b; stroke-width: 1.5"/>
   </g>
   <g id="line2d_23">
    <defs>
     <path id="meb5e097ce6" d="M 3 0 
L -3 -0 
" style="stroke: #8c564b"/>
    </defs>
    <g clip-path="url(#p9bc53a57a7)">
     <use xlink:href="#meb5e097ce6" x="57.260834" y="54.861774" style="fill: #8c564b; stroke: #8c564b"/>
     <use xlink:href="#meb5e097ce6" x="162.377901" y="55.314173" style="fill: #8c564b; stroke: #8c564b"/>
     <use xlink:href="#meb5e097ce6" x="267.494969" y="55.969788" style="fill: #8c564b; stroke: #8c564b"/>
     <use xlink:href="#meb5e097ce6" x="372.612036" y="56.67543" style="fill: #8c564b; stroke: #8c564b"/>
     <use xlink:href="#meb5e097ce6" x="477.729103" y="57.98348" style="fill: #8c564b; stroke: #8c564b"/>
    </g>
   </g>
   <g id="line2d_24">
    <g clip-path="url(#p9bc53a57a7)">
     <use xlink:href="#meb5e097ce6" x="57.260834" y="51.417443" style="fill: #8c564b; stroke: #8c564b"/>
     <use xlink:href="#meb5e097ce6" x="162.377901" y="51.767885" style="fill: #8c564b; stroke: #8c564b"/>
     <use xlink:href="#meb5e097ce6" x="267.494969" y="52.226371" style="fill: #8c564b; stroke: #8c564b"/>
     <use xlink:href="#meb5e097ce6" x="372.612036" y="52.685214" style="fill: #8c564b; stroke: #8c564b"/>
     <use xlink:href="#meb5e097ce6" x="477.729103" y="53.351143" style="fill: #8c564b; stroke: #8c564b"/>
    </g>
   </g>
   <g id="LineCollection_5">
    <path d="M 57.260834 58.52459 
L 57.260834 53.586073 
" clip-path="url(#p9bc53a57a7)" style="fill: none; stroke: #9467bd; stroke-width: 1.5"/>
    <path d="M 162.377901 58.88216 
L 162.377901 53.815669 
" clip-path="url(#p9bc53a57a7)" style="fill: none; stroke: #9467bd; stroke-width: 1.5"/>
    <path d="M 267.494969 59.133804 
L 267.494969 53.937562 
" clip-path="url(#p9bc53a57a7)" style="fill: none; stroke: #9467bd; stroke-width: 1.5"/>
    <path d="M 372.612036 59.588304 
L 372.612036 54.320796 
" clip-path="url(#p9bc53a57a7)" style="fill: none; stroke: #9467bd; stroke-width: 1.5"/>
    <path d="M 477.729103 60.359003 
L 477.729103 54.783898 
" clip-path="url(#p9bc53a57a7)" style="fill: none; stroke: #9467bd; stroke-width: 1.5"/>
   </g>
   <g id="line2d_25">
    <defs>
     <path id="me63c6e53b3" d="M 3 0 
L -3 -0 
" style="stroke: #9467bd"/>
    </defs>
    <g clip-path="url(#p9bc53a57a7)">
     <use xlink:href="#me63c6e53b3" x="57.260834" y="58.52459" style="fill: #9467bd; stroke: #9467bd"/>
     <use xlink:href="#me63c6e53b3" x="162.377901" y="58.88216" style="fill: #9467bd; stroke: #9467bd"/>
     <use xlink:href="#me63c6e53b3" x="267.494969" y="59.133804" style="fill: #9467bd; stroke: #9467bd"/>
     <use xlink:href="#me63c6e53b3" x="372.612036" y="59.588304" style="fill: #9467bd; stroke: #9467bd"/>
     <use xlink:href="#me63c6e53b3" x="477.729103" y="60.359003" style="fill: #9467bd; stroke: #9467bd"/>
    </g>
   </g>
   <g id="line2d_26">
    <g clip-path="url(#p9bc53a57a7)">
     <use xlink:href="#me63c6e53b3" x="57.260834" y="53.586073" style="fill: #9467bd; stroke: #9467bd"/>
     <use xlink:href="#me63c6e53b3" x="162.377901" y="53.815669" style="fill: #9467bd; stroke: #9467bd"/>
     <use xlink:href="#me63c6e53b3" x="267.494969" y="53.937562" style="fill: #9467bd; stroke: #9467bd"/>
     <use xlink:href="#me63c6e53b3" x="372.612036" y="54.320796" style="fill: #9467bd; stroke: #9467bd"/>
     <use xlink:href="#me63c6e53b3" x="477.729103" y="54.783898" style="fill: #9467bd; stroke: #9467bd"/>
    </g>
   </g>
   <g id="LineCollection_6">
    <path d="M 57.260834 194.344477 
L 57.260834 87.330826 
" clip-path="url(#p9bc53a57a7)" style="fill: none; stroke: #2ca02c; stroke-width: 1.5"/>
    <path d="M 162.377901 92.814293 
L 162.377901 60.599683 
" clip-path="url(#p9bc53a57a7)" style="fill: none; stroke: #2ca02c; stroke-width: 1.5"/>
    <path d="M 267.494969 105.724868 
L 267.494969 61.668406 
" clip-path="url(#p9bc53a57a7)" style="fill: none; stroke: #2ca02c; stroke-width: 1.5"/>
    <path d="M 372.612036 129.807375 
L 372.612036 55.025044 
" clip-path="url(#p9bc53a57a7)" style="fill: none; stroke: #2ca02c; stroke-width: 1.5"/>
    <path d="M 477.729103 236.694147 
L 477.729103 64.851766 
" clip-path="url(#p9bc53a57a7)" style="fill: none; stroke: #2ca02c; stroke-width: 1.5"/>
   </g>
   <g id="line2d_27">
    <defs>
     <path id="maa39e3decb" d="M 3 0 
L -3 -0 
" style="stroke: #2ca02c"/>
    </defs>
    <g clip-path="url(#p9bc53a57a7)">
     <use xlink:href="#maa39e3decb" x="57.260834" y="194.344477" style="fill: #2ca02c; stroke: #2ca02c"/>
     <use xlink:href="#maa39e3decb" x="162.377901" y="92.814293" style="fill: #2ca02c; stroke: #2ca02c"/>
     <use xlink:href="#maa39e3decb" x="267.494969" y="105.724868" style="fill: #2ca02c; stroke: #2ca02c"/>
     <use xlink:href="#maa39e3decb" x="372.612036" y="129.807375" style="fill: #2ca02c; stroke: #2ca02c"/>
     <use xlink:href="#maa39e3decb" x="477.729103" y="236.694147" style="fill: #2ca02c; stroke: #2ca02c"/>
    </g>
   </g>
   <g id="line2d_28">
    <g clip-path="url(#p9bc53a57a7)">
     <use xlink:href="#maa39e3decb" x="57.260834" y="87.330826" style="fill: #2ca02c; stroke: #2ca02c"/>
     <use xlink:href="#maa39e3decb" x="162.377901" y="60.599683" style="fill: #2ca02c; stroke: #2ca02c"/>
     <use xlink:href="#maa39e3decb" x="267.494969" y="61.668406" style="fill: #2ca02c; stroke: #2ca02c"/>
     <use xlink:href="#maa39e3decb" x="372.612036" y="55.025044" style="fill: #2ca02c; stroke: #2ca02c"/>
     <use xlink:href="#maa39e3decb" x="477.729103" y="64.851766" style="fill: #2ca02c; stroke: #2ca02c"/>
    </g>
   </g>
   <g id="LineCollection_7">
    <path d="M 57.260834 48.651232 
L 57.260834 41.801354 
" clip-path="url(#p9bc53a57a7)" style="fill: none; stroke: #d62728; stroke-width: 1.5"/>
    <path d="M 162.377901 54.025487 
L 162.377901 44.23495 
" clip-path="url(#p9bc53a57a7)" style="fill: none; stroke: #d62728; stroke-width: 1.5"/>
    <path d="M 267.494969 68.42465 
L 267.494969 46.091057 
" clip-path="url(#p9bc53a57a7)" style="fill: none; stroke: #d62728; stroke-width: 1.5"/>
    <path d="M 372.612036 89.672824 
L 372.612036 47.563964 
" clip-path="url(#p9bc53a57a7)" style="fill: none; stroke: #d62728; stroke-width: 1.5"/>
    <path d="M 477.729103 132.307339 
L 477.729103 50.482288 
" clip-path="url(#p9bc53a57a7)" style="fill: none; stroke: #d62728; stroke-width: 1.5"/>
   </g>
   <g id="line2d_29">
    <defs>
     <path id="m44cd9f7f45" d="M 3 0 
L -3 -0 
" style="stroke: #d62728"/>
    </defs>
    <g clip-path="url(#p9bc53a57a7)">
     <use xlink:href="#m44cd9f7f45" x="57.260834" y="48.651232" style="fill: #d62728; stroke: #d62728"/>
     <use xlink:href="#m44cd9f7f45" x="162.377901" y="54.025487" style="fill: #d62728; stroke: #d62728"/>
     <use xlink:href="#m44cd9f7f45" x="267.494969" y="68.42465" style="fill: #d62728; stroke: #d62728"/>
     <use xlink:href="#m44cd9f7f45" x="372.612036" y="89.672824" style="fill: #d62728; stroke: #d62728"/>
     <use xlink:href="#m44cd9f7f45" x="477.729103" y="132.307339" style="fill: #d62728; stroke: #d62728"/>
    </g>
   </g>
   <g id="line2d_30">
    <g clip-path="url(#p9bc53a57a7)">
     <use xlink:href="#m44cd9f7f45" x="57.260834" y="41.801354" style="fill: #d62728; stroke: #d62728"/>
     <use xlink:href="#m44cd9f7f45" x="162.377901" y="44.23495" style="fill: #d62728; stroke: #d62728"/>
     <use xlink:href="#m44cd9f7f45" x="267.494969" y="46.091057" style="fill: #d62728; stroke: #d62728"/>
     <use xlink:href="#m44cd9f7f45" x="372.612036" y="47.563964" style="fill: #d62728; stroke: #d62728"/>
     <use xlink:href="#m44cd9f7f45" x="477.729103" y="50.482288" style="fill: #d62728; stroke: #d62728"/>
    </g>
   </g>
   <g id="line2d_31">
    <path d="M 57.260834 37.247783 
L 162.377901 40.108558 
L 267.494969 53.760537 
L 372.612036 80.50756 
L 477.729103 192.082255 
" clip-path="url(#p9bc53a57a7)" style="fill: none; stroke: #bcbd22; stroke-width: 1.5; stroke-linecap: round"/>
    <defs>
     <path id="maac02320d5" d="M 0 3 
C 0.795609 3 1.55874 2.683901 2.12132 2.12132 
C 2.683901 1.55874 3 0.795609 3 0 
C 3 -0.795609 2.683901 -1.55874 2.12132 -2.12132 
C 1.55874 -2.683901 0.795609 -3 0 -3 
C -0.795609 -3 -1.55874 -2.683901 -2.12132 -2.12132 
C -2.683901 -1.55874 -3 -0.795609 -3 0 
C -3 0.795609 -2.683901 1.55874 -2.12132 2.12132 
C -1.55874 2.683901 -0.795609 3 0 3 
z
" style="stroke: #bcbd22"/>
    </defs>
    <g clip-path="url(#p9bc53a57a7)">
     <use xlink:href="#maac02320d5" x="57.260834" y="37.247783" style="fill: #bcbd22; stroke: #bcbd22"/>
     <use xlink:href="#maac02320d5" x="162.377901" y="40.108558" style="fill: #bcbd22; stroke: #bcbd22"/>
     <use xlink:href="#maac02320d5" x="267.494969" y="53.760537" style="fill: #bcbd22; stroke: #bcbd22"/>
     <use xlink:href="#maac02320d5" x="372.612036" y="80.50756" style="fill: #bcbd22; stroke: #bcbd22"/>
     <use xlink:href="#maac02320d5" x="477.729103" y="192.082255" style="fill: #bcbd22; stroke: #bcbd22"/>
    </g>
   </g>
   <g id="line2d_32">
    <path d="M 57.260834 43.011718 
L 162.377901 44.229426 
L 267.494969 50.745742 
L 372.612036 59.669932 
L 477.729103 76.856735 
" clip-path="url(#p9bc53a57a7)" style="fill: none; stroke: #1f77b4; stroke-width: 1.5; stroke-linecap: round"/>
    <defs>
     <path id="m45d7899a74" d="M 0 3 
C 0.795609 3 1.55874 2.683901 2.12132 2.12132 
C 2.683901 1.55874 3 0.795609 3 0 
C 3 -0.795609 2.683901 -1.55874 2.12132 -2.12132 
C 1.55874 -2.683901 0.795609 -3 0 -3 
C -0.795609 -3 -1.55874 -2.683901 -2.12132 -2.12132 
C -2.683901 -1.55874 -3 -0.795609 -3 0 
C -3 0.795609 -2.683901 1.55874 -2.12132 2.12132 
C -1.55874 2.683901 -0.795609 3 0 3 
z
" style="stroke: #1f77b4"/>
    </defs>
    <g clip-path="url(#p9bc53a57a7)">
     <use xlink:href="#m45d7899a74" x="57.260834" y="43.011718" style="fill: #1f77b4; stroke: #1f77b4"/>
     <use xlink:href="#m45d7899a74" x="162.377901" y="44.229426" style="fill: #1f77b4; stroke: #1f77b4"/>
     <use xlink:href="#m45d7899a74" x="267.494969" y="50.745742" style="fill: #1f77b4; stroke: #1f77b4"/>
     <use xlink:href="#m45d7899a74" x="372.612036" y="59.669932" style="fill: #1f77b4; stroke: #1f77b4"/>
     <use xlink:href="#m45d7899a74" x="477.729103" y="76.856735" style="fill: #1f77b4; stroke: #1f77b4"/>
    </g>
   </g>
   <g id="line2d_33">
    <path d="M 57.260834 49.560878 
L 162.377901 52.781105 
L 267.494969 61.957725 
L 372.612036 78.580728 
L 477.729103 128.253667 
" clip-path="url(#p9bc53a57a7)" style="fill: none; stroke: #ff7f0e; stroke-width: 1.5; stroke-linecap: round"/>
    <defs>
     <path id="m60f0fad5bd" d="M 0 3 
C 0.795609 3 1.55874 2.683901 2.12132 2.12132 
C 2.683901 1.55874 3 0.795609 3 0 
C 3 -0.795609 2.683901 -1.55874 2.12132 -2.12132 
C 1.55874 -2.683901 0.795609 -3 0 -3 
C -0.795609 -3 -1.55874 -2.683901 -2.12132 -2.12132 
C -2.683901 -1.55874 -3 -0.795609 -3 0 
C -3 0.795609 -2.683901 1.55874 -2.12132 2.12132 
C -1.55874 2.683901 -0.795609 3 0 3 
z
" style="stroke: #ff7f0e"/>
    </defs>
    <g clip-path="url(#p9bc53a57a7)">
     <use xlink:href="#m60f0fad5bd" x="57.260834" y="49.560878" style="fill: #ff7f0e; stroke: #ff7f0e"/>
     <use xlink:href="#m60f0fad5bd" x="162.377901" y="52.781105" style="fill: #ff7f0e; stroke: #ff7f0e"/>
     <use xlink:href="#m60f0fad5bd" x="267.494969" y="61.957725" style="fill: #ff7f0e; stroke: #ff7f0e"/>
     <use xlink:href="#m60f0fad5bd" x="372.612036" y="78.580728" style="fill: #ff7f0e; stroke: #ff7f0e"/>
     <use xlink:href="#m60f0fad5bd" x="477.729103" y="128.253667" style="fill: #ff7f0e; stroke: #ff7f0e"/>
    </g>
   </g>
   <g id="line2d_34">
    <path d="M 57.260834 53.139609 
L 162.377901 53.541029 
L 267.494969 54.098079 
L 372.612036 54.680322 
L 477.729103 55.667311 
" clip-path="url(#p9bc53a57a7)" style="fill: none; stroke: #8c564b; stroke-width: 1.5; stroke-linecap: round"/>
    <defs>
     <path id="mb46dd1a458" d="M 0 3 
C 0.795609 3 1.55874 2.683901 2.12132 2.12132 
C 2.683901 1.55874 3 0.795609 3 0 
C 3 -0.795609 2.683901 -1.55874 2.12132 -2.12132 
C 1.55874 -2.683901 0.795609 -3 0 -3 
C -0.795609 -3 -1.55874 -2.683901 -2.12132 -2.12132 
C -2.683901 -1.55874 -3 -0.795609 -3 0 
C -3 0.795609 -2.683901 1.55874 -2.12132 2.12132 
C -1.55874 2.683901 -0.795609 3 0 3 
z
" style="stroke: #8c564b"/>
    </defs>
    <g clip-path="url(#p9bc53a57a7)">
     <use xlink:href="#mb46dd1a458" x="57.260834" y="53.139609" style="fill: #8c564b; stroke: #8c564b"/>
     <use xlink:href="#mb46dd1a458" x="162.377901" y="53.541029" style="fill: #8c564b; stroke: #8c564b"/>
     <use xlink:href="#mb46dd1a458" x="267.494969" y="54.098079" style="fill: #8c564b; stroke: #8c564b"/>
     <use xlink:href="#mb46dd1a458" x="372.612036" y="54.680322" style="fill: #8c564b; stroke: #8c564b"/>
     <use xlink:href="#mb46dd1a458" x="477.729103" y="55.667311" style="fill: #8c564b; stroke: #8c564b"/>
    </g>
   </g>
   <g id="line2d_35">
    <path d="M 57.260834 56.055331 
L 162.377901 56.348915 
L 267.494969 56.535683 
L 372.612036 56.95455 
L 477.729103 57.571451 
" clip-path="url(#p9bc53a57a7)" style="fill: none; stroke: #9467bd; stroke-width: 1.5; stroke-linecap: round"/>
    <defs>
     <path id="m7e3ab57606" d="M 0 3 
C 0.795609 3 1.55874 2.683901 2.12132 2.12132 
C 2.683901 1.55874 3 0.795609 3 0 
C 3 -0.795609 2.683901 -1.55874 2.12132 -2.12132 
C 1.55874 -2.683901 0.795609 -3 0 -3 
C -0.795609 -3 -1.55874 -2.683901 -2.12132 -2.12132 
C -2.683901 -1.55874 -3 -0.795609 -3 0 
C -3 0.795609 -2.683901 1.55874 -2.12132 2.12132 
C -1.55874 2.683901 -0.795609 3 0 3 
z
" style="stroke: #9467bd"/>
    </defs>
    <g clip-path="url(#p9bc53a57a7)">
     <use xlink:href="#m7e3ab57606" x="57.260834" y="56.055331" style="fill: #9467bd; stroke: #9467bd"/>
     <use xlink:href="#m7e3ab57606" x="162.377901" y="56.348915" style="fill: #9467bd; stroke: #9467bd"/>
     <use xlink:href="#m7e3ab57606" x="267.494969" y="56.535683" style="fill: #9467bd; stroke: #9467bd"/>
     <use xlink:href="#m7e3ab57606" x="372.612036" y="56.95455" style="fill: #9467bd; stroke: #9467bd"/>
     <use xlink:href="#m7e3ab57606" x="477.729103" y="57.571451" style="fill: #9467bd; stroke: #9467bd"/>
    </g>
   </g>
   <g id="line2d_36">
    <path d="M 57.260834 140.837652 
L 162.377901 76.706988 
L 267.494969 83.696637 
L 372.612036 92.41621 
L 477.729103 150.772957 
" clip-path="url(#p9bc53a57a7)" style="fill: none; stroke: #2ca02c; stroke-width: 1.5; stroke-linecap: round"/>
    <defs>
     <path id="m31eafb49ea" d="M 0 3 
C 0.795609 3 1.55874 2.683901 2.12132 2.12132 
C 2.683901 1.55874 3 0.795609 3 0 
C 3 -0.795609 2.683901 -1.55874 2.12132 -2.12132 
C 1.55874 -2.683901 0.795609 -3 0 -3 
C -0.795609 -3 -1.55874 -2.683901 -2.12132 -2.12132 
C -2.683901 -1.55874 -3 -0.795609 -3 0 
C -3 0.795609 -2.683901 1.55874 -2.12132 2.12132 
C -1.55874 2.683901 -0.795609 3 0 3 
z
" style="stroke: #2ca02c"/>
    </defs>
    <g clip-path="url(#p9bc53a57a7)">
     <use xlink:href="#m31eafb49ea" x="57.260834" y="140.837652" style="fill: #2ca02c; stroke: #2ca02c"/>
     <use xlink:href="#m31eafb49ea" x="162.377901" y="76.706988" style="fill: #2ca02c; stroke: #2ca02c"/>
     <use xlink:href="#m31eafb49ea" x="267.494969" y="83.696637" style="fill: #2ca02c; stroke: #2ca02c"/>
     <use xlink:href="#m31eafb49ea" x="372.612036" y="92.41621" style="fill: #2ca02c; stroke: #2ca02c"/>
     <use xlink:href="#m31eafb49ea" x="477.729103" y="150.772957" style="fill: #2ca02c; stroke: #2ca02c"/>
    </g>
   </g>
   <g id="line2d_37">
    <path d="M 57.260834 45.226293 
L 162.377901 49.130219 
L 267.494969 57.257854 
L 372.612036 68.618394 
L 477.729103 91.394813 
" clip-path="url(#p9bc53a57a7)" style="fill: none; stroke: #d62728; stroke-width: 1.5; stroke-linecap: round"/>
    <defs>
     <path id="m1531c53067" d="M 0 3 
C 0.795609 3 1.55874 2.683901 2.12132 2.12132 
C 2.683901 1.55874 3 0.795609 3 0 
C 3 -0.795609 2.683901 -1.55874 2.12132 -2.12132 
C 1.55874 -2.683901 0.795609 -3 0 -3 
C -0.795609 -3 -1.55874 -2.683901 -2.12132 -2.12132 
C -2.683901 -1.55874 -3 -0.795609 -3 0 
C -3 0.795609 -2.683901 1.55874 -2.12132 2.12132 
C -1.55874 2.683901 -0.795609 3 0 3 
z
" style="stroke: #d62728"/>
    </defs>
    <g clip-path="url(#p9bc53a57a7)">
     <use xlink:href="#m1531c53067" x="57.260834" y="45.226293" style="fill: #d62728; stroke: #d62728"/>
     <use xlink:href="#m1531c53067" x="162.377901" y="49.130219" style="fill: #d62728; stroke: #d62728"/>
     <use xlink:href="#m1531c53067" x="267.494969" y="57.257854" style="fill: #d62728; stroke: #d62728"/>
     <use xlink:href="#m1531c53067" x="372.612036" y="68.618394" style="fill: #d62728; stroke: #d62728"/>
     <use xlink:href="#m1531c53067" x="477.729103" y="91.394813" style="fill: #d62728; stroke: #d62728"/>
    </g>
   </g>
   <g id="patch_3">
    <path d="M 48.851469 322.149469 
L 48.851469 21.505969 
" style="fill: none; stroke: #cccccc; stroke-width: 1.25; stroke-linejoin: miter; stroke-linecap: square"/>
   </g>
   <g id="patch_4">
    <path d="M 486.138469 322.149469 
L 486.138469 21.505969 
" style="fill: none; stroke: #cccccc; stroke-width: 1.25; stroke-linejoin: miter; stroke-linecap: square"/>
   </g>
   <g id="patch_5">
    <path d="M 48.851469 322.149469 
L 486.138469 322.149469 
" style="fill: none; stroke: #cccccc; stroke-width: 1.25; stroke-linejoin: miter; stroke-linecap: square"/>
   </g>
   <g id="patch_6">
    <path d="M 48.851469 21.505969 
L 486.138469 21.505969 
" style="fill: none; stroke: #cccccc; stroke-width: 1.25; stroke-linejoin: miter; stroke-linecap: square"/>
   </g>
   <g id="LineCollection_8">
    <path d="M 57.260834 48.326071 
L 57.260834 37.826427 
" clip-path="url(#p9bc53a57a7)" style="fill: none; stroke: #e377c2; stroke-width: 2"/>
    <path d="M 162.377901 49.75802 
L 162.377901 40.593392 
" clip-path="url(#p9bc53a57a7)" style="fill: none; stroke: #e377c2; stroke-width: 2"/>
    <path d="M 267.494969 57.524886 
L 267.494969 42.780641 
" clip-path="url(#p9bc53a57a7)" style="fill: none; stroke: #e377c2; stroke-width: 2"/>
    <path d="M 372.612036 87.255132 
L 372.612036 42.401924 
" clip-path="url(#p9bc53a57a7)" style="fill: none; stroke: #e377c2; stroke-width: 2"/>
    <path d="M 477.729103 134.065609 
L 477.729103 45.531831 
" clip-path="url(#p9bc53a57a7)" style="fill: none; stroke: #e377c2; stroke-width: 2"/>
   </g>
   <g id="line2d_38">
    <defs>
     <path id="m494a4372ee" d="M 3 0 
L -3 -0 
" style="stroke: #e377c2"/>
    </defs>
    <g clip-path="url(#p9bc53a57a7)">
     <use xlink:href="#m494a4372ee" x="57.260834" y="48.326071" style="fill: #e377c2; stroke: #e377c2"/>
     <use xlink:href="#m494a4372ee" x="162.377901" y="49.75802" style="fill: #e377c2; stroke: #e377c2"/>
     <use xlink:href="#m494a4372ee" x="267.494969" y="57.524886" style="fill: #e377c2; stroke: #e377c2"/>
     <use xlink:href="#m494a4372ee" x="372.612036" y="87.255132" style="fill: #e377c2; stroke: #e377c2"/>
     <use xlink:href="#m494a4372ee" x="477.729103" y="134.065609" style="fill: #e377c2; stroke: #e377c2"/>
    </g>
   </g>
   <g id="line2d_39">
    <g clip-path="url(#p9bc53a57a7)">
     <use xlink:href="#m494a4372ee" x="57.260834" y="37.826427" style="fill: #e377c2; stroke: #e377c2"/>
     <use xlink:href="#m494a4372ee" x="162.377901" y="40.593392" style="fill: #e377c2; stroke: #e377c2"/>
     <use xlink:href="#m494a4372ee" x="267.494969" y="42.780641" style="fill: #e377c2; stroke: #e377c2"/>
     <use xlink:href="#m494a4372ee" x="372.612036" y="42.401924" style="fill: #e377c2; stroke: #e377c2"/>
     <use xlink:href="#m494a4372ee" x="477.729103" y="45.531831" style="fill: #e377c2; stroke: #e377c2"/>
    </g>
   </g>
   <g id="text_19">
    <!-- MAR: R² vs Missingness Proportion (QSAR) -->
    <g style="fill: #262626" transform="translate(156.006531 15.505969) scale(0.114 -0.114)">
     <defs>
      <path id="ArialMT-41" d="M -9 0 
L 1750 4581 
L 2403 4581 
L 4278 0 
L 3588 0 
L 3053 1388 
L 1138 1388 
L 634 0 
L -9 0 
z
M 1313 1881 
L 2866 1881 
L 2388 3150 
Q 2169 3728 2063 4100 
Q 1975 3659 1816 3225 
L 1313 1881 
z
" transform="scale(0.015625)"/>
      <path id="ArialMT-3a" d="M 578 2678 
L 578 3319 
L 1219 3319 
L 1219 2678 
L 578 2678 
z
M 578 0 
L 578 641 
L 1219 641 
L 1219 0 
L 578 0 
z
" transform="scale(0.015625)"/>
      <path id="ArialMT-76" d="M 1344 0 
L 81 3319 
L 675 3319 
L 1388 1331 
Q 1503 1009 1600 663 
Q 1675 925 1809 1294 
L 2547 3319 
L 3125 3319 
L 1869 0 
L 1344 0 
z
" transform="scale(0.015625)"/>
      <path id="ArialMT-28" d="M 1497 -1347 
Q 1031 -759 709 28 
Q 388 816 388 1659 
Q 388 2403 628 3084 
Q 909 3875 1497 4659 
L 1900 4659 
Q 1522 4009 1400 3731 
Q 1209 3300 1100 2831 
Q 966 2247 966 1656 
Q 966 153 1900 -1347 
L 1497 -1347 
z
" transform="scale(0.015625)"/>
      <path id="ArialMT-51" d="M 3966 491 
Q 4388 200 4744 66 
L 4566 -356 
Q 4072 -178 3581 206 
Q 3072 -78 2456 -78 
Q 1834 -78 1328 222 
Q 822 522 548 1065 
Q 275 1609 275 2291 
Q 275 2969 550 3525 
Q 825 4081 1333 4372 
Q 1841 4663 2469 4663 
Q 3103 4663 3612 4361 
Q 4122 4059 4389 3517 
Q 4656 2975 4656 2294 
Q 4656 1728 4484 1276 
Q 4313 825 3966 491 
z
M 2631 1266 
Q 3156 1119 3497 828 
Q 4031 1316 4031 2294 
Q 4031 2850 3842 3265 
Q 3653 3681 3289 3911 
Q 2925 4141 2472 4141 
Q 1794 4141 1347 3677 
Q 900 3213 900 2291 
Q 900 1397 1342 919 
Q 1784 441 2472 441 
Q 2797 441 3084 563 
Q 2800 747 2484 825 
L 2631 1266 
z
" transform="scale(0.015625)"/>
      <path id="ArialMT-53" d="M 288 1472 
L 859 1522 
Q 900 1178 1048 958 
Q 1197 738 1509 602 
Q 1822 466 2213 466 
Q 2559 466 2825 569 
Q 3091 672 3220 851 
Q 3350 1031 3350 1244 
Q 3350 1459 3225 1620 
Q 3100 1781 2813 1891 
Q 2628 1963 1997 2114 
Q 1366 2266 1113 2400 
Q 784 2572 623 2826 
Q 463 3081 463 3397 
Q 463 3744 659 4045 
Q 856 4347 1234 4503 
Q 1613 4659 2075 4659 
Q 2584 4659 2973 4495 
Q 3363 4331 3572 4012 
Q 3781 3694 3797 3291 
L 3216 3247 
Q 3169 3681 2898 3903 
Q 2628 4125 2100 4125 
Q 1550 4125 1298 3923 
Q 1047 3722 1047 3438 
Q 1047 3191 1225 3031 
Q 1400 2872 2139 2705 
Q 2878 2538 3153 2413 
Q 3553 2228 3743 1945 
Q 3934 1663 3934 1294 
Q 3934 928 3725 604 
Q 3516 281 3123 101 
Q 2731 -78 2241 -78 
Q 1619 -78 1198 103 
Q 778 284 539 648 
Q 300 1013 288 1472 
z
" transform="scale(0.015625)"/>
      <path id="ArialMT-29" d="M 791 -1347 
L 388 -1347 
Q 1322 153 1322 1656 
Q 1322 2244 1188 2822 
Q 1081 3291 891 3722 
Q 769 4003 388 4659 
L 791 4659 
Q 1378 3875 1659 3084 
Q 1900 2403 1900 1659 
Q 1900 816 1576 28 
Q 1253 -759 791 -1347 
z
" transform="scale(0.015625)"/>
     </defs>
     <use xlink:href="#ArialMT-4d"/>
     <use xlink:href="#ArialMT-41" transform="translate(83.300781 0)"/>
     <use xlink:href="#ArialMT-52" transform="translate(150 0)"/>
     <use xlink:href="#ArialMT-3a" transform="translate(222.216797 0)"/>
     <use xlink:href="#ArialMT-20" transform="translate(250 0)"/>
     <use xlink:href="#ArialMT-52" transform="translate(277.783203 0)"/>
     <use xlink:href="#ArialMT-b2" transform="translate(350 0)"/>
     <use xlink:href="#ArialMT-20" transform="translate(383.300781 0)"/>
     <use xlink:href="#ArialMT-76" transform="translate(411.083984 0)"/>
     <use xlink:href="#ArialMT-73" transform="translate(461.083984 0)"/>
     <use xlink:href="#ArialMT-20" transform="translate(511.083984 0)"/>
     <use xlink:href="#ArialMT-4d" transform="translate(538.867188 0)"/>
     <use xlink:href="#ArialMT-69" transform="translate(622.167969 0)"/>
     <use xlink:href="#ArialMT-73" transform="translate(644.384766 0)"/>
     <use xlink:href="#ArialMT-73" transform="translate(694.384766 0)"/>
     <use xlink:href="#ArialMT-69" transform="translate(744.384766 0)"/>
     <use xlink:href="#ArialMT-6e" transform="translate(766.601562 0)"/>
     <use xlink:href="#ArialMT-67" transform="translate(822.216797 0)"/>
     <use xlink:href="#ArialMT-6e" transform="translate(877.832031 0)"/>
     <use xlink:href="#ArialMT-65" transform="translate(933.447266 0)"/>
     <use xlink:href="#ArialMT-73" transform="translate(989.0625 0)"/>
     <use xlink:href="#ArialMT-73" transform="translate(1039.0625 0)"/>
     <use xlink:href="#ArialMT-20" transform="translate(1089.0625 0)"/>
     <use xlink:href="#ArialMT-50" transform="translate(1116.845703 0)"/>
     <use xlink:href="#ArialMT-72" transform="translate(1183.544922 0)"/>
     <use xlink:href="#ArialMT-6f" transform="translate(1216.845703 0)"/>
     <use xlink:href="#ArialMT-70" transform="translate(1272.460938 0)"/>
     <use xlink:href="#ArialMT-6f" transform="translate(1328.076172 0)"/>
     <use xlink:href="#ArialMT-72" transform="translate(1383.691406 0)"/>
     <use xlink:href="#ArialMT-74" transform="translate(1416.992188 0)"/>
     <use xlink:href="#ArialMT-69" transform="translate(1444.775391 0)"/>
     <use xlink:href="#ArialMT-6f" transform="translate(1466.992188 0)"/>
     <use xlink:href="#ArialMT-6e" transform="translate(1522.607422 0)"/>
     <use xlink:href="#ArialMT-20" transform="translate(1578.222656 0)"/>
     <use xlink:href="#ArialMT-28" transform="translate(1606.005859 0)"/>
     <use xlink:href="#ArialMT-51" transform="translate(1639.306641 0)"/>
     <use xlink:href="#ArialMT-53" transform="translate(1717.089844 0)"/>
     <use xlink:href="#ArialMT-41" transform="translate(1783.789062 0)"/>
     <use xlink:href="#ArialMT-52" transform="translate(1850.488281 0)"/>
     <use xlink:href="#ArialMT-29" transform="translate(1922.705078 0)"/>
    </g>
   </g>
   <g id="line2d_40">
    <path d="M 57.260834 43.076249 
L 162.377901 45.175706 
L 267.494969 50.152764 
L 372.612036 64.828528 
L 477.729103 89.79872 
" clip-path="url(#p9bc53a57a7)" style="fill: none; stroke: #e377c2; stroke-width: 2; stroke-linecap: round"/>
    <defs>
     <path id="m646b912396" d="M 0 3 
C 0.795609 3 1.55874 2.683901 2.12132 2.12132 
C 2.683901 1.55874 3 0.795609 3 0 
C 3 -0.795609 2.683901 -1.55874 2.12132 -2.12132 
C 1.55874 -2.683901 0.795609 -3 0 -3 
C -0.795609 -3 -1.55874 -2.683901 -2.12132 -2.12132 
C -2.683901 -1.55874 -3 -0.795609 -3 0 
C -3 0.795609 -2.683901 1.55874 -2.12132 2.12132 
C -1.55874 2.683901 -0.795609 3 0 3 
z
" style="stroke: #e377c2"/>
    </defs>
    <g clip-path="url(#p9bc53a57a7)">
     <use xlink:href="#m646b912396" x="57.260834" y="43.076249" style="fill: #e377c2; stroke: #e377c2"/>
     <use xlink:href="#m646b912396" x="162.377901" y="45.175706" style="fill: #e377c2; stroke: #e377c2"/>
     <use xlink:href="#m646b912396" x="267.494969" y="50.152764" style="fill: #e377c2; stroke: #e377c2"/>
     <use xlink:href="#m646b912396" x="372.612036" y="64.828528" style="fill: #e377c2; stroke: #e377c2"/>
     <use xlink:href="#m646b912396" x="477.729103" y="89.79872" style="fill: #e377c2; stroke: #e377c2"/>
    </g>
   </g>
   <g id="legend_1">
    <g id="patch_7">
     <path d="M 502.199209 148.248141 
L 626.805662 148.248141 
Q 628.895662 148.248141 628.895662 146.158141 
L 628.895662 28.820969 
Q 628.895662 26.730969 626.805662 26.730969 
L 502.199209 26.730969 
Q 500.109209 26.730969 500.109209 28.820969 
L 500.109209 146.158141 
Q 500.109209 148.248141 502.199209 148.248141 
z
" style="fill: #ffffff; opacity: 0.8; stroke: #cccccc; stroke-linejoin: miter"/>
    </g>
    <g id="LineCollection_9">
     <path d="M 514.739209 39.958383 
L 514.739209 29.508383 
" style="fill: none; stroke: #bcbd22; stroke-width: 1.5"/>
    </g>
    <g id="line2d_41">
     <g>
      <use xlink:href="#m83711eb1b1" x="514.739209" y="39.958383" style="fill: #bcbd22; stroke: #bcbd22"/>
     </g>
    </g>
    <g id="line2d_42">
     <g>
      <use xlink:href="#m83711eb1b1" x="514.739209" y="29.508383" style="fill: #bcbd22; stroke: #bcbd22"/>
     </g>
    </g>
    <g id="line2d_43">
     <path d="M 504.289209 34.733383 
L 525.189209 34.733383 
" style="fill: none; stroke: #bcbd22; stroke-width: 1.5; stroke-linecap: round"/>
    </g>
    <g id="line2d_44">
     <g>
      <use xlink:href="#maac02320d5" x="514.739209" y="34.733383" style="fill: #bcbd22; stroke: #bcbd22"/>
     </g>
    </g>
    <g id="text_20">
     <!-- Missforest -->
     <g style="fill: #262626" transform="translate(533.549209 38.390883) scale(0.1045 -0.1045)">
      <defs>
       <path id="ArialMT-66" d="M 556 0 
L 556 2881 
L 59 2881 
L 59 3319 
L 556 3319 
L 556 3672 
Q 556 4006 616 4169 
Q 697 4388 901 4523 
Q 1106 4659 1475 4659 
Q 1713 4659 2000 4603 
L 1916 4113 
Q 1741 4144 1584 4144 
Q 1328 4144 1222 4034 
Q 1116 3925 1116 3625 
L 1116 3319 
L 1763 3319 
L 1763 2881 
L 1116 2881 
L 1116 0 
L 556 0 
z
" transform="scale(0.015625)"/>
      </defs>
      <use xlink:href="#ArialMT-4d"/>
      <use xlink:href="#ArialMT-69" transform="translate(83.300781 0)"/>
      <use xlink:href="#ArialMT-73" transform="translate(105.517578 0)"/>
      <use xlink:href="#ArialMT-73" transform="translate(155.517578 0)"/>
      <use xlink:href="#ArialMT-66" transform="translate(205.517578 0)"/>
      <use xlink:href="#ArialMT-6f" transform="translate(233.300781 0)"/>
      <use xlink:href="#ArialMT-72" transform="translate(288.916016 0)"/>
      <use xlink:href="#ArialMT-65" transform="translate(322.216797 0)"/>
      <use xlink:href="#ArialMT-73" transform="translate(377.832031 0)"/>
      <use xlink:href="#ArialMT-74" transform="translate(427.832031 0)"/>
     </g>
    </g>
    <g id="LineCollection_10">
     <path d="M 514.739209 54.867594 
L 514.739209 44.417594 
" style="fill: none; stroke: #1f77b4; stroke-width: 1.5"/>
    </g>
    <g id="line2d_45">
     <g>
      <use xlink:href="#m7194fcf3e3" x="514.739209" y="54.867594" style="fill: #1f77b4; stroke: #1f77b4"/>
     </g>
    </g>
    <g id="line2d_46">
     <g>
      <use xlink:href="#m7194fcf3e3" x="514.739209" y="44.417594" style="fill: #1f77b4; stroke: #1f77b4"/>
     </g>
    </g>
    <g id="line2d_47">
     <path d="M 504.289209 49.642594 
L 525.189209 49.642594 
" style="fill: none; stroke: #1f77b4; stroke-width: 1.5; stroke-linecap: round"/>
    </g>
    <g id="line2d_48">
     <g>
      <use xlink:href="#m45d7899a74" x="514.739209" y="49.642594" style="fill: #1f77b4; stroke: #1f77b4"/>
     </g>
    </g>
    <g id="text_21">
     <!-- Soft Impute -->
     <g style="fill: #262626" transform="translate(533.549209 53.300094) scale(0.1045 -0.1045)">
      <defs>
       <path id="ArialMT-49" d="M 597 0 
L 597 4581 
L 1203 4581 
L 1203 0 
L 597 0 
z
" transform="scale(0.015625)"/>
       <path id="ArialMT-6d" d="M 422 0 
L 422 3319 
L 925 3319 
L 925 2853 
Q 1081 3097 1340 3245 
Q 1600 3394 1931 3394 
Q 2300 3394 2536 3241 
Q 2772 3088 2869 2813 
Q 3263 3394 3894 3394 
Q 4388 3394 4653 3120 
Q 4919 2847 4919 2278 
L 4919 0 
L 4359 0 
L 4359 2091 
Q 4359 2428 4304 2576 
Q 4250 2725 4106 2815 
Q 3963 2906 3769 2906 
Q 3419 2906 3187 2673 
Q 2956 2441 2956 1928 
L 2956 0 
L 2394 0 
L 2394 2156 
Q 2394 2531 2256 2718 
Q 2119 2906 1806 2906 
Q 1569 2906 1367 2781 
Q 1166 2656 1075 2415 
Q 984 2175 984 1722 
L 984 0 
L 422 0 
z
" transform="scale(0.015625)"/>
       <path id="ArialMT-75" d="M 2597 0 
L 2597 488 
Q 2209 -75 1544 -75 
Q 1250 -75 995 37 
Q 741 150 617 320 
Q 494 491 444 738 
Q 409 903 409 1263 
L 409 3319 
L 972 3319 
L 972 1478 
Q 972 1038 1006 884 
Q 1059 663 1231 536 
Q 1403 409 1656 409 
Q 1909 409 2131 539 
Q 2353 669 2445 892 
Q 2538 1116 2538 1541 
L 2538 3319 
L 3100 3319 
L 3100 0 
L 2597 0 
z
" transform="scale(0.015625)"/>
      </defs>
      <use xlink:href="#ArialMT-53"/>
      <use xlink:href="#ArialMT-6f" transform="translate(66.699219 0)"/>
      <use xlink:href="#ArialMT-66" transform="translate(122.314453 0)"/>
      <use xlink:href="#ArialMT-74" transform="translate(150.097656 0)"/>
      <use xlink:href="#ArialMT-20" transform="translate(177.880859 0)"/>
      <use xlink:href="#ArialMT-49" transform="translate(205.664062 0)"/>
      <use xlink:href="#ArialMT-6d" transform="translate(233.447266 0)"/>
      <use xlink:href="#ArialMT-70" transform="translate(316.748047 0)"/>
      <use xlink:href="#ArialMT-75" transform="translate(372.363281 0)"/>
      <use xlink:href="#ArialMT-74" transform="translate(427.978516 0)"/>
      <use xlink:href="#ArialMT-65" transform="translate(455.761719 0)"/>
     </g>
    </g>
    <g id="LineCollection_11">
     <path d="M 514.739209 69.649445 
L 514.739209 59.199445 
" style="fill: none; stroke: #ff7f0e; stroke-width: 1.5"/>
    </g>
    <g id="line2d_49">
     <g>
      <use xlink:href="#m7ab23d9c3e" x="514.739209" y="69.649445" style="fill: #ff7f0e; stroke: #ff7f0e"/>
     </g>
    </g>
    <g id="line2d_50">
     <g>
      <use xlink:href="#m7ab23d9c3e" x="514.739209" y="59.199445" style="fill: #ff7f0e; stroke: #ff7f0e"/>
     </g>
    </g>
    <g id="line2d_51">
     <path d="M 504.289209 64.424445 
L 525.189209 64.424445 
" style="fill: none; stroke: #ff7f0e; stroke-width: 1.5; stroke-linecap: round"/>
    </g>
    <g id="line2d_52">
     <g>
      <use xlink:href="#m60f0fad5bd" x="514.739209" y="64.424445" style="fill: #ff7f0e; stroke: #ff7f0e"/>
     </g>
    </g>
    <g id="text_22">
     <!-- Matrix Factorization -->
     <g style="fill: #262626" transform="translate(533.549209 68.081945) scale(0.1045 -0.1045)">
      <defs>
       <path id="ArialMT-61" d="M 2588 409 
Q 2275 144 1986 34 
Q 1697 -75 1366 -75 
Q 819 -75 525 192 
Q 231 459 231 875 
Q 231 1119 342 1320 
Q 453 1522 633 1644 
Q 813 1766 1038 1828 
Q 1203 1872 1538 1913 
Q 2219 1994 2541 2106 
Q 2544 2222 2544 2253 
Q 2544 2597 2384 2738 
Q 2169 2928 1744 2928 
Q 1347 2928 1158 2789 
Q 969 2650 878 2297 
L 328 2372 
Q 403 2725 575 2942 
Q 747 3159 1072 3276 
Q 1397 3394 1825 3394 
Q 2250 3394 2515 3294 
Q 2781 3194 2906 3042 
Q 3031 2891 3081 2659 
Q 3109 2516 3109 2141 
L 3109 1391 
Q 3109 606 3145 398 
Q 3181 191 3288 0 
L 2700 0 
Q 2613 175 2588 409 
z
M 2541 1666 
Q 2234 1541 1622 1453 
Q 1275 1403 1131 1340 
Q 988 1278 909 1158 
Q 831 1038 831 891 
Q 831 666 1001 516 
Q 1172 366 1500 366 
Q 1825 366 2078 508 
Q 2331 650 2450 897 
Q 2541 1088 2541 1459 
L 2541 1666 
z
" transform="scale(0.015625)"/>
       <path id="ArialMT-78" d="M 47 0 
L 1259 1725 
L 138 3319 
L 841 3319 
L 1350 2541 
Q 1494 2319 1581 2169 
Q 1719 2375 1834 2534 
L 2394 3319 
L 3066 3319 
L 1919 1756 
L 3153 0 
L 2463 0 
L 1781 1031 
L 1600 1309 
L 728 0 
L 47 0 
z
" transform="scale(0.015625)"/>
       <path id="ArialMT-46" d="M 525 0 
L 525 4581 
L 3616 4581 
L 3616 4041 
L 1131 4041 
L 1131 2622 
L 3281 2622 
L 3281 2081 
L 1131 2081 
L 1131 0 
L 525 0 
z
" transform="scale(0.015625)"/>
       <path id="ArialMT-63" d="M 2588 1216 
L 3141 1144 
Q 3050 572 2676 248 
Q 2303 -75 1759 -75 
Q 1078 -75 664 370 
Q 250 816 250 1647 
Q 250 2184 428 2587 
Q 606 2991 970 3192 
Q 1334 3394 1763 3394 
Q 2303 3394 2647 3120 
Q 2991 2847 3088 2344 
L 2541 2259 
Q 2463 2594 2264 2762 
Q 2066 2931 1784 2931 
Q 1359 2931 1093 2626 
Q 828 2322 828 1663 
Q 828 994 1084 691 
Q 1341 388 1753 388 
Q 2084 388 2306 591 
Q 2528 794 2588 1216 
z
" transform="scale(0.015625)"/>
       <path id="ArialMT-7a" d="M 125 0 
L 125 456 
L 2238 2881 
Q 1878 2863 1603 2863 
L 250 2863 
L 250 3319 
L 2963 3319 
L 2963 2947 
L 1166 841 
L 819 456 
Q 1197 484 1528 484 
L 3063 484 
L 3063 0 
L 125 0 
z
" transform="scale(0.015625)"/>
      </defs>
      <use xlink:href="#ArialMT-4d"/>
      <use xlink:href="#ArialMT-61" transform="translate(83.300781 0)"/>
      <use xlink:href="#ArialMT-74" transform="translate(138.916016 0)"/>
      <use xlink:href="#ArialMT-72" transform="translate(166.699219 0)"/>
      <use xlink:href="#ArialMT-69" transform="translate(200 0)"/>
      <use xlink:href="#ArialMT-78" transform="translate(222.216797 0)"/>
      <use xlink:href="#ArialMT-20" transform="translate(272.216797 0)"/>
      <use xlink:href="#ArialMT-46" transform="translate(300 0)"/>
      <use xlink:href="#ArialMT-61" transform="translate(361.083984 0)"/>
      <use xlink:href="#ArialMT-63" transform="translate(416.699219 0)"/>
      <use xlink:href="#ArialMT-74" transform="translate(466.699219 0)"/>
      <use xlink:href="#ArialMT-6f" transform="translate(494.482422 0)"/>
      <use xlink:href="#ArialMT-72" transform="translate(550.097656 0)"/>
      <use xlink:href="#ArialMT-69" transform="translate(583.398438 0)"/>
      <use xlink:href="#ArialMT-7a" transform="translate(605.615234 0)"/>
      <use xlink:href="#ArialMT-61" transform="translate(655.615234 0)"/>
      <use xlink:href="#ArialMT-74" transform="translate(711.230469 0)"/>
      <use xlink:href="#ArialMT-69" transform="translate(739.013672 0)"/>
      <use xlink:href="#ArialMT-6f" transform="translate(761.230469 0)"/>
      <use xlink:href="#ArialMT-6e" transform="translate(816.845703 0)"/>
     </g>
    </g>
    <g id="LineCollection_12">
     <path d="M 514.739209 84.431297 
L 514.739209 73.981297 
" style="fill: none; stroke: #8c564b; stroke-width: 1.5"/>
    </g>
    <g id="line2d_53">
     <g>
      <use xlink:href="#meb5e097ce6" x="514.739209" y="84.431297" style="fill: #8c564b; stroke: #8c564b"/>
     </g>
    </g>
    <g id="line2d_54">
     <g>
      <use xlink:href="#meb5e097ce6" x="514.739209" y="73.981297" style="fill: #8c564b; stroke: #8c564b"/>
     </g>
    </g>
    <g id="line2d_55">
     <path d="M 504.289209 79.206297 
L 525.189209 79.206297 
" style="fill: none; stroke: #8c564b; stroke-width: 1.5; stroke-linecap: round"/>
    </g>
    <g id="line2d_56">
     <g>
      <use xlink:href="#mb46dd1a458" x="514.739209" y="79.206297" style="fill: #8c564b; stroke: #8c564b"/>
     </g>
    </g>
    <g id="text_23">
     <!-- Mean -->
     <g style="fill: #262626" transform="translate(533.549209 82.863797) scale(0.1045 -0.1045)">
      <use xlink:href="#ArialMT-4d"/>
      <use xlink:href="#ArialMT-65" transform="translate(83.300781 0)"/>
      <use xlink:href="#ArialMT-61" transform="translate(138.916016 0)"/>
      <use xlink:href="#ArialMT-6e" transform="translate(194.53125 0)"/>
     </g>
    </g>
    <g id="LineCollection_13">
     <path d="M 514.739209 99.213148 
L 514.739209 88.763148 
" style="fill: none; stroke: #9467bd; stroke-width: 1.5"/>
    </g>
    <g id="line2d_57">
     <g>
      <use xlink:href="#me63c6e53b3" x="514.739209" y="99.213148" style="fill: #9467bd; stroke: #9467bd"/>
     </g>
    </g>
    <g id="line2d_58">
     <g>
      <use xlink:href="#me63c6e53b3" x="514.739209" y="88.763148" style="fill: #9467bd; stroke: #9467bd"/>
     </g>
    </g>
    <g id="line2d_59">
     <path d="M 504.289209 93.988148 
L 525.189209 93.988148 
" style="fill: none; stroke: #9467bd; stroke-width: 1.5; stroke-linecap: round"/>
    </g>
    <g id="line2d_60">
     <g>
      <use xlink:href="#m7e3ab57606" x="514.739209" y="93.988148" style="fill: #9467bd; stroke: #9467bd"/>
     </g>
    </g>
    <g id="text_24">
     <!-- Median -->
     <g style="fill: #262626" transform="translate(533.549209 97.645648) scale(0.1045 -0.1045)">
      <defs>
       <path id="ArialMT-64" d="M 2575 0 
L 2575 419 
Q 2259 -75 1647 -75 
Q 1250 -75 917 144 
Q 584 363 401 755 
Q 219 1147 219 1656 
Q 219 2153 384 2558 
Q 550 2963 881 3178 
Q 1213 3394 1622 3394 
Q 1922 3394 2156 3267 
Q 2391 3141 2538 2938 
L 2538 4581 
L 3097 4581 
L 3097 0 
L 2575 0 
z
M 797 1656 
Q 797 1019 1065 703 
Q 1334 388 1700 388 
Q 2069 388 2326 689 
Q 2584 991 2584 1609 
Q 2584 2291 2321 2609 
Q 2059 2928 1675 2928 
Q 1300 2928 1048 2622 
Q 797 2316 797 1656 
z
" transform="scale(0.015625)"/>
      </defs>
      <use xlink:href="#ArialMT-4d"/>
      <use xlink:href="#ArialMT-65" transform="translate(83.300781 0)"/>
      <use xlink:href="#ArialMT-64" transform="translate(138.916016 0)"/>
      <use xlink:href="#ArialMT-69" transform="translate(194.53125 0)"/>
      <use xlink:href="#ArialMT-61" transform="translate(216.748047 0)"/>
      <use xlink:href="#ArialMT-6e" transform="translate(272.363281 0)"/>
     </g>
    </g>
    <g id="LineCollection_14">
     <path d="M 514.739209 113.995 
L 514.739209 103.545 
" style="fill: none; stroke: #2ca02c; stroke-width: 1.5"/>
    </g>
    <g id="line2d_61">
     <g>
      <use xlink:href="#maa39e3decb" x="514.739209" y="113.995" style="fill: #2ca02c; stroke: #2ca02c"/>
     </g>
    </g>
    <g id="line2d_62">
     <g>
      <use xlink:href="#maa39e3decb" x="514.739209" y="103.545" style="fill: #2ca02c; stroke: #2ca02c"/>
     </g>
    </g>
    <g id="line2d_63">
     <path d="M 504.289209 108.77 
L 525.189209 108.77 
" style="fill: none; stroke: #2ca02c; stroke-width: 1.5; stroke-linecap: round"/>
    </g>
    <g id="line2d_64">
     <g>
      <use xlink:href="#m31eafb49ea" x="514.739209" y="108.77" style="fill: #2ca02c; stroke: #2ca02c"/>
     </g>
    </g>
    <g id="text_25">
     <!-- Mice -->
     <g style="fill: #262626" transform="translate(533.549209 112.4275) scale(0.1045 -0.1045)">
      <use xlink:href="#ArialMT-4d"/>
      <use xlink:href="#ArialMT-69" transform="translate(83.300781 0)"/>
      <use xlink:href="#ArialMT-63" transform="translate(105.517578 0)"/>
      <use xlink:href="#ArialMT-65" transform="translate(155.517578 0)"/>
     </g>
    </g>
    <g id="LineCollection_15">
     <path d="M 514.739209 128.776852 
L 514.739209 118.326852 
" style="fill: none; stroke: #d62728; stroke-width: 1.5"/>
    </g>
    <g id="line2d_65">
     <g>
      <use xlink:href="#m44cd9f7f45" x="514.739209" y="128.776852" style="fill: #d62728; stroke: #d62728"/>
     </g>
    </g>
    <g id="line2d_66">
     <g>
      <use xlink:href="#m44cd9f7f45" x="514.739209" y="118.326852" style="fill: #d62728; stroke: #d62728"/>
     </g>
    </g>
    <g id="line2d_67">
     <path d="M 504.289209 123.551852 
L 525.189209 123.551852 
" style="fill: none; stroke: #d62728; stroke-width: 1.5; stroke-linecap: round"/>
    </g>
    <g id="line2d_68">
     <g>
      <use xlink:href="#m1531c53067" x="514.739209" y="123.551852" style="fill: #d62728; stroke: #d62728"/>
     </g>
    </g>
    <g id="text_26">
     <!-- kNN -->
     <g style="fill: #262626" transform="translate(533.549209 127.209352) scale(0.1045 -0.1045)">
      <defs>
       <path id="ArialMT-6b" d="M 425 0 
L 425 4581 
L 988 4581 
L 988 1969 
L 2319 3319 
L 3047 3319 
L 1778 2088 
L 3175 0 
L 2481 0 
L 1384 1697 
L 988 1316 
L 988 0 
L 425 0 
z
" transform="scale(0.015625)"/>
       <path id="ArialMT-4e" d="M 488 0 
L 488 4581 
L 1109 4581 
L 3516 984 
L 3516 4581 
L 4097 4581 
L 4097 0 
L 3475 0 
L 1069 3600 
L 1069 0 
L 488 0 
z
" transform="scale(0.015625)"/>
      </defs>
      <use xlink:href="#ArialMT-6b"/>
      <use xlink:href="#ArialMT-4e" transform="translate(50 0)"/>
      <use xlink:href="#ArialMT-4e" transform="translate(122.216797 0)"/>
     </g>
    </g>
    <g id="LineCollection_16">
     <path d="M 514.739209 143.558703 
L 514.739209 133.108703 
" style="fill: none; stroke: #e377c2; stroke-width: 2"/>
    </g>
    <g id="line2d_69">
     <g>
      <use xlink:href="#m494a4372ee" x="514.739209" y="143.558703" style="fill: #e377c2; stroke: #e377c2"/>
     </g>
    </g>
    <g id="line2d_70">
     <g>
      <use xlink:href="#m494a4372ee" x="514.739209" y="133.108703" style="fill: #e377c2; stroke: #e377c2"/>
     </g>
    </g>
    <g id="line2d_71">
     <path d="M 504.289209 138.333703 
L 525.189209 138.333703 
" style="fill: none; stroke: #e377c2; stroke-width: 2; stroke-linecap: round"/>
    </g>
    <g id="line2d_72">
     <g>
      <use xlink:href="#m646b912396" x="514.739209" y="138.333703" style="fill: #e377c2; stroke: #e377c2"/>
     </g>
    </g>
    <g id="text_27">
     <!-- Sudoku -->
     <g style="fill: #262626" transform="translate(533.549209 141.991203) scale(0.1045 -0.1045)">
      <use xlink:href="#ArialMT-53"/>
      <use xlink:href="#ArialMT-75" transform="translate(66.699219 0)"/>
      <use xlink:href="#ArialMT-64" transform="translate(122.314453 0)"/>
      <use xlink:href="#ArialMT-6f" transform="translate(177.929688 0)"/>
      <use xlink:href="#ArialMT-6b" transform="translate(233.544922 0)"/>
      <use xlink:href="#ArialMT-75" transform="translate(283.544922 0)"/>
     </g>
    </g>
   </g>
  </g>
 </g>
 <defs>
  <clipPath id="p9bc53a57a7">
   <rect x="48.851469" y="21.505969" width="437.287" height="300.6435"/>
  </clipPath>
 </defs>
</svg>
