<?xml version="1.0" encoding="utf-8" standalone="no"?>
<!DOCTYPE svg PUBLIC "-//W3C//DTD SVG 1.1//EN"
  "http://www.w3.org/Graphics/SVG/1.1/DTD/svg11.dtd">
<svg xmlns:xlink="http://www.w3.org/1999/xlink" width="636.600866pt" height="362.958445pt" viewBox="0 0 636.600866 362.958445" xmlns="http://www.w3.org/2000/svg" version="1.1">
 <metadata>
  <rdf:RDF xmlns:dc="http://purl.org/dc/elements/1.1/" xmlns:cc="http://creativecommons.org/ns#" xmlns:rdf="http://www.w3.org/1999/02/22-rdf-syntax-ns#">
   <cc:Work>
    <dc:type rdf:resource="http://purl.org/dc/dcmitype/StillImage"/>
    <dc:date>2025-09-13T15:32:00.659900</dc:date>
    <dc:format>image/svg+xml</dc:format>
    <dc:creator>
     <cc:Agent>
      <dc:title>Matplotlib v3.10.0, https://matplotlib.org/</dc:title>
     </cc:Agent>
    </dc:creator>
   </cc:Work>
  </rdf:RDF>
 </metadata>
 <defs>
  <style type="text/css">*{stroke-linejoin: round; stroke-linecap: butt}</style>
 </defs>
 <g id="figure_1">
  <g id="patch_1">
   <path d="M 0 362.958445 
L 636.600866 362.958445 
L 636.600866 0 
L 0 0 
z
" style="fill: #ffffff"/>
  </g>
  <g id="axes_1">
   <g id="patch_2">
    <path d="M 51.816656 322.142344 
L 486.691908 322.142344 
L 486.691908 21.498844 
L 51.816656 21.498844 
z
" style="fill: #ffffff"/>
   </g>
   <g id="matplotlib.axis_1">
    <g id="xtick_1">
     <g id="line2d_1">
      <path d="M 60.179642 322.142344 
L 60.179642 21.498844 
" clip-path="url(#pad0a3594fc)" style="fill: none; stroke: #cccccc; stroke-linecap: round"/>
     </g>
     <g id="text_1">
      <!-- 0.10 -->
      <g style="fill: #262626" transform="translate(50.011302 339.122258) scale(0.1045 -0.1045)">
       <defs>
        <path id="ArialMT-30" d="M 266 2259 
Q 266 3072 433 3567 
Q 600 4063 929 4331 
Q 1259 4600 1759 4600 
Q 2128 4600 2406 4451 
Q 2684 4303 2865 4023 
Q 3047 3744 3150 3342 
Q 3253 2941 3253 2259 
Q 3253 1453 3087 958 
Q 2922 463 2592 192 
Q 2263 -78 1759 -78 
Q 1097 -78 719 397 
Q 266 969 266 2259 
z
M 844 2259 
Q 844 1131 1108 757 
Q 1372 384 1759 384 
Q 2147 384 2411 759 
Q 2675 1134 2675 2259 
Q 2675 3391 2411 3762 
Q 2147 4134 1753 4134 
Q 1366 4134 1134 3806 
Q 844 3388 844 2259 
z
" transform="scale(0.015625)"/>
        <path id="ArialMT-2e" d="M 581 0 
L 581 641 
L 1222 641 
L 1222 0 
L 581 0 
z
" transform="scale(0.015625)"/>
        <path id="ArialMT-31" d="M 2384 0 
L 1822 0 
L 1822 3584 
Q 1619 3391 1289 3197 
Q 959 3003 697 2906 
L 697 3450 
Q 1169 3672 1522 3987 
Q 1875 4303 2022 4600 
L 2384 4600 
L 2384 0 
z
" transform="scale(0.015625)"/>
       </defs>
       <use xlink:href="#ArialMT-30"/>
       <use xlink:href="#ArialMT-2e" transform="translate(55.615234 0)"/>
       <use xlink:href="#ArialMT-31" transform="translate(83.398438 0)"/>
       <use xlink:href="#ArialMT-30" transform="translate(139.013672 0)"/>
      </g>
     </g>
    </g>
    <g id="xtick_2">
     <g id="line2d_2">
      <path d="M 112.448302 322.142344 
L 112.448302 21.498844 
" clip-path="url(#pad0a3594fc)" style="fill: none; stroke: #cccccc; stroke-linecap: round"/>
     </g>
     <g id="text_2">
      <!-- 0.15 -->
      <g style="fill: #262626" transform="translate(102.279962 339.122258) scale(0.1045 -0.1045)">
       <defs>
        <path id="ArialMT-35" d="M 266 1200 
L 856 1250 
Q 922 819 1161 601 
Q 1400 384 1738 384 
Q 2144 384 2425 690 
Q 2706 997 2706 1503 
Q 2706 1984 2436 2262 
Q 2166 2541 1728 2541 
Q 1456 2541 1237 2417 
Q 1019 2294 894 2097 
L 366 2166 
L 809 4519 
L 3088 4519 
L 3088 3981 
L 1259 3981 
L 1013 2750 
Q 1425 3038 1878 3038 
Q 2478 3038 2890 2622 
Q 3303 2206 3303 1553 
Q 3303 931 2941 478 
Q 2500 -78 1738 -78 
Q 1113 -78 717 272 
Q 322 622 266 1200 
z
" transform="scale(0.015625)"/>
       </defs>
       <use xlink:href="#ArialMT-30"/>
       <use xlink:href="#ArialMT-2e" transform="translate(55.615234 0)"/>
       <use xlink:href="#ArialMT-31" transform="translate(83.398438 0)"/>
       <use xlink:href="#ArialMT-35" transform="translate(139.013672 0)"/>
      </g>
     </g>
    </g>
    <g id="xtick_3">
     <g id="line2d_3">
      <path d="M 164.716962 322.142344 
L 164.716962 21.498844 
" clip-path="url(#pad0a3594fc)" style="fill: none; stroke: #cccccc; stroke-linecap: round"/>
     </g>
     <g id="text_3">
      <!-- 0.20 -->
      <g style="fill: #262626" transform="translate(154.548622 339.122258) scale(0.1045 -0.1045)">
       <defs>
        <path id="ArialMT-32" d="M 3222 541 
L 3222 0 
L 194 0 
Q 188 203 259 391 
Q 375 700 629 1000 
Q 884 1300 1366 1694 
Q 2113 2306 2375 2664 
Q 2638 3022 2638 3341 
Q 2638 3675 2398 3904 
Q 2159 4134 1775 4134 
Q 1369 4134 1125 3890 
Q 881 3647 878 3216 
L 300 3275 
Q 359 3922 746 4261 
Q 1134 4600 1788 4600 
Q 2447 4600 2831 4234 
Q 3216 3869 3216 3328 
Q 3216 3053 3103 2787 
Q 2991 2522 2730 2228 
Q 2469 1934 1863 1422 
Q 1356 997 1212 845 
Q 1069 694 975 541 
L 3222 541 
z
" transform="scale(0.015625)"/>
       </defs>
       <use xlink:href="#ArialMT-30"/>
       <use xlink:href="#ArialMT-2e" transform="translate(55.615234 0)"/>
       <use xlink:href="#ArialMT-32" transform="translate(83.398438 0)"/>
       <use xlink:href="#ArialMT-30" transform="translate(139.013672 0)"/>
      </g>
     </g>
    </g>
    <g id="xtick_4">
     <g id="line2d_4">
      <path d="M 216.985622 322.142344 
L 216.985622 21.498844 
" clip-path="url(#pad0a3594fc)" style="fill: none; stroke: #cccccc; stroke-linecap: round"/>
     </g>
     <g id="text_4">
      <!-- 0.25 -->
      <g style="fill: #262626" transform="translate(206.817282 339.122258) scale(0.1045 -0.1045)">
       <use xlink:href="#ArialMT-30"/>
       <use xlink:href="#ArialMT-2e" transform="translate(55.615234 0)"/>
       <use xlink:href="#ArialMT-32" transform="translate(83.398438 0)"/>
       <use xlink:href="#ArialMT-35" transform="translate(139.013672 0)"/>
      </g>
     </g>
    </g>
    <g id="xtick_5">
     <g id="line2d_5">
      <path d="M 269.254282 322.142344 
L 269.254282 21.498844 
" clip-path="url(#pad0a3594fc)" style="fill: none; stroke: #cccccc; stroke-linecap: round"/>
     </g>
     <g id="text_5">
      <!-- 0.30 -->
      <g style="fill: #262626" transform="translate(259.085942 339.122258) scale(0.1045 -0.1045)">
       <defs>
        <path id="ArialMT-33" d="M 269 1209 
L 831 1284 
Q 928 806 1161 595 
Q 1394 384 1728 384 
Q 2125 384 2398 659 
Q 2672 934 2672 1341 
Q 2672 1728 2419 1979 
Q 2166 2231 1775 2231 
Q 1616 2231 1378 2169 
L 1441 2663 
Q 1497 2656 1531 2656 
Q 1891 2656 2178 2843 
Q 2466 3031 2466 3422 
Q 2466 3731 2256 3934 
Q 2047 4138 1716 4138 
Q 1388 4138 1169 3931 
Q 950 3725 888 3313 
L 325 3413 
Q 428 3978 793 4289 
Q 1159 4600 1703 4600 
Q 2078 4600 2393 4439 
Q 2709 4278 2876 4000 
Q 3044 3722 3044 3409 
Q 3044 3113 2884 2869 
Q 2725 2625 2413 2481 
Q 2819 2388 3044 2092 
Q 3269 1797 3269 1353 
Q 3269 753 2831 336 
Q 2394 -81 1725 -81 
Q 1122 -81 723 278 
Q 325 638 269 1209 
z
" transform="scale(0.015625)"/>
       </defs>
       <use xlink:href="#ArialMT-30"/>
       <use xlink:href="#ArialMT-2e" transform="translate(55.615234 0)"/>
       <use xlink:href="#ArialMT-33" transform="translate(83.398438 0)"/>
       <use xlink:href="#ArialMT-30" transform="translate(139.013672 0)"/>
      </g>
     </g>
    </g>
    <g id="xtick_6">
     <g id="line2d_6">
      <path d="M 321.522942 322.142344 
L 321.522942 21.498844 
" clip-path="url(#pad0a3594fc)" style="fill: none; stroke: #cccccc; stroke-linecap: round"/>
     </g>
     <g id="text_6">
      <!-- 0.35 -->
      <g style="fill: #262626" transform="translate(311.354602 339.122258) scale(0.1045 -0.1045)">
       <use xlink:href="#ArialMT-30"/>
       <use xlink:href="#ArialMT-2e" transform="translate(55.615234 0)"/>
       <use xlink:href="#ArialMT-33" transform="translate(83.398438 0)"/>
       <use xlink:href="#ArialMT-35" transform="translate(139.013672 0)"/>
      </g>
     </g>
    </g>
    <g id="xtick_7">
     <g id="line2d_7">
      <path d="M 373.791602 322.142344 
L 373.791602 21.498844 
" clip-path="url(#pad0a3594fc)" style="fill: none; stroke: #cccccc; stroke-linecap: round"/>
     </g>
     <g id="text_7">
      <!-- 0.40 -->
      <g style="fill: #262626" transform="translate(363.623263 339.122258) scale(0.1045 -0.1045)">
       <defs>
        <path id="ArialMT-34" d="M 2069 0 
L 2069 1097 
L 81 1097 
L 81 1613 
L 2172 4581 
L 2631 4581 
L 2631 1613 
L 3250 1613 
L 3250 1097 
L 2631 1097 
L 2631 0 
L 2069 0 
z
M 2069 1613 
L 2069 3678 
L 634 1613 
L 2069 1613 
z
" transform="scale(0.015625)"/>
       </defs>
       <use xlink:href="#ArialMT-30"/>
       <use xlink:href="#ArialMT-2e" transform="translate(55.615234 0)"/>
       <use xlink:href="#ArialMT-34" transform="translate(83.398438 0)"/>
       <use xlink:href="#ArialMT-30" transform="translate(139.013672 0)"/>
      </g>
     </g>
    </g>
    <g id="xtick_8">
     <g id="line2d_8">
      <path d="M 426.060263 322.142344 
L 426.060263 21.498844 
" clip-path="url(#pad0a3594fc)" style="fill: none; stroke: #cccccc; stroke-linecap: round"/>
     </g>
     <g id="text_8">
      <!-- 0.45 -->
      <g style="fill: #262626" transform="translate(415.891923 339.122258) scale(0.1045 -0.1045)">
       <use xlink:href="#ArialMT-30"/>
       <use xlink:href="#ArialMT-2e" transform="translate(55.615234 0)"/>
       <use xlink:href="#ArialMT-34" transform="translate(83.398438 0)"/>
       <use xlink:href="#ArialMT-35" transform="translate(139.013672 0)"/>
      </g>
     </g>
    </g>
    <g id="xtick_9">
     <g id="line2d_9">
      <path d="M 478.328923 322.142344 
L 478.328923 21.498844 
" clip-path="url(#pad0a3594fc)" style="fill: none; stroke: #cccccc; stroke-linecap: round"/>
     </g>
     <g id="text_9">
      <!-- 0.50 -->
      <g style="fill: #262626" transform="translate(468.160583 339.122258) scale(0.1045 -0.1045)">
       <use xlink:href="#ArialMT-30"/>
       <use xlink:href="#ArialMT-2e" transform="translate(55.615234 0)"/>
       <use xlink:href="#ArialMT-35" transform="translate(83.398438 0)"/>
       <use xlink:href="#ArialMT-30" transform="translate(139.013672 0)"/>
      </g>
     </g>
    </g>
    <g id="text_10">
     <!-- Missingness Proportion -->
     <g style="fill: #262626" transform="translate(210.01436 353.359102) scale(0.114 -0.114)">
      <defs>
       <path id="ArialMT-4d" d="M 475 0 
L 475 4581 
L 1388 4581 
L 2472 1338 
Q 2622 884 2691 659 
Q 2769 909 2934 1394 
L 4031 4581 
L 4847 4581 
L 4847 0 
L 4263 0 
L 4263 3834 
L 2931 0 
L 2384 0 
L 1059 3900 
L 1059 0 
L 475 0 
z
" transform="scale(0.015625)"/>
       <path id="ArialMT-69" d="M 425 3934 
L 425 4581 
L 988 4581 
L 988 3934 
L 425 3934 
z
M 425 0 
L 425 3319 
L 988 3319 
L 988 0 
L 425 0 
z
" transform="scale(0.015625)"/>
       <path id="ArialMT-73" d="M 197 991 
L 753 1078 
Q 800 744 1014 566 
Q 1228 388 1613 388 
Q 2000 388 2187 545 
Q 2375 703 2375 916 
Q 2375 1106 2209 1216 
Q 2094 1291 1634 1406 
Q 1016 1563 777 1677 
Q 538 1791 414 1992 
Q 291 2194 291 2438 
Q 291 2659 392 2848 
Q 494 3038 669 3163 
Q 800 3259 1026 3326 
Q 1253 3394 1513 3394 
Q 1903 3394 2198 3281 
Q 2494 3169 2634 2976 
Q 2775 2784 2828 2463 
L 2278 2388 
Q 2241 2644 2061 2787 
Q 1881 2931 1553 2931 
Q 1166 2931 1000 2803 
Q 834 2675 834 2503 
Q 834 2394 903 2306 
Q 972 2216 1119 2156 
Q 1203 2125 1616 2013 
Q 2213 1853 2448 1751 
Q 2684 1650 2818 1456 
Q 2953 1263 2953 975 
Q 2953 694 2789 445 
Q 2625 197 2315 61 
Q 2006 -75 1616 -75 
Q 969 -75 630 194 
Q 291 463 197 991 
z
" transform="scale(0.015625)"/>
       <path id="ArialMT-6e" d="M 422 0 
L 422 3319 
L 928 3319 
L 928 2847 
Q 1294 3394 1984 3394 
Q 2284 3394 2536 3286 
Q 2788 3178 2913 3003 
Q 3038 2828 3088 2588 
Q 3119 2431 3119 2041 
L 3119 0 
L 2556 0 
L 2556 2019 
Q 2556 2363 2490 2533 
Q 2425 2703 2258 2804 
Q 2091 2906 1866 2906 
Q 1506 2906 1245 2678 
Q 984 2450 984 1813 
L 984 0 
L 422 0 
z
" transform="scale(0.015625)"/>
       <path id="ArialMT-67" d="M 319 -275 
L 866 -356 
Q 900 -609 1056 -725 
Q 1266 -881 1628 -881 
Q 2019 -881 2231 -725 
Q 2444 -569 2519 -288 
Q 2563 -116 2559 434 
Q 2191 0 1641 0 
Q 956 0 581 494 
Q 206 988 206 1678 
Q 206 2153 378 2554 
Q 550 2956 876 3175 
Q 1203 3394 1644 3394 
Q 2231 3394 2613 2919 
L 2613 3319 
L 3131 3319 
L 3131 450 
Q 3131 -325 2973 -648 
Q 2816 -972 2473 -1159 
Q 2131 -1347 1631 -1347 
Q 1038 -1347 672 -1080 
Q 306 -813 319 -275 
z
M 784 1719 
Q 784 1066 1043 766 
Q 1303 466 1694 466 
Q 2081 466 2343 764 
Q 2606 1063 2606 1700 
Q 2606 2309 2336 2618 
Q 2066 2928 1684 2928 
Q 1309 2928 1046 2623 
Q 784 2319 784 1719 
z
" transform="scale(0.015625)"/>
       <path id="ArialMT-65" d="M 2694 1069 
L 3275 997 
Q 3138 488 2766 206 
Q 2394 -75 1816 -75 
Q 1088 -75 661 373 
Q 234 822 234 1631 
Q 234 2469 665 2931 
Q 1097 3394 1784 3394 
Q 2450 3394 2872 2941 
Q 3294 2488 3294 1666 
Q 3294 1616 3291 1516 
L 816 1516 
Q 847 969 1125 678 
Q 1403 388 1819 388 
Q 2128 388 2347 550 
Q 2566 713 2694 1069 
z
M 847 1978 
L 2700 1978 
Q 2663 2397 2488 2606 
Q 2219 2931 1791 2931 
Q 1403 2931 1139 2672 
Q 875 2413 847 1978 
z
" transform="scale(0.015625)"/>
       <path id="ArialMT-20" transform="scale(0.015625)"/>
       <path id="ArialMT-50" d="M 494 0 
L 494 4581 
L 2222 4581 
Q 2678 4581 2919 4538 
Q 3256 4481 3484 4323 
Q 3713 4166 3852 3881 
Q 3991 3597 3991 3256 
Q 3991 2672 3619 2267 
Q 3247 1863 2275 1863 
L 1100 1863 
L 1100 0 
L 494 0 
z
M 1100 2403 
L 2284 2403 
Q 2872 2403 3119 2622 
Q 3366 2841 3366 3238 
Q 3366 3525 3220 3729 
Q 3075 3934 2838 4000 
Q 2684 4041 2272 4041 
L 1100 4041 
L 1100 2403 
z
" transform="scale(0.015625)"/>
       <path id="ArialMT-72" d="M 416 0 
L 416 3319 
L 922 3319 
L 922 2816 
Q 1116 3169 1280 3281 
Q 1444 3394 1641 3394 
Q 1925 3394 2219 3213 
L 2025 2691 
Q 1819 2813 1613 2813 
Q 1428 2813 1281 2702 
Q 1134 2591 1072 2394 
Q 978 2094 978 1738 
L 978 0 
L 416 0 
z
" transform="scale(0.015625)"/>
       <path id="ArialMT-6f" d="M 213 1659 
Q 213 2581 725 3025 
Q 1153 3394 1769 3394 
Q 2453 3394 2887 2945 
Q 3322 2497 3322 1706 
Q 3322 1066 3130 698 
Q 2938 331 2570 128 
Q 2203 -75 1769 -75 
Q 1072 -75 642 372 
Q 213 819 213 1659 
z
M 791 1659 
Q 791 1022 1069 705 
Q 1347 388 1769 388 
Q 2188 388 2466 706 
Q 2744 1025 2744 1678 
Q 2744 2294 2464 2611 
Q 2184 2928 1769 2928 
Q 1347 2928 1069 2612 
Q 791 2297 791 1659 
z
" transform="scale(0.015625)"/>
       <path id="ArialMT-70" d="M 422 -1272 
L 422 3319 
L 934 3319 
L 934 2888 
Q 1116 3141 1344 3267 
Q 1572 3394 1897 3394 
Q 2322 3394 2647 3175 
Q 2972 2956 3137 2557 
Q 3303 2159 3303 1684 
Q 3303 1175 3120 767 
Q 2938 359 2589 142 
Q 2241 -75 1856 -75 
Q 1575 -75 1351 44 
Q 1128 163 984 344 
L 984 -1272 
L 422 -1272 
z
M 931 1641 
Q 931 1000 1190 694 
Q 1450 388 1819 388 
Q 2194 388 2461 705 
Q 2728 1022 2728 1688 
Q 2728 2322 2467 2637 
Q 2206 2953 1844 2953 
Q 1484 2953 1207 2617 
Q 931 2281 931 1641 
z
" transform="scale(0.015625)"/>
       <path id="ArialMT-74" d="M 1650 503 
L 1731 6 
Q 1494 -44 1306 -44 
Q 1000 -44 831 53 
Q 663 150 594 308 
Q 525 466 525 972 
L 525 2881 
L 113 2881 
L 113 3319 
L 525 3319 
L 525 4141 
L 1084 4478 
L 1084 3319 
L 1650 3319 
L 1650 2881 
L 1084 2881 
L 1084 941 
Q 1084 700 1114 631 
Q 1144 563 1211 522 
Q 1278 481 1403 481 
Q 1497 481 1650 503 
z
" transform="scale(0.015625)"/>
      </defs>
      <use xlink:href="#ArialMT-4d"/>
      <use xlink:href="#ArialMT-69" transform="translate(83.300781 0)"/>
      <use xlink:href="#ArialMT-73" transform="translate(105.517578 0)"/>
      <use xlink:href="#ArialMT-73" transform="translate(155.517578 0)"/>
      <use xlink:href="#ArialMT-69" transform="translate(205.517578 0)"/>
      <use xlink:href="#ArialMT-6e" transform="translate(227.734375 0)"/>
      <use xlink:href="#ArialMT-67" transform="translate(283.349609 0)"/>
      <use xlink:href="#ArialMT-6e" transform="translate(338.964844 0)"/>
      <use xlink:href="#ArialMT-65" transform="translate(394.580078 0)"/>
      <use xlink:href="#ArialMT-73" transform="translate(450.195312 0)"/>
      <use xlink:href="#ArialMT-73" transform="translate(500.195312 0)"/>
      <use xlink:href="#ArialMT-20" transform="translate(550.195312 0)"/>
      <use xlink:href="#ArialMT-50" transform="translate(577.978516 0)"/>
      <use xlink:href="#ArialMT-72" transform="translate(644.677734 0)"/>
      <use xlink:href="#ArialMT-6f" transform="translate(677.978516 0)"/>
      <use xlink:href="#ArialMT-70" transform="translate(733.59375 0)"/>
      <use xlink:href="#ArialMT-6f" transform="translate(789.208984 0)"/>
      <use xlink:href="#ArialMT-72" transform="translate(844.824219 0)"/>
      <use xlink:href="#ArialMT-74" transform="translate(878.125 0)"/>
      <use xlink:href="#ArialMT-69" transform="translate(905.908203 0)"/>
      <use xlink:href="#ArialMT-6f" transform="translate(928.125 0)"/>
      <use xlink:href="#ArialMT-6e" transform="translate(983.740234 0)"/>
     </g>
    </g>
   </g>
   <g id="matplotlib.axis_2">
    <g id="ytick_1">
     <g id="line2d_10">
      <path d="M 51.816656 272.869647 
L 486.691908 272.869647 
" clip-path="url(#pad0a3594fc)" style="fill: none; stroke: #cccccc; stroke-linecap: round"/>
     </g>
     <g id="text_11">
      <!-- $\mathdefault{10^{-1}}$ -->
      <g style="fill: #262626" transform="translate(21.625656 278.257928) scale(0.1045 -0.1045)">
       <defs>
        <path id="ArialMT-2212" d="M 3381 1997 
L 356 1997 
L 356 2522 
L 3381 2522 
L 3381 1997 
z
" transform="scale(0.015625)"/>
       </defs>
       <use xlink:href="#ArialMT-31" transform="translate(0 0.99375)"/>
       <use xlink:href="#ArialMT-30" transform="translate(55.615234 0.99375)"/>
       <use xlink:href="#ArialMT-2212" transform="translate(112.972813 70.6875) scale(0.7)"/>
       <use xlink:href="#ArialMT-31" transform="translate(153.851719 70.6875) scale(0.7)"/>
      </g>
     </g>
    </g>
    <g id="ytick_2"/>
    <g id="ytick_3"/>
    <g id="ytick_4"/>
    <g id="ytick_5"/>
    <g id="ytick_6"/>
    <g id="ytick_7"/>
    <g id="ytick_8"/>
    <g id="ytick_9"/>
    <g id="ytick_10"/>
    <g id="ytick_11"/>
    <g id="text_12">
     <!-- RMSE -->
     <g style="fill: #262626" transform="translate(15.359906 188.289141) rotate(-90) scale(0.114 -0.114)">
      <defs>
       <path id="ArialMT-52" d="M 503 0 
L 503 4581 
L 2534 4581 
Q 3147 4581 3465 4457 
Q 3784 4334 3975 4021 
Q 4166 3709 4166 3331 
Q 4166 2844 3850 2509 
Q 3534 2175 2875 2084 
Q 3116 1969 3241 1856 
Q 3506 1613 3744 1247 
L 4541 0 
L 3778 0 
L 3172 953 
Q 2906 1366 2734 1584 
Q 2563 1803 2427 1890 
Q 2291 1978 2150 2013 
Q 2047 2034 1813 2034 
L 1109 2034 
L 1109 0 
L 503 0 
z
M 1109 2559 
L 2413 2559 
Q 2828 2559 3062 2645 
Q 3297 2731 3419 2920 
Q 3541 3109 3541 3331 
Q 3541 3656 3305 3865 
Q 3069 4075 2559 4075 
L 1109 4075 
L 1109 2559 
z
" transform="scale(0.015625)"/>
       <path id="ArialMT-53" d="M 288 1472 
L 859 1522 
Q 900 1178 1048 958 
Q 1197 738 1509 602 
Q 1822 466 2213 466 
Q 2559 466 2825 569 
Q 3091 672 3220 851 
Q 3350 1031 3350 1244 
Q 3350 1459 3225 1620 
Q 3100 1781 2813 1891 
Q 2628 1963 1997 2114 
Q 1366 2266 1113 2400 
Q 784 2572 623 2826 
Q 463 3081 463 3397 
Q 463 3744 659 4045 
Q 856 4347 1234 4503 
Q 1613 4659 2075 4659 
Q 2584 4659 2973 4495 
Q 3363 4331 3572 4012 
Q 3781 3694 3797 3291 
L 3216 3247 
Q 3169 3681 2898 3903 
Q 2628 4125 2100 4125 
Q 1550 4125 1298 3923 
Q 1047 3722 1047 3438 
Q 1047 3191 1225 3031 
Q 1400 2872 2139 2705 
Q 2878 2538 3153 2413 
Q 3553 2228 3743 1945 
Q 3934 1663 3934 1294 
Q 3934 928 3725 604 
Q 3516 281 3123 101 
Q 2731 -78 2241 -78 
Q 1619 -78 1198 103 
Q 778 284 539 648 
Q 300 1013 288 1472 
z
" transform="scale(0.015625)"/>
       <path id="ArialMT-45" d="M 506 0 
L 506 4581 
L 3819 4581 
L 3819 4041 
L 1113 4041 
L 1113 2638 
L 3647 2638 
L 3647 2100 
L 1113 2100 
L 1113 541 
L 3925 541 
L 3925 0 
L 506 0 
z
" transform="scale(0.015625)"/>
      </defs>
      <use xlink:href="#ArialMT-52"/>
      <use xlink:href="#ArialMT-4d" transform="translate(72.216797 0)"/>
      <use xlink:href="#ArialMT-53" transform="translate(155.517578 0)"/>
      <use xlink:href="#ArialMT-45" transform="translate(222.216797 0)"/>
     </g>
    </g>
   </g>
   <g id="LineCollection_1">
    <path d="M 60.179642 199.958693 
L 60.179642 100.514899 
" clip-path="url(#pad0a3594fc)" style="fill: none; stroke: #9467bd; stroke-width: 1.5"/>
    <path d="M 164.716962 201.137716 
L 164.716962 99.391264 
" clip-path="url(#pad0a3594fc)" style="fill: none; stroke: #9467bd; stroke-width: 1.5"/>
    <path d="M 269.254282 199.095495 
L 269.254282 93.556777 
" clip-path="url(#pad0a3594fc)" style="fill: none; stroke: #9467bd; stroke-width: 1.5"/>
    <path d="M 373.791602 196.486798 
L 373.791602 95.234041 
" clip-path="url(#pad0a3594fc)" style="fill: none; stroke: #9467bd; stroke-width: 1.5"/>
    <path d="M 478.328923 192.418127 
L 478.328923 93.636487 
" clip-path="url(#pad0a3594fc)" style="fill: none; stroke: #9467bd; stroke-width: 1.5"/>
   </g>
   <g id="line2d_11">
    <defs>
     <path id="m9a1fcef12c" d="M 3 0 
L -3 -0 
" style="stroke: #9467bd"/>
    </defs>
    <g clip-path="url(#pad0a3594fc)">
     <use xlink:href="#m9a1fcef12c" x="60.179642" y="199.958693" style="fill: #9467bd; stroke: #9467bd"/>
     <use xlink:href="#m9a1fcef12c" x="164.716962" y="201.137716" style="fill: #9467bd; stroke: #9467bd"/>
     <use xlink:href="#m9a1fcef12c" x="269.254282" y="199.095495" style="fill: #9467bd; stroke: #9467bd"/>
     <use xlink:href="#m9a1fcef12c" x="373.791602" y="196.486798" style="fill: #9467bd; stroke: #9467bd"/>
     <use xlink:href="#m9a1fcef12c" x="478.328923" y="192.418127" style="fill: #9467bd; stroke: #9467bd"/>
    </g>
   </g>
   <g id="line2d_12">
    <g clip-path="url(#pad0a3594fc)">
     <use xlink:href="#m9a1fcef12c" x="60.179642" y="100.514899" style="fill: #9467bd; stroke: #9467bd"/>
     <use xlink:href="#m9a1fcef12c" x="164.716962" y="99.391264" style="fill: #9467bd; stroke: #9467bd"/>
     <use xlink:href="#m9a1fcef12c" x="269.254282" y="93.556777" style="fill: #9467bd; stroke: #9467bd"/>
     <use xlink:href="#m9a1fcef12c" x="373.791602" y="95.234041" style="fill: #9467bd; stroke: #9467bd"/>
     <use xlink:href="#m9a1fcef12c" x="478.328923" y="93.636487" style="fill: #9467bd; stroke: #9467bd"/>
    </g>
   </g>
   <g id="LineCollection_2">
    <path d="M 60.179642 207.755581 
L 60.179642 110.108519 
" clip-path="url(#pad0a3594fc)" style="fill: none; stroke: #8c564b; stroke-width: 1.5"/>
    <path d="M 164.716962 208.47511 
L 164.716962 107.678186 
" clip-path="url(#pad0a3594fc)" style="fill: none; stroke: #8c564b; stroke-width: 1.5"/>
    <path d="M 269.254282 206.080931 
L 269.254282 101.931922 
" clip-path="url(#pad0a3594fc)" style="fill: none; stroke: #8c564b; stroke-width: 1.5"/>
    <path d="M 373.791602 204.269189 
L 373.791602 103.966327 
" clip-path="url(#pad0a3594fc)" style="fill: none; stroke: #8c564b; stroke-width: 1.5"/>
    <path d="M 478.328923 202.168837 
L 478.328923 103.019144 
" clip-path="url(#pad0a3594fc)" style="fill: none; stroke: #8c564b; stroke-width: 1.5"/>
   </g>
   <g id="line2d_13">
    <defs>
     <path id="m771749a96e" d="M 3 0 
L -3 -0 
" style="stroke: #8c564b"/>
    </defs>
    <g clip-path="url(#pad0a3594fc)">
     <use xlink:href="#m771749a96e" x="60.179642" y="207.755581" style="fill: #8c564b; stroke: #8c564b"/>
     <use xlink:href="#m771749a96e" x="164.716962" y="208.47511" style="fill: #8c564b; stroke: #8c564b"/>
     <use xlink:href="#m771749a96e" x="269.254282" y="206.080931" style="fill: #8c564b; stroke: #8c564b"/>
     <use xlink:href="#m771749a96e" x="373.791602" y="204.269189" style="fill: #8c564b; stroke: #8c564b"/>
     <use xlink:href="#m771749a96e" x="478.328923" y="202.168837" style="fill: #8c564b; stroke: #8c564b"/>
    </g>
   </g>
   <g id="line2d_14">
    <g clip-path="url(#pad0a3594fc)">
     <use xlink:href="#m771749a96e" x="60.179642" y="110.108519" style="fill: #8c564b; stroke: #8c564b"/>
     <use xlink:href="#m771749a96e" x="164.716962" y="107.678186" style="fill: #8c564b; stroke: #8c564b"/>
     <use xlink:href="#m771749a96e" x="269.254282" y="101.931922" style="fill: #8c564b; stroke: #8c564b"/>
     <use xlink:href="#m771749a96e" x="373.791602" y="103.966327" style="fill: #8c564b; stroke: #8c564b"/>
     <use xlink:href="#m771749a96e" x="478.328923" y="103.019144" style="fill: #8c564b; stroke: #8c564b"/>
    </g>
   </g>
   <g id="LineCollection_3">
    <path d="M 60.179642 267.292036 
L 60.179642 124.134222 
" clip-path="url(#pad0a3594fc)" style="fill: none; stroke: #d62728; stroke-width: 1.5"/>
    <path d="M 164.716962 266.30672 
L 164.716962 120.891699 
" clip-path="url(#pad0a3594fc)" style="fill: none; stroke: #d62728; stroke-width: 1.5"/>
    <path d="M 269.254282 261.65299 
L 269.254282 115.698045 
" clip-path="url(#pad0a3594fc)" style="fill: none; stroke: #d62728; stroke-width: 1.5"/>
    <path d="M 373.791602 256.257919 
L 373.791602 116.981807 
" clip-path="url(#pad0a3594fc)" style="fill: none; stroke: #d62728; stroke-width: 1.5"/>
    <path d="M 478.328923 245.278038 
L 478.328923 112.563456 
" clip-path="url(#pad0a3594fc)" style="fill: none; stroke: #d62728; stroke-width: 1.5"/>
   </g>
   <g id="line2d_15">
    <defs>
     <path id="mdec7851143" d="M 3 0 
L -3 -0 
" style="stroke: #d62728"/>
    </defs>
    <g clip-path="url(#pad0a3594fc)">
     <use xlink:href="#mdec7851143" x="60.179642" y="267.292036" style="fill: #d62728; stroke: #d62728"/>
     <use xlink:href="#mdec7851143" x="164.716962" y="266.30672" style="fill: #d62728; stroke: #d62728"/>
     <use xlink:href="#mdec7851143" x="269.254282" y="261.65299" style="fill: #d62728; stroke: #d62728"/>
     <use xlink:href="#mdec7851143" x="373.791602" y="256.257919" style="fill: #d62728; stroke: #d62728"/>
     <use xlink:href="#mdec7851143" x="478.328923" y="245.278038" style="fill: #d62728; stroke: #d62728"/>
    </g>
   </g>
   <g id="line2d_16">
    <g clip-path="url(#pad0a3594fc)">
     <use xlink:href="#mdec7851143" x="60.179642" y="124.134222" style="fill: #d62728; stroke: #d62728"/>
     <use xlink:href="#mdec7851143" x="164.716962" y="120.891699" style="fill: #d62728; stroke: #d62728"/>
     <use xlink:href="#mdec7851143" x="269.254282" y="115.698045" style="fill: #d62728; stroke: #d62728"/>
     <use xlink:href="#mdec7851143" x="373.791602" y="116.981807" style="fill: #d62728; stroke: #d62728"/>
     <use xlink:href="#mdec7851143" x="478.328923" y="112.563456" style="fill: #d62728; stroke: #d62728"/>
    </g>
   </g>
   <g id="LineCollection_4">
    <path d="M 60.179642 285.857241 
L 60.179642 130.650536 
" clip-path="url(#pad0a3594fc)" style="fill: none; stroke: #ff7f0e; stroke-width: 1.5"/>
    <path d="M 164.716962 279.983842 
L 164.716962 126.900122 
" clip-path="url(#pad0a3594fc)" style="fill: none; stroke: #ff7f0e; stroke-width: 1.5"/>
    <path d="M 269.254282 269.098994 
L 269.254282 117.650781 
" clip-path="url(#pad0a3594fc)" style="fill: none; stroke: #ff7f0e; stroke-width: 1.5"/>
    <path d="M 373.791602 254.93583 
L 373.791602 116.792379 
" clip-path="url(#pad0a3594fc)" style="fill: none; stroke: #ff7f0e; stroke-width: 1.5"/>
    <path d="M 478.328923 235.429116 
L 478.328923 110.49058 
" clip-path="url(#pad0a3594fc)" style="fill: none; stroke: #ff7f0e; stroke-width: 1.5"/>
   </g>
   <g id="line2d_17">
    <defs>
     <path id="mdb38d4fc45" d="M 3 0 
L -3 -0 
" style="stroke: #ff7f0e"/>
    </defs>
    <g clip-path="url(#pad0a3594fc)">
     <use xlink:href="#mdb38d4fc45" x="60.179642" y="285.857241" style="fill: #ff7f0e; stroke: #ff7f0e"/>
     <use xlink:href="#mdb38d4fc45" x="164.716962" y="279.983842" style="fill: #ff7f0e; stroke: #ff7f0e"/>
     <use xlink:href="#mdb38d4fc45" x="269.254282" y="269.098994" style="fill: #ff7f0e; stroke: #ff7f0e"/>
     <use xlink:href="#mdb38d4fc45" x="373.791602" y="254.93583" style="fill: #ff7f0e; stroke: #ff7f0e"/>
     <use xlink:href="#mdb38d4fc45" x="478.328923" y="235.429116" style="fill: #ff7f0e; stroke: #ff7f0e"/>
    </g>
   </g>
   <g id="line2d_18">
    <g clip-path="url(#pad0a3594fc)">
     <use xlink:href="#mdb38d4fc45" x="60.179642" y="130.650536" style="fill: #ff7f0e; stroke: #ff7f0e"/>
     <use xlink:href="#mdb38d4fc45" x="164.716962" y="126.900122" style="fill: #ff7f0e; stroke: #ff7f0e"/>
     <use xlink:href="#mdb38d4fc45" x="269.254282" y="117.650781" style="fill: #ff7f0e; stroke: #ff7f0e"/>
     <use xlink:href="#mdb38d4fc45" x="373.791602" y="116.792379" style="fill: #ff7f0e; stroke: #ff7f0e"/>
     <use xlink:href="#mdb38d4fc45" x="478.328923" y="110.49058" style="fill: #ff7f0e; stroke: #ff7f0e"/>
    </g>
   </g>
   <g id="LineCollection_5">
    <path d="M 60.179642 241.953869 
L 60.179642 118.443231 
" clip-path="url(#pad0a3594fc)" style="fill: none; stroke: #1f77b4; stroke-width: 1.5"/>
    <path d="M 164.716962 241.38396 
L 164.716962 116.024802 
" clip-path="url(#pad0a3594fc)" style="fill: none; stroke: #1f77b4; stroke-width: 1.5"/>
    <path d="M 269.254282 237.003392 
L 269.254282 108.684896 
" clip-path="url(#pad0a3594fc)" style="fill: none; stroke: #1f77b4; stroke-width: 1.5"/>
    <path d="M 373.791602 231.605414 
L 373.791602 109.765057 
" clip-path="url(#pad0a3594fc)" style="fill: none; stroke: #1f77b4; stroke-width: 1.5"/>
    <path d="M 478.328923 223.533278 
L 478.328923 106.722206 
" clip-path="url(#pad0a3594fc)" style="fill: none; stroke: #1f77b4; stroke-width: 1.5"/>
   </g>
   <g id="line2d_19">
    <defs>
     <path id="mdfc72101a0" d="M 3 0 
L -3 -0 
" style="stroke: #1f77b4"/>
    </defs>
    <g clip-path="url(#pad0a3594fc)">
     <use xlink:href="#mdfc72101a0" x="60.179642" y="241.953869" style="fill: #1f77b4; stroke: #1f77b4"/>
     <use xlink:href="#mdfc72101a0" x="164.716962" y="241.38396" style="fill: #1f77b4; stroke: #1f77b4"/>
     <use xlink:href="#mdfc72101a0" x="269.254282" y="237.003392" style="fill: #1f77b4; stroke: #1f77b4"/>
     <use xlink:href="#mdfc72101a0" x="373.791602" y="231.605414" style="fill: #1f77b4; stroke: #1f77b4"/>
     <use xlink:href="#mdfc72101a0" x="478.328923" y="223.533278" style="fill: #1f77b4; stroke: #1f77b4"/>
    </g>
   </g>
   <g id="line2d_20">
    <g clip-path="url(#pad0a3594fc)">
     <use xlink:href="#mdfc72101a0" x="60.179642" y="118.443231" style="fill: #1f77b4; stroke: #1f77b4"/>
     <use xlink:href="#mdfc72101a0" x="164.716962" y="116.024802" style="fill: #1f77b4; stroke: #1f77b4"/>
     <use xlink:href="#mdfc72101a0" x="269.254282" y="108.684896" style="fill: #1f77b4; stroke: #1f77b4"/>
     <use xlink:href="#mdfc72101a0" x="373.791602" y="109.765057" style="fill: #1f77b4; stroke: #1f77b4"/>
     <use xlink:href="#mdfc72101a0" x="478.328923" y="106.722206" style="fill: #1f77b4; stroke: #1f77b4"/>
    </g>
   </g>
   <g id="LineCollection_6">
    <path d="M 60.179642 295.298802 
L 60.179642 138.982071 
" clip-path="url(#pad0a3594fc)" style="fill: none; stroke: #bcbd22; stroke-width: 1.5"/>
    <path d="M 164.716962 290.873895 
L 164.716962 131.100963 
" clip-path="url(#pad0a3594fc)" style="fill: none; stroke: #bcbd22; stroke-width: 1.5"/>
    <path d="M 269.254282 272.903203 
L 269.254282 120.014605 
" clip-path="url(#pad0a3594fc)" style="fill: none; stroke: #bcbd22; stroke-width: 1.5"/>
    <path d="M 373.791602 258.053867 
L 373.791602 112.472474 
" clip-path="url(#pad0a3594fc)" style="fill: none; stroke: #bcbd22; stroke-width: 1.5"/>
    <path d="M 478.328923 227.736516 
L 478.328923 48.269098 
" clip-path="url(#pad0a3594fc)" style="fill: none; stroke: #bcbd22; stroke-width: 1.5"/>
   </g>
   <g id="line2d_21">
    <defs>
     <path id="m7243cd9aa8" d="M 3 0 
L -3 -0 
" style="stroke: #bcbd22"/>
    </defs>
    <g clip-path="url(#pad0a3594fc)">
     <use xlink:href="#m7243cd9aa8" x="60.179642" y="295.298802" style="fill: #bcbd22; stroke: #bcbd22"/>
     <use xlink:href="#m7243cd9aa8" x="164.716962" y="290.873895" style="fill: #bcbd22; stroke: #bcbd22"/>
     <use xlink:href="#m7243cd9aa8" x="269.254282" y="272.903203" style="fill: #bcbd22; stroke: #bcbd22"/>
     <use xlink:href="#m7243cd9aa8" x="373.791602" y="258.053867" style="fill: #bcbd22; stroke: #bcbd22"/>
     <use xlink:href="#m7243cd9aa8" x="478.328923" y="227.736516" style="fill: #bcbd22; stroke: #bcbd22"/>
    </g>
   </g>
   <g id="line2d_22">
    <g clip-path="url(#pad0a3594fc)">
     <use xlink:href="#m7243cd9aa8" x="60.179642" y="138.982071" style="fill: #bcbd22; stroke: #bcbd22"/>
     <use xlink:href="#m7243cd9aa8" x="164.716962" y="131.100963" style="fill: #bcbd22; stroke: #bcbd22"/>
     <use xlink:href="#m7243cd9aa8" x="269.254282" y="120.014605" style="fill: #bcbd22; stroke: #bcbd22"/>
     <use xlink:href="#m7243cd9aa8" x="373.791602" y="112.472474" style="fill: #bcbd22; stroke: #bcbd22"/>
     <use xlink:href="#m7243cd9aa8" x="478.328923" y="48.269098" style="fill: #bcbd22; stroke: #bcbd22"/>
    </g>
   </g>
   <g id="LineCollection_7">
    <path d="M 60.179642 295.372089 
L 60.179642 140.851828 
" clip-path="url(#pad0a3594fc)" style="fill: none; stroke: #2ca02c; stroke-width: 1.5"/>
    <path d="M 164.716962 278.950689 
L 164.716962 131.855951 
" clip-path="url(#pad0a3594fc)" style="fill: none; stroke: #2ca02c; stroke-width: 1.5"/>
    <path d="M 269.254282 273.961655 
L 269.254282 124.069479 
" clip-path="url(#pad0a3594fc)" style="fill: none; stroke: #2ca02c; stroke-width: 1.5"/>
    <path d="M 373.791602 263.877234 
L 373.791602 120.436118 
" clip-path="url(#pad0a3594fc)" style="fill: none; stroke: #2ca02c; stroke-width: 1.5"/>
    <path d="M 478.328923 245.874615 
L 478.328923 109.054812 
" clip-path="url(#pad0a3594fc)" style="fill: none; stroke: #2ca02c; stroke-width: 1.5"/>
   </g>
   <g id="line2d_23">
    <defs>
     <path id="mf2e9895f8e" d="M 3 0 
L -3 -0 
" style="stroke: #2ca02c"/>
    </defs>
    <g clip-path="url(#pad0a3594fc)">
     <use xlink:href="#mf2e9895f8e" x="60.179642" y="295.372089" style="fill: #2ca02c; stroke: #2ca02c"/>
     <use xlink:href="#mf2e9895f8e" x="164.716962" y="278.950689" style="fill: #2ca02c; stroke: #2ca02c"/>
     <use xlink:href="#mf2e9895f8e" x="269.254282" y="273.961655" style="fill: #2ca02c; stroke: #2ca02c"/>
     <use xlink:href="#mf2e9895f8e" x="373.791602" y="263.877234" style="fill: #2ca02c; stroke: #2ca02c"/>
     <use xlink:href="#mf2e9895f8e" x="478.328923" y="245.874615" style="fill: #2ca02c; stroke: #2ca02c"/>
    </g>
   </g>
   <g id="line2d_24">
    <g clip-path="url(#pad0a3594fc)">
     <use xlink:href="#mf2e9895f8e" x="60.179642" y="140.851828" style="fill: #2ca02c; stroke: #2ca02c"/>
     <use xlink:href="#mf2e9895f8e" x="164.716962" y="131.855951" style="fill: #2ca02c; stroke: #2ca02c"/>
     <use xlink:href="#mf2e9895f8e" x="269.254282" y="124.069479" style="fill: #2ca02c; stroke: #2ca02c"/>
     <use xlink:href="#mf2e9895f8e" x="373.791602" y="120.436118" style="fill: #2ca02c; stroke: #2ca02c"/>
     <use xlink:href="#mf2e9895f8e" x="478.328923" y="109.054812" style="fill: #2ca02c; stroke: #2ca02c"/>
    </g>
   </g>
   <g id="line2d_25">
    <path d="M 60.179642 140.215144 
L 164.716962 139.786566 
L 269.254282 135.076584 
L 373.791602 135.481106 
L 478.328923 133.135134 
" clip-path="url(#pad0a3594fc)" style="fill: none; stroke: #9467bd; stroke-width: 1.5; stroke-linecap: round"/>
    <defs>
     <path id="m85d6438909" d="M 0 3 
C 0.795609 3 1.55874 2.683901 2.12132 2.12132 
C 2.683901 1.55874 3 0.795609 3 0 
C 3 -0.795609 2.683901 -1.55874 2.12132 -2.12132 
C 1.55874 -2.683901 0.795609 -3 0 -3 
C -0.795609 -3 -1.55874 -2.683901 -2.12132 -2.12132 
C -2.683901 -1.55874 -3 -0.795609 -3 0 
C -3 0.795609 -2.683901 1.55874 -2.12132 2.12132 
C -1.55874 2.683901 -0.795609 3 0 3 
z
" style="stroke: #9467bd"/>
    </defs>
    <g clip-path="url(#pad0a3594fc)">
     <use xlink:href="#m85d6438909" x="60.179642" y="140.215144" style="fill: #9467bd; stroke: #9467bd"/>
     <use xlink:href="#m85d6438909" x="164.716962" y="139.786566" style="fill: #9467bd; stroke: #9467bd"/>
     <use xlink:href="#m85d6438909" x="269.254282" y="135.076584" style="fill: #9467bd; stroke: #9467bd"/>
     <use xlink:href="#m85d6438909" x="373.791602" y="135.481106" style="fill: #9467bd; stroke: #9467bd"/>
     <use xlink:href="#m85d6438909" x="478.328923" y="133.135134" style="fill: #9467bd; stroke: #9467bd"/>
    </g>
   </g>
   <g id="line2d_26">
    <path d="M 60.179642 149.259931 
L 164.716962 147.788002 
L 269.254282 143.042545 
L 373.791602 143.926972 
L 478.328923 142.629943 
" clip-path="url(#pad0a3594fc)" style="fill: none; stroke: #8c564b; stroke-width: 1.5; stroke-linecap: round"/>
    <defs>
     <path id="m17d106e0f5" d="M 0 3 
C 0.795609 3 1.55874 2.683901 2.12132 2.12132 
C 2.683901 1.55874 3 0.795609 3 0 
C 3 -0.795609 2.683901 -1.55874 2.12132 -2.12132 
C 1.55874 -2.683901 0.795609 -3 0 -3 
C -0.795609 -3 -1.55874 -2.683901 -2.12132 -2.12132 
C -2.683901 -1.55874 -3 -0.795609 -3 0 
C -3 0.795609 -2.683901 1.55874 -2.12132 2.12132 
C -1.55874 2.683901 -0.795609 3 0 3 
z
" style="stroke: #8c564b"/>
    </defs>
    <g clip-path="url(#pad0a3594fc)">
     <use xlink:href="#m17d106e0f5" x="60.179642" y="149.259931" style="fill: #8c564b; stroke: #8c564b"/>
     <use xlink:href="#m17d106e0f5" x="164.716962" y="147.788002" style="fill: #8c564b; stroke: #8c564b"/>
     <use xlink:href="#m17d106e0f5" x="269.254282" y="143.042545" style="fill: #8c564b; stroke: #8c564b"/>
     <use xlink:href="#m17d106e0f5" x="373.791602" y="143.926972" style="fill: #8c564b; stroke: #8c564b"/>
     <use xlink:href="#m17d106e0f5" x="478.328923" y="142.629943" style="fill: #8c564b; stroke: #8c564b"/>
    </g>
   </g>
   <g id="line2d_27">
    <path d="M 60.179642 175.51781 
L 164.716962 172.796694 
L 269.254282 167.726646 
L 373.791602 167.45096 
L 478.328923 161.434805 
" clip-path="url(#pad0a3594fc)" style="fill: none; stroke: #d62728; stroke-width: 1.5; stroke-linecap: round"/>
    <defs>
     <path id="m80c7555c2f" d="M 0 3 
C 0.795609 3 1.55874 2.683901 2.12132 2.12132 
C 2.683901 1.55874 3 0.795609 3 0 
C 3 -0.795609 2.683901 -1.55874 2.12132 -2.12132 
C 1.55874 -2.683901 0.795609 -3 0 -3 
C -0.795609 -3 -1.55874 -2.683901 -2.12132 -2.12132 
C -2.683901 -1.55874 -3 -0.795609 -3 0 
C -3 0.795609 -2.683901 1.55874 -2.12132 2.12132 
C -1.55874 2.683901 -0.795609 3 0 3 
z
" style="stroke: #d62728"/>
    </defs>
    <g clip-path="url(#pad0a3594fc)">
     <use xlink:href="#m80c7555c2f" x="60.179642" y="175.51781" style="fill: #d62728; stroke: #d62728"/>
     <use xlink:href="#m80c7555c2f" x="164.716962" y="172.796694" style="fill: #d62728; stroke: #d62728"/>
     <use xlink:href="#m80c7555c2f" x="269.254282" y="167.726646" style="fill: #d62728; stroke: #d62728"/>
     <use xlink:href="#m80c7555c2f" x="373.791602" y="167.45096" style="fill: #d62728; stroke: #d62728"/>
     <use xlink:href="#m80c7555c2f" x="478.328923" y="161.434805" style="fill: #d62728; stroke: #d62728"/>
    </g>
   </g>
   <g id="line2d_28">
    <path d="M 60.179642 184.731461 
L 164.716962 180.520949 
L 269.254282 170.912791 
L 373.791602 166.990424 
L 478.328923 157.38144 
" clip-path="url(#pad0a3594fc)" style="fill: none; stroke: #ff7f0e; stroke-width: 1.5; stroke-linecap: round"/>
    <defs>
     <path id="m0dd3e9b254" d="M 0 3 
C 0.795609 3 1.55874 2.683901 2.12132 2.12132 
C 2.683901 1.55874 3 0.795609 3 0 
C 3 -0.795609 2.683901 -1.55874 2.12132 -2.12132 
C 1.55874 -2.683901 0.795609 -3 0 -3 
C -0.795609 -3 -1.55874 -2.683901 -2.12132 -2.12132 
C -2.683901 -1.55874 -3 -0.795609 -3 0 
C -3 0.795609 -2.683901 1.55874 -2.12132 2.12132 
C -1.55874 2.683901 -0.795609 3 0 3 
z
" style="stroke: #ff7f0e"/>
    </defs>
    <g clip-path="url(#pad0a3594fc)">
     <use xlink:href="#m0dd3e9b254" x="60.179642" y="184.731461" style="fill: #ff7f0e; stroke: #ff7f0e"/>
     <use xlink:href="#m0dd3e9b254" x="164.716962" y="180.520949" style="fill: #ff7f0e; stroke: #ff7f0e"/>
     <use xlink:href="#m0dd3e9b254" x="269.254282" y="170.912791" style="fill: #ff7f0e; stroke: #ff7f0e"/>
     <use xlink:href="#m0dd3e9b254" x="373.791602" y="166.990424" style="fill: #ff7f0e; stroke: #ff7f0e"/>
     <use xlink:href="#m0dd3e9b254" x="478.328923" y="157.38144" style="fill: #ff7f0e; stroke: #ff7f0e"/>
    </g>
   </g>
   <g id="line2d_29">
    <path d="M 60.179642 164.959947 
L 164.716962 163.02525 
L 269.254282 156.448365 
L 373.791602 155.839935 
L 478.328923 151.439161 
" clip-path="url(#pad0a3594fc)" style="fill: none; stroke: #1f77b4; stroke-width: 1.5; stroke-linecap: round"/>
    <defs>
     <path id="mef5f714b98" d="M 0 3 
C 0.795609 3 1.55874 2.683901 2.12132 2.12132 
C 2.683901 1.55874 3 0.795609 3 0 
C 3 -0.795609 2.683901 -1.55874 2.12132 -2.12132 
C 1.55874 -2.683901 0.795609 -3 0 -3 
C -0.795609 -3 -1.55874 -2.683901 -2.12132 -2.12132 
C -2.683901 -1.55874 -3 -0.795609 -3 0 
C -3 0.795609 -2.683901 1.55874 -2.12132 2.12132 
C -1.55874 2.683901 -0.795609 3 0 3 
z
" style="stroke: #1f77b4"/>
    </defs>
    <g clip-path="url(#pad0a3594fc)">
     <use xlink:href="#mef5f714b98" x="60.179642" y="164.959947" style="fill: #1f77b4; stroke: #1f77b4"/>
     <use xlink:href="#mef5f714b98" x="164.716962" y="163.02525" style="fill: #1f77b4; stroke: #1f77b4"/>
     <use xlink:href="#mef5f714b98" x="269.254282" y="156.448365" style="fill: #1f77b4; stroke: #1f77b4"/>
     <use xlink:href="#mef5f714b98" x="373.791602" y="155.839935" style="fill: #1f77b4; stroke: #1f77b4"/>
     <use xlink:href="#mef5f714b98" x="478.328923" y="151.439161" style="fill: #1f77b4; stroke: #1f77b4"/>
    </g>
   </g>
   <g id="line2d_30">
    <path d="M 60.179642 193.301034 
L 164.716962 186.150073 
L 269.254282 173.592824 
L 373.791602 164.415602 
L 478.328923 107.173049 
" clip-path="url(#pad0a3594fc)" style="fill: none; stroke: #bcbd22; stroke-width: 1.5; stroke-linecap: round"/>
    <defs>
     <path id="m38adf262a2" d="M 0 3 
C 0.795609 3 1.55874 2.683901 2.12132 2.12132 
C 2.683901 1.55874 3 0.795609 3 0 
C 3 -0.795609 2.683901 -1.55874 2.12132 -2.12132 
C 1.55874 -2.683901 0.795609 -3 0 -3 
C -0.795609 -3 -1.55874 -2.683901 -2.12132 -2.12132 
C -2.683901 -1.55874 -3 -0.795609 -3 0 
C -3 0.795609 -2.683901 1.55874 -2.12132 2.12132 
C -1.55874 2.683901 -0.795609 3 0 3 
z
" style="stroke: #bcbd22"/>
    </defs>
    <g clip-path="url(#pad0a3594fc)">
     <use xlink:href="#m38adf262a2" x="60.179642" y="193.301034" style="fill: #bcbd22; stroke: #bcbd22"/>
     <use xlink:href="#m38adf262a2" x="164.716962" y="186.150073" style="fill: #bcbd22; stroke: #bcbd22"/>
     <use xlink:href="#m38adf262a2" x="269.254282" y="173.592824" style="fill: #bcbd22; stroke: #bcbd22"/>
     <use xlink:href="#m38adf262a2" x="373.791602" y="164.415602" style="fill: #bcbd22; stroke: #bcbd22"/>
     <use xlink:href="#m38adf262a2" x="478.328923" y="107.173049" style="fill: #bcbd22; stroke: #bcbd22"/>
    </g>
   </g>
   <g id="line2d_31">
    <path d="M 60.179642 194.784683 
L 164.716962 184.14408 
L 269.254282 176.986548 
L 373.791602 171.885562 
L 478.328923 158.93356 
" clip-path="url(#pad0a3594fc)" style="fill: none; stroke: #2ca02c; stroke-width: 1.5; stroke-linecap: round"/>
    <defs>
     <path id="m1b5ea0e55f" d="M 0 3 
C 0.795609 3 1.55874 2.683901 2.12132 2.12132 
C 2.683901 1.55874 3 0.795609 3 0 
C 3 -0.795609 2.683901 -1.55874 2.12132 -2.12132 
C 1.55874 -2.683901 0.795609 -3 0 -3 
C -0.795609 -3 -1.55874 -2.683901 -2.12132 -2.12132 
C -2.683901 -1.55874 -3 -0.795609 -3 0 
C -3 0.795609 -2.683901 1.55874 -2.12132 2.12132 
C -1.55874 2.683901 -0.795609 3 0 3 
z
" style="stroke: #2ca02c"/>
    </defs>
    <g clip-path="url(#pad0a3594fc)">
     <use xlink:href="#m1b5ea0e55f" x="60.179642" y="194.784683" style="fill: #2ca02c; stroke: #2ca02c"/>
     <use xlink:href="#m1b5ea0e55f" x="164.716962" y="184.14408" style="fill: #2ca02c; stroke: #2ca02c"/>
     <use xlink:href="#m1b5ea0e55f" x="269.254282" y="176.986548" style="fill: #2ca02c; stroke: #2ca02c"/>
     <use xlink:href="#m1b5ea0e55f" x="373.791602" y="171.885562" style="fill: #2ca02c; stroke: #2ca02c"/>
     <use xlink:href="#m1b5ea0e55f" x="478.328923" y="158.93356" style="fill: #2ca02c; stroke: #2ca02c"/>
    </g>
   </g>
   <g id="patch_3">
    <path d="M 51.816656 322.142344 
L 51.816656 21.498844 
" style="fill: none; stroke: #cccccc; stroke-width: 1.25; stroke-linejoin: miter; stroke-linecap: square"/>
   </g>
   <g id="patch_4">
    <path d="M 486.691908 322.142344 
L 486.691908 21.498844 
" style="fill: none; stroke: #cccccc; stroke-width: 1.25; stroke-linejoin: miter; stroke-linecap: square"/>
   </g>
   <g id="patch_5">
    <path d="M 51.816656 322.142344 
L 486.691908 322.142344 
" style="fill: none; stroke: #cccccc; stroke-width: 1.25; stroke-linejoin: miter; stroke-linecap: square"/>
   </g>
   <g id="patch_6">
    <path d="M 51.816656 21.498844 
L 486.691908 21.498844 
" style="fill: none; stroke: #cccccc; stroke-width: 1.25; stroke-linejoin: miter; stroke-linecap: square"/>
   </g>
   <g id="LineCollection_8">
    <path d="M 60.179642 292.079592 
L 60.179642 131.794221 
" clip-path="url(#pad0a3594fc)" style="fill: none; stroke: #e377c2; stroke-width: 2"/>
    <path d="M 164.716962 285.647378 
L 164.716962 119.150193 
" clip-path="url(#pad0a3594fc)" style="fill: none; stroke: #e377c2; stroke-width: 2"/>
    <path d="M 269.254282 279.474727 
L 269.254282 120.429451 
" clip-path="url(#pad0a3594fc)" style="fill: none; stroke: #e377c2; stroke-width: 2"/>
    <path d="M 373.791602 271.821359 
L 373.791602 119.260947 
" clip-path="url(#pad0a3594fc)" style="fill: none; stroke: #e377c2; stroke-width: 2"/>
    <path d="M 478.328923 259.169003 
L 478.328923 93.813501 
" clip-path="url(#pad0a3594fc)" style="fill: none; stroke: #e377c2; stroke-width: 2"/>
   </g>
   <g id="line2d_32">
    <defs>
     <path id="meb8af8e860" d="M 3 0 
L -3 -0 
" style="stroke: #e377c2"/>
    </defs>
    <g clip-path="url(#pad0a3594fc)">
     <use xlink:href="#meb8af8e860" x="60.179642" y="292.079592" style="fill: #e377c2; stroke: #e377c2"/>
     <use xlink:href="#meb8af8e860" x="164.716962" y="285.647378" style="fill: #e377c2; stroke: #e377c2"/>
     <use xlink:href="#meb8af8e860" x="269.254282" y="279.474727" style="fill: #e377c2; stroke: #e377c2"/>
     <use xlink:href="#meb8af8e860" x="373.791602" y="271.821359" style="fill: #e377c2; stroke: #e377c2"/>
     <use xlink:href="#meb8af8e860" x="478.328923" y="259.169003" style="fill: #e377c2; stroke: #e377c2"/>
    </g>
   </g>
   <g id="line2d_33">
    <g clip-path="url(#pad0a3594fc)">
     <use xlink:href="#meb8af8e860" x="60.179642" y="131.794221" style="fill: #e377c2; stroke: #e377c2"/>
     <use xlink:href="#meb8af8e860" x="164.716962" y="119.150193" style="fill: #e377c2; stroke: #e377c2"/>
     <use xlink:href="#meb8af8e860" x="269.254282" y="120.429451" style="fill: #e377c2; stroke: #e377c2"/>
     <use xlink:href="#meb8af8e860" x="373.791602" y="119.260947" style="fill: #e377c2; stroke: #e377c2"/>
     <use xlink:href="#meb8af8e860" x="478.328923" y="93.813501" style="fill: #e377c2; stroke: #e377c2"/>
    </g>
   </g>
   <g id="text_13">
    <!-- MAR: RMSE vs Missingness Proportion (ARCENE) -->
    <g style="fill: #262626" transform="translate(139.710204 15.498844) scale(0.114 -0.114)">
     <defs>
      <path id="ArialMT-41" d="M -9 0 
L 1750 4581 
L 2403 4581 
L 4278 0 
L 3588 0 
L 3053 1388 
L 1138 1388 
L 634 0 
L -9 0 
z
M 1313 1881 
L 2866 1881 
L 2388 3150 
Q 2169 3728 2063 4100 
Q 1975 3659 1816 3225 
L 1313 1881 
z
" transform="scale(0.015625)"/>
      <path id="ArialMT-3a" d="M 578 2678 
L 578 3319 
L 1219 3319 
L 1219 2678 
L 578 2678 
z
M 578 0 
L 578 641 
L 1219 641 
L 1219 0 
L 578 0 
z
" transform="scale(0.015625)"/>
      <path id="ArialMT-76" d="M 1344 0 
L 81 3319 
L 675 3319 
L 1388 1331 
Q 1503 1009 1600 663 
Q 1675 925 1809 1294 
L 2547 3319 
L 3125 3319 
L 1869 0 
L 1344 0 
z
" transform="scale(0.015625)"/>
      <path id="ArialMT-28" d="M 1497 -1347 
Q 1031 -759 709 28 
Q 388 816 388 1659 
Q 388 2403 628 3084 
Q 909 3875 1497 4659 
L 1900 4659 
Q 1522 4009 1400 3731 
Q 1209 3300 1100 2831 
Q 966 2247 966 1656 
Q 966 153 1900 -1347 
L 1497 -1347 
z
" transform="scale(0.015625)"/>
      <path id="ArialMT-43" d="M 3763 1606 
L 4369 1453 
Q 4178 706 3683 314 
Q 3188 -78 2472 -78 
Q 1731 -78 1267 223 
Q 803 525 561 1097 
Q 319 1669 319 2325 
Q 319 3041 592 3573 
Q 866 4106 1370 4382 
Q 1875 4659 2481 4659 
Q 3169 4659 3637 4309 
Q 4106 3959 4291 3325 
L 3694 3184 
Q 3534 3684 3231 3912 
Q 2928 4141 2469 4141 
Q 1941 4141 1586 3887 
Q 1231 3634 1087 3207 
Q 944 2781 944 2328 
Q 944 1744 1114 1308 
Q 1284 872 1643 656 
Q 2003 441 2422 441 
Q 2931 441 3284 734 
Q 3638 1028 3763 1606 
z
" transform="scale(0.015625)"/>
      <path id="ArialMT-4e" d="M 488 0 
L 488 4581 
L 1109 4581 
L 3516 984 
L 3516 4581 
L 4097 4581 
L 4097 0 
L 3475 0 
L 1069 3600 
L 1069 0 
L 488 0 
z
" transform="scale(0.015625)"/>
      <path id="ArialMT-29" d="M 791 -1347 
L 388 -1347 
Q 1322 153 1322 1656 
Q 1322 2244 1188 2822 
Q 1081 3291 891 3722 
Q 769 4003 388 4659 
L 791 4659 
Q 1378 3875 1659 3084 
Q 1900 2403 1900 1659 
Q 1900 816 1576 28 
Q 1253 -759 791 -1347 
z
" transform="scale(0.015625)"/>
     </defs>
     <use xlink:href="#ArialMT-4d"/>
     <use xlink:href="#ArialMT-41" transform="translate(83.300781 0)"/>
     <use xlink:href="#ArialMT-52" transform="translate(150 0)"/>
     <use xlink:href="#ArialMT-3a" transform="translate(222.216797 0)"/>
     <use xlink:href="#ArialMT-20" transform="translate(250 0)"/>
     <use xlink:href="#ArialMT-52" transform="translate(277.783203 0)"/>
     <use xlink:href="#ArialMT-4d" transform="translate(350 0)"/>
     <use xlink:href="#ArialMT-53" transform="translate(433.300781 0)"/>
     <use xlink:href="#ArialMT-45" transform="translate(500 0)"/>
     <use xlink:href="#ArialMT-20" transform="translate(566.699219 0)"/>
     <use xlink:href="#ArialMT-76" transform="translate(594.482422 0)"/>
     <use xlink:href="#ArialMT-73" transform="translate(644.482422 0)"/>
     <use xlink:href="#ArialMT-20" transform="translate(694.482422 0)"/>
     <use xlink:href="#ArialMT-4d" transform="translate(722.265625 0)"/>
     <use xlink:href="#ArialMT-69" transform="translate(805.566406 0)"/>
     <use xlink:href="#ArialMT-73" transform="translate(827.783203 0)"/>
     <use xlink:href="#ArialMT-73" transform="translate(877.783203 0)"/>
     <use xlink:href="#ArialMT-69" transform="translate(927.783203 0)"/>
     <use xlink:href="#ArialMT-6e" transform="translate(950 0)"/>
     <use xlink:href="#ArialMT-67" transform="translate(1005.615234 0)"/>
     <use xlink:href="#ArialMT-6e" transform="translate(1061.230469 0)"/>
     <use xlink:href="#ArialMT-65" transform="translate(1116.845703 0)"/>
     <use xlink:href="#ArialMT-73" transform="translate(1172.460938 0)"/>
     <use xlink:href="#ArialMT-73" transform="translate(1222.460938 0)"/>
     <use xlink:href="#ArialMT-20" transform="translate(1272.460938 0)"/>
     <use xlink:href="#ArialMT-50" transform="translate(1300.244141 0)"/>
     <use xlink:href="#ArialMT-72" transform="translate(1366.943359 0)"/>
     <use xlink:href="#ArialMT-6f" transform="translate(1400.244141 0)"/>
     <use xlink:href="#ArialMT-70" transform="translate(1455.859375 0)"/>
     <use xlink:href="#ArialMT-6f" transform="translate(1511.474609 0)"/>
     <use xlink:href="#ArialMT-72" transform="translate(1567.089844 0)"/>
     <use xlink:href="#ArialMT-74" transform="translate(1600.390625 0)"/>
     <use xlink:href="#ArialMT-69" transform="translate(1628.173828 0)"/>
     <use xlink:href="#ArialMT-6f" transform="translate(1650.390625 0)"/>
     <use xlink:href="#ArialMT-6e" transform="translate(1706.005859 0)"/>
     <use xlink:href="#ArialMT-20" transform="translate(1761.621094 0)"/>
     <use xlink:href="#ArialMT-28" transform="translate(1789.404297 0)"/>
     <use xlink:href="#ArialMT-41" transform="translate(1822.705078 0)"/>
     <use xlink:href="#ArialMT-52" transform="translate(1889.404297 0)"/>
     <use xlink:href="#ArialMT-43" transform="translate(1961.621094 0)"/>
     <use xlink:href="#ArialMT-45" transform="translate(2033.837891 0)"/>
     <use xlink:href="#ArialMT-4e" transform="translate(2100.537109 0)"/>
     <use xlink:href="#ArialMT-45" transform="translate(2172.753906 0)"/>
     <use xlink:href="#ArialMT-29" transform="translate(2239.453125 0)"/>
    </g>
   </g>
   <g id="line2d_34">
    <path d="M 60.179642 186.950181 
L 164.716962 175.572956 
L 269.254282 175.326215 
L 373.791602 172.76738 
L 478.328923 150.007339 
" clip-path="url(#pad0a3594fc)" style="fill: none; stroke: #e377c2; stroke-width: 2; stroke-linecap: round"/>
    <defs>
     <path id="m3d58266c53" d="M 0 3 
C 0.795609 3 1.55874 2.683901 2.12132 2.12132 
C 2.683901 1.55874 3 0.795609 3 0 
C 3 -0.795609 2.683901 -1.55874 2.12132 -2.12132 
C 1.55874 -2.683901 0.795609 -3 0 -3 
C -0.795609 -3 -1.55874 -2.683901 -2.12132 -2.12132 
C -2.683901 -1.55874 -3 -0.795609 -3 0 
C -3 0.795609 -2.683901 1.55874 -2.12132 2.12132 
C -1.55874 2.683901 -0.795609 3 0 3 
z
" style="stroke: #e377c2"/>
    </defs>
    <g clip-path="url(#pad0a3594fc)">
     <use xlink:href="#m3d58266c53" x="60.179642" y="186.950181" style="fill: #e377c2; stroke: #e377c2"/>
     <use xlink:href="#m3d58266c53" x="164.716962" y="175.572956" style="fill: #e377c2; stroke: #e377c2"/>
     <use xlink:href="#m3d58266c53" x="269.254282" y="175.326215" style="fill: #e377c2; stroke: #e377c2"/>
     <use xlink:href="#m3d58266c53" x="373.791602" y="172.76738" style="fill: #e377c2; stroke: #e377c2"/>
     <use xlink:href="#m3d58266c53" x="478.328923" y="150.007339" style="fill: #e377c2; stroke: #e377c2"/>
    </g>
   </g>
   <g id="legend_1">
    <g id="patch_7">
     <path d="M 502.704413 148.241016 
L 627.310866 148.241016 
Q 629.400866 148.241016 629.400866 146.151016 
L 629.400866 28.813844 
Q 629.400866 26.723844 627.310866 26.723844 
L 502.704413 26.723844 
Q 500.614413 26.723844 500.614413 28.813844 
L 500.614413 146.151016 
Q 500.614413 148.241016 502.704413 148.241016 
z
" style="fill: #ffffff; opacity: 0.8; stroke: #cccccc; stroke-linejoin: miter"/>
    </g>
    <g id="LineCollection_9">
     <path d="M 515.244413 39.951258 
L 515.244413 29.501258 
" style="fill: none; stroke: #9467bd; stroke-width: 1.5"/>
    </g>
    <g id="line2d_35">
     <g>
      <use xlink:href="#m9a1fcef12c" x="515.244413" y="39.951258" style="fill: #9467bd; stroke: #9467bd"/>
     </g>
    </g>
    <g id="line2d_36">
     <g>
      <use xlink:href="#m9a1fcef12c" x="515.244413" y="29.501258" style="fill: #9467bd; stroke: #9467bd"/>
     </g>
    </g>
    <g id="line2d_37">
     <path d="M 504.794413 34.726258 
L 525.694413 34.726258 
" style="fill: none; stroke: #9467bd; stroke-width: 1.5; stroke-linecap: round"/>
    </g>
    <g id="line2d_38">
     <g>
      <use xlink:href="#m85d6438909" x="515.244413" y="34.726258" style="fill: #9467bd; stroke: #9467bd"/>
     </g>
    </g>
    <g id="text_14">
     <!-- Median -->
     <g style="fill: #262626" transform="translate(534.054413 38.383758) scale(0.1045 -0.1045)">
      <defs>
       <path id="ArialMT-64" d="M 2575 0 
L 2575 419 
Q 2259 -75 1647 -75 
Q 1250 -75 917 144 
Q 584 363 401 755 
Q 219 1147 219 1656 
Q 219 2153 384 2558 
Q 550 2963 881 3178 
Q 1213 3394 1622 3394 
Q 1922 3394 2156 3267 
Q 2391 3141 2538 2938 
L 2538 4581 
L 3097 4581 
L 3097 0 
L 2575 0 
z
M 797 1656 
Q 797 1019 1065 703 
Q 1334 388 1700 388 
Q 2069 388 2326 689 
Q 2584 991 2584 1609 
Q 2584 2291 2321 2609 
Q 2059 2928 1675 2928 
Q 1300 2928 1048 2622 
Q 797 2316 797 1656 
z
" transform="scale(0.015625)"/>
       <path id="ArialMT-61" d="M 2588 409 
Q 2275 144 1986 34 
Q 1697 -75 1366 -75 
Q 819 -75 525 192 
Q 231 459 231 875 
Q 231 1119 342 1320 
Q 453 1522 633 1644 
Q 813 1766 1038 1828 
Q 1203 1872 1538 1913 
Q 2219 1994 2541 2106 
Q 2544 2222 2544 2253 
Q 2544 2597 2384 2738 
Q 2169 2928 1744 2928 
Q 1347 2928 1158 2789 
Q 969 2650 878 2297 
L 328 2372 
Q 403 2725 575 2942 
Q 747 3159 1072 3276 
Q 1397 3394 1825 3394 
Q 2250 3394 2515 3294 
Q 2781 3194 2906 3042 
Q 3031 2891 3081 2659 
Q 3109 2516 3109 2141 
L 3109 1391 
Q 3109 606 3145 398 
Q 3181 191 3288 0 
L 2700 0 
Q 2613 175 2588 409 
z
M 2541 1666 
Q 2234 1541 1622 1453 
Q 1275 1403 1131 1340 
Q 988 1278 909 1158 
Q 831 1038 831 891 
Q 831 666 1001 516 
Q 1172 366 1500 366 
Q 1825 366 2078 508 
Q 2331 650 2450 897 
Q 2541 1088 2541 1459 
L 2541 1666 
z
" transform="scale(0.015625)"/>
      </defs>
      <use xlink:href="#ArialMT-4d"/>
      <use xlink:href="#ArialMT-65" transform="translate(83.300781 0)"/>
      <use xlink:href="#ArialMT-64" transform="translate(138.916016 0)"/>
      <use xlink:href="#ArialMT-69" transform="translate(194.53125 0)"/>
      <use xlink:href="#ArialMT-61" transform="translate(216.748047 0)"/>
      <use xlink:href="#ArialMT-6e" transform="translate(272.363281 0)"/>
     </g>
    </g>
    <g id="LineCollection_10">
     <path d="M 515.244413 54.733109 
L 515.244413 44.283109 
" style="fill: none; stroke: #8c564b; stroke-width: 1.5"/>
    </g>
    <g id="line2d_39">
     <g>
      <use xlink:href="#m771749a96e" x="515.244413" y="54.733109" style="fill: #8c564b; stroke: #8c564b"/>
     </g>
    </g>
    <g id="line2d_40">
     <g>
      <use xlink:href="#m771749a96e" x="515.244413" y="44.283109" style="fill: #8c564b; stroke: #8c564b"/>
     </g>
    </g>
    <g id="line2d_41">
     <path d="M 504.794413 49.508109 
L 525.694413 49.508109 
" style="fill: none; stroke: #8c564b; stroke-width: 1.5; stroke-linecap: round"/>
    </g>
    <g id="line2d_42">
     <g>
      <use xlink:href="#m17d106e0f5" x="515.244413" y="49.508109" style="fill: #8c564b; stroke: #8c564b"/>
     </g>
    </g>
    <g id="text_15">
     <!-- Mean -->
     <g style="fill: #262626" transform="translate(534.054413 53.165609) scale(0.1045 -0.1045)">
      <use xlink:href="#ArialMT-4d"/>
      <use xlink:href="#ArialMT-65" transform="translate(83.300781 0)"/>
      <use xlink:href="#ArialMT-61" transform="translate(138.916016 0)"/>
      <use xlink:href="#ArialMT-6e" transform="translate(194.53125 0)"/>
     </g>
    </g>
    <g id="LineCollection_11">
     <path d="M 515.244413 69.514961 
L 515.244413 59.064961 
" style="fill: none; stroke: #d62728; stroke-width: 1.5"/>
    </g>
    <g id="line2d_43">
     <g>
      <use xlink:href="#mdec7851143" x="515.244413" y="69.514961" style="fill: #d62728; stroke: #d62728"/>
     </g>
    </g>
    <g id="line2d_44">
     <g>
      <use xlink:href="#mdec7851143" x="515.244413" y="59.064961" style="fill: #d62728; stroke: #d62728"/>
     </g>
    </g>
    <g id="line2d_45">
     <path d="M 504.794413 64.289961 
L 525.694413 64.289961 
" style="fill: none; stroke: #d62728; stroke-width: 1.5; stroke-linecap: round"/>
    </g>
    <g id="line2d_46">
     <g>
      <use xlink:href="#m80c7555c2f" x="515.244413" y="64.289961" style="fill: #d62728; stroke: #d62728"/>
     </g>
    </g>
    <g id="text_16">
     <!-- kNN -->
     <g style="fill: #262626" transform="translate(534.054413 67.947461) scale(0.1045 -0.1045)">
      <defs>
       <path id="ArialMT-6b" d="M 425 0 
L 425 4581 
L 988 4581 
L 988 1969 
L 2319 3319 
L 3047 3319 
L 1778 2088 
L 3175 0 
L 2481 0 
L 1384 1697 
L 988 1316 
L 988 0 
L 425 0 
z
" transform="scale(0.015625)"/>
      </defs>
      <use xlink:href="#ArialMT-6b"/>
      <use xlink:href="#ArialMT-4e" transform="translate(50 0)"/>
      <use xlink:href="#ArialMT-4e" transform="translate(122.216797 0)"/>
     </g>
    </g>
    <g id="LineCollection_12">
     <path d="M 515.244413 84.296812 
L 515.244413 73.846812 
" style="fill: none; stroke: #ff7f0e; stroke-width: 1.5"/>
    </g>
    <g id="line2d_47">
     <g>
      <use xlink:href="#mdb38d4fc45" x="515.244413" y="84.296812" style="fill: #ff7f0e; stroke: #ff7f0e"/>
     </g>
    </g>
    <g id="line2d_48">
     <g>
      <use xlink:href="#mdb38d4fc45" x="515.244413" y="73.846812" style="fill: #ff7f0e; stroke: #ff7f0e"/>
     </g>
    </g>
    <g id="line2d_49">
     <path d="M 504.794413 79.071812 
L 525.694413 79.071812 
" style="fill: none; stroke: #ff7f0e; stroke-width: 1.5; stroke-linecap: round"/>
    </g>
    <g id="line2d_50">
     <g>
      <use xlink:href="#m0dd3e9b254" x="515.244413" y="79.071812" style="fill: #ff7f0e; stroke: #ff7f0e"/>
     </g>
    </g>
    <g id="text_17">
     <!-- Matrix Factorization -->
     <g style="fill: #262626" transform="translate(534.054413 82.729312) scale(0.1045 -0.1045)">
      <defs>
       <path id="ArialMT-78" d="M 47 0 
L 1259 1725 
L 138 3319 
L 841 3319 
L 1350 2541 
Q 1494 2319 1581 2169 
Q 1719 2375 1834 2534 
L 2394 3319 
L 3066 3319 
L 1919 1756 
L 3153 0 
L 2463 0 
L 1781 1031 
L 1600 1309 
L 728 0 
L 47 0 
z
" transform="scale(0.015625)"/>
       <path id="ArialMT-46" d="M 525 0 
L 525 4581 
L 3616 4581 
L 3616 4041 
L 1131 4041 
L 1131 2622 
L 3281 2622 
L 3281 2081 
L 1131 2081 
L 1131 0 
L 525 0 
z
" transform="scale(0.015625)"/>
       <path id="ArialMT-63" d="M 2588 1216 
L 3141 1144 
Q 3050 572 2676 248 
Q 2303 -75 1759 -75 
Q 1078 -75 664 370 
Q 250 816 250 1647 
Q 250 2184 428 2587 
Q 606 2991 970 3192 
Q 1334 3394 1763 3394 
Q 2303 3394 2647 3120 
Q 2991 2847 3088 2344 
L 2541 2259 
Q 2463 2594 2264 2762 
Q 2066 2931 1784 2931 
Q 1359 2931 1093 2626 
Q 828 2322 828 1663 
Q 828 994 1084 691 
Q 1341 388 1753 388 
Q 2084 388 2306 591 
Q 2528 794 2588 1216 
z
" transform="scale(0.015625)"/>
       <path id="ArialMT-7a" d="M 125 0 
L 125 456 
L 2238 2881 
Q 1878 2863 1603 2863 
L 250 2863 
L 250 3319 
L 2963 3319 
L 2963 2947 
L 1166 841 
L 819 456 
Q 1197 484 1528 484 
L 3063 484 
L 3063 0 
L 125 0 
z
" transform="scale(0.015625)"/>
      </defs>
      <use xlink:href="#ArialMT-4d"/>
      <use xlink:href="#ArialMT-61" transform="translate(83.300781 0)"/>
      <use xlink:href="#ArialMT-74" transform="translate(138.916016 0)"/>
      <use xlink:href="#ArialMT-72" transform="translate(166.699219 0)"/>
      <use xlink:href="#ArialMT-69" transform="translate(200 0)"/>
      <use xlink:href="#ArialMT-78" transform="translate(222.216797 0)"/>
      <use xlink:href="#ArialMT-20" transform="translate(272.216797 0)"/>
      <use xlink:href="#ArialMT-46" transform="translate(300 0)"/>
      <use xlink:href="#ArialMT-61" transform="translate(361.083984 0)"/>
      <use xlink:href="#ArialMT-63" transform="translate(416.699219 0)"/>
      <use xlink:href="#ArialMT-74" transform="translate(466.699219 0)"/>
      <use xlink:href="#ArialMT-6f" transform="translate(494.482422 0)"/>
      <use xlink:href="#ArialMT-72" transform="translate(550.097656 0)"/>
      <use xlink:href="#ArialMT-69" transform="translate(583.398438 0)"/>
      <use xlink:href="#ArialMT-7a" transform="translate(605.615234 0)"/>
      <use xlink:href="#ArialMT-61" transform="translate(655.615234 0)"/>
      <use xlink:href="#ArialMT-74" transform="translate(711.230469 0)"/>
      <use xlink:href="#ArialMT-69" transform="translate(739.013672 0)"/>
      <use xlink:href="#ArialMT-6f" transform="translate(761.230469 0)"/>
      <use xlink:href="#ArialMT-6e" transform="translate(816.845703 0)"/>
     </g>
    </g>
    <g id="LineCollection_13">
     <path d="M 515.244413 99.206023 
L 515.244413 88.756023 
" style="fill: none; stroke: #1f77b4; stroke-width: 1.5"/>
    </g>
    <g id="line2d_51">
     <g>
      <use xlink:href="#mdfc72101a0" x="515.244413" y="99.206023" style="fill: #1f77b4; stroke: #1f77b4"/>
     </g>
    </g>
    <g id="line2d_52">
     <g>
      <use xlink:href="#mdfc72101a0" x="515.244413" y="88.756023" style="fill: #1f77b4; stroke: #1f77b4"/>
     </g>
    </g>
    <g id="line2d_53">
     <path d="M 504.794413 93.981023 
L 525.694413 93.981023 
" style="fill: none; stroke: #1f77b4; stroke-width: 1.5; stroke-linecap: round"/>
    </g>
    <g id="line2d_54">
     <g>
      <use xlink:href="#mef5f714b98" x="515.244413" y="93.981023" style="fill: #1f77b4; stroke: #1f77b4"/>
     </g>
    </g>
    <g id="text_18">
     <!-- Soft Impute -->
     <g style="fill: #262626" transform="translate(534.054413 97.638523) scale(0.1045 -0.1045)">
      <defs>
       <path id="ArialMT-66" d="M 556 0 
L 556 2881 
L 59 2881 
L 59 3319 
L 556 3319 
L 556 3672 
Q 556 4006 616 4169 
Q 697 4388 901 4523 
Q 1106 4659 1475 4659 
Q 1713 4659 2000 4603 
L 1916 4113 
Q 1741 4144 1584 4144 
Q 1328 4144 1222 4034 
Q 1116 3925 1116 3625 
L 1116 3319 
L 1763 3319 
L 1763 2881 
L 1116 2881 
L 1116 0 
L 556 0 
z
" transform="scale(0.015625)"/>
       <path id="ArialMT-49" d="M 597 0 
L 597 4581 
L 1203 4581 
L 1203 0 
L 597 0 
z
" transform="scale(0.015625)"/>
       <path id="ArialMT-6d" d="M 422 0 
L 422 3319 
L 925 3319 
L 925 2853 
Q 1081 3097 1340 3245 
Q 1600 3394 1931 3394 
Q 2300 3394 2536 3241 
Q 2772 3088 2869 2813 
Q 3263 3394 3894 3394 
Q 4388 3394 4653 3120 
Q 4919 2847 4919 2278 
L 4919 0 
L 4359 0 
L 4359 2091 
Q 4359 2428 4304 2576 
Q 4250 2725 4106 2815 
Q 3963 2906 3769 2906 
Q 3419 2906 3187 2673 
Q 2956 2441 2956 1928 
L 2956 0 
L 2394 0 
L 2394 2156 
Q 2394 2531 2256 2718 
Q 2119 2906 1806 2906 
Q 1569 2906 1367 2781 
Q 1166 2656 1075 2415 
Q 984 2175 984 1722 
L 984 0 
L 422 0 
z
" transform="scale(0.015625)"/>
       <path id="ArialMT-75" d="M 2597 0 
L 2597 488 
Q 2209 -75 1544 -75 
Q 1250 -75 995 37 
Q 741 150 617 320 
Q 494 491 444 738 
Q 409 903 409 1263 
L 409 3319 
L 972 3319 
L 972 1478 
Q 972 1038 1006 884 
Q 1059 663 1231 536 
Q 1403 409 1656 409 
Q 1909 409 2131 539 
Q 2353 669 2445 892 
Q 2538 1116 2538 1541 
L 2538 3319 
L 3100 3319 
L 3100 0 
L 2597 0 
z
" transform="scale(0.015625)"/>
      </defs>
      <use xlink:href="#ArialMT-53"/>
      <use xlink:href="#ArialMT-6f" transform="translate(66.699219 0)"/>
      <use xlink:href="#ArialMT-66" transform="translate(122.314453 0)"/>
      <use xlink:href="#ArialMT-74" transform="translate(150.097656 0)"/>
      <use xlink:href="#ArialMT-20" transform="translate(177.880859 0)"/>
      <use xlink:href="#ArialMT-49" transform="translate(205.664062 0)"/>
      <use xlink:href="#ArialMT-6d" transform="translate(233.447266 0)"/>
      <use xlink:href="#ArialMT-70" transform="translate(316.748047 0)"/>
      <use xlink:href="#ArialMT-75" transform="translate(372.363281 0)"/>
      <use xlink:href="#ArialMT-74" transform="translate(427.978516 0)"/>
      <use xlink:href="#ArialMT-65" transform="translate(455.761719 0)"/>
     </g>
    </g>
    <g id="LineCollection_14">
     <path d="M 515.244413 113.987875 
L 515.244413 103.537875 
" style="fill: none; stroke: #bcbd22; stroke-width: 1.5"/>
    </g>
    <g id="line2d_55">
     <g>
      <use xlink:href="#m7243cd9aa8" x="515.244413" y="113.987875" style="fill: #bcbd22; stroke: #bcbd22"/>
     </g>
    </g>
    <g id="line2d_56">
     <g>
      <use xlink:href="#m7243cd9aa8" x="515.244413" y="103.537875" style="fill: #bcbd22; stroke: #bcbd22"/>
     </g>
    </g>
    <g id="line2d_57">
     <path d="M 504.794413 108.762875 
L 525.694413 108.762875 
" style="fill: none; stroke: #bcbd22; stroke-width: 1.5; stroke-linecap: round"/>
    </g>
    <g id="line2d_58">
     <g>
      <use xlink:href="#m38adf262a2" x="515.244413" y="108.762875" style="fill: #bcbd22; stroke: #bcbd22"/>
     </g>
    </g>
    <g id="text_19">
     <!-- Missforest -->
     <g style="fill: #262626" transform="translate(534.054413 112.420375) scale(0.1045 -0.1045)">
      <use xlink:href="#ArialMT-4d"/>
      <use xlink:href="#ArialMT-69" transform="translate(83.300781 0)"/>
      <use xlink:href="#ArialMT-73" transform="translate(105.517578 0)"/>
      <use xlink:href="#ArialMT-73" transform="translate(155.517578 0)"/>
      <use xlink:href="#ArialMT-66" transform="translate(205.517578 0)"/>
      <use xlink:href="#ArialMT-6f" transform="translate(233.300781 0)"/>
      <use xlink:href="#ArialMT-72" transform="translate(288.916016 0)"/>
      <use xlink:href="#ArialMT-65" transform="translate(322.216797 0)"/>
      <use xlink:href="#ArialMT-73" transform="translate(377.832031 0)"/>
      <use xlink:href="#ArialMT-74" transform="translate(427.832031 0)"/>
     </g>
    </g>
    <g id="LineCollection_15">
     <path d="M 515.244413 128.769727 
L 515.244413 118.319727 
" style="fill: none; stroke: #2ca02c; stroke-width: 1.5"/>
    </g>
    <g id="line2d_59">
     <g>
      <use xlink:href="#mf2e9895f8e" x="515.244413" y="128.769727" style="fill: #2ca02c; stroke: #2ca02c"/>
     </g>
    </g>
    <g id="line2d_60">
     <g>
      <use xlink:href="#mf2e9895f8e" x="515.244413" y="118.319727" style="fill: #2ca02c; stroke: #2ca02c"/>
     </g>
    </g>
    <g id="line2d_61">
     <path d="M 504.794413 123.544727 
L 525.694413 123.544727 
" style="fill: none; stroke: #2ca02c; stroke-width: 1.5; stroke-linecap: round"/>
    </g>
    <g id="line2d_62">
     <g>
      <use xlink:href="#m1b5ea0e55f" x="515.244413" y="123.544727" style="fill: #2ca02c; stroke: #2ca02c"/>
     </g>
    </g>
    <g id="text_20">
     <!-- Mice -->
     <g style="fill: #262626" transform="translate(534.054413 127.202227) scale(0.1045 -0.1045)">
      <use xlink:href="#ArialMT-4d"/>
      <use xlink:href="#ArialMT-69" transform="translate(83.300781 0)"/>
      <use xlink:href="#ArialMT-63" transform="translate(105.517578 0)"/>
      <use xlink:href="#ArialMT-65" transform="translate(155.517578 0)"/>
     </g>
    </g>
    <g id="LineCollection_16">
     <path d="M 515.244413 143.551578 
L 515.244413 133.101578 
" style="fill: none; stroke: #e377c2; stroke-width: 2"/>
    </g>
    <g id="line2d_63">
     <g>
      <use xlink:href="#meb8af8e860" x="515.244413" y="143.551578" style="fill: #e377c2; stroke: #e377c2"/>
     </g>
    </g>
    <g id="line2d_64">
     <g>
      <use xlink:href="#meb8af8e860" x="515.244413" y="133.101578" style="fill: #e377c2; stroke: #e377c2"/>
     </g>
    </g>
    <g id="line2d_65">
     <path d="M 504.794413 138.326578 
L 525.694413 138.326578 
" style="fill: none; stroke: #e377c2; stroke-width: 2; stroke-linecap: round"/>
    </g>
    <g id="line2d_66">
     <g>
      <use xlink:href="#m3d58266c53" x="515.244413" y="138.326578" style="fill: #e377c2; stroke: #e377c2"/>
     </g>
    </g>
    <g id="text_21">
     <!-- Sudoku -->
     <g style="fill: #262626" transform="translate(534.054413 141.984078) scale(0.1045 -0.1045)">
      <use xlink:href="#ArialMT-53"/>
      <use xlink:href="#ArialMT-75" transform="translate(66.699219 0)"/>
      <use xlink:href="#ArialMT-64" transform="translate(122.314453 0)"/>
      <use xlink:href="#ArialMT-6f" transform="translate(177.929688 0)"/>
      <use xlink:href="#ArialMT-6b" transform="translate(233.544922 0)"/>
      <use xlink:href="#ArialMT-75" transform="translate(283.544922 0)"/>
     </g>
    </g>
   </g>
  </g>
 </g>
 <defs>
  <clipPath id="pad0a3594fc">
   <rect x="51.816656" y="21.498844" width="434.875252" height="300.6435"/>
  </clipPath>
 </defs>
</svg>
