<?xml version="1.0" encoding="utf-8" standalone="no"?>
<!DOCTYPE svg PUBLIC "-//W3C//DTD SVG 1.1//EN"
  "http://www.w3.org/Graphics/SVG/1.1/DTD/svg11.dtd">
<svg xmlns:xlink="http://www.w3.org/1999/xlink" width="720pt" height="684pt" viewBox="0 0 720 684" xmlns="http://www.w3.org/2000/svg" version="1.1">
 <metadata>
  <rdf:RDF xmlns:dc="http://purl.org/dc/elements/1.1/" xmlns:cc="http://creativecommons.org/ns#" xmlns:rdf="http://www.w3.org/1999/02/22-rdf-syntax-ns#">
   <cc:Work>
    <dc:type rdf:resource="http://purl.org/dc/dcmitype/StillImage"/>
    <dc:date>2025-09-05T10:46:37.000247</dc:date>
    <dc:format>image/svg+xml</dc:format>
    <dc:creator>
     <cc:Agent>
      <dc:title>Matplotlib v3.10.0, https://matplotlib.org/</dc:title>
     </cc:Agent>
    </dc:creator>
   </cc:Work>
  </rdf:RDF>
 </metadata>
 <defs>
  <style type="text/css">*{stroke-linejoin: round; stroke-linecap: butt}</style>
 </defs>
 <g id="figure_1">
  <g id="patch_1">
   <path d="M 0 684 
L 720 684 
L 720 0 
L 0 0 
z
" style="fill: #ffffff"/>
  </g>
  <g id="axes_1">
   <g id="patch_2">
    <path d="M 211.75 642.04 
L 703.112578 642.04 
L 703.112578 25.44 
L 211.75 25.44 
z
" style="fill: #ffffff"/>
   </g>
   <g id="matplotlib.axis_1">
    <g id="xtick_1">
     <g id="line2d_1">
      <defs>
       <path id="m946312570b" d="M 0 0 
L 0 3.5 
" style="stroke: #000000; stroke-width: 0.8"/>
      </defs>
      <g>
       <use xlink:href="#m946312570b" x="234.084663" y="642.04" style="stroke: #000000; stroke-width: 0.8"/>
      </g>
     </g>
     <g id="text_1">
      <!-- 0.000 -->
      <g transform="translate(219.7706 656.638438) scale(0.1 -0.1)">
       <defs>
        <path id="DejaVuSans-30" d="M 2034 4250 
Q 1547 4250 1301 3770 
Q 1056 3291 1056 2328 
Q 1056 1369 1301 889 
Q 1547 409 2034 409 
Q 2525 409 2770 889 
Q 3016 1369 3016 2328 
Q 3016 3291 2770 3770 
Q 2525 4250 2034 4250 
z
M 2034 4750 
Q 2819 4750 3233 4129 
Q 3647 3509 3647 2328 
Q 3647 1150 3233 529 
Q 2819 -91 2034 -91 
Q 1250 -91 836 529 
Q 422 1150 422 2328 
Q 422 3509 836 4129 
Q 1250 4750 2034 4750 
z
" transform="scale(0.015625)"/>
        <path id="DejaVuSans-2e" d="M 684 794 
L 1344 794 
L 1344 0 
L 684 0 
L 684 794 
z
" transform="scale(0.015625)"/>
       </defs>
       <use xlink:href="#DejaVuSans-30"/>
       <use xlink:href="#DejaVuSans-2e" transform="translate(63.623047 0)"/>
       <use xlink:href="#DejaVuSans-30" transform="translate(95.410156 0)"/>
       <use xlink:href="#DejaVuSans-30" transform="translate(159.033203 0)"/>
       <use xlink:href="#DejaVuSans-30" transform="translate(222.65625 0)"/>
      </g>
     </g>
    </g>
    <g id="xtick_2">
     <g id="line2d_2">
      <g>
       <use xlink:href="#m946312570b" x="300.048615" y="642.04" style="stroke: #000000; stroke-width: 0.8"/>
      </g>
     </g>
     <g id="text_2">
      <!-- 0.025 -->
      <g transform="translate(285.734553 656.638438) scale(0.1 -0.1)">
       <defs>
        <path id="DejaVuSans-32" d="M 1228 531 
L 3431 531 
L 3431 0 
L 469 0 
L 469 531 
Q 828 903 1448 1529 
Q 2069 2156 2228 2338 
Q 2531 2678 2651 2914 
Q 2772 3150 2772 3378 
Q 2772 3750 2511 3984 
Q 2250 4219 1831 4219 
Q 1534 4219 1204 4116 
Q 875 4013 500 3803 
L 500 4441 
Q 881 4594 1212 4672 
Q 1544 4750 1819 4750 
Q 2544 4750 2975 4387 
Q 3406 4025 3406 3419 
Q 3406 3131 3298 2873 
Q 3191 2616 2906 2266 
Q 2828 2175 2409 1742 
Q 1991 1309 1228 531 
z
" transform="scale(0.015625)"/>
        <path id="DejaVuSans-35" d="M 691 4666 
L 3169 4666 
L 3169 4134 
L 1269 4134 
L 1269 2991 
Q 1406 3038 1543 3061 
Q 1681 3084 1819 3084 
Q 2600 3084 3056 2656 
Q 3513 2228 3513 1497 
Q 3513 744 3044 326 
Q 2575 -91 1722 -91 
Q 1428 -91 1123 -41 
Q 819 9 494 109 
L 494 744 
Q 775 591 1075 516 
Q 1375 441 1709 441 
Q 2250 441 2565 725 
Q 2881 1009 2881 1497 
Q 2881 1984 2565 2268 
Q 2250 2553 1709 2553 
Q 1456 2553 1204 2497 
Q 953 2441 691 2322 
L 691 4666 
z
" transform="scale(0.015625)"/>
       </defs>
       <use xlink:href="#DejaVuSans-30"/>
       <use xlink:href="#DejaVuSans-2e" transform="translate(63.623047 0)"/>
       <use xlink:href="#DejaVuSans-30" transform="translate(95.410156 0)"/>
       <use xlink:href="#DejaVuSans-32" transform="translate(159.033203 0)"/>
       <use xlink:href="#DejaVuSans-35" transform="translate(222.65625 0)"/>
      </g>
     </g>
    </g>
    <g id="xtick_3">
     <g id="line2d_3">
      <g>
       <use xlink:href="#m946312570b" x="366.012568" y="642.04" style="stroke: #000000; stroke-width: 0.8"/>
      </g>
     </g>
     <g id="text_3">
      <!-- 0.050 -->
      <g transform="translate(351.698505 656.638438) scale(0.1 -0.1)">
       <use xlink:href="#DejaVuSans-30"/>
       <use xlink:href="#DejaVuSans-2e" transform="translate(63.623047 0)"/>
       <use xlink:href="#DejaVuSans-30" transform="translate(95.410156 0)"/>
       <use xlink:href="#DejaVuSans-35" transform="translate(159.033203 0)"/>
       <use xlink:href="#DejaVuSans-30" transform="translate(222.65625 0)"/>
      </g>
     </g>
    </g>
    <g id="xtick_4">
     <g id="line2d_4">
      <g>
       <use xlink:href="#m946312570b" x="431.97652" y="642.04" style="stroke: #000000; stroke-width: 0.8"/>
      </g>
     </g>
     <g id="text_4">
      <!-- 0.075 -->
      <g transform="translate(417.662458 656.638438) scale(0.1 -0.1)">
       <defs>
        <path id="DejaVuSans-37" d="M 525 4666 
L 3525 4666 
L 3525 4397 
L 1831 0 
L 1172 0 
L 2766 4134 
L 525 4134 
L 525 4666 
z
" transform="scale(0.015625)"/>
       </defs>
       <use xlink:href="#DejaVuSans-30"/>
       <use xlink:href="#DejaVuSans-2e" transform="translate(63.623047 0)"/>
       <use xlink:href="#DejaVuSans-30" transform="translate(95.410156 0)"/>
       <use xlink:href="#DejaVuSans-37" transform="translate(159.033203 0)"/>
       <use xlink:href="#DejaVuSans-35" transform="translate(222.65625 0)"/>
      </g>
     </g>
    </g>
    <g id="xtick_5">
     <g id="line2d_5">
      <g>
       <use xlink:href="#m946312570b" x="497.940472" y="642.04" style="stroke: #000000; stroke-width: 0.8"/>
      </g>
     </g>
     <g id="text_5">
      <!-- 0.100 -->
      <g transform="translate(483.62641 656.638438) scale(0.1 -0.1)">
       <defs>
        <path id="DejaVuSans-31" d="M 794 531 
L 1825 531 
L 1825 4091 
L 703 3866 
L 703 4441 
L 1819 4666 
L 2450 4666 
L 2450 531 
L 3481 531 
L 3481 0 
L 794 0 
L 794 531 
z
" transform="scale(0.015625)"/>
       </defs>
       <use xlink:href="#DejaVuSans-30"/>
       <use xlink:href="#DejaVuSans-2e" transform="translate(63.623047 0)"/>
       <use xlink:href="#DejaVuSans-31" transform="translate(95.410156 0)"/>
       <use xlink:href="#DejaVuSans-30" transform="translate(159.033203 0)"/>
       <use xlink:href="#DejaVuSans-30" transform="translate(222.65625 0)"/>
      </g>
     </g>
    </g>
    <g id="xtick_6">
     <g id="line2d_6">
      <g>
       <use xlink:href="#m946312570b" x="563.904425" y="642.04" style="stroke: #000000; stroke-width: 0.8"/>
      </g>
     </g>
     <g id="text_6">
      <!-- 0.125 -->
      <g transform="translate(549.590362 656.638438) scale(0.1 -0.1)">
       <use xlink:href="#DejaVuSans-30"/>
       <use xlink:href="#DejaVuSans-2e" transform="translate(63.623047 0)"/>
       <use xlink:href="#DejaVuSans-31" transform="translate(95.410156 0)"/>
       <use xlink:href="#DejaVuSans-32" transform="translate(159.033203 0)"/>
       <use xlink:href="#DejaVuSans-35" transform="translate(222.65625 0)"/>
      </g>
     </g>
    </g>
    <g id="xtick_7">
     <g id="line2d_7">
      <g>
       <use xlink:href="#m946312570b" x="629.868377" y="642.04" style="stroke: #000000; stroke-width: 0.8"/>
      </g>
     </g>
     <g id="text_7">
      <!-- 0.150 -->
      <g transform="translate(615.554315 656.638438) scale(0.1 -0.1)">
       <use xlink:href="#DejaVuSans-30"/>
       <use xlink:href="#DejaVuSans-2e" transform="translate(63.623047 0)"/>
       <use xlink:href="#DejaVuSans-31" transform="translate(95.410156 0)"/>
       <use xlink:href="#DejaVuSans-35" transform="translate(159.033203 0)"/>
       <use xlink:href="#DejaVuSans-30" transform="translate(222.65625 0)"/>
      </g>
     </g>
    </g>
    <g id="xtick_8">
     <g id="line2d_8">
      <g>
       <use xlink:href="#m946312570b" x="695.83233" y="642.04" style="stroke: #000000; stroke-width: 0.8"/>
      </g>
     </g>
     <g id="text_8">
      <!-- 0.175 -->
      <g transform="translate(681.518267 656.638438) scale(0.1 -0.1)">
       <use xlink:href="#DejaVuSans-30"/>
       <use xlink:href="#DejaVuSans-2e" transform="translate(63.623047 0)"/>
       <use xlink:href="#DejaVuSans-31" transform="translate(95.410156 0)"/>
       <use xlink:href="#DejaVuSans-37" transform="translate(159.033203 0)"/>
       <use xlink:href="#DejaVuSans-35" transform="translate(222.65625 0)"/>
      </g>
     </g>
    </g>
    <g id="text_9">
     <!-- Absolute ΔRMSE between adjacent missingness rates -->
     <g transform="translate(323.406289 670.316562) scale(0.1 -0.1)">
      <defs>
       <path id="DejaVuSans-41" d="M 2188 4044 
L 1331 1722 
L 3047 1722 
L 2188 4044 
z
M 1831 4666 
L 2547 4666 
L 4325 0 
L 3669 0 
L 3244 1197 
L 1141 1197 
L 716 0 
L 50 0 
L 1831 4666 
z
" transform="scale(0.015625)"/>
       <path id="DejaVuSans-62" d="M 3116 1747 
Q 3116 2381 2855 2742 
Q 2594 3103 2138 3103 
Q 1681 3103 1420 2742 
Q 1159 2381 1159 1747 
Q 1159 1113 1420 752 
Q 1681 391 2138 391 
Q 2594 391 2855 752 
Q 3116 1113 3116 1747 
z
M 1159 2969 
Q 1341 3281 1617 3432 
Q 1894 3584 2278 3584 
Q 2916 3584 3314 3078 
Q 3713 2572 3713 1747 
Q 3713 922 3314 415 
Q 2916 -91 2278 -91 
Q 1894 -91 1617 61 
Q 1341 213 1159 525 
L 1159 0 
L 581 0 
L 581 4863 
L 1159 4863 
L 1159 2969 
z
" transform="scale(0.015625)"/>
       <path id="DejaVuSans-73" d="M 2834 3397 
L 2834 2853 
Q 2591 2978 2328 3040 
Q 2066 3103 1784 3103 
Q 1356 3103 1142 2972 
Q 928 2841 928 2578 
Q 928 2378 1081 2264 
Q 1234 2150 1697 2047 
L 1894 2003 
Q 2506 1872 2764 1633 
Q 3022 1394 3022 966 
Q 3022 478 2636 193 
Q 2250 -91 1575 -91 
Q 1294 -91 989 -36 
Q 684 19 347 128 
L 347 722 
Q 666 556 975 473 
Q 1284 391 1588 391 
Q 1994 391 2212 530 
Q 2431 669 2431 922 
Q 2431 1156 2273 1281 
Q 2116 1406 1581 1522 
L 1381 1569 
Q 847 1681 609 1914 
Q 372 2147 372 2553 
Q 372 3047 722 3315 
Q 1072 3584 1716 3584 
Q 2034 3584 2315 3537 
Q 2597 3491 2834 3397 
z
" transform="scale(0.015625)"/>
       <path id="DejaVuSans-6f" d="M 1959 3097 
Q 1497 3097 1228 2736 
Q 959 2375 959 1747 
Q 959 1119 1226 758 
Q 1494 397 1959 397 
Q 2419 397 2687 759 
Q 2956 1122 2956 1747 
Q 2956 2369 2687 2733 
Q 2419 3097 1959 3097 
z
M 1959 3584 
Q 2709 3584 3137 3096 
Q 3566 2609 3566 1747 
Q 3566 888 3137 398 
Q 2709 -91 1959 -91 
Q 1206 -91 779 398 
Q 353 888 353 1747 
Q 353 2609 779 3096 
Q 1206 3584 1959 3584 
z
" transform="scale(0.015625)"/>
       <path id="DejaVuSans-6c" d="M 603 4863 
L 1178 4863 
L 1178 0 
L 603 0 
L 603 4863 
z
" transform="scale(0.015625)"/>
       <path id="DejaVuSans-75" d="M 544 1381 
L 544 3500 
L 1119 3500 
L 1119 1403 
Q 1119 906 1312 657 
Q 1506 409 1894 409 
Q 2359 409 2629 706 
Q 2900 1003 2900 1516 
L 2900 3500 
L 3475 3500 
L 3475 0 
L 2900 0 
L 2900 538 
Q 2691 219 2414 64 
Q 2138 -91 1772 -91 
Q 1169 -91 856 284 
Q 544 659 544 1381 
z
M 1991 3584 
L 1991 3584 
z
" transform="scale(0.015625)"/>
       <path id="DejaVuSans-74" d="M 1172 4494 
L 1172 3500 
L 2356 3500 
L 2356 3053 
L 1172 3053 
L 1172 1153 
Q 1172 725 1289 603 
Q 1406 481 1766 481 
L 2356 481 
L 2356 0 
L 1766 0 
Q 1100 0 847 248 
Q 594 497 594 1153 
L 594 3053 
L 172 3053 
L 172 3500 
L 594 3500 
L 594 4494 
L 1172 4494 
z
" transform="scale(0.015625)"/>
       <path id="DejaVuSans-65" d="M 3597 1894 
L 3597 1613 
L 953 1613 
Q 991 1019 1311 708 
Q 1631 397 2203 397 
Q 2534 397 2845 478 
Q 3156 559 3463 722 
L 3463 178 
Q 3153 47 2828 -22 
Q 2503 -91 2169 -91 
Q 1331 -91 842 396 
Q 353 884 353 1716 
Q 353 2575 817 3079 
Q 1281 3584 2069 3584 
Q 2775 3584 3186 3129 
Q 3597 2675 3597 1894 
z
M 3022 2063 
Q 3016 2534 2758 2815 
Q 2500 3097 2075 3097 
Q 1594 3097 1305 2825 
Q 1016 2553 972 2059 
L 3022 2063 
z
" transform="scale(0.015625)"/>
       <path id="DejaVuSans-20" transform="scale(0.015625)"/>
       <path id="DejaVuSans-394" d="M 2188 4044 
L 906 525 
L 3472 525 
L 2188 4044 
z
M 50 0 
L 1831 4666 
L 2547 4666 
L 4325 0 
L 50 0 
z
" transform="scale(0.015625)"/>
       <path id="DejaVuSans-52" d="M 2841 2188 
Q 3044 2119 3236 1894 
Q 3428 1669 3622 1275 
L 4263 0 
L 3584 0 
L 2988 1197 
Q 2756 1666 2539 1819 
Q 2322 1972 1947 1972 
L 1259 1972 
L 1259 0 
L 628 0 
L 628 4666 
L 2053 4666 
Q 2853 4666 3247 4331 
Q 3641 3997 3641 3322 
Q 3641 2881 3436 2590 
Q 3231 2300 2841 2188 
z
M 1259 4147 
L 1259 2491 
L 2053 2491 
Q 2509 2491 2742 2702 
Q 2975 2913 2975 3322 
Q 2975 3731 2742 3939 
Q 2509 4147 2053 4147 
L 1259 4147 
z
" transform="scale(0.015625)"/>
       <path id="DejaVuSans-4d" d="M 628 4666 
L 1569 4666 
L 2759 1491 
L 3956 4666 
L 4897 4666 
L 4897 0 
L 4281 0 
L 4281 4097 
L 3078 897 
L 2444 897 
L 1241 4097 
L 1241 0 
L 628 0 
L 628 4666 
z
" transform="scale(0.015625)"/>
       <path id="DejaVuSans-53" d="M 3425 4513 
L 3425 3897 
Q 3066 4069 2747 4153 
Q 2428 4238 2131 4238 
Q 1616 4238 1336 4038 
Q 1056 3838 1056 3469 
Q 1056 3159 1242 3001 
Q 1428 2844 1947 2747 
L 2328 2669 
Q 3034 2534 3370 2195 
Q 3706 1856 3706 1288 
Q 3706 609 3251 259 
Q 2797 -91 1919 -91 
Q 1588 -91 1214 -16 
Q 841 59 441 206 
L 441 856 
Q 825 641 1194 531 
Q 1563 422 1919 422 
Q 2459 422 2753 634 
Q 3047 847 3047 1241 
Q 3047 1584 2836 1778 
Q 2625 1972 2144 2069 
L 1759 2144 
Q 1053 2284 737 2584 
Q 422 2884 422 3419 
Q 422 4038 858 4394 
Q 1294 4750 2059 4750 
Q 2388 4750 2728 4690 
Q 3069 4631 3425 4513 
z
" transform="scale(0.015625)"/>
       <path id="DejaVuSans-45" d="M 628 4666 
L 3578 4666 
L 3578 4134 
L 1259 4134 
L 1259 2753 
L 3481 2753 
L 3481 2222 
L 1259 2222 
L 1259 531 
L 3634 531 
L 3634 0 
L 628 0 
L 628 4666 
z
" transform="scale(0.015625)"/>
       <path id="DejaVuSans-77" d="M 269 3500 
L 844 3500 
L 1563 769 
L 2278 3500 
L 2956 3500 
L 3675 769 
L 4391 3500 
L 4966 3500 
L 4050 0 
L 3372 0 
L 2619 2869 
L 1863 0 
L 1184 0 
L 269 3500 
z
" transform="scale(0.015625)"/>
       <path id="DejaVuSans-6e" d="M 3513 2113 
L 3513 0 
L 2938 0 
L 2938 2094 
Q 2938 2591 2744 2837 
Q 2550 3084 2163 3084 
Q 1697 3084 1428 2787 
Q 1159 2491 1159 1978 
L 1159 0 
L 581 0 
L 581 3500 
L 1159 3500 
L 1159 2956 
Q 1366 3272 1645 3428 
Q 1925 3584 2291 3584 
Q 2894 3584 3203 3211 
Q 3513 2838 3513 2113 
z
" transform="scale(0.015625)"/>
       <path id="DejaVuSans-61" d="M 2194 1759 
Q 1497 1759 1228 1600 
Q 959 1441 959 1056 
Q 959 750 1161 570 
Q 1363 391 1709 391 
Q 2188 391 2477 730 
Q 2766 1069 2766 1631 
L 2766 1759 
L 2194 1759 
z
M 3341 1997 
L 3341 0 
L 2766 0 
L 2766 531 
Q 2569 213 2275 61 
Q 1981 -91 1556 -91 
Q 1019 -91 701 211 
Q 384 513 384 1019 
Q 384 1609 779 1909 
Q 1175 2209 1959 2209 
L 2766 2209 
L 2766 2266 
Q 2766 2663 2505 2880 
Q 2244 3097 1772 3097 
Q 1472 3097 1187 3025 
Q 903 2953 641 2809 
L 641 3341 
Q 956 3463 1253 3523 
Q 1550 3584 1831 3584 
Q 2591 3584 2966 3190 
Q 3341 2797 3341 1997 
z
" transform="scale(0.015625)"/>
       <path id="DejaVuSans-64" d="M 2906 2969 
L 2906 4863 
L 3481 4863 
L 3481 0 
L 2906 0 
L 2906 525 
Q 2725 213 2448 61 
Q 2172 -91 1784 -91 
Q 1150 -91 751 415 
Q 353 922 353 1747 
Q 353 2572 751 3078 
Q 1150 3584 1784 3584 
Q 2172 3584 2448 3432 
Q 2725 3281 2906 2969 
z
M 947 1747 
Q 947 1113 1208 752 
Q 1469 391 1925 391 
Q 2381 391 2643 752 
Q 2906 1113 2906 1747 
Q 2906 2381 2643 2742 
Q 2381 3103 1925 3103 
Q 1469 3103 1208 2742 
Q 947 2381 947 1747 
z
" transform="scale(0.015625)"/>
       <path id="DejaVuSans-6a" d="M 603 3500 
L 1178 3500 
L 1178 -63 
Q 1178 -731 923 -1031 
Q 669 -1331 103 -1331 
L -116 -1331 
L -116 -844 
L 38 -844 
Q 366 -844 484 -692 
Q 603 -541 603 -63 
L 603 3500 
z
M 603 4863 
L 1178 4863 
L 1178 4134 
L 603 4134 
L 603 4863 
z
" transform="scale(0.015625)"/>
       <path id="DejaVuSans-63" d="M 3122 3366 
L 3122 2828 
Q 2878 2963 2633 3030 
Q 2388 3097 2138 3097 
Q 1578 3097 1268 2742 
Q 959 2388 959 1747 
Q 959 1106 1268 751 
Q 1578 397 2138 397 
Q 2388 397 2633 464 
Q 2878 531 3122 666 
L 3122 134 
Q 2881 22 2623 -34 
Q 2366 -91 2075 -91 
Q 1284 -91 818 406 
Q 353 903 353 1747 
Q 353 2603 823 3093 
Q 1294 3584 2113 3584 
Q 2378 3584 2631 3529 
Q 2884 3475 3122 3366 
z
" transform="scale(0.015625)"/>
       <path id="DejaVuSans-6d" d="M 3328 2828 
Q 3544 3216 3844 3400 
Q 4144 3584 4550 3584 
Q 5097 3584 5394 3201 
Q 5691 2819 5691 2113 
L 5691 0 
L 5113 0 
L 5113 2094 
Q 5113 2597 4934 2840 
Q 4756 3084 4391 3084 
Q 3944 3084 3684 2787 
Q 3425 2491 3425 1978 
L 3425 0 
L 2847 0 
L 2847 2094 
Q 2847 2600 2669 2842 
Q 2491 3084 2119 3084 
Q 1678 3084 1418 2786 
Q 1159 2488 1159 1978 
L 1159 0 
L 581 0 
L 581 3500 
L 1159 3500 
L 1159 2956 
Q 1356 3278 1631 3431 
Q 1906 3584 2284 3584 
Q 2666 3584 2933 3390 
Q 3200 3197 3328 2828 
z
" transform="scale(0.015625)"/>
       <path id="DejaVuSans-69" d="M 603 3500 
L 1178 3500 
L 1178 0 
L 603 0 
L 603 3500 
z
M 603 4863 
L 1178 4863 
L 1178 4134 
L 603 4134 
L 603 4863 
z
" transform="scale(0.015625)"/>
       <path id="DejaVuSans-67" d="M 2906 1791 
Q 2906 2416 2648 2759 
Q 2391 3103 1925 3103 
Q 1463 3103 1205 2759 
Q 947 2416 947 1791 
Q 947 1169 1205 825 
Q 1463 481 1925 481 
Q 2391 481 2648 825 
Q 2906 1169 2906 1791 
z
M 3481 434 
Q 3481 -459 3084 -895 
Q 2688 -1331 1869 -1331 
Q 1566 -1331 1297 -1286 
Q 1028 -1241 775 -1147 
L 775 -588 
Q 1028 -725 1275 -790 
Q 1522 -856 1778 -856 
Q 2344 -856 2625 -561 
Q 2906 -266 2906 331 
L 2906 616 
Q 2728 306 2450 153 
Q 2172 0 1784 0 
Q 1141 0 747 490 
Q 353 981 353 1791 
Q 353 2603 747 3093 
Q 1141 3584 1784 3584 
Q 2172 3584 2450 3431 
Q 2728 3278 2906 2969 
L 2906 3500 
L 3481 3500 
L 3481 434 
z
" transform="scale(0.015625)"/>
       <path id="DejaVuSans-72" d="M 2631 2963 
Q 2534 3019 2420 3045 
Q 2306 3072 2169 3072 
Q 1681 3072 1420 2755 
Q 1159 2438 1159 1844 
L 1159 0 
L 581 0 
L 581 3500 
L 1159 3500 
L 1159 2956 
Q 1341 3275 1631 3429 
Q 1922 3584 2338 3584 
Q 2397 3584 2469 3576 
Q 2541 3569 2628 3553 
L 2631 2963 
z
" transform="scale(0.015625)"/>
      </defs>
      <use xlink:href="#DejaVuSans-41"/>
      <use xlink:href="#DejaVuSans-62" transform="translate(68.408203 0)"/>
      <use xlink:href="#DejaVuSans-73" transform="translate(131.884766 0)"/>
      <use xlink:href="#DejaVuSans-6f" transform="translate(183.984375 0)"/>
      <use xlink:href="#DejaVuSans-6c" transform="translate(245.166016 0)"/>
      <use xlink:href="#DejaVuSans-75" transform="translate(272.949219 0)"/>
      <use xlink:href="#DejaVuSans-74" transform="translate(336.328125 0)"/>
      <use xlink:href="#DejaVuSans-65" transform="translate(375.537109 0)"/>
      <use xlink:href="#DejaVuSans-20" transform="translate(437.060547 0)"/>
      <use xlink:href="#DejaVuSans-394" transform="translate(468.847656 0)"/>
      <use xlink:href="#DejaVuSans-52" transform="translate(537.255859 0)"/>
      <use xlink:href="#DejaVuSans-4d" transform="translate(606.738281 0)"/>
      <use xlink:href="#DejaVuSans-53" transform="translate(693.017578 0)"/>
      <use xlink:href="#DejaVuSans-45" transform="translate(756.494141 0)"/>
      <use xlink:href="#DejaVuSans-20" transform="translate(819.677734 0)"/>
      <use xlink:href="#DejaVuSans-62" transform="translate(851.464844 0)"/>
      <use xlink:href="#DejaVuSans-65" transform="translate(914.941406 0)"/>
      <use xlink:href="#DejaVuSans-74" transform="translate(976.464844 0)"/>
      <use xlink:href="#DejaVuSans-77" transform="translate(1015.673828 0)"/>
      <use xlink:href="#DejaVuSans-65" transform="translate(1097.460938 0)"/>
      <use xlink:href="#DejaVuSans-65" transform="translate(1158.984375 0)"/>
      <use xlink:href="#DejaVuSans-6e" transform="translate(1220.507812 0)"/>
      <use xlink:href="#DejaVuSans-20" transform="translate(1283.886719 0)"/>
      <use xlink:href="#DejaVuSans-61" transform="translate(1315.673828 0)"/>
      <use xlink:href="#DejaVuSans-64" transform="translate(1376.953125 0)"/>
      <use xlink:href="#DejaVuSans-6a" transform="translate(1440.429688 0)"/>
      <use xlink:href="#DejaVuSans-61" transform="translate(1468.212891 0)"/>
      <use xlink:href="#DejaVuSans-63" transform="translate(1529.492188 0)"/>
      <use xlink:href="#DejaVuSans-65" transform="translate(1584.472656 0)"/>
      <use xlink:href="#DejaVuSans-6e" transform="translate(1645.996094 0)"/>
      <use xlink:href="#DejaVuSans-74" transform="translate(1709.375 0)"/>
      <use xlink:href="#DejaVuSans-20" transform="translate(1748.583984 0)"/>
      <use xlink:href="#DejaVuSans-6d" transform="translate(1780.371094 0)"/>
      <use xlink:href="#DejaVuSans-69" transform="translate(1877.783203 0)"/>
      <use xlink:href="#DejaVuSans-73" transform="translate(1905.566406 0)"/>
      <use xlink:href="#DejaVuSans-73" transform="translate(1957.666016 0)"/>
      <use xlink:href="#DejaVuSans-69" transform="translate(2009.765625 0)"/>
      <use xlink:href="#DejaVuSans-6e" transform="translate(2037.548828 0)"/>
      <use xlink:href="#DejaVuSans-67" transform="translate(2100.927734 0)"/>
      <use xlink:href="#DejaVuSans-6e" transform="translate(2164.404297 0)"/>
      <use xlink:href="#DejaVuSans-65" transform="translate(2227.783203 0)"/>
      <use xlink:href="#DejaVuSans-73" transform="translate(2289.306641 0)"/>
      <use xlink:href="#DejaVuSans-73" transform="translate(2341.40625 0)"/>
      <use xlink:href="#DejaVuSans-20" transform="translate(2393.505859 0)"/>
      <use xlink:href="#DejaVuSans-72" transform="translate(2425.292969 0)"/>
      <use xlink:href="#DejaVuSans-61" transform="translate(2466.40625 0)"/>
      <use xlink:href="#DejaVuSans-74" transform="translate(2527.685547 0)"/>
      <use xlink:href="#DejaVuSans-65" transform="translate(2566.894531 0)"/>
      <use xlink:href="#DejaVuSans-73" transform="translate(2628.417969 0)"/>
     </g>
    </g>
   </g>
   <g id="matplotlib.axis_2">
    <g id="ytick_1">
     <g id="line2d_9">
      <defs>
       <path id="m259fe2c9f3" d="M 0 0 
L -3.5 0 
" style="stroke: #000000; stroke-width: 0.8"/>
      </defs>
      <g>
       <use xlink:href="#m259fe2c9f3" x="211.75" y="53.467273" style="stroke: #000000; stroke-width: 0.8"/>
      </g>
     </g>
     <g id="text_10">
      <!-- EEG • MAR • MICE -->
      <g transform="translate(112.557812 52.427429) scale(0.1 -0.1)">
       <defs>
        <path id="DejaVuSans-47" d="M 3809 666 
L 3809 1919 
L 2778 1919 
L 2778 2438 
L 4434 2438 
L 4434 434 
Q 4069 175 3628 42 
Q 3188 -91 2688 -91 
Q 1594 -91 976 548 
Q 359 1188 359 2328 
Q 359 3472 976 4111 
Q 1594 4750 2688 4750 
Q 3144 4750 3555 4637 
Q 3966 4525 4313 4306 
L 4313 3634 
Q 3963 3931 3569 4081 
Q 3175 4231 2741 4231 
Q 1884 4231 1454 3753 
Q 1025 3275 1025 2328 
Q 1025 1384 1454 906 
Q 1884 428 2741 428 
Q 3075 428 3337 486 
Q 3600 544 3809 666 
z
" transform="scale(0.015625)"/>
        <path id="DejaVuSans-2022" d="M 959 2381 
Q 959 2769 1229 3036 
Q 1500 3303 1894 3303 
Q 2281 3303 2548 3036 
Q 2816 2769 2816 2381 
Q 2816 1991 2547 1722 
Q 2278 1453 1888 1453 
Q 1497 1453 1228 1722 
Q 959 1991 959 2381 
z
" transform="scale(0.015625)"/>
        <path id="DejaVuSans-49" d="M 628 4666 
L 1259 4666 
L 1259 0 
L 628 0 
L 628 4666 
z
" transform="scale(0.015625)"/>
        <path id="DejaVuSans-43" d="M 4122 4306 
L 4122 3641 
Q 3803 3938 3442 4084 
Q 3081 4231 2675 4231 
Q 1875 4231 1450 3742 
Q 1025 3253 1025 2328 
Q 1025 1406 1450 917 
Q 1875 428 2675 428 
Q 3081 428 3442 575 
Q 3803 722 4122 1019 
L 4122 359 
Q 3791 134 3420 21 
Q 3050 -91 2638 -91 
Q 1578 -91 968 557 
Q 359 1206 359 2328 
Q 359 3453 968 4101 
Q 1578 4750 2638 4750 
Q 3056 4750 3426 4639 
Q 3797 4528 4122 4306 
z
" transform="scale(0.015625)"/>
       </defs>
       <use xlink:href="#DejaVuSans-45"/>
       <use xlink:href="#DejaVuSans-45" transform="translate(63.183594 0)"/>
       <use xlink:href="#DejaVuSans-47" transform="translate(126.367188 0)"/>
       <use xlink:href="#DejaVuSans-20" transform="translate(203.857422 0)"/>
       <use xlink:href="#DejaVuSans-2022" transform="translate(235.644531 0)"/>
       <use xlink:href="#DejaVuSans-20" transform="translate(294.628906 0)"/>
       <use xlink:href="#DejaVuSans-4d" transform="translate(326.416016 0)"/>
       <use xlink:href="#DejaVuSans-41" transform="translate(412.695312 0)"/>
       <use xlink:href="#DejaVuSans-52" transform="translate(481.103516 0)"/>
       <use xlink:href="#DejaVuSans-20" transform="translate(550.585938 0)"/>
       <use xlink:href="#DejaVuSans-2022" transform="translate(582.373047 0)"/>
       <use xlink:href="#DejaVuSans-20" transform="translate(641.357422 0)"/>
       <use xlink:href="#DejaVuSans-4d" transform="translate(673.144531 0)"/>
       <use xlink:href="#DejaVuSans-49" transform="translate(759.423828 0)"/>
       <use xlink:href="#DejaVuSans-43" transform="translate(788.916016 0)"/>
       <use xlink:href="#DejaVuSans-45" transform="translate(858.740234 0)"/>
      </g>
      <!-- 0.3→0.4 -->
      <g transform="translate(164.564063 63.625241) scale(0.1 -0.1)">
       <defs>
        <path id="DejaVuSans-33" d="M 2597 2516 
Q 3050 2419 3304 2112 
Q 3559 1806 3559 1356 
Q 3559 666 3084 287 
Q 2609 -91 1734 -91 
Q 1441 -91 1130 -33 
Q 819 25 488 141 
L 488 750 
Q 750 597 1062 519 
Q 1375 441 1716 441 
Q 2309 441 2620 675 
Q 2931 909 2931 1356 
Q 2931 1769 2642 2001 
Q 2353 2234 1838 2234 
L 1294 2234 
L 1294 2753 
L 1863 2753 
Q 2328 2753 2575 2939 
Q 2822 3125 2822 3475 
Q 2822 3834 2567 4026 
Q 2313 4219 1838 4219 
Q 1578 4219 1281 4162 
Q 984 4106 628 3988 
L 628 4550 
Q 988 4650 1302 4700 
Q 1616 4750 1894 4750 
Q 2613 4750 3031 4423 
Q 3450 4097 3450 3541 
Q 3450 3153 3228 2886 
Q 3006 2619 2597 2516 
z
" transform="scale(0.015625)"/>
        <path id="DejaVuSans-2192" d="M 5050 2147 
L 5050 1866 
L 3822 638 
L 3447 1013 
L 4175 1741 
L 366 1741 
L 366 2272 
L 4175 2272 
L 3447 3000 
L 3822 3375 
L 5050 2147 
z
" transform="scale(0.015625)"/>
        <path id="DejaVuSans-34" d="M 2419 4116 
L 825 1625 
L 2419 1625 
L 2419 4116 
z
M 2253 4666 
L 3047 4666 
L 3047 1625 
L 3713 1625 
L 3713 1100 
L 3047 1100 
L 3047 0 
L 2419 0 
L 2419 1100 
L 313 1100 
L 313 1709 
L 2253 4666 
z
" transform="scale(0.015625)"/>
       </defs>
       <use xlink:href="#DejaVuSans-30"/>
       <use xlink:href="#DejaVuSans-2e" transform="translate(63.623047 0)"/>
       <use xlink:href="#DejaVuSans-33" transform="translate(95.410156 0)"/>
       <use xlink:href="#DejaVuSans-2192" transform="translate(159.033203 0)"/>
       <use xlink:href="#DejaVuSans-30" transform="translate(242.822266 0)"/>
       <use xlink:href="#DejaVuSans-2e" transform="translate(306.445312 0)"/>
       <use xlink:href="#DejaVuSans-34" transform="translate(338.232422 0)"/>
      </g>
     </g>
    </g>
    <g id="ytick_2">
     <g id="line2d_10">
      <g>
       <use xlink:href="#m259fe2c9f3" x="211.75" y="93.506234" style="stroke: #000000; stroke-width: 0.8"/>
      </g>
     </g>
     <g id="text_11">
      <!-- EEG • MAR • SoftImpute -->
      <g transform="translate(82.254687 92.46639) scale(0.1 -0.1)">
       <defs>
        <path id="DejaVuSans-66" d="M 2375 4863 
L 2375 4384 
L 1825 4384 
Q 1516 4384 1395 4259 
Q 1275 4134 1275 3809 
L 1275 3500 
L 2222 3500 
L 2222 3053 
L 1275 3053 
L 1275 0 
L 697 0 
L 697 3053 
L 147 3053 
L 147 3500 
L 697 3500 
L 697 3744 
Q 697 4328 969 4595 
Q 1241 4863 1831 4863 
L 2375 4863 
z
" transform="scale(0.015625)"/>
        <path id="DejaVuSans-70" d="M 1159 525 
L 1159 -1331 
L 581 -1331 
L 581 3500 
L 1159 3500 
L 1159 2969 
Q 1341 3281 1617 3432 
Q 1894 3584 2278 3584 
Q 2916 3584 3314 3078 
Q 3713 2572 3713 1747 
Q 3713 922 3314 415 
Q 2916 -91 2278 -91 
Q 1894 -91 1617 61 
Q 1341 213 1159 525 
z
M 3116 1747 
Q 3116 2381 2855 2742 
Q 2594 3103 2138 3103 
Q 1681 3103 1420 2742 
Q 1159 2381 1159 1747 
Q 1159 1113 1420 752 
Q 1681 391 2138 391 
Q 2594 391 2855 752 
Q 3116 1113 3116 1747 
z
" transform="scale(0.015625)"/>
       </defs>
       <use xlink:href="#DejaVuSans-45"/>
       <use xlink:href="#DejaVuSans-45" transform="translate(63.183594 0)"/>
       <use xlink:href="#DejaVuSans-47" transform="translate(126.367188 0)"/>
       <use xlink:href="#DejaVuSans-20" transform="translate(203.857422 0)"/>
       <use xlink:href="#DejaVuSans-2022" transform="translate(235.644531 0)"/>
       <use xlink:href="#DejaVuSans-20" transform="translate(294.628906 0)"/>
       <use xlink:href="#DejaVuSans-4d" transform="translate(326.416016 0)"/>
       <use xlink:href="#DejaVuSans-41" transform="translate(412.695312 0)"/>
       <use xlink:href="#DejaVuSans-52" transform="translate(481.103516 0)"/>
       <use xlink:href="#DejaVuSans-20" transform="translate(550.585938 0)"/>
       <use xlink:href="#DejaVuSans-2022" transform="translate(582.373047 0)"/>
       <use xlink:href="#DejaVuSans-20" transform="translate(641.357422 0)"/>
       <use xlink:href="#DejaVuSans-53" transform="translate(673.144531 0)"/>
       <use xlink:href="#DejaVuSans-6f" transform="translate(736.621094 0)"/>
       <use xlink:href="#DejaVuSans-66" transform="translate(797.802734 0)"/>
       <use xlink:href="#DejaVuSans-74" transform="translate(831.257812 0)"/>
       <use xlink:href="#DejaVuSans-49" transform="translate(870.466797 0)"/>
       <use xlink:href="#DejaVuSans-6d" transform="translate(899.958984 0)"/>
       <use xlink:href="#DejaVuSans-70" transform="translate(997.371094 0)"/>
       <use xlink:href="#DejaVuSans-75" transform="translate(1060.847656 0)"/>
       <use xlink:href="#DejaVuSans-74" transform="translate(1124.226562 0)"/>
       <use xlink:href="#DejaVuSans-65" transform="translate(1163.435547 0)"/>
      </g>
      <!-- 0.3→0.4 -->
      <g transform="translate(164.564063 103.664203) scale(0.1 -0.1)">
       <use xlink:href="#DejaVuSans-30"/>
       <use xlink:href="#DejaVuSans-2e" transform="translate(63.623047 0)"/>
       <use xlink:href="#DejaVuSans-33" transform="translate(95.410156 0)"/>
       <use xlink:href="#DejaVuSans-2192" transform="translate(159.033203 0)"/>
       <use xlink:href="#DejaVuSans-30" transform="translate(242.822266 0)"/>
       <use xlink:href="#DejaVuSans-2e" transform="translate(306.445312 0)"/>
       <use xlink:href="#DejaVuSans-34" transform="translate(338.232422 0)"/>
      </g>
     </g>
    </g>
    <g id="ytick_3">
     <g id="line2d_11">
      <g>
       <use xlink:href="#m259fe2c9f3" x="211.75" y="133.545195" style="stroke: #000000; stroke-width: 0.8"/>
      </g>
     </g>
     <g id="text_12">
      <!-- EEG • MCAR • MICE -->
      <g transform="translate(105.575 132.505351) scale(0.1 -0.1)">
       <use xlink:href="#DejaVuSans-45"/>
       <use xlink:href="#DejaVuSans-45" transform="translate(63.183594 0)"/>
       <use xlink:href="#DejaVuSans-47" transform="translate(126.367188 0)"/>
       <use xlink:href="#DejaVuSans-20" transform="translate(203.857422 0)"/>
       <use xlink:href="#DejaVuSans-2022" transform="translate(235.644531 0)"/>
       <use xlink:href="#DejaVuSans-20" transform="translate(294.628906 0)"/>
       <use xlink:href="#DejaVuSans-4d" transform="translate(326.416016 0)"/>
       <use xlink:href="#DejaVuSans-43" transform="translate(412.695312 0)"/>
       <use xlink:href="#DejaVuSans-41" transform="translate(482.519531 0)"/>
       <use xlink:href="#DejaVuSans-52" transform="translate(550.927734 0)"/>
       <use xlink:href="#DejaVuSans-20" transform="translate(620.410156 0)"/>
       <use xlink:href="#DejaVuSans-2022" transform="translate(652.197266 0)"/>
       <use xlink:href="#DejaVuSans-20" transform="translate(711.181641 0)"/>
       <use xlink:href="#DejaVuSans-4d" transform="translate(742.96875 0)"/>
       <use xlink:href="#DejaVuSans-49" transform="translate(829.248047 0)"/>
       <use xlink:href="#DejaVuSans-43" transform="translate(858.740234 0)"/>
       <use xlink:href="#DejaVuSans-45" transform="translate(928.564453 0)"/>
      </g>
      <!-- 0.3→0.4 -->
      <g transform="translate(164.564063 143.703164) scale(0.1 -0.1)">
       <use xlink:href="#DejaVuSans-30"/>
       <use xlink:href="#DejaVuSans-2e" transform="translate(63.623047 0)"/>
       <use xlink:href="#DejaVuSans-33" transform="translate(95.410156 0)"/>
       <use xlink:href="#DejaVuSans-2192" transform="translate(159.033203 0)"/>
       <use xlink:href="#DejaVuSans-30" transform="translate(242.822266 0)"/>
       <use xlink:href="#DejaVuSans-2e" transform="translate(306.445312 0)"/>
       <use xlink:href="#DejaVuSans-34" transform="translate(338.232422 0)"/>
      </g>
     </g>
    </g>
    <g id="ytick_4">
     <g id="line2d_12">
      <g>
       <use xlink:href="#m259fe2c9f3" x="211.75" y="173.584156" style="stroke: #000000; stroke-width: 0.8"/>
      </g>
     </g>
     <g id="text_13">
      <!-- ARCENE • MAR • Sudoku -->
      <g transform="translate(80.464062 172.544312) scale(0.1 -0.1)">
       <defs>
        <path id="DejaVuSans-4e" d="M 628 4666 
L 1478 4666 
L 3547 763 
L 3547 4666 
L 4159 4666 
L 4159 0 
L 3309 0 
L 1241 3903 
L 1241 0 
L 628 0 
L 628 4666 
z
" transform="scale(0.015625)"/>
        <path id="DejaVuSans-6b" d="M 581 4863 
L 1159 4863 
L 1159 1991 
L 2875 3500 
L 3609 3500 
L 1753 1863 
L 3688 0 
L 2938 0 
L 1159 1709 
L 1159 0 
L 581 0 
L 581 4863 
z
" transform="scale(0.015625)"/>
       </defs>
       <use xlink:href="#DejaVuSans-41"/>
       <use xlink:href="#DejaVuSans-52" transform="translate(68.408203 0)"/>
       <use xlink:href="#DejaVuSans-43" transform="translate(132.890625 0)"/>
       <use xlink:href="#DejaVuSans-45" transform="translate(202.714844 0)"/>
       <use xlink:href="#DejaVuSans-4e" transform="translate(265.898438 0)"/>
       <use xlink:href="#DejaVuSans-45" transform="translate(340.703125 0)"/>
       <use xlink:href="#DejaVuSans-20" transform="translate(403.886719 0)"/>
       <use xlink:href="#DejaVuSans-2022" transform="translate(435.673828 0)"/>
       <use xlink:href="#DejaVuSans-20" transform="translate(494.658203 0)"/>
       <use xlink:href="#DejaVuSans-4d" transform="translate(526.445312 0)"/>
       <use xlink:href="#DejaVuSans-41" transform="translate(612.724609 0)"/>
       <use xlink:href="#DejaVuSans-52" transform="translate(681.132812 0)"/>
       <use xlink:href="#DejaVuSans-20" transform="translate(750.615234 0)"/>
       <use xlink:href="#DejaVuSans-2022" transform="translate(782.402344 0)"/>
       <use xlink:href="#DejaVuSans-20" transform="translate(841.386719 0)"/>
       <use xlink:href="#DejaVuSans-53" transform="translate(873.173828 0)"/>
       <use xlink:href="#DejaVuSans-75" transform="translate(936.650391 0)"/>
       <use xlink:href="#DejaVuSans-64" transform="translate(1000.029297 0)"/>
       <use xlink:href="#DejaVuSans-6f" transform="translate(1063.505859 0)"/>
       <use xlink:href="#DejaVuSans-6b" transform="translate(1124.6875 0)"/>
       <use xlink:href="#DejaVuSans-75" transform="translate(1179.472656 0)"/>
      </g>
      <!-- 0.4→0.5 -->
      <g transform="translate(164.564062 183.742125) scale(0.1 -0.1)">
       <use xlink:href="#DejaVuSans-30"/>
       <use xlink:href="#DejaVuSans-2e" transform="translate(63.623047 0)"/>
       <use xlink:href="#DejaVuSans-34" transform="translate(95.410156 0)"/>
       <use xlink:href="#DejaVuSans-2192" transform="translate(159.033203 0)"/>
       <use xlink:href="#DejaVuSans-30" transform="translate(242.822266 0)"/>
       <use xlink:href="#DejaVuSans-2e" transform="translate(306.445312 0)"/>
       <use xlink:href="#DejaVuSans-35" transform="translate(338.232422 0)"/>
      </g>
     </g>
    </g>
    <g id="ytick_5">
     <g id="line2d_13">
      <g>
       <use xlink:href="#m259fe2c9f3" x="211.75" y="213.623117" style="stroke: #000000; stroke-width: 0.8"/>
      </g>
     </g>
     <g id="text_14">
      <!-- ARCENE • MNAR • Matrix Factorization -->
      <g transform="translate(11.364062 212.583273) scale(0.1 -0.1)">
       <defs>
        <path id="DejaVuSans-78" d="M 3513 3500 
L 2247 1797 
L 3578 0 
L 2900 0 
L 1881 1375 
L 863 0 
L 184 0 
L 1544 1831 
L 300 3500 
L 978 3500 
L 1906 2253 
L 2834 3500 
L 3513 3500 
z
" transform="scale(0.015625)"/>
        <path id="DejaVuSans-46" d="M 628 4666 
L 3309 4666 
L 3309 4134 
L 1259 4134 
L 1259 2759 
L 3109 2759 
L 3109 2228 
L 1259 2228 
L 1259 0 
L 628 0 
L 628 4666 
z
" transform="scale(0.015625)"/>
        <path id="DejaVuSans-7a" d="M 353 3500 
L 3084 3500 
L 3084 2975 
L 922 459 
L 3084 459 
L 3084 0 
L 275 0 
L 275 525 
L 2438 3041 
L 353 3041 
L 353 3500 
z
" transform="scale(0.015625)"/>
       </defs>
       <use xlink:href="#DejaVuSans-41"/>
       <use xlink:href="#DejaVuSans-52" transform="translate(68.408203 0)"/>
       <use xlink:href="#DejaVuSans-43" transform="translate(132.890625 0)"/>
       <use xlink:href="#DejaVuSans-45" transform="translate(202.714844 0)"/>
       <use xlink:href="#DejaVuSans-4e" transform="translate(265.898438 0)"/>
       <use xlink:href="#DejaVuSans-45" transform="translate(340.703125 0)"/>
       <use xlink:href="#DejaVuSans-20" transform="translate(403.886719 0)"/>
       <use xlink:href="#DejaVuSans-2022" transform="translate(435.673828 0)"/>
       <use xlink:href="#DejaVuSans-20" transform="translate(494.658203 0)"/>
       <use xlink:href="#DejaVuSans-4d" transform="translate(526.445312 0)"/>
       <use xlink:href="#DejaVuSans-4e" transform="translate(612.724609 0)"/>
       <use xlink:href="#DejaVuSans-41" transform="translate(687.529297 0)"/>
       <use xlink:href="#DejaVuSans-52" transform="translate(755.9375 0)"/>
       <use xlink:href="#DejaVuSans-20" transform="translate(825.419922 0)"/>
       <use xlink:href="#DejaVuSans-2022" transform="translate(857.207031 0)"/>
       <use xlink:href="#DejaVuSans-20" transform="translate(916.191406 0)"/>
       <use xlink:href="#DejaVuSans-4d" transform="translate(947.978516 0)"/>
       <use xlink:href="#DejaVuSans-61" transform="translate(1034.257812 0)"/>
       <use xlink:href="#DejaVuSans-74" transform="translate(1095.537109 0)"/>
       <use xlink:href="#DejaVuSans-72" transform="translate(1134.746094 0)"/>
       <use xlink:href="#DejaVuSans-69" transform="translate(1175.859375 0)"/>
       <use xlink:href="#DejaVuSans-78" transform="translate(1203.642578 0)"/>
       <use xlink:href="#DejaVuSans-20" transform="translate(1262.822266 0)"/>
       <use xlink:href="#DejaVuSans-46" transform="translate(1294.609375 0)"/>
       <use xlink:href="#DejaVuSans-61" transform="translate(1343.003906 0)"/>
       <use xlink:href="#DejaVuSans-63" transform="translate(1404.283203 0)"/>
       <use xlink:href="#DejaVuSans-74" transform="translate(1459.263672 0)"/>
       <use xlink:href="#DejaVuSans-6f" transform="translate(1498.472656 0)"/>
       <use xlink:href="#DejaVuSans-72" transform="translate(1559.654297 0)"/>
       <use xlink:href="#DejaVuSans-69" transform="translate(1600.767578 0)"/>
       <use xlink:href="#DejaVuSans-7a" transform="translate(1628.550781 0)"/>
       <use xlink:href="#DejaVuSans-61" transform="translate(1681.041016 0)"/>
       <use xlink:href="#DejaVuSans-74" transform="translate(1742.320312 0)"/>
       <use xlink:href="#DejaVuSans-69" transform="translate(1781.529297 0)"/>
       <use xlink:href="#DejaVuSans-6f" transform="translate(1809.3125 0)"/>
       <use xlink:href="#DejaVuSans-6e" transform="translate(1870.494141 0)"/>
      </g>
      <!-- 0.1→0.2 -->
      <g transform="translate(164.564063 223.781086) scale(0.1 -0.1)">
       <use xlink:href="#DejaVuSans-30"/>
       <use xlink:href="#DejaVuSans-2e" transform="translate(63.623047 0)"/>
       <use xlink:href="#DejaVuSans-31" transform="translate(95.410156 0)"/>
       <use xlink:href="#DejaVuSans-2192" transform="translate(159.033203 0)"/>
       <use xlink:href="#DejaVuSans-30" transform="translate(242.822266 0)"/>
       <use xlink:href="#DejaVuSans-2e" transform="translate(306.445312 0)"/>
       <use xlink:href="#DejaVuSans-32" transform="translate(338.232422 0)"/>
      </g>
     </g>
    </g>
    <g id="ytick_6">
     <g id="line2d_14">
      <g>
       <use xlink:href="#m259fe2c9f3" x="211.75" y="253.662078" style="stroke: #000000; stroke-width: 0.8"/>
      </g>
     </g>
     <g id="text_15">
      <!-- QSAR • MNAR • MICE -->
      <g transform="translate(97.265625 252.622234) scale(0.1 -0.1)">
       <defs>
        <path id="DejaVuSans-51" d="M 2522 4238 
Q 1834 4238 1429 3725 
Q 1025 3213 1025 2328 
Q 1025 1447 1429 934 
Q 1834 422 2522 422 
Q 3209 422 3611 934 
Q 4013 1447 4013 2328 
Q 4013 3213 3611 3725 
Q 3209 4238 2522 4238 
z
M 3406 84 
L 4238 -825 
L 3475 -825 
L 2784 -78 
Q 2681 -84 2626 -87 
Q 2572 -91 2522 -91 
Q 1538 -91 948 567 
Q 359 1225 359 2328 
Q 359 3434 948 4092 
Q 1538 4750 2522 4750 
Q 3503 4750 4090 4092 
Q 4678 3434 4678 2328 
Q 4678 1516 4351 937 
Q 4025 359 3406 84 
z
" transform="scale(0.015625)"/>
       </defs>
       <use xlink:href="#DejaVuSans-51"/>
       <use xlink:href="#DejaVuSans-53" transform="translate(78.710938 0)"/>
       <use xlink:href="#DejaVuSans-41" transform="translate(144.0625 0)"/>
       <use xlink:href="#DejaVuSans-52" transform="translate(212.470703 0)"/>
       <use xlink:href="#DejaVuSans-20" transform="translate(281.953125 0)"/>
       <use xlink:href="#DejaVuSans-2022" transform="translate(313.740234 0)"/>
       <use xlink:href="#DejaVuSans-20" transform="translate(372.724609 0)"/>
       <use xlink:href="#DejaVuSans-4d" transform="translate(404.511719 0)"/>
       <use xlink:href="#DejaVuSans-4e" transform="translate(490.791016 0)"/>
       <use xlink:href="#DejaVuSans-41" transform="translate(565.595703 0)"/>
       <use xlink:href="#DejaVuSans-52" transform="translate(634.003906 0)"/>
       <use xlink:href="#DejaVuSans-20" transform="translate(703.486328 0)"/>
       <use xlink:href="#DejaVuSans-2022" transform="translate(735.273438 0)"/>
       <use xlink:href="#DejaVuSans-20" transform="translate(794.257812 0)"/>
       <use xlink:href="#DejaVuSans-4d" transform="translate(826.044922 0)"/>
       <use xlink:href="#DejaVuSans-49" transform="translate(912.324219 0)"/>
       <use xlink:href="#DejaVuSans-43" transform="translate(941.816406 0)"/>
       <use xlink:href="#DejaVuSans-45" transform="translate(1011.640625 0)"/>
      </g>
      <!-- 0.3→0.4 -->
      <g transform="translate(164.564063 263.820047) scale(0.1 -0.1)">
       <use xlink:href="#DejaVuSans-30"/>
       <use xlink:href="#DejaVuSans-2e" transform="translate(63.623047 0)"/>
       <use xlink:href="#DejaVuSans-33" transform="translate(95.410156 0)"/>
       <use xlink:href="#DejaVuSans-2192" transform="translate(159.033203 0)"/>
       <use xlink:href="#DejaVuSans-30" transform="translate(242.822266 0)"/>
       <use xlink:href="#DejaVuSans-2e" transform="translate(306.445312 0)"/>
       <use xlink:href="#DejaVuSans-34" transform="translate(338.232422 0)"/>
      </g>
     </g>
    </g>
    <g id="ytick_7">
     <g id="line2d_15">
      <g>
       <use xlink:href="#m259fe2c9f3" x="211.75" y="293.701039" style="stroke: #000000; stroke-width: 0.8"/>
      </g>
     </g>
     <g id="text_16">
      <!-- QSAR • MCAR • Sudoku -->
      <g transform="translate(85.675 292.661195) scale(0.1 -0.1)">
       <use xlink:href="#DejaVuSans-51"/>
       <use xlink:href="#DejaVuSans-53" transform="translate(78.710938 0)"/>
       <use xlink:href="#DejaVuSans-41" transform="translate(144.0625 0)"/>
       <use xlink:href="#DejaVuSans-52" transform="translate(212.470703 0)"/>
       <use xlink:href="#DejaVuSans-20" transform="translate(281.953125 0)"/>
       <use xlink:href="#DejaVuSans-2022" transform="translate(313.740234 0)"/>
       <use xlink:href="#DejaVuSans-20" transform="translate(372.724609 0)"/>
       <use xlink:href="#DejaVuSans-4d" transform="translate(404.511719 0)"/>
       <use xlink:href="#DejaVuSans-43" transform="translate(490.791016 0)"/>
       <use xlink:href="#DejaVuSans-41" transform="translate(560.615234 0)"/>
       <use xlink:href="#DejaVuSans-52" transform="translate(629.023438 0)"/>
       <use xlink:href="#DejaVuSans-20" transform="translate(698.505859 0)"/>
       <use xlink:href="#DejaVuSans-2022" transform="translate(730.292969 0)"/>
       <use xlink:href="#DejaVuSans-20" transform="translate(789.277344 0)"/>
       <use xlink:href="#DejaVuSans-53" transform="translate(821.064453 0)"/>
       <use xlink:href="#DejaVuSans-75" transform="translate(884.541016 0)"/>
       <use xlink:href="#DejaVuSans-64" transform="translate(947.919922 0)"/>
       <use xlink:href="#DejaVuSans-6f" transform="translate(1011.396484 0)"/>
       <use xlink:href="#DejaVuSans-6b" transform="translate(1072.578125 0)"/>
       <use xlink:href="#DejaVuSans-75" transform="translate(1127.363281 0)"/>
      </g>
      <!-- 0.4→0.5 -->
      <g transform="translate(164.564062 303.859008) scale(0.1 -0.1)">
       <use xlink:href="#DejaVuSans-30"/>
       <use xlink:href="#DejaVuSans-2e" transform="translate(63.623047 0)"/>
       <use xlink:href="#DejaVuSans-34" transform="translate(95.410156 0)"/>
       <use xlink:href="#DejaVuSans-2192" transform="translate(159.033203 0)"/>
       <use xlink:href="#DejaVuSans-30" transform="translate(242.822266 0)"/>
       <use xlink:href="#DejaVuSans-2e" transform="translate(306.445312 0)"/>
       <use xlink:href="#DejaVuSans-35" transform="translate(338.232422 0)"/>
      </g>
     </g>
    </g>
    <g id="ytick_8">
     <g id="line2d_16">
      <g>
       <use xlink:href="#m259fe2c9f3" x="211.75" y="333.74" style="stroke: #000000; stroke-width: 0.8"/>
      </g>
     </g>
     <g id="text_17">
      <!-- EEG • MAR • SoftImpute -->
      <g transform="translate(82.254687 332.700156) scale(0.1 -0.1)">
       <use xlink:href="#DejaVuSans-45"/>
       <use xlink:href="#DejaVuSans-45" transform="translate(63.183594 0)"/>
       <use xlink:href="#DejaVuSans-47" transform="translate(126.367188 0)"/>
       <use xlink:href="#DejaVuSans-20" transform="translate(203.857422 0)"/>
       <use xlink:href="#DejaVuSans-2022" transform="translate(235.644531 0)"/>
       <use xlink:href="#DejaVuSans-20" transform="translate(294.628906 0)"/>
       <use xlink:href="#DejaVuSans-4d" transform="translate(326.416016 0)"/>
       <use xlink:href="#DejaVuSans-41" transform="translate(412.695312 0)"/>
       <use xlink:href="#DejaVuSans-52" transform="translate(481.103516 0)"/>
       <use xlink:href="#DejaVuSans-20" transform="translate(550.585938 0)"/>
       <use xlink:href="#DejaVuSans-2022" transform="translate(582.373047 0)"/>
       <use xlink:href="#DejaVuSans-20" transform="translate(641.357422 0)"/>
       <use xlink:href="#DejaVuSans-53" transform="translate(673.144531 0)"/>
       <use xlink:href="#DejaVuSans-6f" transform="translate(736.621094 0)"/>
       <use xlink:href="#DejaVuSans-66" transform="translate(797.802734 0)"/>
       <use xlink:href="#DejaVuSans-74" transform="translate(831.257812 0)"/>
       <use xlink:href="#DejaVuSans-49" transform="translate(870.466797 0)"/>
       <use xlink:href="#DejaVuSans-6d" transform="translate(899.958984 0)"/>
       <use xlink:href="#DejaVuSans-70" transform="translate(997.371094 0)"/>
       <use xlink:href="#DejaVuSans-75" transform="translate(1060.847656 0)"/>
       <use xlink:href="#DejaVuSans-74" transform="translate(1124.226562 0)"/>
       <use xlink:href="#DejaVuSans-65" transform="translate(1163.435547 0)"/>
      </g>
      <!-- 0.1→0.2 -->
      <g transform="translate(164.564063 343.897969) scale(0.1 -0.1)">
       <use xlink:href="#DejaVuSans-30"/>
       <use xlink:href="#DejaVuSans-2e" transform="translate(63.623047 0)"/>
       <use xlink:href="#DejaVuSans-31" transform="translate(95.410156 0)"/>
       <use xlink:href="#DejaVuSans-2192" transform="translate(159.033203 0)"/>
       <use xlink:href="#DejaVuSans-30" transform="translate(242.822266 0)"/>
       <use xlink:href="#DejaVuSans-2e" transform="translate(306.445312 0)"/>
       <use xlink:href="#DejaVuSans-32" transform="translate(338.232422 0)"/>
      </g>
     </g>
    </g>
    <g id="ytick_9">
     <g id="line2d_17">
      <g>
       <use xlink:href="#m259fe2c9f3" x="211.75" y="373.778961" style="stroke: #000000; stroke-width: 0.8"/>
      </g>
     </g>
     <g id="text_18">
      <!-- EEG • MAR • Matrix Factorization -->
      <g transform="translate(38.85 372.739117) scale(0.1 -0.1)">
       <use xlink:href="#DejaVuSans-45"/>
       <use xlink:href="#DejaVuSans-45" transform="translate(63.183594 0)"/>
       <use xlink:href="#DejaVuSans-47" transform="translate(126.367188 0)"/>
       <use xlink:href="#DejaVuSans-20" transform="translate(203.857422 0)"/>
       <use xlink:href="#DejaVuSans-2022" transform="translate(235.644531 0)"/>
       <use xlink:href="#DejaVuSans-20" transform="translate(294.628906 0)"/>
       <use xlink:href="#DejaVuSans-4d" transform="translate(326.416016 0)"/>
       <use xlink:href="#DejaVuSans-41" transform="translate(412.695312 0)"/>
       <use xlink:href="#DejaVuSans-52" transform="translate(481.103516 0)"/>
       <use xlink:href="#DejaVuSans-20" transform="translate(550.585938 0)"/>
       <use xlink:href="#DejaVuSans-2022" transform="translate(582.373047 0)"/>
       <use xlink:href="#DejaVuSans-20" transform="translate(641.357422 0)"/>
       <use xlink:href="#DejaVuSans-4d" transform="translate(673.144531 0)"/>
       <use xlink:href="#DejaVuSans-61" transform="translate(759.423828 0)"/>
       <use xlink:href="#DejaVuSans-74" transform="translate(820.703125 0)"/>
       <use xlink:href="#DejaVuSans-72" transform="translate(859.912109 0)"/>
       <use xlink:href="#DejaVuSans-69" transform="translate(901.025391 0)"/>
       <use xlink:href="#DejaVuSans-78" transform="translate(928.808594 0)"/>
       <use xlink:href="#DejaVuSans-20" transform="translate(987.988281 0)"/>
       <use xlink:href="#DejaVuSans-46" transform="translate(1019.775391 0)"/>
       <use xlink:href="#DejaVuSans-61" transform="translate(1068.169922 0)"/>
       <use xlink:href="#DejaVuSans-63" transform="translate(1129.449219 0)"/>
       <use xlink:href="#DejaVuSans-74" transform="translate(1184.429688 0)"/>
       <use xlink:href="#DejaVuSans-6f" transform="translate(1223.638672 0)"/>
       <use xlink:href="#DejaVuSans-72" transform="translate(1284.820312 0)"/>
       <use xlink:href="#DejaVuSans-69" transform="translate(1325.933594 0)"/>
       <use xlink:href="#DejaVuSans-7a" transform="translate(1353.716797 0)"/>
       <use xlink:href="#DejaVuSans-61" transform="translate(1406.207031 0)"/>
       <use xlink:href="#DejaVuSans-74" transform="translate(1467.486328 0)"/>
       <use xlink:href="#DejaVuSans-69" transform="translate(1506.695312 0)"/>
       <use xlink:href="#DejaVuSans-6f" transform="translate(1534.478516 0)"/>
       <use xlink:href="#DejaVuSans-6e" transform="translate(1595.660156 0)"/>
      </g>
      <!-- 0.3→0.4 -->
      <g transform="translate(164.564063 383.93693) scale(0.1 -0.1)">
       <use xlink:href="#DejaVuSans-30"/>
       <use xlink:href="#DejaVuSans-2e" transform="translate(63.623047 0)"/>
       <use xlink:href="#DejaVuSans-33" transform="translate(95.410156 0)"/>
       <use xlink:href="#DejaVuSans-2192" transform="translate(159.033203 0)"/>
       <use xlink:href="#DejaVuSans-30" transform="translate(242.822266 0)"/>
       <use xlink:href="#DejaVuSans-2e" transform="translate(306.445312 0)"/>
       <use xlink:href="#DejaVuSans-34" transform="translate(338.232422 0)"/>
      </g>
     </g>
    </g>
    <g id="ytick_10">
     <g id="line2d_18">
      <g>
       <use xlink:href="#m259fe2c9f3" x="211.75" y="413.817922" style="stroke: #000000; stroke-width: 0.8"/>
      </g>
     </g>
     <g id="text_19">
      <!-- EEG • MCAR • MICE -->
      <g transform="translate(105.575 412.778078) scale(0.1 -0.1)">
       <use xlink:href="#DejaVuSans-45"/>
       <use xlink:href="#DejaVuSans-45" transform="translate(63.183594 0)"/>
       <use xlink:href="#DejaVuSans-47" transform="translate(126.367188 0)"/>
       <use xlink:href="#DejaVuSans-20" transform="translate(203.857422 0)"/>
       <use xlink:href="#DejaVuSans-2022" transform="translate(235.644531 0)"/>
       <use xlink:href="#DejaVuSans-20" transform="translate(294.628906 0)"/>
       <use xlink:href="#DejaVuSans-4d" transform="translate(326.416016 0)"/>
       <use xlink:href="#DejaVuSans-43" transform="translate(412.695312 0)"/>
       <use xlink:href="#DejaVuSans-41" transform="translate(482.519531 0)"/>
       <use xlink:href="#DejaVuSans-52" transform="translate(550.927734 0)"/>
       <use xlink:href="#DejaVuSans-20" transform="translate(620.410156 0)"/>
       <use xlink:href="#DejaVuSans-2022" transform="translate(652.197266 0)"/>
       <use xlink:href="#DejaVuSans-20" transform="translate(711.181641 0)"/>
       <use xlink:href="#DejaVuSans-4d" transform="translate(742.96875 0)"/>
       <use xlink:href="#DejaVuSans-49" transform="translate(829.248047 0)"/>
       <use xlink:href="#DejaVuSans-43" transform="translate(858.740234 0)"/>
       <use xlink:href="#DejaVuSans-45" transform="translate(928.564453 0)"/>
      </g>
      <!-- 0.2→0.3 -->
      <g transform="translate(164.564063 423.975891) scale(0.1 -0.1)">
       <use xlink:href="#DejaVuSans-30"/>
       <use xlink:href="#DejaVuSans-2e" transform="translate(63.623047 0)"/>
       <use xlink:href="#DejaVuSans-32" transform="translate(95.410156 0)"/>
       <use xlink:href="#DejaVuSans-2192" transform="translate(159.033203 0)"/>
       <use xlink:href="#DejaVuSans-30" transform="translate(242.822266 0)"/>
       <use xlink:href="#DejaVuSans-2e" transform="translate(306.445312 0)"/>
       <use xlink:href="#DejaVuSans-33" transform="translate(338.232422 0)"/>
      </g>
     </g>
    </g>
    <g id="ytick_11">
     <g id="line2d_19">
      <g>
       <use xlink:href="#m259fe2c9f3" x="211.75" y="453.856883" style="stroke: #000000; stroke-width: 0.8"/>
      </g>
     </g>
     <g id="text_20">
      <!-- EEG • MAR • MICE -->
      <g transform="translate(112.557812 452.817039) scale(0.1 -0.1)">
       <use xlink:href="#DejaVuSans-45"/>
       <use xlink:href="#DejaVuSans-45" transform="translate(63.183594 0)"/>
       <use xlink:href="#DejaVuSans-47" transform="translate(126.367188 0)"/>
       <use xlink:href="#DejaVuSans-20" transform="translate(203.857422 0)"/>
       <use xlink:href="#DejaVuSans-2022" transform="translate(235.644531 0)"/>
       <use xlink:href="#DejaVuSans-20" transform="translate(294.628906 0)"/>
       <use xlink:href="#DejaVuSans-4d" transform="translate(326.416016 0)"/>
       <use xlink:href="#DejaVuSans-41" transform="translate(412.695312 0)"/>
       <use xlink:href="#DejaVuSans-52" transform="translate(481.103516 0)"/>
       <use xlink:href="#DejaVuSans-20" transform="translate(550.585938 0)"/>
       <use xlink:href="#DejaVuSans-2022" transform="translate(582.373047 0)"/>
       <use xlink:href="#DejaVuSans-20" transform="translate(641.357422 0)"/>
       <use xlink:href="#DejaVuSans-4d" transform="translate(673.144531 0)"/>
       <use xlink:href="#DejaVuSans-49" transform="translate(759.423828 0)"/>
       <use xlink:href="#DejaVuSans-43" transform="translate(788.916016 0)"/>
       <use xlink:href="#DejaVuSans-45" transform="translate(858.740234 0)"/>
      </g>
      <!-- 0.2→0.3 -->
      <g transform="translate(164.564063 464.014852) scale(0.1 -0.1)">
       <use xlink:href="#DejaVuSans-30"/>
       <use xlink:href="#DejaVuSans-2e" transform="translate(63.623047 0)"/>
       <use xlink:href="#DejaVuSans-32" transform="translate(95.410156 0)"/>
       <use xlink:href="#DejaVuSans-2192" transform="translate(159.033203 0)"/>
       <use xlink:href="#DejaVuSans-30" transform="translate(242.822266 0)"/>
       <use xlink:href="#DejaVuSans-2e" transform="translate(306.445312 0)"/>
       <use xlink:href="#DejaVuSans-33" transform="translate(338.232422 0)"/>
      </g>
     </g>
    </g>
    <g id="ytick_12">
     <g id="line2d_20">
      <g>
       <use xlink:href="#m259fe2c9f3" x="211.75" y="493.895844" style="stroke: #000000; stroke-width: 0.8"/>
      </g>
     </g>
     <g id="text_21">
      <!-- QSAR • MNAR • MICE -->
      <g transform="translate(97.265625 492.856) scale(0.1 -0.1)">
       <use xlink:href="#DejaVuSans-51"/>
       <use xlink:href="#DejaVuSans-53" transform="translate(78.710938 0)"/>
       <use xlink:href="#DejaVuSans-41" transform="translate(144.0625 0)"/>
       <use xlink:href="#DejaVuSans-52" transform="translate(212.470703 0)"/>
       <use xlink:href="#DejaVuSans-20" transform="translate(281.953125 0)"/>
       <use xlink:href="#DejaVuSans-2022" transform="translate(313.740234 0)"/>
       <use xlink:href="#DejaVuSans-20" transform="translate(372.724609 0)"/>
       <use xlink:href="#DejaVuSans-4d" transform="translate(404.511719 0)"/>
       <use xlink:href="#DejaVuSans-4e" transform="translate(490.791016 0)"/>
       <use xlink:href="#DejaVuSans-41" transform="translate(565.595703 0)"/>
       <use xlink:href="#DejaVuSans-52" transform="translate(634.003906 0)"/>
       <use xlink:href="#DejaVuSans-20" transform="translate(703.486328 0)"/>
       <use xlink:href="#DejaVuSans-2022" transform="translate(735.273438 0)"/>
       <use xlink:href="#DejaVuSans-20" transform="translate(794.257812 0)"/>
       <use xlink:href="#DejaVuSans-4d" transform="translate(826.044922 0)"/>
       <use xlink:href="#DejaVuSans-49" transform="translate(912.324219 0)"/>
       <use xlink:href="#DejaVuSans-43" transform="translate(941.816406 0)"/>
       <use xlink:href="#DejaVuSans-45" transform="translate(1011.640625 0)"/>
      </g>
      <!-- 0.4→0.5 -->
      <g transform="translate(164.564063 504.053813) scale(0.1 -0.1)">
       <use xlink:href="#DejaVuSans-30"/>
       <use xlink:href="#DejaVuSans-2e" transform="translate(63.623047 0)"/>
       <use xlink:href="#DejaVuSans-34" transform="translate(95.410156 0)"/>
       <use xlink:href="#DejaVuSans-2192" transform="translate(159.033203 0)"/>
       <use xlink:href="#DejaVuSans-30" transform="translate(242.822266 0)"/>
       <use xlink:href="#DejaVuSans-2e" transform="translate(306.445312 0)"/>
       <use xlink:href="#DejaVuSans-35" transform="translate(338.232422 0)"/>
      </g>
     </g>
    </g>
    <g id="ytick_13">
     <g id="line2d_21">
      <g>
       <use xlink:href="#m259fe2c9f3" x="211.75" y="533.934805" style="stroke: #000000; stroke-width: 0.8"/>
      </g>
     </g>
     <g id="text_22">
      <!-- ARCENE • MCAR • MICE -->
      <g transform="translate(85.570312 532.894961) scale(0.1 -0.1)">
       <use xlink:href="#DejaVuSans-41"/>
       <use xlink:href="#DejaVuSans-52" transform="translate(68.408203 0)"/>
       <use xlink:href="#DejaVuSans-43" transform="translate(132.890625 0)"/>
       <use xlink:href="#DejaVuSans-45" transform="translate(202.714844 0)"/>
       <use xlink:href="#DejaVuSans-4e" transform="translate(265.898438 0)"/>
       <use xlink:href="#DejaVuSans-45" transform="translate(340.703125 0)"/>
       <use xlink:href="#DejaVuSans-20" transform="translate(403.886719 0)"/>
       <use xlink:href="#DejaVuSans-2022" transform="translate(435.673828 0)"/>
       <use xlink:href="#DejaVuSans-20" transform="translate(494.658203 0)"/>
       <use xlink:href="#DejaVuSans-4d" transform="translate(526.445312 0)"/>
       <use xlink:href="#DejaVuSans-43" transform="translate(612.724609 0)"/>
       <use xlink:href="#DejaVuSans-41" transform="translate(682.548828 0)"/>
       <use xlink:href="#DejaVuSans-52" transform="translate(750.957031 0)"/>
       <use xlink:href="#DejaVuSans-20" transform="translate(820.439453 0)"/>
       <use xlink:href="#DejaVuSans-2022" transform="translate(852.226562 0)"/>
       <use xlink:href="#DejaVuSans-20" transform="translate(911.210938 0)"/>
       <use xlink:href="#DejaVuSans-4d" transform="translate(942.998047 0)"/>
       <use xlink:href="#DejaVuSans-49" transform="translate(1029.277344 0)"/>
       <use xlink:href="#DejaVuSans-43" transform="translate(1058.769531 0)"/>
       <use xlink:href="#DejaVuSans-45" transform="translate(1128.59375 0)"/>
      </g>
      <!-- 0.4→0.5 -->
      <g transform="translate(164.564063 544.092774) scale(0.1 -0.1)">
       <use xlink:href="#DejaVuSans-30"/>
       <use xlink:href="#DejaVuSans-2e" transform="translate(63.623047 0)"/>
       <use xlink:href="#DejaVuSans-34" transform="translate(95.410156 0)"/>
       <use xlink:href="#DejaVuSans-2192" transform="translate(159.033203 0)"/>
       <use xlink:href="#DejaVuSans-30" transform="translate(242.822266 0)"/>
       <use xlink:href="#DejaVuSans-2e" transform="translate(306.445312 0)"/>
       <use xlink:href="#DejaVuSans-35" transform="translate(338.232422 0)"/>
      </g>
     </g>
    </g>
    <g id="ytick_14">
     <g id="line2d_22">
      <g>
       <use xlink:href="#m259fe2c9f3" x="211.75" y="573.973766" style="stroke: #000000; stroke-width: 0.8"/>
      </g>
     </g>
     <g id="text_23">
      <!-- ARCENE • MNAR • Sudoku -->
      <g transform="translate(72.982812 572.933922) scale(0.1 -0.1)">
       <use xlink:href="#DejaVuSans-41"/>
       <use xlink:href="#DejaVuSans-52" transform="translate(68.408203 0)"/>
       <use xlink:href="#DejaVuSans-43" transform="translate(132.890625 0)"/>
       <use xlink:href="#DejaVuSans-45" transform="translate(202.714844 0)"/>
       <use xlink:href="#DejaVuSans-4e" transform="translate(265.898438 0)"/>
       <use xlink:href="#DejaVuSans-45" transform="translate(340.703125 0)"/>
       <use xlink:href="#DejaVuSans-20" transform="translate(403.886719 0)"/>
       <use xlink:href="#DejaVuSans-2022" transform="translate(435.673828 0)"/>
       <use xlink:href="#DejaVuSans-20" transform="translate(494.658203 0)"/>
       <use xlink:href="#DejaVuSans-4d" transform="translate(526.445312 0)"/>
       <use xlink:href="#DejaVuSans-4e" transform="translate(612.724609 0)"/>
       <use xlink:href="#DejaVuSans-41" transform="translate(687.529297 0)"/>
       <use xlink:href="#DejaVuSans-52" transform="translate(755.9375 0)"/>
       <use xlink:href="#DejaVuSans-20" transform="translate(825.419922 0)"/>
       <use xlink:href="#DejaVuSans-2022" transform="translate(857.207031 0)"/>
       <use xlink:href="#DejaVuSans-20" transform="translate(916.191406 0)"/>
       <use xlink:href="#DejaVuSans-53" transform="translate(947.978516 0)"/>
       <use xlink:href="#DejaVuSans-75" transform="translate(1011.455078 0)"/>
       <use xlink:href="#DejaVuSans-64" transform="translate(1074.833984 0)"/>
       <use xlink:href="#DejaVuSans-6f" transform="translate(1138.310547 0)"/>
       <use xlink:href="#DejaVuSans-6b" transform="translate(1199.492188 0)"/>
       <use xlink:href="#DejaVuSans-75" transform="translate(1254.277344 0)"/>
      </g>
      <!-- 0.1→0.2 -->
      <g transform="translate(164.564063 584.131735) scale(0.1 -0.1)">
       <use xlink:href="#DejaVuSans-30"/>
       <use xlink:href="#DejaVuSans-2e" transform="translate(63.623047 0)"/>
       <use xlink:href="#DejaVuSans-31" transform="translate(95.410156 0)"/>
       <use xlink:href="#DejaVuSans-2192" transform="translate(159.033203 0)"/>
       <use xlink:href="#DejaVuSans-30" transform="translate(242.822266 0)"/>
       <use xlink:href="#DejaVuSans-2e" transform="translate(306.445312 0)"/>
       <use xlink:href="#DejaVuSans-32" transform="translate(338.232422 0)"/>
      </g>
     </g>
    </g>
    <g id="ytick_15">
     <g id="line2d_23">
      <g>
       <use xlink:href="#m259fe2c9f3" x="211.75" y="614.012727" style="stroke: #000000; stroke-width: 0.8"/>
      </g>
     </g>
     <g id="text_24">
      <!-- EEG • MCAR • SoftImpute -->
      <g transform="translate(75.271875 612.972884) scale(0.1 -0.1)">
       <use xlink:href="#DejaVuSans-45"/>
       <use xlink:href="#DejaVuSans-45" transform="translate(63.183594 0)"/>
       <use xlink:href="#DejaVuSans-47" transform="translate(126.367188 0)"/>
       <use xlink:href="#DejaVuSans-20" transform="translate(203.857422 0)"/>
       <use xlink:href="#DejaVuSans-2022" transform="translate(235.644531 0)"/>
       <use xlink:href="#DejaVuSans-20" transform="translate(294.628906 0)"/>
       <use xlink:href="#DejaVuSans-4d" transform="translate(326.416016 0)"/>
       <use xlink:href="#DejaVuSans-43" transform="translate(412.695312 0)"/>
       <use xlink:href="#DejaVuSans-41" transform="translate(482.519531 0)"/>
       <use xlink:href="#DejaVuSans-52" transform="translate(550.927734 0)"/>
       <use xlink:href="#DejaVuSans-20" transform="translate(620.410156 0)"/>
       <use xlink:href="#DejaVuSans-2022" transform="translate(652.197266 0)"/>
       <use xlink:href="#DejaVuSans-20" transform="translate(711.181641 0)"/>
       <use xlink:href="#DejaVuSans-53" transform="translate(742.96875 0)"/>
       <use xlink:href="#DejaVuSans-6f" transform="translate(806.445312 0)"/>
       <use xlink:href="#DejaVuSans-66" transform="translate(867.626953 0)"/>
       <use xlink:href="#DejaVuSans-74" transform="translate(901.082031 0)"/>
       <use xlink:href="#DejaVuSans-49" transform="translate(940.291016 0)"/>
       <use xlink:href="#DejaVuSans-6d" transform="translate(969.783203 0)"/>
       <use xlink:href="#DejaVuSans-70" transform="translate(1067.195312 0)"/>
       <use xlink:href="#DejaVuSans-75" transform="translate(1130.671875 0)"/>
       <use xlink:href="#DejaVuSans-74" transform="translate(1194.050781 0)"/>
       <use xlink:href="#DejaVuSans-65" transform="translate(1233.259766 0)"/>
      </g>
      <!-- 0.1→0.2 -->
      <g transform="translate(164.564063 624.170696) scale(0.1 -0.1)">
       <use xlink:href="#DejaVuSans-30"/>
       <use xlink:href="#DejaVuSans-2e" transform="translate(63.623047 0)"/>
       <use xlink:href="#DejaVuSans-31" transform="translate(95.410156 0)"/>
       <use xlink:href="#DejaVuSans-2192" transform="translate(159.033203 0)"/>
       <use xlink:href="#DejaVuSans-30" transform="translate(242.822266 0)"/>
       <use xlink:href="#DejaVuSans-2e" transform="translate(306.445312 0)"/>
       <use xlink:href="#DejaVuSans-32" transform="translate(338.232422 0)"/>
      </g>
     </g>
    </g>
   </g>
   <g id="LineCollection_1">
    <path d="M 234.084663 53.467273 
L 680.777915 53.467273 
" clip-path="url(#pcce018ca6b)" style="fill: none; stroke: #1f77b4; stroke-width: 1.5"/>
    <path d="M 234.084663 93.506234 
L 483.802478 93.506234 
" clip-path="url(#pcce018ca6b)" style="fill: none; stroke: #1f77b4; stroke-width: 1.5"/>
    <path d="M 234.084663 133.545195 
L 404.854543 133.545195 
" clip-path="url(#pcce018ca6b)" style="fill: none; stroke: #1f77b4; stroke-width: 1.5"/>
    <path d="M 234.084663 173.584156 
L 361.05304 173.584156 
" clip-path="url(#pcce018ca6b)" style="fill: none; stroke: #1f77b4; stroke-width: 1.5"/>
    <path d="M 234.084663 213.623117 
L 337.776785 213.623117 
" clip-path="url(#pcce018ca6b)" style="fill: none; stroke: #1f77b4; stroke-width: 1.5"/>
    <path d="M 234.084663 253.662078 
L 333.404006 253.662078 
" clip-path="url(#pcce018ca6b)" style="fill: none; stroke: #1f77b4; stroke-width: 1.5"/>
    <path d="M 234.084663 293.701039 
L 333.177637 293.701039 
" clip-path="url(#pcce018ca6b)" style="fill: none; stroke: #1f77b4; stroke-width: 1.5"/>
    <path d="M 234.084663 333.74 
L 326.674199 333.74 
" clip-path="url(#pcce018ca6b)" style="fill: none; stroke: #1f77b4; stroke-width: 1.5"/>
    <path d="M 234.084663 373.778961 
L 319.048694 373.778961 
" clip-path="url(#pcce018ca6b)" style="fill: none; stroke: #1f77b4; stroke-width: 1.5"/>
    <path d="M 234.084663 413.817922 
L 317.650154 413.817922 
" clip-path="url(#pcce018ca6b)" style="fill: none; stroke: #1f77b4; stroke-width: 1.5"/>
    <path d="M 234.084663 453.856883 
L 308.603852 453.856883 
" clip-path="url(#pcce018ca6b)" style="fill: none; stroke: #1f77b4; stroke-width: 1.5"/>
    <path d="M 234.084663 493.895844 
L 308.412856 493.895844 
" clip-path="url(#pcce018ca6b)" style="fill: none; stroke: #1f77b4; stroke-width: 1.5"/>
    <path d="M 234.084663 533.934805 
L 307.561792 533.934805 
" clip-path="url(#pcce018ca6b)" style="fill: none; stroke: #1f77b4; stroke-width: 1.5"/>
    <path d="M 234.084663 573.973766 
L 305.326826 573.973766 
" clip-path="url(#pcce018ca6b)" style="fill: none; stroke: #1f77b4; stroke-width: 1.5"/>
    <path d="M 234.084663 614.012727 
L 305.242809 614.012727 
" clip-path="url(#pcce018ca6b)" style="fill: none; stroke: #1f77b4; stroke-width: 1.5"/>
   </g>
   <g id="line2d_24">
    <defs>
     <path id="md3078a7436" d="M 0 3 
C 0.795609 3 1.55874 2.683901 2.12132 2.12132 
C 2.683901 1.55874 3 0.795609 3 0 
C 3 -0.795609 2.683901 -1.55874 2.12132 -2.12132 
C 1.55874 -2.683901 0.795609 -3 0 -3 
C -0.795609 -3 -1.55874 -2.683901 -2.12132 -2.12132 
C -2.683901 -1.55874 -3 -0.795609 -3 0 
C -3 0.795609 -2.683901 1.55874 -2.12132 2.12132 
C -1.55874 2.683901 -0.795609 3 0 3 
z
" style="stroke: #1f77b4"/>
    </defs>
    <g clip-path="url(#pcce018ca6b)">
     <use xlink:href="#md3078a7436" x="680.777915" y="53.467273" style="fill: #1f77b4; stroke: #1f77b4"/>
     <use xlink:href="#md3078a7436" x="483.802478" y="93.506234" style="fill: #1f77b4; stroke: #1f77b4"/>
     <use xlink:href="#md3078a7436" x="404.854543" y="133.545195" style="fill: #1f77b4; stroke: #1f77b4"/>
     <use xlink:href="#md3078a7436" x="361.05304" y="173.584156" style="fill: #1f77b4; stroke: #1f77b4"/>
     <use xlink:href="#md3078a7436" x="337.776785" y="213.623117" style="fill: #1f77b4; stroke: #1f77b4"/>
     <use xlink:href="#md3078a7436" x="333.404006" y="253.662078" style="fill: #1f77b4; stroke: #1f77b4"/>
     <use xlink:href="#md3078a7436" x="333.177637" y="293.701039" style="fill: #1f77b4; stroke: #1f77b4"/>
     <use xlink:href="#md3078a7436" x="326.674199" y="333.74" style="fill: #1f77b4; stroke: #1f77b4"/>
     <use xlink:href="#md3078a7436" x="319.048694" y="373.778961" style="fill: #1f77b4; stroke: #1f77b4"/>
     <use xlink:href="#md3078a7436" x="317.650154" y="413.817922" style="fill: #1f77b4; stroke: #1f77b4"/>
     <use xlink:href="#md3078a7436" x="308.603852" y="453.856883" style="fill: #1f77b4; stroke: #1f77b4"/>
     <use xlink:href="#md3078a7436" x="308.412856" y="493.895844" style="fill: #1f77b4; stroke: #1f77b4"/>
     <use xlink:href="#md3078a7436" x="307.561792" y="533.934805" style="fill: #1f77b4; stroke: #1f77b4"/>
     <use xlink:href="#md3078a7436" x="305.326826" y="573.973766" style="fill: #1f77b4; stroke: #1f77b4"/>
     <use xlink:href="#md3078a7436" x="305.242809" y="614.012727" style="fill: #1f77b4; stroke: #1f77b4"/>
    </g>
   </g>
   <g id="patch_3">
    <path d="M 211.75 642.04 
L 211.75 25.44 
" style="fill: none; stroke: #000000; stroke-width: 0.8; stroke-linejoin: miter; stroke-linecap: square"/>
   </g>
   <g id="patch_4">
    <path d="M 703.112578 642.04 
L 703.112578 25.44 
" style="fill: none; stroke: #000000; stroke-width: 0.8; stroke-linejoin: miter; stroke-linecap: square"/>
   </g>
   <g id="patch_5">
    <path d="M 211.75 642.04 
L 703.112578 642.04 
" style="fill: none; stroke: #000000; stroke-width: 0.8; stroke-linejoin: miter; stroke-linecap: square"/>
   </g>
   <g id="patch_6">
    <path d="M 211.75 25.44 
L 703.112578 25.44 
" style="fill: none; stroke: #000000; stroke-width: 0.8; stroke-linejoin: miter; stroke-linecap: square"/>
   </g>
   <g id="text_25">
    <!-- Top-15 Largest Performance Jumps between Missingness Proportions (|ΔRMSE|) -->
    <g transform="translate(219.506914 19.44) scale(0.12 -0.12)">
     <defs>
      <path id="DejaVuSans-54" d="M -19 4666 
L 3928 4666 
L 3928 4134 
L 2272 4134 
L 2272 0 
L 1638 0 
L 1638 4134 
L -19 4134 
L -19 4666 
z
" transform="scale(0.015625)"/>
      <path id="DejaVuSans-2d" d="M 313 2009 
L 1997 2009 
L 1997 1497 
L 313 1497 
L 313 2009 
z
" transform="scale(0.015625)"/>
      <path id="DejaVuSans-4c" d="M 628 4666 
L 1259 4666 
L 1259 531 
L 3531 531 
L 3531 0 
L 628 0 
L 628 4666 
z
" transform="scale(0.015625)"/>
      <path id="DejaVuSans-50" d="M 1259 4147 
L 1259 2394 
L 2053 2394 
Q 2494 2394 2734 2622 
Q 2975 2850 2975 3272 
Q 2975 3691 2734 3919 
Q 2494 4147 2053 4147 
L 1259 4147 
z
M 628 4666 
L 2053 4666 
Q 2838 4666 3239 4311 
Q 3641 3956 3641 3272 
Q 3641 2581 3239 2228 
Q 2838 1875 2053 1875 
L 1259 1875 
L 1259 0 
L 628 0 
L 628 4666 
z
" transform="scale(0.015625)"/>
      <path id="DejaVuSans-4a" d="M 628 4666 
L 1259 4666 
L 1259 325 
Q 1259 -519 939 -900 
Q 619 -1281 -91 -1281 
L -331 -1281 
L -331 -750 
L -134 -750 
Q 284 -750 456 -515 
Q 628 -281 628 325 
L 628 4666 
z
" transform="scale(0.015625)"/>
      <path id="DejaVuSans-28" d="M 1984 4856 
Q 1566 4138 1362 3434 
Q 1159 2731 1159 2009 
Q 1159 1288 1364 580 
Q 1569 -128 1984 -844 
L 1484 -844 
Q 1016 -109 783 600 
Q 550 1309 550 2009 
Q 550 2706 781 3412 
Q 1013 4119 1484 4856 
L 1984 4856 
z
" transform="scale(0.015625)"/>
      <path id="DejaVuSans-7c" d="M 1344 4891 
L 1344 -1509 
L 813 -1509 
L 813 4891 
L 1344 4891 
z
" transform="scale(0.015625)"/>
      <path id="DejaVuSans-29" d="M 513 4856 
L 1013 4856 
Q 1481 4119 1714 3412 
Q 1947 2706 1947 2009 
Q 1947 1309 1714 600 
Q 1481 -109 1013 -844 
L 513 -844 
Q 928 -128 1133 580 
Q 1338 1288 1338 2009 
Q 1338 2731 1133 3434 
Q 928 4138 513 4856 
z
" transform="scale(0.015625)"/>
     </defs>
     <use xlink:href="#DejaVuSans-54"/>
     <use xlink:href="#DejaVuSans-6f" transform="translate(44.083984 0)"/>
     <use xlink:href="#DejaVuSans-70" transform="translate(105.265625 0)"/>
     <use xlink:href="#DejaVuSans-2d" transform="translate(168.742188 0)"/>
     <use xlink:href="#DejaVuSans-31" transform="translate(204.826172 0)"/>
     <use xlink:href="#DejaVuSans-35" transform="translate(268.449219 0)"/>
     <use xlink:href="#DejaVuSans-20" transform="translate(332.072266 0)"/>
     <use xlink:href="#DejaVuSans-4c" transform="translate(363.859375 0)"/>
     <use xlink:href="#DejaVuSans-61" transform="translate(419.572266 0)"/>
     <use xlink:href="#DejaVuSans-72" transform="translate(480.851562 0)"/>
     <use xlink:href="#DejaVuSans-67" transform="translate(520.214844 0)"/>
     <use xlink:href="#DejaVuSans-65" transform="translate(583.691406 0)"/>
     <use xlink:href="#DejaVuSans-73" transform="translate(645.214844 0)"/>
     <use xlink:href="#DejaVuSans-74" transform="translate(697.314453 0)"/>
     <use xlink:href="#DejaVuSans-20" transform="translate(736.523438 0)"/>
     <use xlink:href="#DejaVuSans-50" transform="translate(768.310547 0)"/>
     <use xlink:href="#DejaVuSans-65" transform="translate(824.988281 0)"/>
     <use xlink:href="#DejaVuSans-72" transform="translate(886.511719 0)"/>
     <use xlink:href="#DejaVuSans-66" transform="translate(927.625 0)"/>
     <use xlink:href="#DejaVuSans-6f" transform="translate(962.830078 0)"/>
     <use xlink:href="#DejaVuSans-72" transform="translate(1024.011719 0)"/>
     <use xlink:href="#DejaVuSans-6d" transform="translate(1063.375 0)"/>
     <use xlink:href="#DejaVuSans-61" transform="translate(1160.787109 0)"/>
     <use xlink:href="#DejaVuSans-6e" transform="translate(1222.066406 0)"/>
     <use xlink:href="#DejaVuSans-63" transform="translate(1285.445312 0)"/>
     <use xlink:href="#DejaVuSans-65" transform="translate(1340.425781 0)"/>
     <use xlink:href="#DejaVuSans-20" transform="translate(1401.949219 0)"/>
     <use xlink:href="#DejaVuSans-4a" transform="translate(1433.736328 0)"/>
     <use xlink:href="#DejaVuSans-75" transform="translate(1463.228516 0)"/>
     <use xlink:href="#DejaVuSans-6d" transform="translate(1526.607422 0)"/>
     <use xlink:href="#DejaVuSans-70" transform="translate(1624.019531 0)"/>
     <use xlink:href="#DejaVuSans-73" transform="translate(1687.496094 0)"/>
     <use xlink:href="#DejaVuSans-20" transform="translate(1739.595703 0)"/>
     <use xlink:href="#DejaVuSans-62" transform="translate(1771.382812 0)"/>
     <use xlink:href="#DejaVuSans-65" transform="translate(1834.859375 0)"/>
     <use xlink:href="#DejaVuSans-74" transform="translate(1896.382812 0)"/>
     <use xlink:href="#DejaVuSans-77" transform="translate(1935.591797 0)"/>
     <use xlink:href="#DejaVuSans-65" transform="translate(2017.378906 0)"/>
     <use xlink:href="#DejaVuSans-65" transform="translate(2078.902344 0)"/>
     <use xlink:href="#DejaVuSans-6e" transform="translate(2140.425781 0)"/>
     <use xlink:href="#DejaVuSans-20" transform="translate(2203.804688 0)"/>
     <use xlink:href="#DejaVuSans-4d" transform="translate(2235.591797 0)"/>
     <use xlink:href="#DejaVuSans-69" transform="translate(2321.871094 0)"/>
     <use xlink:href="#DejaVuSans-73" transform="translate(2349.654297 0)"/>
     <use xlink:href="#DejaVuSans-73" transform="translate(2401.753906 0)"/>
     <use xlink:href="#DejaVuSans-69" transform="translate(2453.853516 0)"/>
     <use xlink:href="#DejaVuSans-6e" transform="translate(2481.636719 0)"/>
     <use xlink:href="#DejaVuSans-67" transform="translate(2545.015625 0)"/>
     <use xlink:href="#DejaVuSans-6e" transform="translate(2608.492188 0)"/>
     <use xlink:href="#DejaVuSans-65" transform="translate(2671.871094 0)"/>
     <use xlink:href="#DejaVuSans-73" transform="translate(2733.394531 0)"/>
     <use xlink:href="#DejaVuSans-73" transform="translate(2785.494141 0)"/>
     <use xlink:href="#DejaVuSans-20" transform="translate(2837.59375 0)"/>
     <use xlink:href="#DejaVuSans-50" transform="translate(2869.380859 0)"/>
     <use xlink:href="#DejaVuSans-72" transform="translate(2927.933594 0)"/>
     <use xlink:href="#DejaVuSans-6f" transform="translate(2966.796875 0)"/>
     <use xlink:href="#DejaVuSans-70" transform="translate(3027.978516 0)"/>
     <use xlink:href="#DejaVuSans-6f" transform="translate(3091.455078 0)"/>
     <use xlink:href="#DejaVuSans-72" transform="translate(3152.636719 0)"/>
     <use xlink:href="#DejaVuSans-74" transform="translate(3193.75 0)"/>
     <use xlink:href="#DejaVuSans-69" transform="translate(3232.958984 0)"/>
     <use xlink:href="#DejaVuSans-6f" transform="translate(3260.742188 0)"/>
     <use xlink:href="#DejaVuSans-6e" transform="translate(3321.923828 0)"/>
     <use xlink:href="#DejaVuSans-73" transform="translate(3385.302734 0)"/>
     <use xlink:href="#DejaVuSans-20" transform="translate(3437.402344 0)"/>
     <use xlink:href="#DejaVuSans-28" transform="translate(3469.189453 0)"/>
     <use xlink:href="#DejaVuSans-7c" transform="translate(3508.203125 0)"/>
     <use xlink:href="#DejaVuSans-394" transform="translate(3541.894531 0)"/>
     <use xlink:href="#DejaVuSans-52" transform="translate(3610.302734 0)"/>
     <use xlink:href="#DejaVuSans-4d" transform="translate(3679.785156 0)"/>
     <use xlink:href="#DejaVuSans-53" transform="translate(3766.064453 0)"/>
     <use xlink:href="#DejaVuSans-45" transform="translate(3829.541016 0)"/>
     <use xlink:href="#DejaVuSans-7c" transform="translate(3892.724609 0)"/>
     <use xlink:href="#DejaVuSans-29" transform="translate(3926.416016 0)"/>
    </g>
   </g>
  </g>
 </g>
 <defs>
  <clipPath id="pcce018ca6b">
   <rect x="211.75" y="25.44" width="491.362578" height="616.6"/>
  </clipPath>
 </defs>
</svg>
